<?xml version="1.0" standalone="no"?>
<!DOCTYPE svg PUBLIC "-//W3C//DTD SVG 1.1//EN" "http://www.w3.org/Graphics/SVG/1.1/DTD/svg11.dtd">
<svg xmlns="http://www.w3.org/2000/svg"><metadata>This SVG WebFont was generated by YouWorkForThem.
Copyright 2010 URW++ Design &amp; Development</metadata><defs><font horiz-adv-x="1024" id="ywftsvg"><font-face ascent="1421" bbox="-328 -563 1937 1823" cap-height="1366" descent="-627" font-family="" font-stretch="normal" font-weight="400" panose-1="0 0 5 0 0 0 0 0 0 0" underline-position="0" underline-thickness="0" unicode-range="U+0020-FB04" units-per-em="2048" x-height="850"/><missing-glyph horiz-adv-x="512"/><glyph d="M938 850h184v-64h-184v-561q0 -88 31.5 -126t105.5 -38h41v-61h-485v61q76 2 106.5 38t30.5 126v561h-393v-561q0 -88 29.5 -123.5t107.5 -40.5v-61h-444v61q76 2 106.5 38t30.5 126v561h-144v64h144v104q0 209 80 316q92 116 256 116t311 -108q100 109 250 108 q84 0 137 -39t53 -89t-23.5 -74.5t-58 -24.5t-57.5 25.5t-23 64.5t-12 53.5t-45 14.5q-63 -1 -99 -55t-36 -162v-250zM768 850v121q0 121 29 209q-88 141 -226 141q-197 0 -196 -264v-207h393z" glyph-name="uniFB00" horiz-adv-x="1187" unicode="ff"/><glyph d="M375 786v-559q0 -90 29.5 -125.5t107.5 -40.5v-61h-444v61q76 2 106.5 39t30.5 127v559h-144v64h144v108q0 184 59 281q88 147 305 147q145 0 252 -70.5t107 -166.5q0 -47 -27 -77t-72 -30q-84 0 -94 111q-14 168 -170 168q-190 0 -190 -240v-231h393q90 0 172 12v-635 q0 -90 29.5 -127t105.5 -39v-61h-442v61q76 2 106.5 39t30.5 127v373q0 113 -35 149.5t-141 36.5h-219z" glyph-name="uniFB01" horiz-adv-x="1124" unicode="fi"/><glyph d="M940 227q0 -90 29.5 -127t105.5 -39v-61h-442v61q76 2 106.5 39t30.5 127v883q0 115 -45 163t-160 48t-157 -78q-31 -55 -31 -188v-205h182v-64h-184v-559q0 -88 30.5 -124.5t106.5 -41.5v-61h-444v61q76 2 106.5 39t30.5 127v559h-144v64h144v100q0 207 69 305 q92 131 271 131l168 -10q53 0 227 45v-1194z" glyph-name="uniFB02" horiz-adv-x="1124" unicode="fl"/><glyph d="M938 850h393q90 0 172 12v-635q0 -90 30 -127t105 -39v-61h-442v61q76 2 106.5 39t30.5 127v373q0 113 -34.5 149.5t-141.5 36.5h-219v-559q0 -90 29.5 -125.5t107.5 -40.5v-61h-444v61q76 2 106.5 39t30.5 127v559h-393v-559q0 -90 29.5 -125.5t107.5 -40.5v-61h-444v61 q76 2 106.5 39t30.5 127v559h-144v64h144v104q0 209 80 316q92 116 253 116t316 -108q96 108 260 108t270.5 -70.5t106.5 -166.5q0 -47 -26.5 -77t-71.5 -30q-86 0 -95 111q-14 168 -170 168q-190 0 -190 -240v-231zM768 850v108q0 141 29 222q-88 141 -226 141 q-197 0 -196 -264v-207h393z" glyph-name="uniFB03" horiz-adv-x="1687" unicode="ffi"/><glyph d="M1503 227q0 -90 30 -127t105 -39v-61h-442v61q76 2 106.5 39t30.5 127v883q0 115 -44.5 163t-158.5 48t-157 -78q-33 -57 -33 -188v-205h182v-64h-184v-559q0 -88 30.5 -124.5t106.5 -41.5v-61h-444v61q76 2 106.5 39t30.5 127v559h-393v-559q0 -90 29.5 -125.5 t107.5 -40.5v-61h-444v61q76 2 106.5 39t30.5 127v559h-144v64h144v104q0 209 80 316q92 116 257 116t312 -108q100 109 254 108l168 -10q53 0 227 45v-1194zM768 850v100q0 141 29 228q-86 143 -226 143q-197 0 -196 -264v-207h393z" glyph-name="uniFB04" horiz-adv-x="1687" unicode="ffl"/><glyph glyph-name=".notdef" horiz-adv-x="512"/><glyph glyph-name="glyph1" horiz-adv-x="0"/><glyph glyph-name="glyph2" horiz-adv-x="681"/><glyph glyph-name="space" horiz-adv-x="512" unicode=" "/><glyph d="M137 1116q0 121 32 203t85 82t85 -81t32 -208t-37 -342t-43 -401h-74q-6 172 -43 399t-37 348zM253 201q48 0 81 -33t33 -81t-33 -81t-81 -33t-81 33t-33 81t33 81t81 33z" glyph-name="exclam" horiz-adv-x="505" unicode="!"/><glyph d="M109 1305q0 39 25.5 63.5t64.5 24.5t63.5 -25t24.5 -63q0 -4 -4 -60l-39 -407h-92l-41 407q-2 53 -2 60zM410 1320q0 24 24.5 48.5t63.5 24.5t63.5 -24.5t24.5 -56.5t-2 -67l-41 -407h-92l-39 407q-2 51 -2 75z" glyph-name="quotedbl" horiz-adv-x="696" unicode="&quot;"/><glyph d="M444 930h263l86 401h86l-86 -401h192l-22 -109h-193l-61 -284h192l-22 -109h-193l-90 -428h-88l92 428h-262l-92 -428h-86l90 428h-207l23 109h206l62 284h-207l23 109h206l86 401h88zM422 821l-62 -284h263l61 284h-262z" glyph-name="numbersign" unicode="#"/><glyph d="M946 381q0 -209 -190 -322q-102 -59 -199 -59v-221h-74v221q-193 10 -327 139q-90 86 -90 148q0 35 25.5 60.5t59.5 25.5t58 -27t53 -94q59 -156 221 -178v540q-10 4 -86 41q-152 70 -204 125q-84 92 -84 242t99 247t275 107v205h74v-205q184 -23 285 -131 q72 -77 72 -155t-76 -78q-36 0 -54 26t-30 90q-33 154 -197 181v-518q203 -90 264 -146q125 -111 125 -264zM242 1094q0 -123 123 -203q36 -27 124 -70v488q-111 -4 -179 -64.5t-68 -150.5zM817 335q0 102 -121 177q-25 17 -131 70v-508q104 10 178 84.5t74 176.5z" glyph-name="dollar" unicode="$"/><glyph d="M262.5 1362q104.5 0 170 -97t65.5 -251t-66 -249t-170 -95t-169.5 97t-65.5 250t65.5 249t170 96zM262.5 1329q-59.5 0 -94.5 -83t-35 -227t34 -228t93 -84t94 81.5t35 227.5t-33.5 229.5t-93 83.5zM969 1366l-756 -1366h-72l756 1366h72zM847.5 680q104.5 0 170 -96.5 t65.5 -250t-65.5 -248.5t-169.5 -95t-170 97t-66 248.5t65.5 248t170 96.5zM847.5 647q-59.5 0 -94 -83t-34.5 -226t33.5 -227t93 -84t94.5 81.5t35 227t-34 228.5t-93.5 83z" glyph-name="percent" horiz-adv-x="1112" unicode="%"/><glyph d="M862 809h424v-55q-82 -16 -130 -65.5t-95 -168.5q-76 -168 -127 -221q158 -207 278 -207q43 0 90.5 25.5t77.5 64.5l39 -53q-39 -68 -111.5 -110t-159.5 -42t-163 43t-154 144q-100 -104 -178 -145.5t-174 -41.5q-152 0 -261 109t-109 258q0 242 315 410 q-76 113 -100.5 171t-24.5 124q0 102 81 171.5t203 69.5t201.5 -59.5t79.5 -157.5t-94 -180q-35 -33 -94 -67t-78 -50q113 -168 297 -422q49 59 86 146.5t37 144.5q0 109 -156 109v55zM741 1059q0 68 -45 114t-108 46t-107.5 -39.5t-44.5 -89.5t18.5 -88.5t90.5 -147.5 l16 -25q180 111 180 230zM274 422q0 -125 91 -221.5t211 -96.5t219 107q-115 149 -336 489q-104 -74 -144.5 -134t-40.5 -144z" glyph-name="ampersand" horiz-adv-x="1392" unicode="&amp;"/><glyph d="M109 1305q0 39 25.5 63.5t64.5 24.5t63.5 -25t24.5 -63q0 -4 -4 -60l-39 -407h-92l-41 407q-2 53 -2 60z" glyph-name="quotesingle" horiz-adv-x="395" unicode="'"/><glyph d="M78 469q0 254 75.5 510t211.5 455h133q-272 -418 -272 -965t272 -965h-133q-135 199 -211 455t-76 510z" glyph-name="parenleft" horiz-adv-x="559" unicode="("/><glyph d="M481 469q0 -254 -75.5 -510t-210.5 -455h-134q272 420 272.5 965t-272.5 965h134q135 -199 210.5 -455t75.5 -510z" glyph-name="parenright" horiz-adv-x="559" unicode=")"/><glyph d="M756 1210q37 0 59.5 -27.5t22.5 -71.5t-39 -60.5t-139 -19.5t-125 -15q25 -36 113 -102t87 -106q0 -40 -29.5 -66.5t-65.5 -26.5t-58.5 32.5t-54.5 120.5t-50 107q-25 -31 -65 -145t-97 -115q-37 0 -66.5 26.5t-29.5 57.5t25.5 59.5t107.5 89.5q59 51 68 68 q-34 14 -132 16t-133.5 21.5t-35.5 60.5t22.5 68.5t60.5 27.5t156 -84q59 -37 84 -43q0 43 -24 123t-24 119t22 60.5t61 21.5t61.5 -21.5t22.5 -59.5q-1 -38 -25 -122t-24 -121q41 11 124 69t120 58z" glyph-name="asterisk" horiz-adv-x="956" unicode="*"/><glyph d="M47 625v88h420v399h88v-399h420v-88h-420v-400h-88v400h-420z" glyph-name="plus" unicode="+"/><glyph d="M293 -82q0 33 -17 82q-30 -6 -66 -6t-68.5 31t-32.5 81t33.5 82.5t95.5 32.5t112.5 -67.5t50.5 -171.5t-77.5 -202.5t-192.5 -133.5v37q162 115 162 235z" glyph-name="comma" horiz-adv-x="497" unicode=","/><glyph d="M436 494v-101h-436v101h436z" glyph-name="hyphen" horiz-adv-x="436" unicode="-"/><glyph d="M222 201q48 0 81 -33t33 -81t-33 -81t-81 -33t-80.5 33t-32.5 81t32.5 81t80.5 33z" glyph-name="period" horiz-adv-x="446" unicode="."/><glyph d="M659 1434l-682 -1930h-100l682 1930h100z" glyph-name="slash" horiz-adv-x="688" unicode="/"/><glyph d="M76 681q0 297 124 489t320 192t326 -227q104 -182 104 -477t-125 -488t-321 -193t-324 228q-104 180 -104 476zM512 1319q-119 0 -186.5 -171t-67.5 -472t67.5 -474t186.5 -173t186.5 170t67.5 474t-67.5 475t-186.5 171z" glyph-name="zero" unicode="0"/><glyph d="M444 1163h-170v60q152 0 324 129q4 4 10 4t6 -10v-1121q0 -92 34 -131t116 -39h35v-55h-547v55h47q84 0 115 39t30 131v938z" glyph-name="one" unicode="1"/><glyph d="M731 1034q0 123 -72.5 203t-180.5 80t-182.5 -73t-74.5 -177q0 -68 35 -125t86 -78q-8 -20 -33.5 -35.5t-52.5 -15.5q-63 0 -103 58.5t-40 148.5q0 150 107.5 246t279.5 96t287.5 -111t115.5 -265t-70.5 -283.5t-226.5 -278.5q-86 -84 -336 -274h486q51 0 75 25t70 132 h47l-78 -307h-794l18 84q326 270 481.5 501.5t155.5 448.5z" glyph-name="two" unicode="2"/><glyph d="M522 739q164 69 164 292q0 118 -65.5 205t-157.5 87t-143.5 -45t-51.5 -123t62 -139q-20 -16 -66 -16t-82.5 36.5t-36.5 89.5q0 98 96.5 167t246.5 69t257 -98.5t107 -243.5q0 -113 -65.5 -194t-178.5 -103q102 -19 196 -113t95 -254q0 -160 -130 -269.5t-337 -109.5 q-158 0 -259 73t-101 186q0 61 41 106t96 45h16q-27 -61 -26 -111q0 -100 72.5 -168.5t186.5 -68.5t185.5 87.5t71.5 253.5t-97 257q-47 41 -112 41q-18 0 -60 -30t-74 -30t-55.5 23t-23.5 51q0 55 139 56q57 0 90 -9z" glyph-name="three" unicode="3"/><glyph d="M717 334v-144q0 -135 106 -135h39v-55h-463v55h29q68 0 95.5 31t27.5 104v144h-496l633 1005q8 16 17 17q12 0 12 -17v-931h78q51 0 77.5 22.5t47.5 79.5h51l-51 -176h-203zM551 408v628l-381 -628h381z" glyph-name="four" unicode="4"/><glyph d="M532 846q142 0 247.5 -107.5t105.5 -269.5q0 -203 -148.5 -347.5t-357.5 -144.5q-139 0 -235.5 70t-96.5 172q0 51 25.5 83t68.5 32t66 -47q10 -25 12 -100t44 -115.5t112 -40.5q139 0 230 125.5t91 293.5t-58 252t-159 84q-53 0 -110.5 -38t-57.5 -91q0 -20 -14.5 -34.5 t-30.5 -14.5t-25.5 10.5t-7.5 20.5v2l80 698l99 -6q141 -12 260 -12t141.5 5.5t56.5 39.5h54q-100 -129 -153.5 -166t-139.5 -37q-27 0 -162 4l-113 4l-43 -397q77 72 219 72z" glyph-name="five" unicode="5"/><glyph d="M546 872q165 0 276.5 -120.5t111.5 -317.5t-114.5 -327t-303.5 -130t-306.5 157t-117.5 419q0 199 68.5 388t177.5 288q143 133 340 133q102 0 162.5 -34t60.5 -91q0 -33 -19.5 -54.5t-50.5 -21.5q-53 0 -94 80t-111 80t-134 -49t-103 -125q-92 -178 -102 -375 q94 100 259 100zM517 831q-118 0 -181 -102q-64 -103 -64 -283t67 -297.5t181 -117.5t178 107.5t64 294.5t-63.5 292.5t-181.5 105.5z" glyph-name="six" unicode="6"/><glyph d="M315 -23q-90 0 -90 80q0 39 33 99l563 1007h-418q-182 0 -221 -184h-57l57 387h47q0 -33 17.5 -45t58.5 -12h621l-492 -1211q-29 -72 -53.5 -96.5t-65.5 -24.5z" glyph-name="seven" unicode="7"/><glyph d="M965 373q0 -170 -131.5 -283t-324.5 -113t-321.5 112t-128.5 278q0 229 242 338q-55 18 -82 38q-59 43 -94 115t-35 150q0 154 122 254t301 100t297 -100.5t118 -247.5q0 -193 -207 -285q244 -98 244 -356zM766 1016q0 135 -70.5 218t-185.5 83t-187.5 -75t-72.5 -174 t38 -149t122 -81l202 -72q86 40 120 102t34 148zM504 37q121 0 204 91t83 224q-1 189 -185 248l-196 66q-92 -51 -136 -114t-44 -196t76.5 -226t197.5 -93z" glyph-name="eight" unicode="8"/><glyph d="M484 463q-163 0 -278.5 120.5t-115.5 308.5t126 329t309 141t301 -166t118 -434q0 -340 -163 -562.5t-412 -222.5q-123 0 -206 60.5t-83 148.5q0 39 23.5 64.5t58.5 25.5q57 0 74 -71q14 -78 61 -124t113 -46t132 45t105 119q92 167 92 362q-92 -98 -255 -98zM515 1325 q-112 0 -178.5 -109.5t-66.5 -301.5t62.5 -301t175.5 -109t179.5 99t66.5 289t-63.5 311.5t-175.5 121.5z" glyph-name="nine" unicode="9"/><glyph d="M222 201q48 0 81 -33t33 -81t-33 -81t-81 -33t-80.5 33t-32.5 81t32.5 81t80.5 33zM222 872q48 0 81 -32.5t33 -80.5t-33 -81t-81 -33t-80.5 33t-32.5 81t32.5 80.5t80.5 32.5z" glyph-name="colon" horiz-adv-x="446" unicode=":"/><glyph d="M293 -82q0 33 -17 82q-30 -6 -66 -6t-68.5 31t-32.5 81t33.5 82.5t95.5 32.5t112.5 -67.5t50.5 -171.5t-77.5 -202.5t-192.5 -133.5v37q162 115 162 235zM255 872q48 0 81 -32.5t33 -80.5t-33 -81t-81 -33t-81 33t-33 81t33 80.5t81 32.5z" glyph-name="semicolon" horiz-adv-x="497" unicode=";"/><glyph d="M926 1219v-115l-656 -414l656 -416v-114l-834 528z" glyph-name="less" unicode="&lt;"/><glyph d="M47 776v88h928v-88h-928zM47 475v88h928v-88h-928z" glyph-name="equal" unicode="="/><glyph d="M98 160v114l656 416l-656 414v115l834 -529z" glyph-name="greater" unicode=">"/><glyph d="M346 369h-78v458h43q35 -43 58.5 -59t54.5 -16q66 0 106.5 75.5t40.5 207.5t-55 214t-151 82q-45 0 -82 -27.5t-52 -74.5q-14 -55 -71 -55q-29 0 -46.5 18t-17.5 49q0 63 82 111.5t189 48.5q162 0 271.5 -112.5t109.5 -264.5t-83 -253t-198 -101q-68 0 -121 37v-338z M306 201q48 0 81 -33t33 -81t-33 -81t-81 -33t-80.5 33t-32.5 81t32.5 81t80.5 33z" glyph-name="question" horiz-adv-x="815" unicode="?"/><glyph d="M967 437q0 -36 20.5 -57.5t54.5 -21.5q117 0 206 130t89 300q0 236 -162.5 391.5t-419.5 155.5t-439.5 -188.5t-182.5 -470.5t184.5 -461.5t479.5 -179.5q209 0 436 104l31 -63q-233 -106 -467 -107q-334 0 -545 199t-211 508t208 515t502 206t483 -174t189 -432 q0 -205 -118.5 -343.5t-286.5 -138.5t-180 144q-57 -78 -107.5 -109t-140.5 -31t-148.5 66.5t-58.5 185.5q0 188 113.5 323.5t271.5 135.5q66 0 103.5 -22.5t64.5 -75.5l18 84h133l-108 -484q-12 -53 -12 -89zM788 977q-96 0 -153 -100q-100 -170 -100 -369q0 -70 24.5 -109 t67.5 -39q98 0 186 152t88 322q0 68 -30 105.5t-83 37.5z" glyph-name="at" horiz-adv-x="1464" unicode="@"/><glyph d="M1481 0h-563v63h45q119 0 118 64q0 29 -18 72l-111 262h-544l-107 -262q-14 -35 -14 -69t30.5 -50.5t114.5 -16.5h25v-63h-471v63q98 2 145 32t76 104l491 1190h74l518 -1190q49 -127 191 -136v-63zM911 549l-176 434q-28 69 -39 109l-10 26l-8 29q-4 -14 -16 -51 l-222 -547h471z" glyph-name="A" horiz-adv-x="1468" unicode="A"/><glyph d="M68 1366h661q168 0 266.5 -84t98.5 -223q0 -266 -365 -322q143 -2 262 -69q176 -96 176 -301q0 -160 -113.5 -263.5t-289.5 -103.5h-696v63q131 6 167.5 36t36.5 128v912q0 98 -37.5 127.5t-166.5 36.5v63zM477 698v-471q0 -84 44 -118.5t155 -34.5q260 0 260 332 q0 154 -82 223t-264 69h-113zM477 764h109q283 0 282 270q0 139 -54 201.5t-173 62.5h-164v-534z" glyph-name="B" horiz-adv-x="1277" unicode="B"/><glyph d="M793 1329q-221 0 -348.5 -171t-127.5 -462t136.5 -460.5t368.5 -169.5t403 188q66 72 96 147l74 -57q-39 -92 -121 -174q-207 -207 -509 -207t-492.5 196.5t-190.5 513.5t196.5 522.5t501.5 205.5q229 0 439 -139q23 31 45 104h57l18 -494h-63q-117 457 -483 457z" glyph-name="C" horiz-adv-x="1456" unicode="C"/><glyph d="M68 1366q604 0 719.5 -5t203.5 -36q211 -74 331 -247t120 -404q0 -305 -186.5 -489.5t-493.5 -184.5h-694v63q129 6 166.5 36t37.5 128v912q0 98 -37.5 129t-166.5 35v63zM477 297q0 -129 25 -166q35 -59 225 -59q248 0 363 174q110 176 110 431t-108 419 q-135 205 -455 204l-160 -4v-999z" glyph-name="D" horiz-adv-x="1525" unicode="D"/><glyph d="M774 1296h-297v-536h129q94 0 140.5 46t50.5 144h63v-463h-63q-6 115 -46 158t-145 43h-129v-438q0 -104 50.5 -142t186.5 -38t208.5 21.5t117.5 72.5t79 126t38 132h60l-25 -422h-1124v63q131 6 167.5 36t36.5 128v912q0 98 -36.5 127.5t-167.5 36.5v63h1009l37 -334 h-65q-19 98 -61 158t-89 83t-125 23z" glyph-name="E" horiz-adv-x="1298" unicode="E"/><glyph d="M852 948v-465h-64q-2 102 -28 142q-43 63 -146 63h-141v-461q0 -98 38 -127.5t167 -36.5v-63h-610v63q131 6 167.5 36t36.5 128v912q0 98 -37.5 128.5t-166.5 37.5v61h1001l35 -332h-62q-45 150 -104 208t-168 58h-297v-542h152q164 0 163 190h64z" glyph-name="F" horiz-adv-x="1173" unicode="F"/><glyph d="M899 594h594v-64h-31q-78 0 -113.5 -30.5t-35.5 -98.5v-303q-104 -12 -223 -57q-190 -76 -340 -76q-291 0 -479.5 193.5t-188.5 492.5q0 160 60.5 309.5t157.5 243.5t224 145.5t248 51.5t233.5 -37t192.5 -98q29 45 45 100h57l13 -467h-70q-18 121 -84 229 q-131 209 -363 209t-354.5 -172t-122.5 -473t123 -474t336 -173q117 0 223.5 55.5t106.5 114.5v152q0 66 -12.5 115.5t-147.5 47.5h-49v64z" glyph-name="G" horiz-adv-x="1548" unicode="G"/><glyph d="M1157 678h-680v-451q0 -98 37 -127.5t168 -36.5v-63h-614v63q131 6 167.5 36t36.5 128v912q0 98 -37.5 127.5t-166.5 36.5v63h614v-63q-129 -6 -167 -36t-38 -128v-373h680v373q0 98 -38 127.5t-167 36.5v63h615v-63q-129 -6 -167 -36t-38 -128v-912q0 -98 37 -127.5 t168 -36.5v-63h-615v63q131 6 168 36t37 128v451z" glyph-name="H" horiz-adv-x="1634" unicode="H"/><glyph d="M682 0h-614v63q131 6 167.5 36t36.5 128v912q0 98 -37.5 128.5t-166.5 35.5v63h614v-63q-129 -4 -167 -35t-38 -129v-912q0 -98 37 -127.5t168 -36.5v-63z" glyph-name="I" horiz-adv-x="751" unicode="I"/><glyph d="M137 1366h615v-63q-129 -4 -167 -35t-38 -129v-1127q0 -141 -18.5 -221t-65.5 -145q-145 -197 -412 -197q-137 0 -224 51t-87 133q0 43 31.5 75t74.5 32t70 -28.5t27 -61.5q-1 -34 -7 -52t-6 -24q0 -57 119 -57q293 0 293 358v1264q0 98 -38 129t-167 35v63z" glyph-name="J" horiz-adv-x="804" unicode="J"/><glyph d="M1511 0h-598v63q94 6 118 12.5t24 27t-29 61.5l-410 549l-139 -127v-359q0 -98 37 -127.5t168 -36.5v-63h-614v63q131 6 167.5 36t36.5 128v912q0 98 -37.5 128.5t-166.5 35.5v63h614v-63q-129 -4 -167 -35t-38 -129v-443l481 443q59 53 60 96q0 61 -123 70q-10 0 -18 2 v59h536v-59q-84 0 -145.5 -26t-132.5 -91l-369 -340l522 -686q33 -51 82 -73.5t141 -27.5v-63z" glyph-name="K" horiz-adv-x="1484" unicode="K"/><glyph d="M68 0v63q131 6 167.5 36t36.5 128v912q0 98 -36.5 127.5t-167.5 36.5v63h614v-63q-129 -6 -167 -36t-38 -128v-889q0 -104 50.5 -142t185.5 -38t207.5 20.5t118.5 72.5t80 128t38 131h60l-27 -422h-1122z" glyph-name="L" horiz-adv-x="1271" unicode="L"/><glyph d="M342 371q0 -123 8 -174.5t33 -77.5q41 -47 162 -56v-63h-490v63q166 4 185.5 81t19.5 178v790q0 121 -33.5 152.5t-171.5 38.5v63h426l314 -745q106 -270 131 -357q12 37 16 47l434 1055h424v-63q-129 -4 -167 -35t-38 -129v-912q0 -92 27 -121q39 -43 158 -43h20v-63 h-614v63q94 4 123.5 12.5t52.5 35.5q29 39 29 153v688q0 147 12 287q-12 -49 -60 -172l-442 -1067h-65l-404 973q-41 101 -61 159t-29 80v-841z" glyph-name="M" horiz-adv-x="1867" unicode="M"/><glyph d="M1217 1098q0 109 -35 150.5t-135 51.5l-19 3v63h471v-63q-106 -2 -151 -48.5t-45 -156.5v-1110h-86l-730 1016q-61 82 -133 204v-868q0 -166 38 -217t165 -60v-63h-489v63q115 4 159.5 53.5t44.5 168.5v854q0 98 -37.5 128.5t-166.5 35.5v63h407l668 -924q31 -43 76 -141 v39l-2 45v713z" glyph-name="N" horiz-adv-x="1562" unicode="N"/><glyph d="M806.5 1401q317.5 0 522.5 -201t205 -517t-207 -517t-523 -201t-519 204t-203 516t203.5 514t521 202zM806.5 1335q-235.5 0 -362.5 -168t-127 -480t126 -481t363 -169t363.5 166t126.5 481t-127 483t-362.5 168z" glyph-name="O" horiz-adv-x="1615" unicode="O"/><glyph d="M477 649v-422q0 -98 37 -127.5t168 -36.5v-63h-614v63q131 6 167.5 36t36.5 128v912q0 98 -37.5 127.5t-166.5 36.5v63h481q201 0 264.5 -6t122.5 -31q203 -88 203 -310t-172 -319q-94 -51 -291 -51h-199zM477 713h158q135 0 209 78.5t74 239.5t-97 229q-70 49 -215 49 q-14 0 -129 -4v-592z" glyph-name="P" horiz-adv-x="1206" unicode="P"/><glyph d="M82 680q0 317 203.5 519t524.5 202t523.5 -198.5t202.5 -514.5q0 -217 -101.5 -385t-289.5 -264q-91 -45 -251 -105t-253 -98q63 6 147 6q175 0 445 -123q172 -78 257 -105.5t159 -27.5q176 0 237 172q6 20 19 21q18 0 18 -21q0 -115 -132 -218t-275 -103 q-86 0 -172.5 37t-263.5 145t-264 145t-163 37t-136 -39q-61 -38 -75 -38t-26.5 15t-12.5 35t27 29q268 103 379 166q-109 0 -172.5 12.5t-144.5 49.5q-195 86 -302.5 256t-107.5 393zM807 1335q-229 0 -358 -165q-129 -164 -129 -482q-1 -480 187.5 -565.5t302.5 -85.5 t301 85.5t187 565.5q0 336 -135 498q-127 149 -356 149z" glyph-name="Q" horiz-adv-x="1611" unicode="Q"/><glyph d="M477 645v-418q0 -98 37 -127.5t168 -36.5v-63h-614v63q131 6 167.5 36t36.5 128v912q0 98 -37.5 128.5t-166.5 37.5v61h581q254 0 379 -94t125 -246t-110.5 -250t-274.5 -102q125 -20 182.5 -70t183.5 -230t165.5 -229t69.5 -65.5t85 -16.5h16v-63h-309q-82 68 -206 280 t-199 298q-61 68 -164 67h-115zM477 713h178q125 0 189 53q86 70 86 242q0 295 -305 295h-148v-590z" glyph-name="R" horiz-adv-x="1423" unicode="R"/><glyph d="M915 1380v-368h-61q-25 131 -72 194t-116.5 97t-156.5 34t-151.5 -54t-64.5 -140t66.5 -148.5t242.5 -152.5t212 -110.5t77 -59.5q111 -98 111 -282t-114 -305q-114 -120 -306.5 -120t-364.5 152q-39 -84 -45 -117h-63v430h63q23 -162 134.5 -270.5t247.5 -108.5 t216 68.5t80 178.5t-69.5 176.5t-275.5 168.5t-265 158q-104 98 -104 250t108 250t284 98t295 -101q14 25 43 82h49z" glyph-name="S" horiz-adv-x="1097" unicode="S"/><glyph d="M1024 0h-610v63q131 6 167.5 36t36.5 128v1073h-229q-111 0 -169 -57t-105 -209h-60l35 332h1258l34 -332h-59q-47 154 -105.5 210t-168.5 56h-230v-1073q0 -98 37 -127.5t168 -36.5v-63z" glyph-name="T" horiz-adv-x="1437" unicode="T"/><glyph d="M938 1366h494v-63q-133 -10 -170 -41t-37 -138v-657q0 -272 -105.5 -387t-357.5 -115q-429 0 -465.5 174t-36.5 318v682q0 98 -38 128.5t-167 35.5v63h615v-63q-129 -4 -167 -35t-38 -129v-658q0 -215 35 -289t115.5 -114.5t189.5 -40.5q231 0 303 172q35 84 35 272v643 q0 104 -37 136t-168 43v63z" glyph-name="U" horiz-adv-x="1470" unicode="U"/><glyph d="M-14 1366h563v-63h-45q-119 0 -119 -64q0 -29 18 -74l328 -782q31 -74 57 -160q8 20 17 47l358 889q19 49 19 80q1 64 -148 64h-24v63h471v-63q-106 -8 -147.5 -34t-73.5 -104l-492 -1188h-74l-518 1188q-25 70 -69 101.5t-121 36.5v63z" glyph-name="V" horiz-adv-x="1468" unicode="V"/><glyph d="M1468 1366h469v-63q-94 0 -142 -31t-71 -103l-350 -1192h-74l-360 1037l-319 -1037h-84l-363 1192q-35 131 -188 134v63h551v-63h-31q-127 0 -127 -70q0 -14 12 -57l197 -691q16 -63 47 -198l332 1079h63l270 -786q76 -231 89 -293q8 51 47 184l194 659q18 62 18 100 t-35 54q-36 16 -145 19v63z" glyph-name="W" horiz-adv-x="1925" unicode="W"/><glyph d="M1468 0h-596v63h41q106 0 107 56q0 20 -27 61l-286 424l-324 -424q-25 -31 -25 -57q0 -51 164 -60v-63h-508v63q186 0 279 117l371 494l-357 514q-47 66 -94 89t-139 26v63h590v-63h-37q-102 0 -103 -46q0 -27 29 -69l235 -344l254 334q33 41 33 69.5t-35.5 40.5 t-126.5 15v63h504v-63q-111 -6 -169 -31t-103 -84l-307 -414l399 -594q72 -106 231 -117v-63z" glyph-name="X" horiz-adv-x="1480" unicode="X"/><glyph d="M772 227q0 -98 38 -127.5t167 -36.5v-63h-610v63q131 6 167.5 36t36.5 128v381l-374 584q-39 61 -85 84.5t-126 26.5v63h585v-63h-51q-98 0 -98 -52q0 -27 18 -59l293 -504l301 498q23 37 23 61q0 33 -45 43q-29 8 -144 13v63h490v-63q-88 -2 -144.5 -33t-97.5 -99 l-344 -563v-381z" glyph-name="Y" horiz-adv-x="1343" unicode="Y"/><glyph d="M61 0v33l865 1257h-443q-115 0 -186.5 -63.5t-108.5 -198.5h-67l39 338h1038v-29l-864 -1259h506q131 0 204.5 65.5t118.5 221.5h66l-31 -365h-1137z" glyph-name="Z" horiz-adv-x="1310" unicode="Z"/><glyph d="M152 1434h348v-68h-195v-1794h195v-68h-348v1930z" glyph-name="bracketleft" horiz-adv-x="559" unicode="["/><glyph d="M31 1434h100l682 -1930h-100z" glyph-name="backslash" horiz-adv-x="688" unicode="\"/><glyph d="M410 1434v-1930h-349v68h195v1794h-195v68h349z" glyph-name="bracketright" horiz-adv-x="559" unicode="]"/><glyph d="M104 850l392 610h14l410 -610h-166l-277 416l-272 -416h-101z" glyph-name="asciicircum" unicode="^"/><glyph d="M0 -291v88h1024v-88h-1024z" glyph-name="underscore" unicode="_"/><glyph d="M594 973q0 -17 -22 -17t-33 13l-240 239q-8 8 -8 18q0 18 28 17h144l129 -256q2 -4 2 -14z" glyph-name="grave" unicode="`"/><glyph d="M766 166q0 -92 55 -92t86 106h62q-49 -203 -205 -203q-150 0 -168 146q-53 -63 -136 -103t-169 -40t-140.5 57t-54.5 153t37 149.5t111 85.5t192 57q117 25 160 44v70q0 117 -23 156q-37 59 -137 59q-61 0 -93 -27.5t-46 -91.5q-16 -84 -90 -84q-41 0 -67.5 18.5 t-26.5 47.5q0 57 61 112q92 86 264 86t262 -73q41 -37 53.5 -73t12.5 -112v-448zM403 98q97 0 193 82v287q-45 -20 -187 -62t-143 -167q0 -59 39 -99.5t98 -40.5z" glyph-name="a" horiz-adv-x="956" unicode="a"/><glyph d="M1018 429q0 -200 -120 -326t-312 -126q-141 0 -291 97q-35 -25 -64 -86l-73 12v1137q0 88 -32 124.5t-106 41.5v61q156 20 308 57v-669q98 120 282 120t296 -121.5t112 -321.5zM571 59q123 0 193 95.5t70 263.5q0 365 -256 364q-189 0 -250 -147v-420q96 -156 243 -156z " glyph-name="b" horiz-adv-x="1093" unicode="b"/><glyph d="M76 415q0 198 120.5 327.5t313.5 129.5q111 0 199 -51t88 -116q0 -33 -22.5 -54.5t-59.5 -21.5t-70 26q-6 78 -39 112t-104 34q-106 0 -171 -93.5t-65 -261.5t76 -275.5t214 -107.5t220 158l62 -20q-82 -223 -344 -224q-186 0 -302 120t-116 318z" glyph-name="c" horiz-adv-x="878" unicode="c"/><glyph d="M766 1137q0 88 -32 124.5t-105 41.5v61q156 20 307 57v-1194q0 -84 32.5 -122.5t106.5 -41.5v-63q-123 0 -250 -12q-23 51 -26 86q-147 -96 -291 -97q-193 0 -312.5 126t-119.5 326t112 321.5t296 121.5t282 -120v385zM516 782q-256 0 -256 -362q0 -170 69.5 -265.5 t192.5 -95.5q152 0 244 156v420q-29 70 -95.5 108.5t-154.5 38.5z" glyph-name="d" horiz-adv-x="1122" unicode="d"/><glyph d="M260 422q0 -367 268 -367q150 0 258 156l60 -33q-125 -201 -350 -201q-188 0 -304 122t-116 320t114.5 325.5t286.5 127.5t268.5 -109t100.5 -306h-584q-2 -14 -2 -35zM664 528q0 104 -19 152q-41 117 -170 117q-94 0 -150.5 -71t-60.5 -198h400z" glyph-name="e" horiz-adv-x="913" unicode="e"/><glyph d="M559 850v-64h-184v-561q0 -88 31.5 -126t105.5 -38h41v-61h-485v61q76 2 106.5 38t30.5 126v561h-144v64h144v121q0 188 71 291q90 125 263 124q84 0 137 -39t53 -89t-23.5 -74.5t-58.5 -24.5t-57.5 25.5t-22.5 64.5t-12 53.5t-45 14.5q-63 0 -107 -64q-29 -45 -28 -153 v-250h184z" glyph-name="f" horiz-adv-x="624" unicode="f"/><glyph d="M782 563q0 -166 -137 -248q-43 -25 -81 -34t-128 -14t-153.5 -29.5t-63.5 -59.5t94 -35q313 -5 407 -29t144.5 -89.5t50.5 -165.5q0 -162 -125 -276q-125 -113 -317 -113t-315 82.5t-123 207.5q0 88 79 146.5t195 58.5q4 0 4 -2t-16 -12q-119 -63 -119 -171t80 -167 t214 -59t221 61t87 159t-90 140q-31 14 -60.5 19.5t-193.5 19.5t-239.5 59t-75.5 127t86 127q53 27 102 33q-188 59 -188 260q0 139 90 226t252 87t248 -102q37 45 92 73.5t99 28.5t70.5 -21t26.5 -55t-19 -55.5t-50 -21.5t-60 30q-59 61 -133 -10q45 -72 45 -176zM621 573 q0 246 -167 246t-167 -252t164 -252q82 0 126 68t44 190z" glyph-name="g" horiz-adv-x="985" unicode="g"/><glyph d="M760 588q0 184 -188 184q-96 0 -210 -96v-449q0 -90 31 -125.5t107 -38.5v-63h-445v63q76 2 107 38t31 126v910q0 88 -32 124.5t-106 41.5v61q156 20 307 57v-663q156 114 296 114t214 -77q57 -59 58 -203v-365q0 -90 29.5 -125.5t105.5 -38.5v-63h-442v63q76 2 106.5 38 t30.5 126v361z" glyph-name="h" horiz-adv-x="1112" unicode="h"/><glyph d="M375 227q0 -90 30.5 -125.5t106.5 -38.5v-63h-444v63q76 2 106.5 38t30.5 126v353q0 88 -31 125.5t-106 39.5v62q149 18 307 57v-637zM288 1253q48 0 81.5 -34.5t33.5 -81.5t-33.5 -82t-82.5 -35t-83 33.5t-34 83t35 83t83 33.5z" glyph-name="i" horiz-adv-x="559" unicode="i"/><glyph d="M377 -195q0 -164 -91 -266t-239 -102q-80 0 -137 34.5t-57 84.5q0 27 20.5 48t54.5 21t72 -53q39 -53 96 -53t84 54t27 181v826q0 88 -31 125.5t-106 39.5v62q170 24 307 57v-1059zM294 1253q48 0 82 -34.5t34 -81.5t-34 -82t-83 -35t-83 33.5t-34 83t35 83t83 33.5z" glyph-name="j" horiz-adv-x="530" unicode="j"/><glyph d="M1024 0h-391v63h37q45 0 45 21q0 12 -27 39l-280 321l-46 -38v-179q0 -90 31 -125.5t107 -38.5v-63h-445v63q76 2 107 38t31 126v910q0 88 -32 124.5t-106 41.5v61q147 18 307 57v-929l271 213q25 18 24 45q0 37 -63 36h-21v64h357v-64q-106 -6 -205 -81l-195 -166 l316 -369q72 -88 178 -107v-63z" glyph-name="k" horiz-adv-x="1044" unicode="k"/><glyph d="M500 0h-445v63q76 2 107 38t31 126v912q0 86 -32 123.5t-106 40.5v63q150 20 307 55v-1194q0 -90 31 -125.5t107 -38.5v-63z" glyph-name="l" horiz-adv-x="546" unicode="l"/><glyph d="M375 756v-17q147 133 317 133t228 -133q152 133 307 133t225 -84q49 -63 49 -208v-353q0 -90 31 -125.5t106 -38.5v-63h-444v63q76 2 106.5 38t30.5 126v326q0 123 -43 168q-53 49 -133 49q-123 0 -217 -100v-443q0 -90 30.5 -125.5t106.5 -38.5v-63h-442v63 q76 2 105.5 38t29.5 126v342q0 199 -176 199q-102 0 -217 -98v-443q0 -90 30.5 -125.5t106.5 -38.5v-63h-444v63q76 2 106.5 38t30.5 126v353q0 88 -30.5 125.5t-106.5 39.5v62q152 20 280 57q27 -53 27 -108z" glyph-name="m" horiz-adv-x="1687" unicode="m"/><glyph d="M375 756v-17q147 133 312 133t226 -114q27 -51 27 -162v-369q0 -90 29.5 -125.5t105.5 -38.5v-63h-442v63q76 2 106.5 38t30.5 126v342q0 199 -178 199q-102 0 -217 -98v-443q0 -90 30.5 -125.5t106.5 -38.5v-63h-444v63q76 2 106.5 38t30.5 126v353q0 88 -30.5 125.5 t-106.5 39.5v62q152 20 280 57q27 -53 27 -108z" glyph-name="n" horiz-adv-x="1124" unicode="n"/><glyph d="M522 872q203 0 319.5 -118.5t116.5 -324.5t-121.5 -329t-324.5 -123t-319.5 118t-116.5 324t121.5 329.5t324.5 123.5zM520 811q-260 0 -260 -387t254 -387q127 0 193.5 99.5t66.5 285.5q0 389 -254 389z" glyph-name="o" horiz-adv-x="1034" unicode="o"/><glyph d="M342 -317q0 -90 32 -128t105 -38h41v-64h-485v64q76 2 106.5 38.5t30.5 127.5v897q0 88 -30.5 125.5t-106.5 39.5v62q152 20 280 57q27 -43 27 -100v-16q115 124 284 124t275.5 -123.5t106.5 -319.5t-112 -323.5t-276 -127.5t-278 94v-389zM827 431q0 167 -63.5 263.5 t-171.5 96.5q-141 0 -250 -166v-459q102 -106 223 -106t191.5 102t70.5 269z" glyph-name="p" horiz-adv-x="1081" unicode="p"/><glyph d="M903 -317q0 -90 31 -127t106 -39v-64h-485v64h41q74 0 105.5 37.5t31.5 128.5v401q-117 -106 -279 -106t-270 120.5t-108 315.5t117 326.5t277 131.5t263 -90q54 18 170 82v-1181zM258 412q0 -168 67.5 -258.5t186.5 -90.5q57 0 102 20t119 77v510q-100 112 -220 112 t-187.5 -101t-67.5 -269z" glyph-name="q" horiz-adv-x="1060" unicode="q"/><glyph d="M375 227q0 -88 30.5 -124.5t104.5 -39.5l14 -2v-61h-456v63q76 2 106.5 38t30.5 126v353q0 88 -31 125.5t-106 39.5v62q158 23 280 57q27 -49 27 -155q115 152 246 151q49 0 82.5 -30.5t33.5 -70.5t-22.5 -65.5t-55 -25.5t-59.5 34q-57 83 -128.5 35.5t-96.5 -92.5v-418z " glyph-name="r" horiz-adv-x="774" unicode="r"/><glyph d="M635 850v-281h-49q-16 84 -47 127q-76 106 -174 107q-55 0 -89 -31t-34 -84t37 -85t135 -78t180 -98.5t83 -180.5t-69.5 -198.5t-191.5 -70.5t-226 91l-34 -68h-50v293h50q14 -106 83.5 -172t149.5 -66t119 36t39 90t-37.5 90t-149.5 90t-159 96q-88 76 -88 183 t63.5 170.5t173.5 63.5t199 -100l37 76h49z" glyph-name="s" horiz-adv-x="761" unicode="s"/><glyph d="M553 856v-65h-227v-529q0 -166 104 -166q37 0 66.5 18.5t74.5 69.5l41 -34q-98 -158 -256 -158q-102 0 -159 80q-41 59 -41 190v529h-101v45q190 41 201 323h70v-303h227z" glyph-name="t" horiz-adv-x="630" unicode="t"/><glyph d="M184 645q0 90 -29.5 126t-107.5 40v63h307v-593q0 -199 178 -199q59 0 106.5 21.5t111.5 78.5v463q0 88 -31 125t-107 41v63h308v-647q0 -88 31.5 -124.5t105.5 -39.5v-63q-37 -2 -78 -2l-76 -2q-47 0 -127 -8q-20 57 -26 125q-150 -135 -308 -136q-78 0 -142 32t-91 85 q-16 31 -19.5 50.5t-5.5 109.5v391z" glyph-name="u" horiz-adv-x="1103" unicode="u"/><glyph d="M961 850v-64h-11q-92 -6 -114 -55l-336 -731h-54l-340 731q-25 55 -98 55h-14v64h387v-64l-12 -2q-70 -6 -70 -39q0 -10 18 -53l205 -477l215 477q16 35 17 53q0 33 -70 39l-20 2v64h297z" glyph-name="v" horiz-adv-x="954" unicode="v"/><glyph d="M-8 850h377v-64h-11l-26 -4q-49 -6 -49 -37q0 -10 14 -51l158 -465l235 621h68l219 -621l184 465q16 37 17 56q0 35 -95 36v64h289v-64q-102 -2 -129 -79l-282 -707h-70l-217 614l-236 -614h-69l-258 707q-23 74 -119 79v64z" glyph-name="w" horiz-adv-x="1368" unicode="w"/><glyph d="M1004 850v-62q-63 0 -94 -10t-60 -41l-244 -266l268 -346q33 -39 63 -50.5t95 -11.5v-63h-426v63h47q51 2 52 23q0 12 -23 39l-190 227l-207 -227q-25 -27 -25 -41q0 -20 55 -21h27v-63h-319v63q57 -2 90.5 11.5t70.5 50.5l265 285l-250 311q-35 43 -62.5 55t-89.5 12v62 h402v-62h-21q-53 0 -53 -20q0 -10 16 -31l168 -207l186 201q20 23 21 33q0 25 -64 24h-32v62h334z" glyph-name="x" horiz-adv-x="1052" unicode="x"/><glyph d="M963 850v-62q-66 -6 -91.5 -20t-46.5 -59l-438 -955q-86 -186 -141.5 -250.5t-113.5 -64.5t-86 22.5t-28 52.5t15 50q12 -4 30 -4q53 0 126 49t186 280l65 138l-319 682q-35 78 -127 79v62h393v-62h-10q-78 0 -78 -43q0 -14 14 -49l215 -467l215 480q28 61 3 69t-82 10 v62h299z" glyph-name="y" horiz-adv-x="954" unicode="y"/><glyph d="M68 0v68l528 723h-297q-51 0 -69.5 -20.5t-52.5 -86.5t-40 -78h-55l29 248h688v-63l-525 -723h285q59 0 96 34q58 58 107 183h55l-18 -285h-731z" glyph-name="z" horiz-adv-x="884" unicode="z"/><glyph d="M477 -430h27v-68h-74q-164 0 -230 81t-65 265q0 57 6 287v80q0 123 -28.5 169t-108.5 56v56q82 8 109.5 55t27.5 172l-6 362q-1 189 65 269t230 80h74v-68h-33q-84 0 -134 -50t-50 -233l6 -315q0 -172 -46 -227t-130 -72q84 -21 130 -75t46 -226l-6 -315q0 -188 61 -242 q47 -41 129 -41z" glyph-name="braceleft" horiz-adv-x="559" unicode="{"/><glyph d="M461 1366h102v-1708h-102v1708z" glyph-name="bar" unicode="|"/><glyph d="M82 1366h-27v68h74q163 0 229 -81t66 -266q0 -57 -6 -286v-80q0 -123 28.5 -169t108.5 -56v-56q-82 -8 -109.5 -55t-27.5 -172l6 -363q0 -188 -66 -268t-229 -80h-74v68h33q84 0 134 50t50 233l-6 315q0 172 46 227t130 72q-84 21 -130 75t-46 226l6 315q0 188 -61 242 q-47 41 -129 41z" glyph-name="braceright" horiz-adv-x="559" unicode="}"/><glyph d="M684 1147q-68 0 -194 44q-128 44 -186 44t-93 -19.5t-90 -78.5l-21 -19l-37 19q137 203 289 202q62 0 190 -43t179 -43q111 0 203 113l37 -18q-57 -96 -133 -148.5t-144 -52.5z" glyph-name="asciitilde" unicode="~"/><glyph glyph-name="uni00A0" horiz-adv-x="512" unicode=" "/><glyph d="M371 -269q0 -122 -32 -203t-85 -81t-85 81t-32 207t37 341t43 401h74q6 -193 43 -409t37 -337zM253 872q48 0 81 -32.5t33 -80.5t-33 -81t-81 -33t-81 33t-33 81t33 80.5t81 32.5z" glyph-name="exclamdown" horiz-adv-x="505" unicode="¡"/><glyph d="M573 20h-69v220q-176 16 -275.5 132.5t-99.5 305.5q0 254 176 391q98 74 199 76v201h69v-201q109 -4 192 -55.5t83 -114.5q0 -31 -24.5 -54.5t-57.5 -23.5t-72 27q-2 66 -28.5 97.5t-92.5 41.5v-737q195 -10 258 166l66 -23q-27 -100 -118 -163.5t-206 -65.5v-220z M504 340v723q-84 -16 -135.5 -107.5t-51.5 -224.5q1 -303 187 -391z" glyph-name="cent" unicode="¢"/><glyph d="M1061 1179q0 -101 -68 -151q-53 -41 -114 -41q-14 0 -27 2q72 78 72 163t-42 137t-106 52q-121 0 -155 -135q-15 -72 -21 -238t-12 -311h235v-57h-241q-12 -279 -144 -432q129 -45 254 -45t212 54t91 136h25q6 -25 6 -57q0 -121 -77 -206t-183 -85q-143 0 -371 144 q-119 -131 -252 -132q-70 0 -113.5 33t-43.5 87t49 93t128 39t191 -34q25 41 33 119.5t10 285.5h-217v57h217q12 742 422 744q109 0 175.5 -60.5t66.5 -161.5zM186 176q-100 0 -100 -76q0 -29 20.5 -46t53.5 -17q82 0 164 104q-72 35 -138 35z" glyph-name="sterling" horiz-adv-x="1155" unicode="£"/><glyph d="M508 315q-116 0 -219 78l-148 -147l-57 59l145 146q-84 109 -84 231t84 227l-145 148l57 57l148 -147q102 77 222 77t228 -83l146 145l59 -57l-147 -148q78 -100 77.5 -219t-77.5 -223l147 -146l-59 -59l-146 145q-115 -84 -231 -84zM511 961q-116 0 -199 -81t-83 -199 t82 -200t199 -82t199 82t82 198t-82 199t-198 83z" glyph-name="currency" unicode="¤"/><glyph d="M928 508v-57h-279v-228q0 -96 32 -125.5t142 -36.5v-61h-516v61q109 6 140.5 36t31.5 126v228h-276v57h276v88l-51 100h-246v58h217l-209 413q-31 59 -65.5 83t-97.5 26v61h432v-61h-23q-84 0 -84 -51q0 -25 17 -58l247 -493l258 493q34 80 2 92.5t-118 16.5v61h370v-61 q-72 -4 -115.5 -33t-76.5 -96l-205 -393h217v-58h-246l-53 -100v-88h279z" glyph-name="yen" horiz-adv-x="1157" unicode="¥"/><glyph d="M461 1366h102v-692h-102v692zM461 313h102v-655h-102v655z" glyph-name="brokenbar" unicode="¦"/><glyph d="M854 31q0 -139 -102.5 -234.5t-241.5 -95.5t-239.5 84t-100.5 190q0 78 66 78q35 0 50 -20.5t29.5 -84t70.5 -105.5t133 -42t132.5 49.5t55.5 114.5t-39.5 109t-211.5 158t-233 189t-61 179q0 139 151 295q-121 111 -120.5 227.5t94.5 197.5t217 81t216 -68.5t93 -150.5 q0 -31 -19.5 -55.5t-45.5 -24.5q-50 0 -78 96q-14 47 -60 80t-108 33t-114 -42.5t-52 -102.5t67 -122q29 -25 185 -139t215 -185t59 -151t-26.5 -140.5t-102.5 -164.5q72 -70 96.5 -118t24.5 -115zM299 670q0 -47 27.5 -87t101.5 -98q172 -121 250 -172q49 104 49 171 t-45.5 117.5t-141.5 118.5t-117.5 83.5t-29.5 20.5t-14 10.5t-12 9.5q-68 -94 -68 -174z" glyph-name="section" unicode="§"/><glyph d="M260 1200q45 0 77 -31.5t32 -76.5t-32 -77t-77 -32t-76.5 32t-31.5 77t31.5 76.5t76.5 31.5zM635 1200q45 0 76.5 -31.5t31.5 -76.5t-31.5 -77t-76.5 -32t-77 32t-32 77t32 76.5t77 31.5z" glyph-name="dieresis" horiz-adv-x="894" unicode="¨"/><glyph d="M778 1038q-121 0 -191.5 -94t-70.5 -254t75 -253t202 -93q88 0 165.5 51t110.5 131l41 -30q-41 -94 -136 -151.5t-210 -57.5q-168 0 -272.5 108.5t-104.5 281.5t108.5 286.5t276.5 113.5q127 0 240 -76q14 20 24 58h33l10 -273h-35q-66 252 -266 252zM781 1397 q296 0 503 -210t207 -505t-208 -504t-503 -209t-503.5 209t-208.5 506t208.5 505t504.5 208zM781 1341q-269 0 -460.5 -191.5t-191.5 -465.5t191.5 -466.5t460 -192.5t459 193.5t190.5 463.5t-190 464.5t-459 194.5z" glyph-name="copyright" horiz-adv-x="1560" unicode="©"/><glyph d="M70 672q0 98 106 141q36 15 104 29t105 26v37q0 70 -19.5 94.5t-79.5 24.5t-74 -59q-13 -59 -73 -59t-59 44q0 53 64 89t164 36t153 -45q29 -23 37 -45t8 -70v-266q0 -47 30 -47t44 51l4 13h51q-33 -133 -137 -134q-86 0 -111 78q-97 -76 -171 -76t-110 37t-36 101z M190 692q0 -33 23 -53.5t69 -20.5t103 44v155q-31 -10 -47 -14l-62 -17q-86 -23 -86 -94z" glyph-name="ordfeminine" horiz-adv-x="636" unicode="ª"/><glyph d="M797 145q0 -31 -33 -30q-25 0 -57 28q-4 2 -27 21l-262 246q-23 18 -23 33t23 36l262 246l51 39q20 10 33 10q33 0 33 -31q0 -23 -25 -53l-192 -246l192 -247q25 -27 25 -52zM469 145q0 -31 -31 -31t-61 31q-4 4 -11.5 9.5t-11.5 9.5l-264 246q-22 20 -22 33t22 36 l264 246l49 39q20 10 33 10q33 0 33 -31q0 -25 -23 -53l-194 -246l194 -247q23 -29 23 -52z" glyph-name="guillemotleft" horiz-adv-x="878" unicode="«"/><glyph d="M815 0v446h-754v99h865v-545h-111z" glyph-name="logicalnot" unicode="¬"/><glyph d="M436 494v-101h-436v101h436z" glyph-name="uni00AD" horiz-adv-x="436" unicode="­"/><glyph d="M659 662v-230q0 -53 20.5 -69.5t92.5 -20.5v-35h-338v35q72 4 92.5 20.5t20.5 69.5v502q0 53 -20.5 69.5t-92.5 20.5v35h320q133 0 205.5 -50.5t72.5 -135.5t-60.5 -139t-152.5 -56q70 -12 100.5 -39t112.5 -141q78 -115 100.5 -135.5t65.5 -20.5h8v-35h-170 q-45 37 -116.5 160t-108.5 159t-88 36h-64zM659 698h99q152 0 151 164q0 162 -168 162h-82v-326zM781 1397q296 0 503 -210t207 -505t-208 -504t-503 -209t-503.5 209t-208.5 506t208.5 505t504.5 208zM781 1341q-269 0 -460.5 -191.5t-191.5 -465.5t191.5 -466.5 t460 -192.5t459 193.5t190.5 463.5t-190 464.5t-459 194.5z" glyph-name="registered" horiz-adv-x="1560" unicode="®"/><glyph d="M264 1143h498v-96h-498v96z" glyph-name="macron" unicode="¯"/><glyph d="M350 1380q108 0 181 -73.5t73 -181.5t-72.5 -181.5t-181 -73.5t-181.5 73t-73 183t73 182t181 72zM350 1294q-72 0 -120 -48t-48 -121t48.5 -121t120 -48t119.5 50t48 120t-48 119t-120 49z" glyph-name="degree" horiz-adv-x="700" unicode="°"/><glyph d="M47 625v88h420v399h88v-399h420v-88h-420v-385h-88v385h-420zM47 78v88h928v-88h-928z" glyph-name="plusminus" unicode="±"/><glyph d="M465 1161q0 70 -44.5 115t-108.5 45t-109 -40t-45 -99q0 -90 78 -115q-14 -41 -60 -41t-73 37t-27 92q0 90 70.5 148.5t181.5 58.5t185.5 -67.5t74.5 -170.5q0 -141 -139 -280q-43 -45 -80 -74t-166 -123h286q29 0 44.5 15.5t35.5 64.5l6 12h43l-53 -194h-514l15 59 q399 313 399 557z" glyph-name="uni00B2" horiz-adv-x="669" unicode="²"/><glyph d="M162 704q0 -46 43 -84t113 -38t112.5 50t42.5 131t-35 131t-90 50q-8 0 -36 -18t-50 -17.5t-38.5 16t-16.5 36.5q0 39 90 38q2 0 59 -4q41 8 70 53.5t29 111.5t-38.5 115.5t-94.5 49.5t-86.5 -25.5t-30.5 -67.5t41 -83q-26 -14 -54 -14t-52.5 23.5t-24.5 58.5 q0 59 63.5 102t158.5 43t165.5 -60.5t70.5 -148.5q0 -121 -131 -174q160 -72 160 -207q0 -106 -84 -173t-202 -67t-183 45.5t-65 114.5q0 39 28 66.5t52 27.5t34 -2q-20 -34 -20 -80z" glyph-name="uni00B3" horiz-adv-x="669" unicode="³"/><glyph d="M702 1243q29 0 29 -20q0 -6 -8 -15l-240 -239q-11 -13 -33 -13t-22 19q0 8 2 12l129 256h143z" glyph-name="acute" unicode="´"/><glyph d="M184 874h170v-593q0 -199 178 -199q59 0 106.5 21.5t111.5 78.5v692h170v-647q0 -88 31.5 -124.5t105.5 -39.5v-63q-37 -2 -78 -2l-76 -2q-47 0 -127 -8q-20 57 -26 125q-127 -135 -265 -136q-98 0 -174 64q-10 10 -16 14l20 -346v-31q2 -10 2 -36t-21.5 -49t-55.5 -23 t-55 23.5t-21 60.5v24q2 8 2 31l18 424v741z" glyph-name="uni00B5" horiz-adv-x="1103" unicode="µ"/><glyph d="M567 555h-61q-201 0 -297 72q-139 104 -139 321q0 131 68 249.5t177 129t248 10.5h469v-63q-129 -6 -167 -36t-38 -128v-1411h-75v1548h-109v-1548h-76v856z" glyph-name="paragraph" unicode="¶"/><glyph d="M222 557q48 0 81 -32.5t33 -80.5t-33 -81t-81 -33t-80.5 32.5t-32.5 80.5t32.5 81t80.5 33z" glyph-name="periodcentered" horiz-adv-x="446" unicode="·"/><glyph d="M713 -255q0 -67 -57.5 -114t-144.5 -47t-179 43l28 51q76 -24 122 -24t81 27.5t35 67.5t-31.5 61.5t-107.5 31.5l51 158h57l-35 -109q96 -14 138.5 -46.5t42.5 -99.5z" glyph-name="cedilla" unicode="¸"/><glyph d="M276 1231h-106v49q92 2 227 84v-678q0 -53 19.5 -73.5t68.5 -20.5h29v-47h-358v47h37q47 0 65 20.5t18 73.5v545z" glyph-name="uni00B9" horiz-adv-x="669" unicode="¹"/><glyph d="M344 1075q131 0 207 -71.5t76 -196.5t-79 -200t-209 -75t-206 72t-76 196t78 199.5t209 75.5zM338 582q158 0 158 222t-155 222t-155 -222t152 -222z" glyph-name="ordmasculine" horiz-adv-x="686" unicode="º"/><glyph d="M115 774q16 0 26.5 -6t57.5 -43l262 -246q23 -23 23 -38t-23 -31l-262 -246q-47 -37 -57.5 -43t-26.5 -6q-33 -1 -33 27t24 55l193 247l-193 246q-25 31 -24 53q0 31 33 31zM442 774q16 0 25.5 -6t56.5 -43l264 -246q23 -23 23 -36t-23 -33l-264 -246q-45 -37 -55 -43 t-27 -6q-33 0 -32 30q0 18 22 52l195 247l-195 246q-23 33 -22 53q0 31 32 31z" glyph-name="guillemotright" horiz-adv-x="878" unicode="»"/><glyph d="M276 1231h-106v49q92 2 227 84v-678q0 -53 19.5 -73.5t68.5 -20.5h29v-47h-358v47h37q47 0 65 20.5t18 73.5v545zM1167 1366l-755 -1366h-70l756 1366h69zM1296 197v-78q0 -72 62 -72h31v-47h-306v47h25q39 0 54.5 16.5t15.5 55.5v78h-318l406 604q8 12 19 12t11 -16 v-543h43q53 0 72 57l49 4l-37 -118h-127zM1178 254v340l-220 -340h220z" glyph-name="onequarter" horiz-adv-x="1495" unicode="¼"/><glyph d="M276 1231h-106v49q92 2 227 84v-678q0 -53 19.5 -73.5t68.5 -20.5h29v-47h-358v47h37q47 0 65 20.5t18 73.5v545zM1167 1366l-755 -1366h-70l756 1366h69zM1292 616q0 70 -44 115t-109.5 45t-109.5 -41t-44 -100q0 -88 78 -115q-13 -41 -59 -41t-73.5 37t-27.5 92 q0 90 70.5 149.5t181.5 59.5t185.5 -67.5t74.5 -169.5q0 -141 -139 -281q-74 -74 -246 -197h285q29 0 49 19.5t37 73.5h43l-51 -195h-514l12 59q401 311 401 557z" glyph-name="onehalf" horiz-adv-x="1495" unicode="½"/><glyph d="M162 704q0 -46 43 -84t113 -38t112.5 50t42.5 131t-35 131t-90 50q-8 0 -36 -18t-50 -17.5t-38.5 16t-16.5 36.5q0 39 90 38q2 0 59 -4q41 8 70 53.5t29 111.5t-38.5 115.5t-94.5 49.5t-86.5 -25.5t-30.5 -67.5t41 -83q-26 -14 -54 -14t-52.5 23.5t-24.5 58.5 q0 59 63.5 102t158.5 43t165.5 -60.5t70.5 -148.5q0 -121 -131 -174q160 -72 160 -207q0 -106 -84 -173t-202 -67t-183 45.5t-65 114.5q0 39 28 66.5t52 27.5t34 -2q-20 -34 -20 -80zM1169 1366l-755 -1366h-72l756 1366h71zM1296 197v-78q0 -72 62 -72h31v-47h-306v47h25 q39 0 54.5 16.5t15.5 55.5v78h-318l406 604q8 12 19 12t11 -16v-543h43q53 0 72 57l49 4l-37 -118h-127zM1178 254v340l-220 -340h220z" glyph-name="threequarters" horiz-adv-x="1495" unicode="¾"/><glyph d="M469 477h78v-459h-43q-35 43 -58.5 59.5t-54.5 16.5q-66 0 -106.5 -75.5t-40.5 -207.5t56 -213t151 -81q45 0 81.5 28.5t51.5 73.5q14 53 71 53q29 0 46.5 -18.5t17.5 -48.5q0 -63 -81 -110.5t-189 -47.5q-162 0 -271.5 111.5t-109.5 263.5t82.5 253t197.5 101 q68 0 121 -37v338zM509 872q48 0 81 -32.5t33 -80.5t-33 -81t-81 -33t-81 33t-33 81t33 80.5t81 32.5z" glyph-name="questiondown" horiz-adv-x="815" unicode="¿"/><glyph d="M1481 0h-563v63h45q119 0 118 64q0 29 -18 72l-111 262h-544l-107 -262q-14 -35 -14 -69t30.5 -50.5t114.5 -16.5h25v-63h-471v63q98 2 145 32t76 104l491 1190h74l518 -1190q49 -127 191 -136v-63zM911 549l-176 434q-28 69 -39 109l-10 26l-8 29q-4 -14 -16 -51 l-222 -547h471zM793 1487q-1 -19 -23 -19t-35 15l-252 250q-10 8 -10 16q0 20 31 20h151l136 -270q2 -4 2 -12z" glyph-name="Agrave" horiz-adv-x="1468" unicode="À"/><glyph d="M1481 0h-563v63h45q119 0 118 64q0 29 -18 72l-111 262h-544l-107 -262q-14 -35 -14 -69t30.5 -50.5t114.5 -16.5h25v-63h-471v63q98 2 145 32t76 104l491 1190h74l518 -1190q49 -127 191 -136v-63zM911 549l-176 434q-28 69 -39 109l-10 26l-8 29q-4 -14 -16 -51 l-222 -547h471zM963 1769q31 0 30 -20q0 -8 -10 -16l-252 -250q-12 -15 -35 -15t-22 19q0 8 2 12l135 270h152z" glyph-name="Aacute" horiz-adv-x="1468" unicode="Á"/><glyph d="M1481 0h-563v63h45q119 0 118 64q0 29 -18 72l-111 262h-544l-107 -262q-14 -35 -14 -69t30.5 -50.5t114.5 -16.5h25v-63h-471v63q98 2 145 32t76 104l491 1190h74l518 -1190q49 -127 191 -136v-63zM911 549l-176 434q-28 69 -39 109l-10 26l-8 29q-4 -14 -16 -51 l-222 -547h471zM973 1466q-12 0 -35 17l-205 141l-205 -141q-25 -16 -35 -16.5t-22 12t-12 25.5t16 28l258 256l260 -256q29 -29 10.5 -47.5t-30.5 -18.5z" glyph-name="Acircumflex" horiz-adv-x="1468" unicode="Â"/><glyph d="M1481 0h-563v63h45q119 0 118 64q0 29 -18 72l-111 262h-544l-107 -262q-14 -35 -14 -69t30.5 -50.5t114.5 -16.5h25v-63h-471v63q98 2 145 32t76 104l491 1190h74l518 -1190q49 -127 191 -136v-63zM911 549l-176 434q-28 69 -39 109l-10 26l-8 29q-4 -14 -16 -51 l-222 -547h471zM573 1581q-42 0 -98 -74l-43 21q98 172 209 172q33 0 118 -32t133 -32t103 66l39 -23q-100 -160 -203 -159q-20 0 -118 30t-140 31z" glyph-name="Atilde" horiz-adv-x="1468" unicode="Ã"/><glyph d="M1481 0h-563v63h45q119 0 118 64q0 29 -18 72l-111 262h-544l-107 -262q-14 -35 -14 -69t30.5 -50.5t114.5 -16.5h25v-63h-471v63q98 2 145 32t76 104l491 1190h74l518 -1190q49 -127 191 -136v-63zM911 549l-176 434q-28 69 -39 109l-10 26l-8 29q-4 -14 -16 -51 l-222 -547h471zM536 1710q46 0 79.5 -34t33.5 -80t-32.5 -79.5t-80 -33.5t-81 33.5t-33.5 81t34 80t80 32.5zM932 1710q47 0 79.5 -34t32.5 -80t-32.5 -79.5t-79.5 -33.5t-81 33.5t-34 81t34 80t81 32.5z" glyph-name="Adieresis" horiz-adv-x="1468" unicode="Ä"/><glyph d="M1481 0h-563v63h45q119 0 118 64q0 29 -18 72l-111 262h-544l-107 -262q-14 -35 -14 -69t30.5 -50.5t114.5 -16.5h25v-63h-471v63q98 2 145 32t76 104l491 1190h74l518 -1190q49 -127 191 -136v-63zM911 549l-176 434q-28 69 -39 109l-10 26l-8 29q-4 -14 -16 -51 l-222 -547h471zM733 1823q76 0 129 -54.5t53 -129.5t-53 -128t-129 -53t-129 54.5t-53 130t53 128t129 52.5zM732 1737q-40 0 -68.5 -28t-28.5 -69t28.5 -69.5t69.5 -28.5t68.5 28.5t27.5 68.5t-28.5 69t-68.5 29z" glyph-name="Aring" horiz-adv-x="1468" unicode="Å"/><glyph d="M631 0v61q133 8 169 42t36 151v397h-324l-184 -375q-39 -78 -39 -122t35.5 -65t117.5 -28v-61h-456v61q82 2 132 39t97 131l469 953q20 39 21 57q0 63 -156 62v63h1083l39 -336h-63q-63 217 -140 240.5t-223 23.5h-205v-495h156q74 0 116 51t42 139h63v-465h-63 q0 102 -36 149.5t-114 47.5h-164v-467q0 -111 58 -145q61 -41 193 -41t216.5 34.5t138.5 123.5t68 198h62l-25 -424h-1120zM836 721v586l-287 -586h287z" glyph-name="AE" horiz-adv-x="1859" unicode="Æ"/><glyph d="M938 -266q0 -72 -60.5 -121t-151.5 -49t-187 45l28 53q82 -24 129 -24t84 28.5t37 69.5t-33.5 64.5t-111.5 35.5l43 131q-285 18 -459 211t-174 502t196.5 515t501.5 206q229 0 439 -139q23 31 45 104h57l18 -494h-63q-117 457 -483 457q-221 0 -348.5 -171t-127.5 -462 t136.5 -459.5t367.5 -168.5t404 186q66 72 96 147l74 -55q-78 -172 -249 -277.5t-372 -103.5l-24 -80q92 -12 129 -37q59 -42 59 -114z" glyph-name="Ccedilla" horiz-adv-x="1456" unicode="Ç"/><glyph d="M774 1296h-297v-536h129q94 0 140.5 46t50.5 144h63v-463h-63q-6 115 -46 158t-145 43h-129v-438q0 -104 50.5 -142t186.5 -38t208.5 21.5t117.5 72.5t79 126t38 132h60l-25 -422h-1124v63q131 6 167.5 36t36.5 128v912q0 98 -36.5 127.5t-167.5 36.5v63h1009l37 -334 h-65q-19 98 -61 158t-89 83t-125 23zM737 1487q1 -19 -23 -19t-36 15l-252 250q-8 8 -8 18t5 14t26 4h149l135 -270q4 -8 4 -12z" glyph-name="Egrave" horiz-adv-x="1298" unicode="È"/><glyph d="M774 1296h-297v-536h129q94 0 140.5 46t50.5 144h63v-463h-63q-6 115 -46 158t-145 43h-129v-438q0 -104 50.5 -142t186.5 -38t208.5 21.5t117.5 72.5t79 126t38 132h60l-25 -422h-1124v63q131 6 167.5 36t36.5 128v912q0 98 -36.5 127.5t-167.5 36.5v63h1009l37 -334 h-65q-19 98 -61 158t-89 83t-125 23zM850 1769q31 0 31 -20q0 -6 -11 -16l-249 -250q-12 -15 -36 -15t-24 19q0 4 4 12l133 270h152z" glyph-name="Eacute" horiz-adv-x="1298" unicode="É"/><glyph d="M774 1296h-297v-536h129q94 0 140.5 46t50.5 144h63v-463h-63q-6 115 -46 158t-145 43h-129v-438q0 -104 50.5 -142t186.5 -38t208.5 21.5t117.5 72.5t79 126t38 132h60l-25 -422h-1124v63q131 6 167.5 36t36.5 128v912q0 98 -36.5 127.5t-167.5 36.5v63h1009l37 -334 h-65q-19 98 -61 158t-89 83t-125 23zM889 1466q-12 0 -35 17l-205 141l-205 -141q-23 -16 -35 -16.5t-24 12t-12 25t16 28.5l260 256l260 -256q29 -29 10.5 -47.5t-30.5 -18.5z" glyph-name="Ecircumflex" horiz-adv-x="1298" unicode="Ê"/><glyph d="M774 1296h-297v-536h129q94 0 140.5 46t50.5 144h63v-463h-63q-6 115 -46 158t-145 43h-129v-438q0 -104 50.5 -142t186.5 -38t208.5 21.5t117.5 72.5t79 126t38 132h60l-25 -422h-1124v63q131 6 167.5 36t36.5 128v912q0 98 -36.5 127.5t-167.5 36.5v63h1009l37 -334 h-65q-19 98 -61 158t-89 83t-125 23zM453 1710q47 0 79.5 -34t32.5 -80t-32.5 -79.5t-79.5 -33.5t-81 33.5t-34 81t34 80t81 32.5zM847 1710q46 0 80 -34t34 -80t-33 -79.5t-80 -33.5t-81 33.5t-34 81t34 80t80 32.5z" glyph-name="Edieresis" horiz-adv-x="1298" unicode="Ë"/><glyph d="M682 0h-614v63q131 6 167.5 36t36.5 128v912q0 98 -37.5 128.5t-166.5 35.5v63h614v-63q-129 -4 -167 -35t-38 -129v-912q0 -98 37 -127.5t168 -36.5v-63zM463 1487q0 -19 -24 -19t-36 15l-251 250q-8 8 -9 16q0 20 31 20h152l133 -270q4 -8 4 -12z" glyph-name="Igrave" horiz-adv-x="751" unicode="Ì"/><glyph d="M682 0h-614v63q131 6 167.5 36t36.5 128v912q0 98 -37.5 128.5t-166.5 35.5v63h614v-63q-129 -4 -167 -35t-38 -129v-912q0 -98 37 -127.5t168 -36.5v-63zM575 1769q31 0 31 -20q0 -8 -8 -16l-252 -250q-12 -15 -36 -15t-23 19q0 4 4 12l135 270h149z" glyph-name="Iacute" horiz-adv-x="751" unicode="Í"/><glyph d="M682 0h-614v63q131 6 167.5 36t36.5 128v912q0 98 -37.5 128.5t-166.5 35.5v63h614v-63q-129 -4 -167 -35t-38 -129v-912q0 -98 37 -127.5t168 -36.5v-63zM651 1503.5q0 -12.5 -12 -25t-24.5 -12.5t-34.5 17l-205 141l-205 -141q-23 -16 -35 -16.5t-24.5 12t-12.5 23.5 t17 30l260 256l260 -256q16 -16 16 -28.5z" glyph-name="Icircumflex" horiz-adv-x="751" unicode="Î"/><glyph d="M682 0h-614v63q131 6 167.5 36t36.5 128v912q0 98 -37.5 128.5t-166.5 35.5v63h614v-63q-129 -4 -167 -35t-38 -129v-912q0 -98 37 -127.5t168 -36.5v-63zM215 1710q47 0 80 -34t33 -80t-33 -79.5t-80 -33.5t-81 33.5t-34 81t34 80t81 32.5zM536 1710q46 0 79.5 -34 t33.5 -80t-33.5 -79.5t-81 -33.5t-80 33.5t-32.5 81t34 80t80 32.5z" glyph-name="Idieresis" horiz-adv-x="751" unicode="Ï"/><glyph d="M68 1366q604 0 719.5 -5t203.5 -36q211 -74 331 -247t120 -402q0 -305 -186.5 -490.5t-493.5 -185.5h-694v63q129 6 166.5 36t37.5 130v451h-131v76h131v383q0 98 -37.5 129t-166.5 35v63zM477 756h381v-76h-381v-383q0 -131 25 -166q37 -59 225 -59q248 0 363 174 q110 176 110 431t-108 419q-135 205 -455 204l-160 -4v-540z" glyph-name="Eth" horiz-adv-x="1525" unicode="Ð"/><glyph d="M1217 1098q0 109 -35 150.5t-135 51.5l-19 3v63h471v-63q-106 -2 -151 -48.5t-45 -156.5v-1110h-86l-730 1016q-61 82 -133 204v-868q0 -166 38 -217t165 -60v-63h-489v63q115 4 159.5 53.5t44.5 168.5v854q0 98 -37.5 128.5t-166.5 35.5v63h407l668 -924q31 -43 76 -141 v39l-2 45v713zM621 1581q-41 0 -99 -74l-43 21q98 172 209 172q35 0 119 -32t132 -32t103 66l39 -23q-100 -160 -202 -159q-21 0 -119 30t-139 31z" glyph-name="Ntilde" horiz-adv-x="1562" unicode="Ñ"/><glyph d="M806.5 1401q317.5 0 522.5 -201t205 -517t-207 -517t-523 -201t-519 204t-203 516t203.5 514t521 202zM806.5 1335q-235.5 0 -362.5 -168t-127 -480t126 -481t363 -169t363.5 166t126.5 481t-127 483t-362.5 168zM895 1487q-1 -19 -23 -19t-36 15l-250 250q-10 8 -11 16 q0 20 31 20h152l135 -270q2 -4 2 -12z" glyph-name="Ograve" horiz-adv-x="1615" unicode="Ò"/><glyph d="M806.5 1401q317.5 0 522.5 -201t205 -517t-207 -517t-523 -201t-519 204t-203 516t203.5 514t521 202zM806.5 1335q-235.5 0 -362.5 -168t-127 -480t126 -481t363 -169t363.5 166t126.5 481t-127 483t-362.5 168zM1010 1769q31 0 30 -20q0 -8 -10 -16l-250 -250 q-14 -15 -37 -15t-22 19q0 8 2 12l135 270h152z" glyph-name="Oacute" horiz-adv-x="1615" unicode="Ó"/><glyph d="M806.5 1401q317.5 0 522.5 -201t205 -517t-207 -517t-523 -201t-519 204t-203 516t203.5 514t521 202zM806.5 1335q-235.5 0 -362.5 -168t-127 -480t126 -481t363 -169t363.5 166t126.5 481t-127 483t-362.5 168zM1083 1503.5q0 -12.5 -12 -25t-23 -12.5t-34 17l-205 141 l-205 -141q-25 -17 -36 -17t-23.5 12.5t-12.5 25t17 28.5l260 256l258 -256q16 -16 16 -28.5z" glyph-name="Ocircumflex" horiz-adv-x="1615" unicode="Ô"/><glyph d="M806.5 1401q317.5 0 522.5 -201t205 -517t-207 -517t-523 -201t-519 204t-203 516t203.5 514t521 202zM806.5 1335q-235.5 0 -362.5 -168t-127 -480t126 -481t363 -169t363.5 166t126.5 481t-127 483t-362.5 168zM647 1581q-41 0 -96 -74l-43 21q98 172 207 172 q35 0 119 -32t134 -32t101 66l39 -23q-96 -160 -203 -159q-21 0 -119 30t-139 31z" glyph-name="Otilde" horiz-adv-x="1615" unicode="Õ"/><glyph d="M806.5 1401q317.5 0 522.5 -201t205 -517t-207 -517t-523 -201t-519 204t-203 516t203.5 514t521 202zM806.5 1335q-235.5 0 -362.5 -168t-127 -480t126 -481t363 -169t363.5 166t126.5 481t-127 483t-362.5 168zM612 1710q47 0 80 -34t33 -80t-33 -79.5t-80 -33.5 t-80.5 33.5t-33.5 81t33.5 80t80.5 32.5zM1005.5 1710q47.5 0 80 -34t32.5 -80t-32.5 -79.5t-80 -33.5t-81 33.5t-33.5 81t33.5 80t81 32.5z" glyph-name="Odieresis" horiz-adv-x="1615" unicode="Ö"/><glyph d="M215 309l-63 64l297 297l-297 297l63 61l297 -297l297 297l61 -61l-297 -297l297 -297l-61 -64l-297 297z" glyph-name="multiply" unicode="×"/><glyph d="M1534 692q0 -324 -204 -525.5t-521 -201.5q-252 0 -438 131l-140 -170l-61 49l141 170q-229 209 -229 531t203.5 523.5t521.5 201.5q250 0 432 -127l139 172l62 -49l-142 -172q236 -209 236 -533zM816 37q226 0 353 167t127 469t-94 445l-739 -938q127 -143 353 -143z M416 246l739 940q-131 150 -357 150t-353 -168t-127 -470t98 -452z" glyph-name="Oslash" horiz-adv-x="1615" unicode="Ø"/><glyph d="M938 1366h494v-63q-133 -10 -170 -41t-37 -138v-657q0 -272 -105.5 -387t-357.5 -115q-429 0 -465.5 174t-36.5 318v682q0 98 -38 128.5t-167 35.5v63h615v-63q-129 -4 -167 -35t-38 -129v-658q0 -215 35 -289t115.5 -114.5t189.5 -40.5q231 0 303 172q35 84 35 272v643 q0 104 -37 136t-168 43v63zM823 1487q1 -19 -23 -19t-36 15l-250 250q-10 8 -10 16q0 20 31 20h151l133 -270q4 -4 4 -12z" glyph-name="Ugrave" horiz-adv-x="1470" unicode="Ù"/><glyph d="M938 1366h494v-63q-133 -10 -170 -41t-37 -138v-657q0 -272 -105.5 -387t-357.5 -115q-429 0 -465.5 174t-36.5 318v682q0 98 -38 128.5t-167 35.5v63h615v-63q-129 -4 -167 -35t-38 -129v-658q0 -215 35 -289t115.5 -114.5t189.5 -40.5q231 0 303 172q35 84 35 272v643 q0 104 -37 136t-168 43v63zM991 1769q31 0 31 -20q0 -8 -8 -16l-252 -250q-12 -15 -36 -15t-24 19q0 4 5 12l135 270h149z" glyph-name="Uacute" horiz-adv-x="1470" unicode="Ú"/><glyph d="M938 1366h494v-63q-133 -10 -170 -41t-37 -138v-657q0 -272 -105.5 -387t-357.5 -115q-429 0 -465.5 174t-36.5 318v682q0 98 -38 128.5t-167 35.5v63h615v-63q-129 -4 -167 -35t-38 -129v-658q0 -215 35 -289t115.5 -114.5t189.5 -40.5q231 0 303 172q35 84 35 272v643 q0 104 -37 136t-168 43v63zM1040 1502q0 -12 -12 -24t-24.5 -12t-34.5 17l-205 141l-205 -141q-23 -16 -35 -16.5t-24.5 12t-12.5 25t17 28.5l260 256l260 -256q16 -18 16 -30z" glyph-name="Ucircumflex" horiz-adv-x="1470" unicode="Û"/><glyph d="M938 1366h494v-63q-133 -10 -170 -41t-37 -138v-657q0 -272 -105.5 -387t-357.5 -115q-429 0 -465.5 174t-36.5 318v682q0 98 -38 128.5t-167 35.5v63h615v-63q-129 -4 -167 -35t-38 -129v-658q0 -215 35 -289t115.5 -114.5t189.5 -40.5q231 0 303 172q35 84 35 272v643 q0 104 -37 136t-168 43v63zM567 1710q47 0 80 -34t33 -80t-33 -79.5t-80 -33.5t-80.5 33.5t-33.5 81t33.5 80t80.5 32.5zM960.5 1710q47.5 0 80 -34t32.5 -80t-32.5 -79.5t-80 -33.5t-81 33.5t-33.5 81t33.5 80t81 32.5z" glyph-name="Udieresis" horiz-adv-x="1470" unicode="Ü"/><glyph d="M772 227q0 -98 38 -127.5t167 -36.5v-63h-610v63q131 6 167.5 36t36.5 128v381l-374 584q-39 61 -85 84.5t-126 26.5v63h585v-63h-51q-98 0 -98 -52q0 -27 18 -59l293 -504l301 498q23 37 23 61q0 33 -45 43q-29 8 -144 13v63h490v-63q-88 -2 -144.5 -33t-97.5 -99 l-344 -563v-381zM928 1769q31 0 30 -20q0 -8 -10 -16l-250 -250q-14 -15 -36 -15t-23 19q0 8 2 12l135 270h152z" glyph-name="Yacute" horiz-adv-x="1343" unicode="Ý"/><glyph d="M68 1366h614v-63q-117 -4 -161 -28t-44 -79v-49q291 0 365 -10q135 -20 216 -114.5t81 -231.5q0 -215 -172 -308q-94 -51 -291 -51h-199v-205q0 -98 37 -127.5t168 -36.5v-63h-614v63q131 6 167.5 36t36.5 128v912q0 100 -35.5 128.5t-168.5 35.5v63zM477 496h158 q135 0 209 78.5t74 238.5t-97 227q-66 49 -215 50q-74 0 -129 -5v-589z" glyph-name="Thorn" horiz-adv-x="1206" unicode="Þ"/><glyph d="M440 0h-399v63q76 2 106.5 38t30.5 126v797q0 168 105.5 272.5t269.5 104.5t269.5 -90t105.5 -228q0 -96 -56.5 -160.5t-189.5 -121.5q110 -31 210 -124t100 -273t-99.5 -303.5t-249.5 -123.5q-68 0 -117 37t-49 77t21.5 61.5t49.5 21.5t46 -15.5t48 -61.5t66.5 -46 t61.5 64q35 109 35 249q0 264 -115 345q-61 45 -229 45v77q115 0 164 21q131 57 131 233q0 258 -213 258q-195 0 -195 -233v-895q0 -88 18.5 -117.5t73.5 -34.5v-63z" glyph-name="germandbls" horiz-adv-x="1093" unicode="ß"/><glyph d="M766 166q0 -92 55 -92t86 106h62q-49 -203 -205 -203q-150 0 -168 146q-53 -63 -136 -103t-169 -40t-140.5 57t-54.5 153t37 149.5t111 85.5t192 57q117 25 160 44v70q0 117 -23 156q-37 59 -137 59q-61 0 -93 -27.5t-46 -91.5q-16 -84 -90 -84q-41 0 -67.5 18.5 t-26.5 47.5q0 57 61 112q92 86 264 86t262 -73q41 -37 53.5 -73t12.5 -112v-448zM403 98q97 0 193 82v287q-45 -20 -187 -62t-143 -167q0 -59 39 -99.5t98 -40.5zM563 1014q0 -16 -22 -16t-35 12l-240 239q-8 7 -8 17q0 18 29 18h145l127 -256q4 -12 4 -14z" glyph-name="agrave" horiz-adv-x="956" unicode="à"/><glyph d="M766 166q0 -92 55 -92t86 106h62q-49 -203 -205 -203q-150 0 -168 146q-53 -63 -136 -103t-169 -40t-140.5 57t-54.5 153t37 149.5t111 85.5t192 57q117 25 160 44v70q0 117 -23 156q-37 59 -137 59q-61 0 -93 -27.5t-46 -91.5q-16 -84 -90 -84q-41 0 -67.5 18.5 t-26.5 47.5q0 57 61 112q92 86 264 86t262 -73q41 -37 53.5 -73t12.5 -112v-448zM403 98q97 0 193 82v287q-45 -20 -187 -62t-143 -167q0 -59 39 -99.5t98 -40.5zM670 1284q31 0 30 -20q0 -6 -10 -15l-237 -239q-12 -12 -35 -12t-23 18q0 4 4 12l127 256h144z" glyph-name="aacute" horiz-adv-x="956" unicode="á"/><glyph d="M766 166q0 -92 55 -92t86 106h62q-49 -203 -205 -203q-150 0 -168 146q-53 -63 -136 -103t-169 -40t-140.5 57t-54.5 153t37 149.5t111 85.5t192 57q117 25 160 44v70q0 117 -23 156q-37 59 -137 59q-61 0 -93 -27.5t-46 -91.5q-16 -84 -90 -84q-41 0 -67.5 18.5 t-26.5 47.5q0 57 61 112q92 86 264 86t262 -73q41 -37 53.5 -73t12.5 -112v-448zM403 98q97 0 193 82v287q-45 -20 -187 -62t-143 -167q0 -59 39 -99.5t98 -40.5zM741 1044q0 -12 -11 -23t-25 -11t-31 14l-195 135l-194 -135q-20 -14 -32.5 -14t-24 11t-11.5 23t14 27 l248 244l248 -244q14 -15 14 -27z" glyph-name="acircumflex" horiz-adv-x="956" unicode="â"/><glyph d="M766 166q0 -92 55 -92t86 106h62q-49 -203 -205 -203q-150 0 -168 146q-53 -63 -136 -103t-169 -40t-140.5 57t-54.5 153t37 149.5t111 85.5t192 57q117 25 160 44v70q0 117 -23 156q-37 59 -137 59q-61 0 -93 -27.5t-46 -91.5q-16 -84 -90 -84q-41 0 -67.5 18.5 t-26.5 47.5q0 57 61 112q92 86 264 86t262 -73q41 -37 53.5 -73t12.5 -112v-448zM403 98q97 0 193 82v287q-45 -20 -187 -62t-143 -167q0 -59 39 -99.5t98 -40.5zM391 1231q33 0 114 -29q81 -28 127 -28t97 59l37 -23q-96 -150 -195 -149q-18 0 -113 29q-95 28 -133 28 t-92 -69l-40 18q90 164 198 164z" glyph-name="atilde" horiz-adv-x="956" unicode="ã"/><glyph d="M766 166q0 -92 55 -92t86 106h62q-49 -203 -205 -203q-150 0 -168 146q-53 -63 -136 -103t-169 -40t-140.5 57t-54.5 153t37 149.5t111 85.5t192 57q117 25 160 44v70q0 117 -23 156q-37 59 -137 59q-61 0 -93 -27.5t-46 -91.5q-16 -84 -90 -84q-41 0 -67.5 18.5 t-26.5 47.5q0 57 61 112q92 86 264 86t262 -73q41 -37 53.5 -73t12.5 -112v-448zM403 98q97 0 193 82v287q-45 -20 -187 -62t-143 -167q0 -59 39 -99.5t98 -40.5zM291 1253q45 0 76.5 -31.5t31.5 -76.5t-31.5 -77t-76.5 -32t-77 32t-32 77t32 76.5t77 31.5zM668 1253 q45 0 76.5 -31.5t31.5 -76.5t-31.5 -77t-76.5 -32t-77 32t-32 77t32 76.5t77 31.5z" glyph-name="adieresis" horiz-adv-x="956" unicode="ä"/><glyph d="M766 166q0 -92 55 -92t86 106h62q-49 -203 -205 -203q-150 0 -168 146q-53 -63 -136 -103t-169 -40t-140.5 57t-54.5 153t37 149.5t111 85.5t192 57q117 25 160 44v70q0 117 -23 156q-37 59 -137 59q-61 0 -93 -27.5t-46 -91.5q-16 -84 -90 -84q-41 0 -67.5 18.5 t-26.5 47.5q0 57 61 112q92 86 264 86t262 -73q41 -37 53.5 -73t12.5 -112v-448zM403 98q97 0 193 82v287q-45 -20 -187 -62t-143 -167q0 -59 39 -99.5t98 -40.5zM479 1350q72 0 123 -51.5t51 -123t-51 -123t-122.5 -51.5t-123 51.5t-51.5 124.5t51 123t123 50zM479 1268 q-39 0 -66.5 -27t-27.5 -67t26.5 -66.5t66.5 -26.5t66.5 28t26.5 66t-26.5 65.5t-65.5 27.5z" glyph-name="aring" horiz-adv-x="956" unicode="å"/><glyph d="M1343 471h-575q8 -207 45 -278q68 -133 219 -134q76 0 130.5 33t121.5 123l59 -33q-51 -96 -143 -150.5t-203 -54.5q-229 0 -348 175q-51 -72 -147 -123.5t-190 -51.5t-155 60.5t-61 161.5q0 160 111 219q137 74 395 112v52q0 127 -24 161q-45 61 -121 61 q-145 1 -158 -110q-4 -49 -27.5 -68.5t-67.5 -19.5t-68.5 17.5t-24.5 44.5q0 55 61 112q102 92 268 92q96 0 157.5 -24.5t119.5 -87.5q109 112 267 112t258.5 -107.5t100.5 -277.5v-16zM1163 530v23q0 246 -186 246q-90 0 -144.5 -71t-60.5 -198h391zM266 249q0 -81 37 -122 t101 -41t128 38t86 91q-16 53 -16 256q-193 -41 -264.5 -91t-71.5 -131z" glyph-name="ae" horiz-adv-x="1411" unicode="æ"/><glyph d="M641 -257q0 -67 -58.5 -113t-145.5 -46t-179 43l29 49q79 -22 123 -22t80 26.5t36 67.5q0 74 -139 94l43 138q-164 25 -259 139t-95 304t120.5 319.5t313.5 129.5q111 0 199 -52t88 -118q0 -33 -22.5 -54t-60.5 -21t-69 28q-6 78 -39 112t-104 34q-106 0 -171 -93.5 t-65 -261.5t76 -276.5t205 -108.5q78 0 132 38t97 122l62 -22q-79 -228 -351 -224l-26 -86q94 -12 137 -45.5t43 -100.5z" glyph-name="ccedilla" horiz-adv-x="878" unicode="ç"/><glyph d="M260 422q0 -367 268 -367q150 0 258 156l60 -33q-125 -201 -350 -201q-188 0 -304 122t-116 320t114.5 325.5t286.5 127.5t268.5 -109t100.5 -306h-584q-2 -14 -2 -35zM664 528q0 104 -19 152q-41 117 -170 117q-94 0 -150.5 -71t-60.5 -198h400zM567 1014q0 -16 -21 -16 t-34 12l-240 239q-8 7 -8 17q0 18 29 18h143l129 -256q2 -4 2 -14z" glyph-name="egrave" horiz-adv-x="913" unicode="è"/><glyph d="M260 422q0 -367 268 -367q150 0 258 156l60 -33q-125 -201 -350 -201q-188 0 -304 122t-116 320t114.5 325.5t286.5 127.5t268.5 -109t100.5 -306h-584q-2 -14 -2 -35zM664 528q0 104 -19 152q-41 117 -170 117q-94 0 -150.5 -71t-60.5 -198h400zM664 1284q29 0 28 -20 q0 -6 -10 -15l-238 -239q-12 -12 -28 -12q-36 -1 -25 30l127 256h146z" glyph-name="eacute" horiz-adv-x="913" unicode="é"/><glyph d="M260 422q0 -367 268 -367q150 0 258 156l60 -33q-125 -201 -350 -201q-188 0 -304 122t-116 320t114.5 325.5t286.5 127.5t268.5 -109t100.5 -306h-584q-2 -14 -2 -35zM664 528q0 104 -19 152q-41 117 -170 117q-94 0 -150.5 -71t-60.5 -198h400zM733 1044.5 q0 -12.5 -11 -23.5t-23.5 -11t-32.5 14l-195 135l-195 -135q-16 -14 -30 -14t-25.5 11t-11.5 22t16 28l246 244l248 -244q14 -14 14 -26.5z" glyph-name="ecircumflex" horiz-adv-x="913" unicode="ê"/><glyph d="M260 422q0 -367 268 -367q150 0 258 156l60 -33q-125 -201 -350 -201q-188 0 -304 122t-116 320t114.5 325.5t286.5 127.5t268.5 -109t100.5 -306h-584q-2 -14 -2 -35zM664 528q0 104 -19 152q-41 117 -170 117q-94 0 -150.5 -71t-60.5 -198h400zM285 1253 q45 0 76.5 -31.5t31.5 -76.5t-31.5 -77t-76.5 -32t-77 32t-32 77t32 76.5t77 31.5zM660 1253q45 0 76.5 -31.5t31.5 -76.5t-31.5 -77t-77 -32t-77 32t-31.5 77t32 76.5t77 31.5z" glyph-name="edieresis" horiz-adv-x="913" unicode="ë"/><glyph d="M375 227q0 -90 30.5 -125.5t106.5 -38.5v-63h-444v63q76 2 106.5 38t30.5 126v353q0 88 -31 125.5t-106 39.5v62q149 18 307 57v-637zM362 1014q0 -16 -21 -16t-34 12l-239 239q-8 7 -8 17t5 14t23 4h143l129 -256q2 -4 2 -14z" glyph-name="igrave" horiz-adv-x="559" unicode="ì"/><glyph d="M375 227q0 -90 30.5 -125.5t106.5 -38.5v-63h-444v63q76 2 106.5 38t30.5 126v353q0 88 -31 125.5t-106 39.5v62q149 18 307 57v-637zM471 1284q29 0 29 -20q0 -6 -8 -15l-240 -239q-12 -12 -34 -12t-21 18q0 8 2 12l129 256h143z" glyph-name="iacute" horiz-adv-x="559" unicode="í"/><glyph d="M375 227q0 -90 30.5 -125.5t106.5 -38.5v-63h-444v63q76 2 106.5 38t30.5 126v353q0 88 -31 125.5t-106 39.5v62q149 18 307 57v-637zM528 1044.5q0 -12.5 -11 -23.5t-23.5 -11t-32.5 14l-195 135l-194 -135q-16 -14 -30 -14t-26 11t-12 22t14 28l248 244l248 -244 q14 -14 14 -26.5z" glyph-name="icircumflex" horiz-adv-x="559" unicode="î"/><glyph d="M375 227q0 -90 30.5 -125.5t106.5 -38.5v-63h-444v63q76 2 106.5 38t30.5 126v353q0 88 -31 125.5t-106 39.5v62q149 18 307 57v-637zM113 1253q45 0 76.5 -31.5t31.5 -76.5t-31.5 -77t-76.5 -32t-77 32t-32 77t32 76.5t77 31.5zM420 1253q45 0 76.5 -31.5t31.5 -76.5 t-31.5 -77t-76.5 -32t-77 32t-32 77t32 76.5t77 31.5z" glyph-name="idieresis" horiz-adv-x="559" unicode="ï"/><glyph d="M961 434q0 -207 -120 -332t-326 -125t-322.5 118t-116.5 324t121.5 329.5t326.5 123.5q84 0 166 -26q-70 160 -174 293l-186 -95l-29 56l176 88q-96 109 -207 184l37 47q139 -76 258 -186l180 92l27 -55l-162 -84q133 -141 228 -320q123 -225 123 -432zM776 422 q0 389 -258 389t-258 -387t254 -387q127 0 194.5 99.5t67.5 285.5z" glyph-name="eth" horiz-adv-x="1034" unicode="ð"/><glyph d="M375 756v-17q147 133 312 133t226 -114q27 -51 27 -162v-369q0 -90 29.5 -125.5t105.5 -38.5v-63h-442v63q76 2 106.5 38t30.5 126v342q0 199 -178 199q-102 0 -217 -98v-443q0 -90 30.5 -125.5t106.5 -38.5v-63h-444v63q76 2 106.5 38t30.5 126v353q0 88 -30.5 125.5 t-106.5 39.5v62q152 20 280 57q27 -53 27 -108zM473 1231q33 0 114 -29q81 -28 127 -28t97 59l37 -23q-94 -150 -193 -149q-20 0 -115 29q-95 28 -132 28t-93 -69l-39 18q90 164 197 164z" glyph-name="ntilde" horiz-adv-x="1124" unicode="ñ"/><glyph d="M522 872q203 0 319.5 -118.5t116.5 -324.5t-121.5 -329t-324.5 -123t-319.5 118t-116.5 324t121.5 329.5t324.5 123.5zM520 811q-260 0 -260 -387t254 -387q127 0 193.5 99.5t66.5 285.5q0 389 -254 389zM600 1026q0 -16 -21 -16t-34 12l-240 240q-8 8 -8 17q0 17 29 17 h143l129 -256q2 -4 2 -14z" glyph-name="ograve" horiz-adv-x="1034" unicode="ò"/><glyph d="M522 872q203 0 319.5 -118.5t116.5 -324.5t-121.5 -329t-324.5 -123t-319.5 118t-116.5 324t121.5 329.5t324.5 123.5zM520 811q-260 0 -260 -387t254 -387q127 0 193.5 99.5t66.5 285.5q0 389 -254 389zM709 1296q31 0 30 -20q0 -6 -10 -14l-237 -240q-12 -12 -35 -12 t-23 18q0 4 4 12l127 256h144z" glyph-name="oacute" horiz-adv-x="1034" unicode="ó"/><glyph d="M522 872q203 0 319.5 -118.5t116.5 -324.5t-121.5 -329t-324.5 -123t-319.5 118t-116.5 324t121.5 329.5t324.5 123.5zM520 811q-260 0 -260 -387t254 -387q127 0 193.5 99.5t66.5 285.5q0 389 -254 389zM780 1058q0 -11 -11 -22.5t-25 -11.5t-31 14l-195 136l-194 -136 q-20 -14 -32 -14t-24 11.5t-12 23.5t14 26l248 244l246 -244q16 -16 16 -27z" glyph-name="ocircumflex" horiz-adv-x="1034" unicode="ô"/><glyph d="M522 872q203 0 319.5 -118.5t116.5 -324.5t-121.5 -329t-324.5 -123t-319.5 118t-116.5 324t121.5 329.5t324.5 123.5zM520 811q-260 0 -260 -387t254 -387q127 0 193.5 99.5t66.5 285.5q0 389 -254 389zM610 1073q-20 0 -112 30t-132 30t-94 -72l-41 20q92 164 197 164 q31 0 114 -30q83 -29 129 -29t97 59l35 -20q-92 -152 -193 -152z" glyph-name="otilde" horiz-adv-x="1034" unicode="õ"/><glyph d="M522 872q203 0 319.5 -118.5t116.5 -324.5t-121.5 -329t-324.5 -123t-319.5 118t-116.5 324t121.5 329.5t324.5 123.5zM520 811q-260 0 -260 -387t254 -387q127 0 193.5 99.5t66.5 285.5q0 389 -254 389zM330 1253q45 0 76.5 -31.5t31.5 -76.5t-31.5 -77t-76.5 -32 t-77 32t-32 77t32 76.5t77 31.5zM705 1253q45 0 76.5 -31.5t31.5 -76.5t-31.5 -77t-77 -32t-77 32t-31.5 77t32 76.5t77 31.5z" glyph-name="odieresis" horiz-adv-x="1034" unicode="ö"/><glyph d="M47 625v88h928v-88h-928zM511 436q42 0 69.5 -27.5t27.5 -69.5t-27.5 -69.5t-69.5 -27.5t-69.5 28.5t-27.5 69.5t27.5 68.5t69.5 27.5zM511 1096q42 0 69.5 -28t27.5 -70t-27.5 -69.5t-69.5 -27.5t-69.5 28.5t-27.5 69.5t27.5 69t69.5 28z" glyph-name="divide" unicode="÷"/><glyph d="M965 440q0 -211 -121 -334.5t-324 -123.5q-164 0 -282 84l-103 -117l-59 49l104 121q-98 109 -98 309t122 324.5t322 124.5q154 0 256 -68l107 125l59 -53l-104 -119q121 -111 121 -322zM522 43q124 0 191 98.5t67 262.5t-30 253l-424 -512q72 -102 196 -102zM526 815 q-260 0 -260 -393q0 -123 25 -199l420 508q-68 84 -185 84z" glyph-name="oslash" horiz-adv-x="1040" unicode="ø"/><glyph d="M184 645q0 90 -29.5 126t-107.5 40v63h307v-593q0 -199 178 -199q59 0 106.5 21.5t111.5 78.5v463q0 88 -31 125t-107 41v63h308v-647q0 -88 31.5 -124.5t105.5 -39.5v-63q-37 -2 -78 -2l-76 -2q-47 0 -127 -8q-20 57 -26 125q-150 -135 -308 -136q-78 0 -142 32t-91 85 q-16 31 -19.5 50.5t-5.5 109.5v391zM635 1014q-1 -16 -23 -16t-34 12l-238 239q-10 8 -10 15q0 20 30 20h144l127 -256q4 -8 4 -14z" glyph-name="ugrave" horiz-adv-x="1103" unicode="ù"/><glyph d="M184 645q0 90 -29.5 126t-107.5 40v63h307v-593q0 -199 178 -199q59 0 106.5 21.5t111.5 78.5v463q0 88 -31 125t-107 41v63h308v-647q0 -88 31.5 -124.5t105.5 -39.5v-63q-37 -2 -78 -2l-76 -2q-47 0 -127 -8q-20 57 -26 125q-150 -135 -308 -136q-78 0 -142 32t-91 85 q-16 31 -19.5 50.5t-5.5 109.5v391zM743 1284q29 0 29 -20q0 -6 -8 -15l-240 -239q-12 -12 -34 -12t-21 18q0 8 2 12l129 256h143z" glyph-name="uacute" horiz-adv-x="1103" unicode="ú"/><glyph d="M184 645q0 90 -29.5 126t-107.5 40v63h307v-593q0 -199 178 -199q59 0 106.5 21.5t111.5 78.5v463q0 88 -31 125t-107 41v63h308v-647q0 -88 31.5 -124.5t105.5 -39.5v-63q-37 -2 -78 -2l-76 -2q-47 0 -127 -8q-20 57 -26 125q-150 -135 -308 -136q-78 0 -142 32t-91 85 q-16 31 -19.5 50.5t-5.5 109.5v391zM815 1044q0 -12 -10.5 -23t-22.5 -11t-34 14l-197 135l-195 -135q-16 -14 -30 -14t-25.5 11t-11.5 22t16 28l246 244l248 -244q16 -15 16 -27z" glyph-name="ucircumflex" horiz-adv-x="1103" unicode="û"/><glyph d="M184 645q0 90 -29.5 126t-107.5 40v63h307v-593q0 -199 178 -199q59 0 106.5 21.5t111.5 78.5v463q0 88 -31 125t-107 41v63h308v-647q0 -88 31.5 -124.5t105.5 -39.5v-63q-37 -2 -78 -2l-76 -2q-47 0 -127 -8q-20 57 -26 125q-150 -135 -308 -136q-78 0 -142 32t-91 85 q-16 31 -19.5 50.5t-5.5 109.5v391zM365 1253q45 0 76.5 -31.5t31.5 -76.5t-31.5 -77t-77 -32t-77 32t-31.5 77t32 76.5t77 31.5zM739 1253q45 0 77 -31.5t32 -76.5t-32 -77t-77 -32t-76.5 32t-31.5 77t31.5 76.5t76.5 31.5z" glyph-name="udieresis" horiz-adv-x="1103" unicode="ü"/><glyph d="M963 850v-62q-66 -6 -91.5 -20t-46.5 -59l-438 -955q-86 -186 -141.5 -250.5t-113.5 -64.5t-86 22.5t-28 52.5t15 50q12 -4 30 -4q53 0 126 49t186 280l65 138l-319 682q-35 78 -127 79v62h393v-62h-10q-78 0 -78 -43q0 -14 14 -49l215 -467l215 480q28 61 3 69t-82 10 v62h299zM696 1284q31 0 31 -20q0 -6 -10 -15l-240 -239q-8 -12 -32 -12t-23 18l2 12l129 256h143z" glyph-name="yacute" horiz-adv-x="954" unicode="ý"/><glyph d="M328 -317q0 -90 31.5 -128t105.5 -38h41v-64h-486v64q76 2 107 38.5t31 127.5v1454q0 88 -31 125.5t-107 40.5v61q152 20 281 57q27 -43 27 -88v-585q116 124 284 124t274.5 -123.5t106.5 -319.5t-111.5 -323.5t-275.5 -127.5t-278 94v-389zM813 431q0 167 -63.5 263.5 t-171.5 96.5q-139 0 -250 -166v-459q106 -106 225 -106t189.5 102t70.5 269z" glyph-name="thorn" horiz-adv-x="1069" unicode="þ"/><glyph d="M963 850v-62q-66 -6 -91.5 -20t-46.5 -59l-438 -955q-86 -186 -141.5 -250.5t-113.5 -64.5t-86 22.5t-28 52.5t15 50q12 -4 30 -4q53 0 126 49t186 280l65 138l-319 682q-35 78 -127 79v62h393v-62h-10q-78 0 -78 -43q0 -14 14 -49l215 -467l215 480q28 61 3 69t-82 10 v62h299zM303 1253q45 0 77 -31.5t32 -76.5t-32 -77t-77 -32t-76.5 32t-31.5 77t31.5 76.5t76.5 31.5zM680 1253q45 0 76.5 -31.5t31.5 -76.5t-31.5 -77t-76.5 -32t-77 32t-32 77t32 76.5t77 31.5z" glyph-name="ydieresis" horiz-adv-x="954" unicode="ÿ"/><glyph d="M1481 0h-563v63h45q119 0 118 64q0 29 -18 72l-111 262h-544l-107 -262q-14 -35 -14 -69t30.5 -50.5t114.5 -16.5h25v-63h-471v63q98 2 145 32t76 104l491 1190h74l518 -1190q49 -127 191 -136v-63zM911 549l-176 434q-28 69 -39 109l-10 26l-8 29q-4 -14 -16 -51 l-222 -547h471zM428 1636h610v-104h-610v104z" glyph-name="Amacron" horiz-adv-x="1468" unicode="Ā"/><glyph d="M766 166q0 -92 55 -92t86 106h62q-49 -203 -205 -203q-150 0 -168 146q-53 -63 -136 -103t-169 -40t-140.5 57t-54.5 153t37 149.5t111 85.5t192 57q117 25 160 44v70q0 117 -23 156q-37 59 -137 59q-61 0 -93 -27.5t-46 -91.5q-16 -84 -90 -84q-41 0 -67.5 18.5 t-26.5 47.5q0 57 61 112q92 86 264 86t262 -73q41 -37 53.5 -73t12.5 -112v-448zM403 98q97 0 193 82v287q-45 -20 -187 -62t-143 -167q0 -59 39 -99.5t98 -40.5zM229 1196h498v-96h-498v96z" glyph-name="amacron" horiz-adv-x="956" unicode="ā"/><glyph d="M1481 0h-563v63h45q119 0 118 64q0 29 -18 72l-111 262h-544l-107 -262q-14 -35 -14 -69t30.5 -50.5t114.5 -16.5h25v-63h-471v63q98 2 145 32t76 104l491 1190h74l518 -1190q49 -127 191 -136v-63zM911 549l-176 434q-28 69 -39 109l-10 26l-8 29q-4 -14 -16 -51 l-222 -547h471zM732 1620q103 0 153.5 24.5t70.5 86.5h58q-8 -111 -85 -176.5t-200 -65.5t-196.5 64.5t-79.5 177.5h51q18 -59 71.5 -85t156.5 -26z" glyph-name="Abreve" horiz-adv-x="1468" unicode="Ă"/><glyph d="M766 166q0 -92 55 -92t86 106h62q-49 -203 -205 -203q-150 0 -168 146q-53 -63 -136 -103t-169 -40t-140.5 57t-54.5 153t37 149.5t111 85.5t192 57q117 25 160 44v70q0 117 -23 156q-37 59 -137 59q-61 0 -93 -27.5t-46 -91.5q-16 -84 -90 -84q-41 0 -67.5 18.5 t-26.5 47.5q0 57 61 112q92 86 264 86t262 -73q41 -37 53.5 -73t12.5 -112v-448zM403 98q97 0 193 82v287q-45 -20 -187 -62t-143 -167q0 -59 39 -99.5t98 -40.5zM478 1155q99 0 146.5 23.5t67.5 83.5h56q-10 -106 -83 -169t-190 -63t-187.5 61.5t-76.5 170.5h51 q16 -57 66.5 -82t149.5 -25z" glyph-name="abreve" horiz-adv-x="956" unicode="ă"/><glyph d="M1436 -301q-76 0 -115 34t-39 86t27.5 92t95.5 89h-487v63h45q119 0 118 64q0 29 -18 72l-111 262h-544l-107 -262q-14 -35 -14 -69t30.5 -50.5t114.5 -16.5h25v-63h-471v63q98 2 145 32t76 104l491 1190h74l518 -1190q49 -127 191 -136v-63q-72 -66 -72 -129 q0 -33 24.5 -56.5t59.5 -23.5t82 27v-62q-63 -57 -139 -57zM911 549l-176 434q-28 69 -39 109l-10 26l-8 29q-4 -14 -16 -51l-222 -547h471z" glyph-name="Aogonek" horiz-adv-x="1468" unicode="Ą"/><glyph d="M766 166q0 -92 55 -92t86 106h60q-25 -106 -97 -171t-73 -132q0 -35 23.5 -57.5t55.5 -22.5t82 25v-64q-62 -45 -134 -45t-110 31t-38 82q0 78 86 151q-72 2 -116 40t-50 106q-53 -63 -136 -103t-169 -40t-140.5 57t-54.5 153t37 149.5t111 85.5t192 57q117 25 160 44v70 q0 117 -23 156q-37 59 -137 59q-61 0 -93 -27.5t-46 -91.5q-16 -84 -90 -84q-41 0 -67.5 18.5t-26.5 47.5q0 57 61 112q92 86 264 86t262 -73q41 -37 53.5 -73t12.5 -112v-448zM403 98q97 0 193 82v287q-45 -20 -187 -62t-143 -167q0 -59 39 -99.5t98 -40.5z" glyph-name="aogonek" horiz-adv-x="956" unicode="ą"/><glyph d="M793 1329q-221 0 -348.5 -171t-127.5 -462t136.5 -460.5t368.5 -169.5t403 188q66 72 96 147l74 -57q-39 -92 -121 -174q-207 -207 -509 -207t-492.5 196.5t-190.5 513.5t196.5 522.5t501.5 205.5q229 0 439 -139q23 31 45 104h57l18 -494h-63q-117 457 -483 457z M1012 1769q31 0 30 -20q0 -8 -10 -16l-250 -250q-14 -15 -36 -15t-23 19q0 8 2 12l135 270h152z" glyph-name="Cacute" horiz-adv-x="1456" unicode="Ć"/><glyph d="M76 415q0 198 120.5 327.5t313.5 129.5q111 0 199 -51t88 -116q0 -33 -22.5 -54.5t-59.5 -21.5t-70 26q-6 78 -39 112t-104 34q-106 0 -171 -93.5t-65 -261.5t76 -275.5t214 -107.5t220 158l62 -20q-82 -223 -344 -224q-186 0 -302 120t-116 318zM659 1284q29 0 29 -20 q0 -6 -10 -15l-238 -239q-12 -12 -28 -12q-36 -1 -25 30l127 256h145z" glyph-name="cacute" horiz-adv-x="878" unicode="ć"/><glyph d="M793 1329q-221 0 -348.5 -171t-127.5 -462t136.5 -460.5t368.5 -169.5t403 188q66 72 96 147l74 -57q-39 -92 -121 -174q-207 -207 -509 -207t-492.5 196.5t-190.5 513.5t196.5 522.5t501.5 205.5q229 0 439 -139q23 31 45 104h57l18 -494h-63q-117 457 -483 457z M1085 1504q0 -14 -12 -26t-23 -12t-34 17l-205 141l-205 -141q-25 -17 -36 -17t-23 12.5t-12 25t16 28.5l260 256l258 -256q16 -14 16 -28z" glyph-name="Ccircumflex" horiz-adv-x="1456" unicode="Ĉ"/><glyph d="M793 1329q-221 0 -348.5 -171t-127.5 -462t136.5 -460.5t368.5 -169.5t403 188q66 72 96 147l74 -57q-39 -92 -121 -174q-207 -207 -509 -207t-492.5 196.5t-190.5 513.5t196.5 522.5t501.5 205.5q229 0 439 -139q23 31 45 104h57l18 -494h-63q-117 457 -483 457z M810 1710q46 0 80 -34t34 -80t-33 -79.5t-80 -33.5t-81 33.5t-34 81t34 80t80 32.5z" glyph-name="Cdotaccent" horiz-adv-x="1456" unicode="Ċ"/><glyph d="M76 415q0 198 120.5 327.5t313.5 129.5q111 0 199 -51t88 -116q0 -33 -22.5 -54.5t-59.5 -21.5t-70 26q-6 78 -39 112t-104 34q-106 0 -171 -93.5t-65 -261.5t76 -275.5t214 -107.5t220 158l62 -20q-82 -223 -344 -224q-186 0 -302 120t-116 318zM481 1253q45 0 77 -31.5 t32 -76.5t-32 -77t-77 -32t-76.5 32t-31.5 77t31.5 76.5t76.5 31.5z" glyph-name="cdotaccent" horiz-adv-x="878" unicode="ċ"/><glyph d="M793 1329q-221 0 -348.5 -171t-127.5 -462t136.5 -460.5t368.5 -169.5t403 188q66 72 96 147l74 -57q-39 -92 -121 -174q-207 -207 -509 -207t-492.5 196.5t-190.5 513.5t196.5 522.5t501.5 205.5q229 0 439 -139q23 31 45 104h57l18 -494h-63q-117 457 -483 457z M578 1778q20 0 40 -21l193 -139l190 139q47 37 65.5 17.5t18.5 -32.5t-28 -42l-246 -248l-248 248q-29 29 -29 42t12 24.5t32 11.5z" glyph-name="Ccaron" horiz-adv-x="1456" unicode="Č"/><glyph d="M76 415q0 198 120.5 327.5t313.5 129.5q111 0 199 -51t88 -116q0 -33 -22.5 -54.5t-59.5 -21.5t-70 26q-6 78 -39 112t-104 34q-106 0 -171 -93.5t-65 -261.5t76 -275.5t214 -107.5t220 158l62 -20q-82 -223 -344 -224q-186 0 -302 120t-116 318zM217 1271 q0 13 11.5 23.5t29.5 10.5t41 -19l182 -133l183 133q42 33 60.5 15.5t18.5 -30.5t-26 -40l-236 -236l-235 236q-29 27 -29 40z" glyph-name="ccaron" horiz-adv-x="878" unicode="č"/><glyph d="M68 1366q604 0 719.5 -5t203.5 -36q211 -74 331 -247t120 -404q0 -305 -186.5 -489.5t-493.5 -184.5h-694v63q129 6 166.5 36t37.5 128v912q0 98 -37.5 129t-166.5 35v63zM477 297q0 -129 25 -166q35 -59 225 -59q248 0 363 174q110 176 110 431t-108 419 q-135 205 -455 204l-160 -4v-999zM432 1742q0 13 12 24.5t32 11.5t40 -21l191 -139l192 139q46 36 65 17t19 -32t-29 -42l-247 -248l-246 248q-29 29 -29 42z" glyph-name="Dcaron" horiz-adv-x="1525" unicode="Ď"/><glyph d="M766 1137q0 88 -32 124.5t-105 41.5v61q156 20 307 57v-1194q0 -84 32.5 -122.5t106.5 -41.5v-63q-123 0 -250 -12q-23 51 -26 86q-147 -96 -291 -97q-193 0 -312.5 126t-119.5 326t112 321.5t296 121.5t282 -120v385zM516 782q-256 0 -256 -362q0 -170 69.5 -265.5 t192.5 -95.5q152 0 244 156v420q-29 70 -95.5 108.5t-154.5 38.5zM1114 1206q-28 0 -55 27t-27 67t29 66.5t78 26.5t83.5 -40t34.5 -102q0 -156 -184 -219l-14 31q111 45 110 131q0 10 -2 20q-25 -8 -53 -8z" glyph-name="dcaron" horiz-adv-x="1257" unicode="ď"/><glyph d="M68 1366q604 0 719.5 -5t203.5 -36q211 -74 331 -247t120 -402q0 -305 -186.5 -490.5t-493.5 -185.5h-694v63q129 6 166.5 36t37.5 130v451h-131v76h131v383q0 98 -37.5 129t-166.5 35v63zM477 756h381v-76h-381v-383q0 -131 25 -166q37 -59 225 -59q248 0 363 174 q110 176 110 431t-108 419q-135 205 -455 204l-160 -4v-540z" glyph-name="Dcroat" horiz-adv-x="1525" unicode="Đ"/><glyph d="M766 1030h-297v62h297v45q0 88 -32 124.5t-105 41.5v61q156 20 307 57v-329h125v-62h-125v-803q0 -86 32.5 -123.5t106.5 -40.5v-63q-123 0 -250 -12q-23 51 -26 86q-152 -96 -291 -97q-193 0 -312.5 126t-119.5 326t112 321.5t294 121.5t284 -120v278zM516 782 q-256 0 -256 -362q0 -170 69.5 -265.5t192.5 -95.5q152 0 244 156v420q-29 70 -95.5 108.5t-154.5 38.5z" glyph-name="dcroat" horiz-adv-x="1122" unicode="đ"/><glyph d="M774 1296h-297v-536h129q94 0 140.5 46t50.5 144h63v-463h-63q-6 115 -46 158t-145 43h-129v-438q0 -104 50.5 -142t186.5 -38t208.5 21.5t117.5 72.5t79 126t38 132h60l-25 -422h-1124v63q131 6 167.5 36t36.5 128v912q0 98 -36.5 127.5t-167.5 36.5v63h1009l37 -334 h-65q-19 98 -61 158t-89 83t-125 23zM344 1636h610v-104h-610v104z" glyph-name="Emacron" horiz-adv-x="1298" unicode="Ē"/><glyph d="M260 422q0 -367 268 -367q150 0 258 156l60 -33q-125 -201 -350 -201q-188 0 -304 122t-116 320t114.5 325.5t286.5 127.5t268.5 -109t100.5 -306h-584q-2 -14 -2 -35zM664 528q0 104 -19 152q-41 117 -170 117q-94 0 -150.5 -71t-60.5 -198h400zM223 1196h498v-96h-498 v96z" glyph-name="emacron" horiz-adv-x="913" unicode="ē"/><glyph d="M774 1296h-297v-536h129q94 0 140.5 46t50.5 144h63v-463h-63q-6 115 -46 158t-145 43h-129v-438q0 -104 50.5 -142t186.5 -38t208.5 21.5t117.5 72.5t79 126t38 132h60l-25 -422h-1124v63q131 6 167.5 36t36.5 128v912q0 98 -36.5 127.5t-167.5 36.5v63h1009l37 -334 h-65q-19 98 -61 158t-89 83t-125 23zM648 1620q103 0 153.5 24.5t70.5 86.5h58q-8 -111 -85 -176.5t-200 -65.5t-197.5 64.5t-78.5 177.5h51q18 -59 71.5 -85t156.5 -26z" glyph-name="Ebreve" horiz-adv-x="1298" unicode="Ĕ"/><glyph d="M260 422q0 -367 268 -367q150 0 258 156l60 -33q-125 -201 -350 -201q-188 0 -304 122t-116 320t114.5 325.5t286.5 127.5t268.5 -109t100.5 -306h-584q-2 -14 -2 -35zM664 528q0 104 -19 152q-41 117 -170 117q-94 0 -150.5 -71t-60.5 -198h400zM468 989 q-116 0 -187.5 61.5t-77.5 170.5h51q31 -106 215 -107q100 0 148.5 23.5t66.5 83.5h55q-10 -106 -82.5 -169t-188.5 -63z" glyph-name="ebreve" horiz-adv-x="913" unicode="ĕ"/><glyph d="M774 1296h-297v-536h129q94 0 140.5 46t50.5 144h63v-463h-63q-6 115 -46 158t-145 43h-129v-438q0 -104 50.5 -142t186.5 -38t208.5 21.5t117.5 72.5t79 126t38 132h60l-25 -422h-1124v63q131 6 167.5 36t36.5 128v912q0 98 -36.5 127.5t-167.5 36.5v63h1009l37 -334 h-65q-19 98 -61 158t-89 83t-125 23zM649 1710q47 0 80 -34t33 -80t-33 -79.5t-80 -33.5t-80.5 33.5t-33.5 81t33.5 80t80.5 32.5z" glyph-name="Edotaccent" horiz-adv-x="1298" unicode="Ė"/><glyph d="M260 422q0 -367 268 -367q150 0 258 156l60 -33q-125 -201 -350 -201q-188 0 -304 122t-116 320t114.5 325.5t286.5 127.5t268.5 -109t100.5 -306h-584q-2 -14 -2 -35zM664 528q0 104 -19 152q-41 117 -170 117q-94 0 -150.5 -71t-60.5 -198h400zM471 1253q45 0 77 -31.5 t32 -76.5t-32 -77t-77 -32t-77 32t-32 77t32 76.5t77 31.5z" glyph-name="edotaccent" horiz-adv-x="913" unicode="ė"/><glyph d="M1146 -301q-74 0 -114.5 34t-40.5 86t28 92t93 89h-1044v63q131 6 167.5 36t36.5 128v912q0 98 -36.5 127.5t-167.5 36.5v63h1009l35 -334h-63q-19 98 -61 158t-89 83t-125 23h-297v-536h129q94 0 140.5 46t50.5 144h63v-463h-63q-6 115 -46 158t-145 43h-129v-438 q0 -104 50.5 -142t185.5 -38t207.5 20.5t118.5 72.5t80 127t38 132h60l-27 -422q-72 -61 -72 -129q0 -33 24.5 -56.5t58.5 -23.5t81 27v-62q-62 -57 -136 -57z" glyph-name="Eogonek" horiz-adv-x="1298" unicode="Ę"/><glyph d="M260 422q0 -367 268 -367q78 0 138.5 36t119.5 120l60 -33q-57 -90 -131 -139q-41 -29 -72 -78t-31 -84t23.5 -57.5t56.5 -22.5t82 25v-64q-62 -45 -134 -45t-110 31t-38 82q0 86 100 162q-49 -10 -96 -11q-188 0 -304 122t-116 320t114.5 325.5t286.5 127.5t268.5 -110 t100.5 -305h-584q-2 -14 -2 -35zM664 528q0 141 -44.5 205t-141.5 64t-153.5 -71t-60.5 -198h400z" glyph-name="eogonek" horiz-adv-x="913" unicode="ę"/><glyph d="M774 1296h-297v-536h129q94 0 140.5 46t50.5 144h63v-463h-63q-6 115 -46 158t-145 43h-129v-438q0 -104 50.5 -142t186.5 -38t208.5 21.5t117.5 72.5t79 126t38 132h60l-25 -422h-1124v63q131 6 167.5 36t36.5 128v912q0 98 -36.5 127.5t-167.5 36.5v63h1009l37 -334 h-65q-19 98 -61 158t-89 83t-125 23zM415 1778q20 0 44 -21l190 -139l191 139q45 36 65.5 17t20.5 -32t-29 -42l-248 -248l-248 248q-29 29 -29 42t11.5 24.5t31.5 11.5z" glyph-name="Ecaron" horiz-adv-x="1298" unicode="Ě"/><glyph d="M260 422q0 -367 268 -367q150 0 258 156l60 -33q-125 -201 -350 -201q-188 0 -304 122t-116 320t114.5 325.5t286.5 127.5t268.5 -109t100.5 -306h-584q-2 -14 -2 -35zM664 528q0 104 -19 152q-41 117 -170 117q-94 0 -150.5 -71t-60.5 -198h400zM209 1271 q0 13 10.5 23.5t26.5 10.5t45 -19l180 -133l182 133q43 34 62.5 16t19.5 -31t-28 -40l-236 -236l-235 236q-27 27 -27 40z" glyph-name="ecaron" horiz-adv-x="913" unicode="ě"/><glyph d="M899 594h594v-64h-31q-78 0 -113.5 -30.5t-35.5 -98.5v-303q-104 -12 -223 -57q-190 -76 -340 -76q-291 0 -479.5 193.5t-188.5 492.5q0 160 60.5 309.5t157.5 243.5t224 145.5t248 51.5t233.5 -37t192.5 -98q29 45 45 100h57l13 -467h-70q-18 121 -84 229 q-131 209 -363 209t-354.5 -172t-122.5 -473t123 -474t336 -173q117 0 223.5 55.5t106.5 114.5v152q0 66 -12.5 115.5t-147.5 47.5h-49v64zM1013.5 1466q-12.5 0 -34.5 17l-205 141l-205 -141q-23 -16 -35 -16.5t-24 12t-12 25t16 28.5l260 256l260 -256q29 -29 10.5 -47.5 t-31 -18.5z" glyph-name="Gcircumflex" horiz-adv-x="1548" unicode="Ĝ"/><glyph d="M729 1044q0 -12 -11.5 -23t-25.5 -11t-30 14l-197 135l-195 -135q-16 -14 -30 -14t-25.5 11t-11.5 22t16 28l246 244l248 -244q16 -15 16 -27zM782 563q0 -166 -137 -248q-43 -25 -81 -34t-128 -14t-153.5 -29.5t-63.5 -59.5t94 -35q313 -5 407 -29t144.5 -89.5 t50.5 -165.5q0 -162 -125 -276q-125 -113 -317 -113t-315 82.5t-123 201.5t117 174q78 37 155 37q6 0 6 -2t-16 -12q-119 -63 -119 -171t80 -167t214 -59t221 61t87 159t-90 140q-31 14 -60.5 19.5t-193.5 19.5t-239.5 59t-75.5 127t86 127q53 27 102 33q-188 59 -188 260 q0 139 90 226t252 87t248 -102q37 45 92 73.5t99 28.5t70.5 -21t26.5 -55t-19 -55.5t-50 -21.5t-60 30q-59 61 -133 -10q45 -72 45 -176zM621 573q0 246 -167 246t-167 -252t164 -252q82 0 126 68t44 190z" glyph-name="gcircumflex" horiz-adv-x="985" unicode="ĝ"/><glyph d="M899 594h594v-64h-31q-78 0 -113.5 -30.5t-35.5 -98.5v-303q-104 -12 -223 -57q-190 -76 -340 -76q-291 0 -479.5 193.5t-188.5 492.5q0 160 60.5 309.5t157.5 243.5t224 145.5t248 51.5t233.5 -37t192.5 -98q29 45 45 100h57l13 -467h-70q-18 121 -84 229 q-131 209 -363 209t-354.5 -172t-122.5 -473t123 -474t336 -173q117 0 223.5 55.5t106.5 114.5v152q0 66 -12.5 115.5t-147.5 47.5h-49v64zM773 1620q103 0 153.5 24.5t70.5 86.5h58q-8 -111 -85 -176.5t-200 -65.5t-196.5 64.5t-79.5 177.5h51q18 -59 71.5 -85t156.5 -26z " glyph-name="Gbreve" horiz-adv-x="1548" unicode="Ğ"/><glyph d="M462 1030q-116 0 -187.5 61.5t-75.5 170.5h49q31 -106 215 -107q100 0 148 23.5t67 83.5h55q-10 -106 -82.5 -169t-188.5 -63zM782 563q0 -166 -137 -248q-43 -25 -81 -34t-128 -14t-153.5 -29.5t-63.5 -59.5t94 -35q313 -5 407 -29t144.5 -89.5t50.5 -165.5 q0 -162 -125 -276q-125 -113 -317 -113t-315 82.5t-123 201.5t117 174q78 37 155 37q6 0 6 -2t-16 -12q-119 -63 -119 -171t80 -167t214 -59t221 61t87 159t-90 140q-31 14 -60.5 19.5t-193.5 19.5t-239.5 59t-75.5 127t86 127q53 27 102 33q-188 59 -188 260q0 139 90 226 t252 87t248 -102q37 45 92 73.5t99 28.5t70.5 -21t26.5 -55t-19 -55.5t-50 -21.5t-60 30q-59 61 -133 -10q45 -72 45 -176zM621 573q0 246 -167 246t-167 -252t164 -252q82 0 126 68t44 190z" glyph-name="gbreve" horiz-adv-x="985" unicode="ğ"/><glyph d="M899 594h594v-64h-31q-78 0 -113.5 -30.5t-35.5 -98.5v-303q-104 -12 -223 -57q-190 -76 -340 -76q-291 0 -479.5 193.5t-188.5 492.5q0 160 60.5 309.5t157.5 243.5t224 145.5t248 51.5t233.5 -37t192.5 -98q29 45 45 100h57l13 -467h-70q-18 121 -84 229 q-131 209 -363 209t-354.5 -172t-122.5 -473t123 -474t336 -173q117 0 223.5 55.5t106.5 114.5v152q0 66 -12.5 115.5t-147.5 47.5h-49v64zM773 1710q46 0 80 -34t34 -80t-33 -79.5t-80 -33.5t-81 33.5t-34 81t34 80t80 32.5z" glyph-name="Gdotaccent" horiz-adv-x="1548" unicode="Ġ"/><glyph d="M465 1253q45 0 76.5 -31.5t31.5 -76.5t-31.5 -77t-76.5 -32t-77 32t-32 77t32 76.5t77 31.5zM782 563q0 -166 -137 -248q-43 -25 -81 -34t-128 -14t-153.5 -29.5t-63.5 -59.5t94 -35q313 -5 407 -29t144.5 -89.5t50.5 -165.5q0 -162 -125 -276q-125 -113 -317 -113 t-315 82.5t-123 201.5t117 174q78 37 155 37q6 0 6 -2t-16 -12q-119 -63 -119 -171t80 -167t214 -59t221 61t87 159t-90 140q-31 14 -60.5 19.5t-193.5 19.5t-239.5 59t-75.5 127t86 127q53 27 102 33q-188 59 -188 260q0 139 90 226t252 87t248 -102q37 45 92 73.5t99 28.5 t70.5 -21t26.5 -55t-19 -55.5t-50 -21.5t-60 30q-59 61 -133 -10q45 -72 45 -176zM621 573q0 246 -167 246t-167 -252t164 -252q82 0 126 68t44 190z" glyph-name="gdotaccent" horiz-adv-x="985" unicode="ġ"/><glyph d="M899 594h594v-64h-31q-78 0 -113.5 -30.5t-35.5 -98.5v-303q-104 -12 -223 -57q-190 -76 -340 -76q-291 0 -479.5 193.5t-188.5 492.5q0 160 60.5 309.5t157.5 243.5t224 145.5t248 51.5t233.5 -37t192.5 -98q29 45 45 100h57l13 -467h-70q-18 121 -84 229 q-131 209 -363 209t-354.5 -172t-122.5 -473t123 -474t336 -173q117 0 223.5 55.5t106.5 114.5v152q0 66 -12.5 115.5t-147.5 47.5h-49v64zM664 -219q0 45 31.5 74.5t85.5 29.5t92 -44t38 -113q1 -172 -202 -244l-17 37q123 49 123 143l-2 23q-75 -26 -112 11.5t-37 82.5z " glyph-name="Gcommaaccent" horiz-adv-x="1548" unicode="Ģ"/><glyph d="M442 1227v-21q26 8 54 8t55 -26.5t27 -66.5t-29 -66.5t-78 -26.5t-83 40t-34 101q1 157 185 220l14 -31q-111 -45 -111 -131zM782 563q0 -166 -137 -248q-43 -25 -81 -34t-128 -14t-153.5 -29.5t-63.5 -59.5t94 -35q313 -5 407 -29t144.5 -89.5t50.5 -165.5 q0 -162 -125 -276q-125 -113 -317 -113t-315 82.5t-123 201.5t117 174q78 37 155 37q6 0 6 -2t-16 -12q-119 -63 -119 -171t80 -167t214 -59t221 61t87 159t-90 140q-31 14 -60.5 19.5t-193.5 19.5t-239.5 59t-75.5 127t86 127q53 27 102 33q-188 59 -188 260q0 139 90 226 t252 87t248 -102q37 45 92 73.5t99 28.5t70.5 -21t26.5 -55t-19 -55.5t-50 -21.5t-60 30q-59 61 -133 -10q45 -72 45 -176zM621 573q0 246 -167 246t-167 -252t164 -252q82 0 126 68t44 190z" glyph-name="gcommaaccent" horiz-adv-x="985" unicode="ģ"/><glyph d="M1157 678h-680v-451q0 -98 37 -127.5t168 -36.5v-63h-614v63q131 6 167.5 36t36.5 128v912q0 98 -37.5 127.5t-166.5 36.5v63h614v-63q-129 -6 -167 -36t-38 -128v-373h680v373q0 98 -38 127.5t-167 36.5v63h615v-63q-129 -6 -167 -36t-38 -128v-912q0 -98 37 -127.5 t168 -36.5v-63h-615v63q131 6 168 36t37 128v451zM1056.5 1466q-12.5 0 -34.5 17l-205 141l-205 -141q-23 -16 -35 -16.5t-24 12t-12 25t16 28.5l260 256l260 -256q27 -31 9.5 -48.5t-30 -17.5z" glyph-name="Hcircumflex" horiz-adv-x="1634" unicode="Ĥ"/><glyph d="M272 911h-135v76h135v152q0 98 -37.5 127.5t-166.5 36.5v63h614v-63q-129 -6 -167 -36t-38 -128v-152h680v152q0 98 -38 127.5t-167 36.5v63h615v-63q-131 -6 -168 -36t-37 -128v-152h135v-76h-135v-684q0 -98 37 -127.5t168 -36.5v-63h-615v63q131 6 168 36t37 128v451 h-680v-451q0 -98 37 -127.5t168 -36.5v-63h-614v63q131 6 167.5 36t36.5 128v684zM477 911v-145h680v145h-680z" glyph-name="Hbar" horiz-adv-x="1634" unicode="Ħ"/><glyph d="M760 588q0 184 -188 184q-96 0 -210 -96v-449q0 -90 31 -125.5t107 -38.5v-63h-445v63q76 2 107 38t31 126v803h-138v62h138v45q0 88 -32 124.5t-106 41.5v61q156 20 307 57v-329h287v-62h-287v-272q156 114 296 114t214 -77q57 -59 58 -203v-365q0 -90 29.5 -125.5 t105.5 -38.5v-63h-442v63q76 2 106.5 38t30.5 126v361z" glyph-name="hbar" horiz-adv-x="1112" unicode="ħ"/><glyph d="M682 0h-614v63q131 6 167.5 36t36.5 128v912q0 98 -37.5 128.5t-166.5 35.5v63h614v-63q-129 -4 -167 -35t-38 -129v-912q0 -98 37 -127.5t168 -36.5v-63zM70 1636h610v-104h-610v104z" glyph-name="Imacron" horiz-adv-x="751" unicode="Ī"/><glyph d="M375 227q0 -90 30.5 -125.5t106.5 -38.5v-63h-444v63q76 2 106.5 38t30.5 126v353q0 88 -31 125.5t-106 39.5v62q149 18 307 57v-637zM45 1196h442v-96h-442v96z" glyph-name="imacron" horiz-adv-x="559" unicode="ī"/><glyph d="M375 227q0 -90 30.5 -125.5t106.5 -38.5v-63h-444v63q76 2 106.5 38t30.5 126v353q0 88 -31 125.5t-106 39.5v62q149 18 307 57v-637zM280 1155q100 0 146.5 23.5t65.5 83.5h55q-8 -106 -81.5 -169t-189.5 -63t-187 61.5t-77 170.5h49q18 -57 68.5 -82t150.5 -25z" glyph-name="ibreve" horiz-adv-x="559" unicode="ĭ"/><glyph d="M638 -301q-74 0 -114.5 34t-40.5 86t26 91t95 90h-536v63q131 6 167.5 36t36.5 128v912q0 98 -37.5 128.5t-166.5 35.5v63h614v-63q-129 -4 -167 -35t-38 -129v-912q0 -98 37 -127.5t168 -36.5v-63q-72 -66 -72 -129q0 -33 24.5 -56.5t58.5 -23.5t81 27v-62 q-62 -57 -136 -57z" glyph-name="Iogonek" horiz-adv-x="751" unicode="Į"/><glyph d="M468 -287q-72 0 -111.5 31t-39.5 82q0 86 117 174h-366v63q76 2 106.5 38t30.5 126v353q0 88 -31 125.5t-106 39.5v62q150 18 307 57v-637q0 -90 30.5 -125.5t106.5 -38.5v-63q-74 -72 -74 -115t24.5 -65.5t57.5 -22.5t82 25v-64q-62 -45 -134 -45zM288 1253 q48 0 81.5 -34.5t33.5 -81.5t-33.5 -82t-82.5 -35t-83 33.5t-34 83t35 83t83 33.5z" glyph-name="iogonek" horiz-adv-x="559" unicode="į"/><glyph d="M682 0h-614v63q131 6 167.5 36t36.5 128v912q0 98 -37.5 128.5t-166.5 35.5v63h614v-63q-129 -4 -167 -35t-38 -129v-912q0 -98 37 -127.5t168 -36.5v-63zM375 1710q47 0 79.5 -34t32.5 -80t-32.5 -79.5t-79.5 -33.5t-81 33.5t-34 81t34 80t81 32.5z" glyph-name="Idotaccent" horiz-adv-x="751" unicode="İ"/><glyph d="M375 227q0 -90 30.5 -125.5t106.5 -38.5v-63h-444v63q76 2 106.5 38t30.5 126v353q0 88 -31 125.5t-106 39.5v62q149 18 307 57v-637z" glyph-name="dotlessi" horiz-adv-x="559" unicode="ı"/><glyph d="M682 0h-614v63q131 6 167.5 36t36.5 128v912q0 98 -37.5 128.5t-166.5 35.5v63h614v-63q-129 -4 -167 -35t-38 -129v-912q0 -98 37 -127.5t168 -36.5v-63zM887 1366h614v-63q-129 -4 -167 -35t-38 -129v-1127q0 -141 -18 -221t-66 -145q-145 -197 -411 -197 q-137 0 -224.5 51t-87.5 133q0 43 32 75t75 32t69.5 -28.5t26.5 -61.5q0 -34 -6 -52t-6 -24q0 -57 119 -57q293 0 293 358v1264q0 98 -38 129t-167 35v63z" glyph-name="IJ" horiz-adv-x="1556" unicode="Ĳ"/><glyph d="M375 227q0 -90 30.5 -125.5t106.5 -38.5v-63h-444v63q76 2 106.5 38t30.5 126v353q0 88 -31 125.5t-106 39.5v62q149 18 307 57v-637zM288 1253q48 0 81.5 -34.5t33.5 -81.5t-33.5 -82t-82.5 -35t-83 33.5t-34 83t35 83t83 33.5zM936 -195q0 -164 -91 -266t-239 -102 q-80 0 -137 34.5t-57 84.5q0 27 22 48t54 21t71 -53t96 -53t84 54t27 181v826q0 88 -30.5 125.5t-106.5 39.5v62q170 24 307 57v-1059zM853 1253q48 0 82 -34.5t34 -81.5t-34 -82t-83 -35t-83 33.5t-34 83t35 83t83 33.5z" glyph-name="ij" horiz-adv-x="1091" unicode="ĳ"/><glyph d="M1511 0h-598v63q94 6 118 12.5t24 27t-29 61.5l-410 549l-139 -127v-359q0 -98 37 -127.5t168 -36.5v-63h-614v63q131 6 167.5 36t36.5 128v912q0 98 -37.5 128.5t-166.5 35.5v63h614v-63q-129 -4 -167 -35t-38 -129v-443l481 443q59 53 60 96q0 61 -123 70q-10 0 -18 2 v59h536v-59q-84 0 -145.5 -26t-132.5 -91l-369 -340l522 -686q33 -51 82 -73.5t141 -27.5v-63zM631 -218q0 46 31.5 74.5t86.5 28.5t93.5 -44t38.5 -113q0 -172 -205 -244l-17 37q57 20 93 61t32 82q0 2 -4 23q-72 -29 -110.5 10t-38.5 85z" glyph-name="Kcommaaccent" horiz-adv-x="1484" unicode="Ķ"/><glyph d="M1024 0h-391v63h37q45 0 45 21q0 12 -27 39l-280 321l-46 -38v-179q0 -90 31 -125.5t107 -38.5v-63h-445v63q76 2 107 38t31 126v910q0 88 -32 124.5t-106 41.5v61q147 18 307 57v-929l271 213q25 18 24 45q0 37 -63 36h-21v64h357v-64q-106 -6 -205 -81l-195 -166 l316 -369q72 -88 178 -107v-63zM504 -315q-28 0 -54 26.5t-26 67.5t28.5 67.5t77.5 26.5t84 -40t35 -101q0 -155 -184 -221l-16 32q121 44 110 150q-27 -8 -55 -8z" glyph-name="kcommaaccent" horiz-adv-x="1044" unicode="ķ"/><glyph d="M573 786v64h357v-64q-106 -6 -205 -81l-195 -166l316 -369q72 -88 178 -107v-63h-391v63h37q45 0 45 21q0 12 -27 39l-280 321l-46 -38v-179q0 -90 31 -125.5t107 -38.5v-63h-445v63q76 2 107 38t31 126v359q0 82 -32 118.5t-106 40.5v62q149 18 307 57v-372l271 213 q25 18 24 45q0 37 -63 36h-21z" glyph-name="kgreenlandic" horiz-adv-x="1044" unicode="ĸ"/><glyph d="M68 0v63q131 6 167.5 36t36.5 128v912q0 98 -36.5 127.5t-167.5 36.5v63h614v-63q-129 -6 -167 -36t-38 -128v-889q0 -104 50.5 -142t185.5 -38t207.5 20.5t118.5 72.5t80 128t38 131h60l-27 -422h-1122zM604 1769q31 0 31 -20q0 -6 -10 -16l-250 -250q-12 -15 -36 -15 t-24 19q0 4 4 12l134 270h151z" glyph-name="Lacute" horiz-adv-x="1271" unicode="Ĺ"/><glyph d="M500 0h-445v63q76 2 107 38t31 126v912q0 86 -32 123.5t-106 40.5v63q150 20 307 55v-1194q0 -90 31 -125.5t107 -38.5v-63zM475 1769q31 0 31 -20q0 -8 -10 -16l-250 -250q-12 -15 -36 -15t-24 19q0 4 4 12l134 270h151z" glyph-name="lacute" horiz-adv-x="546" unicode="ĺ"/><glyph d="M68 0v63q131 6 167.5 36t36.5 128v912q0 98 -36.5 127.5t-167.5 36.5v63h614v-63q-129 -6 -167 -36t-38 -128v-889q0 -104 50.5 -142t185.5 -38t207.5 20.5t118.5 72.5t80 128t38 131h60l-27 -422h-1122zM676 -336q0 12 -2 23q-74 -27 -112 11t-38 83t32 74.5t86 29.5 t92 -44t38 -113q0 -168 -203 -244l-16 37q123 49 123 143z" glyph-name="Lcommaaccent" horiz-adv-x="1271" unicode="Ļ"/><glyph d="M500 0h-445v63q76 2 107 38t31 126v912q0 86 -32 123.5t-106 40.5v63q150 20 307 55v-1194q0 -90 31 -125.5t107 -38.5v-63zM256 -315q-28 0 -54 26.5t-26 67.5t28 67.5t78 26.5t83.5 -40t33.5 -101q0 -155 -184 -221l-14 32q111 43 110 131q0 10 -2 19q-25 -8 -53 -8z " glyph-name="lcommaaccent" horiz-adv-x="546" unicode="ļ"/><glyph d="M68 0v63q131 6 167.5 36t36.5 128v912q0 98 -36.5 127.5t-167.5 36.5v63h614v-63q-129 -6 -167 -36t-38 -128v-889q0 -104 50.5 -142t185.5 -38t207.5 20.5t118.5 72.5t80 128t38 131h60l-27 -422h-1122zM987 1174q0 2 -4 22q-25 -10 -57 -10t-61 29.5t-29 73.5t31.5 74 t85.5 30t92 -44t38 -112q1 -172 -204 -244l-17 35q125 47 125 146z" glyph-name="Lcaron" horiz-adv-x="1271" unicode="Ľ"/><glyph d="M500 0h-445v63q76 2 107 38t31 126v912q0 86 -32 123.5t-106 40.5v63q150 20 307 55v-1194q0 -90 31 -125.5t107 -38.5v-63zM594 1194v20q-26 -8 -54 -8t-54.5 27t-26.5 67t28.5 66.5t77.5 26.5t83 -40t34 -102q0 -156 -184 -219l-15 31q111 45 111 131z" glyph-name="lcaron" horiz-adv-x="681" unicode="ľ"/><glyph d="M68 0v63q131 6 167.5 36t36.5 128v912q0 98 -36.5 127.5t-167.5 36.5v63h614v-63q-129 -6 -167 -36t-38 -128v-889q0 -104 50.5 -142t185.5 -38t207.5 20.5t118.5 72.5t80 128t38 131h60l-27 -422h-1122zM1009.5 850q63.5 0 106.5 -42t43 -107t-43 -106.5t-106 -41.5 t-105.5 43t-42.5 106.5t42 105.5t105.5 42z" glyph-name="Ldot" horiz-adv-x="1271" unicode="Ŀ"/><glyph d="M500 0h-445v63q76 2 107 38t31 126v912q0 86 -32 123.5t-106 40.5v63q150 20 307 55v-1194q0 -90 31 -125.5t107 -38.5v-63zM660 762q48 0 81 -33t33 -81t-33 -80.5t-81 -32.5t-80.5 32.5t-32.5 80.5t32.5 81t80.5 33z" glyph-name="ldot" horiz-adv-x="774" unicode="ŀ"/><glyph d="M477 250q0 -104 50.5 -142t185.5 -38t207.5 20.5t118.5 72.5t80 128t38 131h60l-27 -422h-1122v63q131 6 167.5 36t36.5 128v305l-159 -73l-33 67l192 90v523q0 98 -37.5 127.5t-166.5 36.5v63h614v-63q-129 -6 -167 -36t-38 -128v-426l402 188l34 -72l-436 -202v-377z " glyph-name="Lslash" horiz-adv-x="1271" unicode="Ł"/><glyph d="M190 1139q0 86 -30.5 123.5t-104.5 40.5v63q158 23 305 55v-620l152 71l27 -59l-179 -84v-502q0 -90 31 -125.5t107 -38.5v-63h-443v63q76 2 105.5 38t29.5 126v420l-141 -69l-26 59l167 82v420z" glyph-name="lslash" horiz-adv-x="546" unicode="ł"/><glyph d="M1217 1098q0 109 -35 150.5t-135 51.5l-19 3v63h471v-63q-106 -2 -151 -48.5t-45 -156.5v-1110h-86l-730 1016q-61 82 -133 204v-868q0 -166 38 -217t165 -60v-63h-489v63q115 4 159.5 53.5t44.5 168.5v854q0 98 -37.5 128.5t-166.5 35.5v63h407l668 -924q31 -43 76 -141 v39l-2 45v713zM981 1769q31 0 31 -20q0 -8 -8 -16l-252 -250q-12 -15 -28 -15t-26.5 6.5t-1.5 24.5l135 270h150z" glyph-name="Nacute" horiz-adv-x="1562" unicode="Ń"/><glyph d="M375 756v-17q147 133 312 133t226 -114q27 -51 27 -162v-369q0 -90 29.5 -125.5t105.5 -38.5v-63h-442v63q76 2 106.5 38t30.5 126v342q0 199 -178 199q-102 0 -217 -98v-443q0 -90 30.5 -125.5t106.5 -38.5v-63h-444v63q76 2 106.5 38t30.5 126v353q0 88 -30.5 125.5 t-106.5 39.5v62q152 20 280 57q27 -53 27 -108zM754 1284q29 0 28 -20q0 -6 -8 -15l-239 -239q-12 -12 -34 -12t-22 18q0 8 2 12l129 256h144z" glyph-name="nacute" horiz-adv-x="1124" unicode="ń"/><glyph d="M1217 1098q0 109 -35 150.5t-135 51.5l-19 3v63h471v-63q-106 -2 -151 -48.5t-45 -156.5v-1110h-86l-730 1016q-61 82 -133 204v-868q0 -166 38 -217t165 -60v-63h-489v63q115 4 159.5 53.5t44.5 168.5v854q0 98 -37.5 128.5t-166.5 35.5v63h407l668 -924q31 -43 76 -141 v39l-2 45v713zM821 -336q0 12 -2 23q-72 -29 -110.5 10t-38.5 84t31.5 74.5t85.5 29.5t92.5 -44t38.5 -113q0 -168 -203 -244l-17 37q123 49 123 143z" glyph-name="Ncommaaccent" horiz-adv-x="1562" unicode="Ņ"/><glyph d="M375 756v-17q147 133 312 133t226 -114q27 -51 27 -162v-369q0 -90 29.5 -125.5t105.5 -38.5v-63h-442v63q76 2 106.5 38t30.5 126v342q0 199 -178 199q-102 0 -217 -98v-443q0 -90 30.5 -125.5t106.5 -38.5v-63h-444v63q76 2 106.5 38t30.5 126v353q0 88 -30.5 125.5 t-106.5 39.5v62q152 20 280 57q27 -53 27 -108zM544 -315q-28 0 -54.5 26.5t-26.5 67.5t28.5 67.5t77.5 26.5t84 -40t35 -101q0 -155 -184 -221l-17 32q113 41 113 131l-2 19q-26 -8 -54 -8z" glyph-name="ncommaaccent" horiz-adv-x="1124" unicode="ņ"/><glyph d="M1217 1098q0 109 -35 150.5t-135 51.5l-19 3v63h471v-63q-106 -2 -151 -48.5t-45 -156.5v-1110h-86l-730 1016q-61 82 -133 204v-868q0 -166 38 -217t165 -60v-63h-489v63q115 4 159.5 53.5t44.5 168.5v854q0 98 -37.5 128.5t-166.5 35.5v63h407l668 -924q31 -43 76 -141 v39l-2 45v713zM549 1778q21 0 41 -21l190 -139l191 139q47 37 66.5 17.5t19.5 -33.5t-29 -41l-248 -248l-248 248q-29 31 -28.5 43t12.5 23.5t33 11.5z" glyph-name="Ncaron" horiz-adv-x="1562" unicode="Ň"/><glyph d="M375 756v-17q147 133 312 133t226 -114q27 -51 27 -162v-369q0 -90 29.5 -125.5t105.5 -38.5v-63h-442v63q76 2 106.5 38t30.5 126v342q0 199 -178 199q-102 0 -217 -98v-443q0 -90 30.5 -125.5t106.5 -38.5v-63h-444v63q76 2 106.5 38t30.5 126v353q0 88 -30.5 125.5 t-106.5 39.5v62q152 20 280 57q27 -53 27 -108zM299 1271q0 13 11.5 23.5t26.5 10.5t44 -19l180 -133l182 133q43 34 62.5 16t19.5 -31t-28 -40l-236 -236l-235 236q-27 27 -27 40z" glyph-name="ncaron" horiz-adv-x="1124" unicode="ň"/><glyph d="M102 1174q-36 0 -69 31.5t-33 80.5t34 82t96 33t112.5 -67.5t50.5 -172.5t-77.5 -204t-192.5 -134v37q162 113 161 238q0 33 -16 80q-30 -4 -66 -4zM600 756v-17q147 133 312 133t227 -114q27 -51 26 -162v-369q0 -90 31 -125.5t107 -38.5v-63h-445v63q76 2 106.5 38 t30.5 126v342q0 199 -178 199q-102 0 -217 -98v-443q0 -90 31 -125.5t106 -38.5v-63h-444v63q76 2 106.5 38t30.5 126v353q0 88 -30.5 125.5t-106.5 39.5v62q152 20 280 57q27 -53 27 -108z" glyph-name="napostrophe" horiz-adv-x="1349" unicode="ŉ"/><glyph d="M477 227q0 -98 37 -127.5t168 -36.5v-63h-614v63q129 4 166.5 35t37.5 129v879q0 57 -28 109.5t-176 56.5v61q207 20 376 58q33 -55 33 -109v-16q219 135 451 135q245 -1 352 -135q53 -66 53 -226v-1028q0 -141 -18.5 -221t-65.5 -145q-145 -197 -411 -197 q-137 0 -224.5 51t-87.5 133q0 43 32 75t75 32t69.5 -28.5t26.5 -61.5q0 -34 -6 -52t-6 -24q0 -57 119 -57q293 0 292 358v1147q0 135 -67 195q-84 71 -248 71t-336 -98v-963z" glyph-name="Eng" horiz-adv-x="1593" unicode="Ŋ"/><glyph d="M375 227q0 -90 30.5 -125.5t106.5 -38.5v-63h-444v63q76 2 106.5 38t30.5 126v353q0 88 -31 125.5t-106 39.5v62q152 20 280 57q27 -53 27 -108v-17q147 133 312 133t226 -114q27 -51 27 -162v-791q0 -164 -91 -266t-237 -102q-82 0 -139 34.5t-57 84.5q0 27 22 48t54 21 t71 -53t96 -53t84 54t27 181v815q0 199 -178 199q-104 0 -217 -98v-443z" glyph-name="eng" horiz-adv-x="1093" unicode="ŋ"/><glyph d="M806.5 1401q317.5 0 522.5 -201t205 -517t-207 -517t-523 -201t-519 204t-203 516t203.5 514t521 202zM806.5 1335q-235.5 0 -362.5 -168t-127 -480t126 -481t363 -169t363.5 166t126.5 481t-127 483t-362.5 168zM502 1636h612v-104h-612v104z" glyph-name="Omacron" horiz-adv-x="1615" unicode="Ō"/><glyph d="M522 872q203 0 319.5 -118.5t116.5 -324.5t-121.5 -329t-324.5 -123t-319.5 118t-116.5 324t121.5 329.5t324.5 123.5zM520 811q-260 0 -260 -387t254 -387q127 0 193.5 99.5t66.5 285.5q0 389 -254 389zM268 1196h498v-96h-498v96z" glyph-name="omacron" horiz-adv-x="1034" unicode="ō"/><glyph d="M806.5 1401q317.5 0 522.5 -201t205 -517t-207 -517t-523 -201t-519 204t-203 516t203.5 514t521 202zM806.5 1335q-235.5 0 -362.5 -168t-127 -480t126 -481t363 -169t363.5 166t126.5 481t-127 483t-362.5 168zM850 1767q29 0 29 -20q0 -6 -9 -16l-245 -246 q-12 -12 -36 -12t-24 18q0 4 4 12l131 264h150zM1137 1767q29 0 28 -20q0 -6 -8 -16l-246 -246q-11 -12 -35 -12t-24 18q0 4 4 12l131 264h150z" glyph-name="Ohungarumlaut" horiz-adv-x="1615" unicode="Ő"/><glyph d="M522 872q203 0 319.5 -118.5t116.5 -324.5t-121.5 -329t-324.5 -123t-319.5 118t-116.5 324t121.5 329.5t324.5 123.5zM520 811q-260 0 -260 -387t254 -387q127 0 193.5 99.5t66.5 285.5q0 389 -254 389zM557 1309q29 0 29 -18q0 -9 -11 -17l-233 -234q-8 -12 -32 -12 t-23 16q0 4 4 13l125 252h141zM829 1309q29 0 29 -18q0 -9 -8 -17l-236 -234q-8 -12 -30.5 -12t-22.5 16q0 8 2 13l125 252h141z" glyph-name="ohungarumlaut" horiz-adv-x="1034" unicode="ő"/><glyph d="M1413 1296h-285v-501h117q100 0 147.5 46t51.5 146h63v-465h-63q-4 74 -23.5 137.5t-169.5 63.5h-123v-463q0 -111 54.5 -151.5t196.5 -40.5t218.5 32.5t132.5 118.5t76 207h60l-25 -426h-862q-39 0 -99 -11t-118 -12q-311 0 -495.5 189.5t-184.5 503.5t180 513t459 199 l266 -16h737l37 -334h-65q-23 117 -84 191q-35 41 -79 57t-120 16zM924 260v1024q-94 27 -181 27q-207 0 -314 -166t-107 -462q0 -445 160 -533.5t264 -88.5t151 64q27 37 27 135z" glyph-name="OE" horiz-adv-x="1947" unicode="Œ"/><glyph d="M856 473v-39q0 -371 264 -371q147 0 256 156l60 -33q-131 -205 -355 -204q-158 0 -293 114q-74 -68 -141 -93.5t-166 -25.5q-177 0 -291 121t-114 324t118 326.5t300 123.5t294 -127q113 127 281 127t266.5 -108.5t100.5 -290.5h-580zM1249 530v35q0 113 -50 174.5 t-140 61.5t-144.5 -74t-56.5 -197h391zM480 805q-106 0 -166 -102.5t-60 -284.5t60.5 -278.5t165.5 -96.5t160.5 99.5t55.5 280.5t-55 281.5t-161 100.5z" glyph-name="oe" horiz-adv-x="1503" unicode="œ"/><glyph d="M477 645v-418q0 -98 37 -127.5t168 -36.5v-63h-614v63q131 6 167.5 36t36.5 128v912q0 98 -37.5 128.5t-166.5 37.5v61h581q254 0 379 -94t125 -246t-110.5 -250t-274.5 -102q125 -20 182.5 -70t183.5 -230t165.5 -229t69.5 -65.5t85 -16.5h16v-63h-309q-82 68 -206 280 t-199 298q-61 68 -164 67h-115zM477 713h178q125 0 189 53q86 70 86 242q0 295 -305 295h-148v-590zM870 1769q31 0 31 -20q0 -8 -10 -16l-250 -250q-12 -15 -36 -15t-23 19q0 4 4 12l133 270h151z" glyph-name="Racute" horiz-adv-x="1423" unicode="Ŕ"/><glyph d="M375 227q0 -88 30.5 -124.5t104.5 -39.5l14 -2v-61h-456v63q76 2 106.5 38t30.5 126v353q0 88 -31 125.5t-106 39.5v62q158 23 280 57q27 -49 27 -155q115 152 246 151q49 0 82.5 -30.5t33.5 -70.5t-22.5 -65.5t-55 -25.5t-59.5 34q-57 83 -128.5 35.5t-96.5 -92.5v-418z M537 1284q29 0 28 -20q0 -6 -8 -15l-240 -239q-11 -12 -33 -12t-22 18q0 8 2 12l129 256h144z" glyph-name="racute" horiz-adv-x="774" unicode="ŕ"/><glyph d="M477 645v-418q0 -98 37 -127.5t168 -36.5v-63h-614v63q131 6 167.5 36t36.5 128v912q0 98 -37.5 128.5t-166.5 37.5v61h581q254 0 379 -94t125 -246t-110.5 -250t-274.5 -102q125 -20 182.5 -70t183.5 -230t165.5 -229t69.5 -65.5t85 -16.5h16v-63h-309q-82 68 -206 280 t-199 298q-61 68 -164 67h-115zM477 713h178q125 0 189 53q86 70 86 242q0 295 -305 295h-148v-590zM600 -219q0 45 32 74.5t86 29.5t92 -44t38 -113q0 -172 -203 -244l-16 37q123 49 123 143l-2 23q-73 -29 -111.5 10t-38.5 84z" glyph-name="Rcommaaccent" horiz-adv-x="1423" unicode="Ŗ"/><glyph d="M375 227q0 -88 30.5 -124.5t104.5 -39.5l14 -2v-61h-456v63q76 2 106.5 38t30.5 126v353q0 88 -31 125.5t-106 39.5v62q158 23 280 57q27 -49 27 -155q115 152 246 151q49 0 82.5 -30.5t33.5 -70.5t-22.5 -65.5t-55 -25.5t-59.5 34q-57 83 -128.5 35.5t-96.5 -92.5v-418z M342 -326q0 10 -2 19q-26 -8 -54 -8t-54.5 26.5t-26.5 67.5t28.5 67.5t77.5 26.5t84 -40t35 -101q0 -155 -184 -221l-15 32q111 45 111 131z" glyph-name="rcommaaccent" horiz-adv-x="774" unicode="ŗ"/><glyph d="M477 645v-418q0 -98 37 -127.5t168 -36.5v-63h-614v63q131 6 167.5 36t36.5 128v912q0 98 -37.5 128.5t-166.5 37.5v61h581q254 0 379 -94t125 -246t-110.5 -250t-274.5 -102q125 -20 182.5 -70t183.5 -230t165.5 -229t69.5 -65.5t85 -16.5h16v-63h-309q-82 68 -206 280 t-199 298q-61 68 -164 67h-115zM477 713h178q125 0 189 53q86 70 86 242q0 295 -305 295h-148v-590zM393 1742q0 13 12.5 24.5t30.5 11.5t43 -21l191 -139l190 139q45 36 65.5 17t20.5 -32t-28 -42l-248 -248l-248 248q-29 29 -29 42z" glyph-name="Rcaron" horiz-adv-x="1423" unicode="Ř"/><glyph d="M375 227q0 -88 30.5 -124.5t104.5 -39.5l14 -2v-61h-456v63q76 2 106.5 38t30.5 126v353q0 88 -31 125.5t-106 39.5v62q158 23 280 57q27 -49 27 -155q115 152 246 151q49 0 82.5 -30.5t33.5 -70.5t-22.5 -65.5t-55 -25.5t-59.5 34q-57 83 -128.5 35.5t-96.5 -92.5v-418z M123 1285q0 13 11.5 23.5t27.5 10.5t43 -19l182 -135l180 135q48 29 65 13.5t17 -28.5t-26 -42l-236 -233l-235 233q-29 29 -29 42z" glyph-name="rcaron" horiz-adv-x="774" unicode="ř"/><glyph d="M915 1380v-368h-61q-25 131 -72 194t-116.5 97t-156.5 34t-151.5 -54t-64.5 -140t66.5 -148.5t242.5 -152.5t212 -110.5t77 -59.5q111 -98 111 -282t-114 -305q-114 -120 -306.5 -120t-364.5 152q-39 -84 -45 -117h-63v430h63q23 -162 134.5 -270.5t247.5 -108.5 t216 68.5t80 178.5t-69.5 176.5t-275.5 168.5t-265 158q-104 98 -104 250t108 250t284 98t295 -101q14 25 43 82h49zM776 1769q31 0 31 -20q0 -6 -10 -16l-250 -250q-12 -15 -36 -15t-24 19q0 4 5 12l133 270h151z" glyph-name="Sacute" horiz-adv-x="1097" unicode="Ś"/><glyph d="M635 850v-281h-49q-16 84 -47 127q-76 106 -174 107q-55 0 -89 -31t-34 -84t37 -85t135 -78t180 -98.5t83 -180.5t-69.5 -198.5t-191.5 -70.5t-226 91l-34 -68h-50v293h50q14 -106 83.5 -172t149.5 -66t119 36t39 90t-37.5 90t-149.5 90t-159 96q-88 76 -88 183 t63.5 170.5t173.5 63.5t199 -100l37 76h49zM573 1284q29 0 29 -20q0 -6 -8 -15l-240 -239q-12 -12 -34 -12t-21 18q0 8 2 12l129 256h143z" glyph-name="sacute" horiz-adv-x="761" unicode="ś"/><glyph d="M915 1380v-368h-61q-25 131 -72 194t-116.5 97t-156.5 34t-151.5 -54t-64.5 -140t66.5 -148.5t242.5 -152.5t212 -110.5t77 -59.5q111 -98 111 -282t-114 -305q-114 -120 -306.5 -120t-364.5 152q-39 -84 -45 -117h-63v430h63q23 -162 134.5 -270.5t247.5 -108.5 t216 68.5t80 178.5t-69.5 176.5t-275.5 168.5t-265 158q-104 98 -104 250t108 250t284 98t295 -101q14 25 43 82h49zM823 1504q0 -14 -11.5 -26t-23.5 -12t-34 17l-205 141l-205 -141q-25 -17 -36 -17t-23.5 12.5t-12.5 25t17 28.5l260 256l258 -256q16 -14 16 -28z" glyph-name="Scircumflex" horiz-adv-x="1097" unicode="Ŝ"/><glyph d="M635 850v-281h-49q-16 84 -47 127q-76 106 -174 107q-55 0 -89 -31t-34 -84t37 -85t135 -78t180 -98.5t83 -180.5t-69.5 -198.5t-191.5 -70.5t-226 91l-34 -68h-50v293h50q14 -106 83.5 -172t149.5 -66t119 36t39 90t-37.5 90t-149.5 90t-159 96q-88 76 -88 183 t63.5 170.5t173.5 63.5t199 -100l37 76h49zM643 1044.5q0 -12.5 -11.5 -23.5t-23.5 -11t-33 14l-194 135l-195 -135q-16 -14 -30 -14t-25.5 11t-11.5 22t16 28l246 244l248 -244q14 -14 14 -26.5z" glyph-name="scircumflex" horiz-adv-x="761" unicode="ŝ"/><glyph d="M546 -436q-91 0 -188 45l31 53q76 -24 125 -24t87 28.5t38 69.5t-34 63.5t-113 36.5l43 131q-172 18 -318 150q-39 -84 -45 -117h-63v430h63q23 -162 134.5 -270.5t247.5 -108.5t216 68.5t80 178.5t-69.5 176.5t-275.5 168.5t-265 158q-104 98 -104 250t108 250t284 98 t295 -101q14 25 43 82h49v-368h-61q-25 131 -72 194t-116.5 97t-156.5 34t-151.5 -54t-64.5 -140t66.5 -148.5t242.5 -152.5t212 -110.5t77 -59.5q111 -98 111 -282t-110 -300.5t-298 -124.5l-25 -80q94 -12 131 -39q60 -42 60 -114t-61.5 -120t-152.5 -48z" glyph-name="Scedilla" horiz-adv-x="1097" unicode="Ş"/><glyph d="M582 -255q0 -67 -57.5 -114t-145.5 -47t-178 43l28 51q76 -24 121 -24t81 26.5t36 67.5t-32 62.5t-107 31.5l45 140q-111 18 -183 86l-34 -68h-50v293h50q14 -106 83.5 -172t149.5 -66t119 36t39 90t-37.5 90t-149.5 90t-159 96q-88 76 -88 183t63.5 170.5t173.5 63.5 t199 -100l37 76h49v-281h-49q-16 84 -47 127q-76 106 -174 107q-55 0 -89 -31t-34 -82t35 -84t135 -80t182 -99.5t83 -180.5t-66.5 -197.5t-182.5 -71.5l-27 -86q96 -14 138.5 -46.5t42.5 -99.5z" glyph-name="scedilla" horiz-adv-x="761" unicode="ş"/><glyph d="M915 1380v-368h-61q-25 131 -72 194t-116.5 97t-156.5 34t-151.5 -54t-64.5 -140t66.5 -148.5t242.5 -152.5t212 -110.5t77 -59.5q111 -98 111 -282t-114 -305q-114 -120 -306.5 -120t-364.5 152q-39 -84 -45 -117h-63v430h63q23 -162 134.5 -270.5t247.5 -108.5 t216 68.5t80 178.5t-69.5 176.5t-275.5 168.5t-265 158q-104 98 -104 250t108 250t284 98t295 -101q14 25 43 82h49zM299 1742q0 13 11.5 24.5t31.5 11.5t43 -21l190 -139l191 139q45 36 65.5 17t20.5 -32t-29 -42l-248 -248l-247 248q-29 29 -29 42z" glyph-name="Scaron" horiz-adv-x="1097" unicode="Š"/><glyph d="M635 850v-281h-49q-16 84 -47 127q-76 106 -174 107q-55 0 -89 -31t-34 -84t37 -85t135 -78t180 -98.5t83 -180.5t-69.5 -198.5t-191.5 -70.5t-226 91l-34 -68h-50v293h50q14 -106 83.5 -172t149.5 -66t119 36t39 90t-37.5 90t-149.5 90t-159 96q-88 76 -88 183 t63.5 170.5t173.5 63.5t199 -100l37 76h49zM156 1305q16 0 45 -19l180 -133l182 133q43 34 62.5 16t19.5 -31t-29 -40l-235 -236l-236 236q-27 27 -27 40t11 23.5t27 10.5z" glyph-name="scaron" horiz-adv-x="761" unicode="š"/><glyph d="M1024 0h-610v63q131 6 167.5 36t36.5 128v1073h-229q-111 0 -169 -57t-105 -209h-60l35 332h1258l34 -332h-59q-47 154 -105.5 210t-168.5 56h-230v-1073q0 -98 37 -127.5t168 -36.5v-63zM760 -336q0 12 -2 23q-72 -29 -111 10t-39 84t32 74.5t86 29.5t92 -44t38 -113 q0 -168 -203 -244l-16 37q123 49 123 143z" glyph-name="Tcommaaccent" horiz-adv-x="1437" unicode="Ţ"/><glyph d="M553 856v-65h-227v-529q0 -166 104 -166q37 0 66.5 18.5t74.5 69.5l41 -34q-98 -158 -256 -158q-102 0 -159 80q-41 59 -41 190v529h-101v45q190 41 201 323h70v-303h227zM298 -315q-28 0 -54.5 26.5t-26.5 67.5t28.5 67.5t77.5 26.5t84 -40t35 -101q0 -155 -184 -221 l-14 32q111 45 110 131q0 10 -2 19q-26 -8 -54 -8z" glyph-name="tcommaaccent" horiz-adv-x="630" unicode="ţ"/><glyph d="M1024 0h-610v63q131 6 167.5 36t36.5 128v1073h-229q-111 0 -169 -57t-105 -209h-60l35 332h1258l34 -332h-59q-47 154 -105.5 210t-168.5 56h-230v-1073q0 -98 37 -127.5t168 -36.5v-63zM442 1743q0 12 13 23.5t33 11.5t40 -21l191 -139l190 139q47 37 66.5 17.5 t19.5 -33.5t-28 -41l-248 -248l-248 248q-29 31 -29 43z" glyph-name="Tcaron" horiz-adv-x="1437" unicode="Ť"/><glyph d="M553 856v-65h-227v-529q0 -166 104 -166q37 0 66.5 18.5t74.5 69.5l41 -34q-98 -158 -256 -158q-102 0 -159 80q-41 59 -41 190v529h-101v45q190 41 201 323h70v-303h227zM596 1208q0 10 -2 19q-28 -8 -54 -8t-52.5 26.5t-26.5 67.5t28.5 67.5t77.5 26.5t83 -40t34 -101 q0 -156 -184 -222l-15 33q111 45 111 131z" glyph-name="tcaron" horiz-adv-x="684" unicode="ť"/><glyph d="M618 676h-204v82h204v542h-229q-111 0 -169 -57t-105 -209h-60l35 332h1258l34 -332h-61q-45 154 -103.5 210t-168.5 56h-230v-542h205v-82h-205v-449q0 -98 38 -128.5t167 -35.5v-63h-610v63q131 6 167.5 36t36.5 128v449z" glyph-name="Tbar" horiz-adv-x="1437" unicode="Ŧ"/><glyph d="M326 586v-324q0 -166 104 -166q37 0 66.5 18.5t74.5 69.5l41 -34q-98 -158 -256 -158q-102 0 -159 80q-41 59 -41 190v324h-101v65h101v140h-101v45q190 41 201 323h70v-303h227v-65h-227v-140h227v-65h-227z" glyph-name="tbar" horiz-adv-x="630" unicode="ŧ"/><glyph d="M184 645q0 90 -29.5 126t-107.5 40v63h307v-593q0 -199 178 -199q59 0 106.5 21.5t111.5 78.5v463q0 88 -31 125t-107 41v63h308v-647q0 -88 31.5 -124.5t105.5 -39.5v-63q-37 -2 -78 -2l-76 -2q-47 0 -127 -8q-20 57 -26 125q-150 -135 -308 -136q-78 0 -142 32t-91 85 q-16 31 -19.5 50.5t-5.5 109.5v391zM463 1190q33 0 115 -29t127 -29t96 60l37 -23q-94 -150 -193 -149q-20 0 -115 29q-94 29 -132 29t-93 -70l-39 18q90 164 197 164z" glyph-name="utilde" horiz-adv-x="1103" unicode="ũ"/><glyph d="M938 1366h494v-63q-133 -10 -170 -41t-37 -138v-657q0 -272 -105.5 -387t-357.5 -115q-429 0 -465.5 174t-36.5 318v682q0 98 -38 128.5t-167 35.5v63h615v-63q-129 -4 -167 -35t-38 -129v-658q0 -215 35 -289t115.5 -114.5t189.5 -40.5q231 0 303 172q35 84 35 272v643 q0 104 -37 136t-168 43v63zM459 1636h610v-104h-610v104z" glyph-name="Umacron" horiz-adv-x="1470" unicode="Ū"/><glyph d="M184 645q0 90 -29.5 126t-107.5 40v63h307v-593q0 -199 178 -199q59 0 106.5 21.5t111.5 78.5v463q0 88 -31 125t-107 41v63h308v-647q0 -88 31.5 -124.5t105.5 -39.5v-63q-37 -2 -78 -2l-76 -2q-47 0 -127 -8q-20 57 -26 125q-150 -135 -308 -136q-78 0 -142 32t-91 85 q-16 31 -19.5 50.5t-5.5 109.5v391zM303 1196h498v-96h-498v96z" glyph-name="umacron" horiz-adv-x="1103" unicode="ū"/><glyph d="M184 645q0 90 -29.5 126t-107.5 40v63h307v-593q0 -199 178 -199q59 0 106.5 21.5t111.5 78.5v463q0 88 -31 125t-107 41v63h308v-647q0 -88 31.5 -124.5t105.5 -39.5v-63q-37 -2 -78 -2l-76 -2q-47 0 -127 -8q-20 57 -26 125q-150 -135 -308 -136q-78 0 -142 32t-91 85 q-16 31 -19.5 50.5t-5.5 109.5v391zM548 1030q-116 0 -187.5 61.5t-75.5 170.5h49q31 -106 215 -107q100 0 148 23.5t67 83.5h55q-10 -106 -82.5 -169t-188.5 -63z" glyph-name="ubreve" horiz-adv-x="1103" unicode="ŭ"/><glyph d="M938 1366h494v-63q-133 -10 -170 -41t-37 -138v-657q0 -272 -105.5 -387t-357.5 -115q-429 0 -465.5 174t-36.5 318v682q0 98 -38 128.5t-167 35.5v63h615v-63q-129 -4 -167 -35t-38 -129v-658q0 -215 35 -289t115.5 -114.5t189.5 -40.5q231 0 303 172q35 84 35 272v643 q0 104 -37 136t-168 43v63zM764 1823q76 0 129 -54.5t53 -129.5t-53 -128t-129 -53t-130 54t-54 130t54 128.5t130 52.5zM763 1737q-40 0 -69.5 -29t-29.5 -69t28.5 -68.5t69.5 -28.5t69.5 28.5t28.5 68.5t-28.5 69t-68.5 29z" glyph-name="Uring" horiz-adv-x="1470" unicode="Ů"/><glyph d="M184 645q0 90 -29.5 126t-107.5 40v63h307v-593q0 -199 178 -199q59 0 106.5 21.5t111.5 78.5v463q0 88 -31 125t-107 41v63h308v-647q0 -88 31.5 -124.5t105.5 -39.5v-63q-37 -2 -78 -2l-76 -2q-47 0 -127 -8q-20 57 -26 125q-150 -135 -308 -136q-78 0 -142 32t-91 85 q-16 31 -19.5 50.5t-5.5 109.5v391zM551 1362q72 0 123 -51t51 -123t-51 -123t-123 -51t-123 51t-51 124t51 123t123 50zM551 1280q-39 0 -66.5 -26.5t-27.5 -66.5t27.5 -66.5t66.5 -26.5t65.5 27.5t26.5 65.5t-26.5 65.5t-65.5 27.5z" glyph-name="uring" horiz-adv-x="1103" unicode="ů"/><glyph d="M938 1366h494v-63q-133 -10 -170 -41t-37 -138v-657q0 -272 -105.5 -387t-357.5 -115q-429 0 -465.5 174t-36.5 318v682q0 98 -38 128.5t-167 35.5v63h615v-63q-129 -4 -167 -35t-38 -129v-658q0 -215 35 -289t115.5 -114.5t189.5 -40.5q231 0 303 172q35 84 35 272v643 q0 104 -37 136t-168 43v63zM831 1767q31 0 31 -20q0 -8 -10 -16l-246 -246q-12 -12 -35 -12t-22 18q0 4 4 12l131 264h147zM1118 1767q31 0 31 -20q0 -8 -10 -16l-246 -246q-12 -12 -35 -12t-22 18q0 4 4 12l131 264h147z" glyph-name="Uhungarumlaut" horiz-adv-x="1470" unicode="Ű"/><glyph d="M184 645q0 90 -29.5 126t-107.5 40v63h307v-593q0 -199 178 -199q59 0 106.5 21.5t111.5 78.5v463q0 88 -31 125t-107 41v63h308v-647q0 -88 31.5 -124.5t105.5 -39.5v-63q-37 -2 -78 -2l-76 -2q-47 0 -127 -8q-20 57 -26 125q-150 -135 -308 -136q-78 0 -142 32t-91 85 q-16 31 -19.5 50.5t-5.5 109.5v391zM590 1294q28 0 28 -17q0 -9 -8 -17l-233 -234q-12 -12 -34 -12t-21 16q0 8 2 12l125 252h141zM864 1294q29 0 29 -17q0 -9 -10 -17l-234 -234q-12 -12 -34 -12t-21 16q0 4 4 12l125 252h141z" glyph-name="uhungarumlaut" horiz-adv-x="1103" unicode="ű"/><glyph d="M955 -301q-74 0 -115 34t-41 85q0 86 114 159q-70 -12 -155 -12q-425 0 -461.5 174t-36.5 318v682q0 98 -38 128.5t-167 35.5v63h615v-63q-129 -4 -167 -35t-38 -129v-658q0 -215 35 -289t115.5 -114.5t189.5 -40.5q231 0 303 172q35 84 35 272v643q0 104 -37 136 t-168 43v63h494v-63q-133 -10 -170 -41t-37 -138v-657q0 -302 -74 -362.5t-123 -92.5t-75.5 -72t-26.5 -72t24.5 -54.5t59.5 -22.5t82 27v-62q-63 -57 -137 -57z" glyph-name="Uogonek" horiz-adv-x="1470" unicode="Ų"/><glyph d="M1014 -287q-72 0 -111 31t-39 82q0 88 113 172l-37 -2h-37q-45 0 -127 -8q-20 57 -26 125q-150 -135 -308 -136q-78 0 -142 32t-91 85q-16 31 -19.5 50.5t-5.5 109.5v391q0 90 -29.5 126t-107.5 40v63h307v-593q0 -199 178 -199q59 0 106.5 21.5t111.5 78.5v463 q0 88 -31 125t-107 41v63h308v-647q0 -88 31.5 -124.5t105.5 -39.5v-63q-72 -61 -72 -125q0 -33 24.5 -55.5t56.5 -22.5t81 25v-64q-61 -45 -133 -45z" glyph-name="uogonek" horiz-adv-x="1103" unicode="ų"/><glyph d="M1468 1366h469v-63q-94 0 -142 -31t-71 -103l-350 -1192h-74l-360 1037l-319 -1037h-84l-363 1192q-35 131 -188 134v63h551v-63h-31q-127 0 -127 -70q0 -14 12 -57l197 -691q16 -63 47 -198l332 1079h63l270 -786q76 -231 89 -293q8 51 47 184l194 659q18 62 18 100 t-35 54q-36 16 -145 19v63zM1257 1504q0 -14 -12 -26t-23 -12t-34 17l-205 141l-205 -141q-25 -17 -36 -17t-23 12.5t-12 25t16 28.5l260 256l258 -256q16 -14 16 -28z" glyph-name="Wcircumflex" horiz-adv-x="1925" unicode="Ŵ"/><glyph d="M772 227q0 -98 38 -127.5t167 -36.5v-63h-610v63q131 6 167.5 36t36.5 128v381l-374 584q-39 61 -85 84.5t-126 26.5v63h585v-63h-51q-98 0 -98 -52q0 -27 18 -59l293 -504l301 498q23 37 23 61q0 33 -45 43q-29 8 -144 13v63h490v-63q-88 -2 -144.5 -33t-97.5 -99 l-344 -563v-381zM939 1466q-11 0 -36 17l-205 141l-204 -141q-23 -17 -34 -17t-23.5 12.5t-12.5 25.5t16 28l258 256l260 -256q29 -29 10.5 -47.5t-29.5 -18.5z" glyph-name="Ycircumflex" horiz-adv-x="1343" unicode="Ŷ"/><glyph d="M963 850v-62q-66 -6 -91.5 -20t-46.5 -59l-438 -955q-86 -186 -141.5 -250.5t-113.5 -64.5t-86 22.5t-28 52.5t15 50q12 -4 30 -4q53 0 126 49t186 280l65 138l-319 682q-35 78 -127 79v62h393v-62h-10q-78 0 -78 -43q0 -14 14 -49l215 -467l215 480q28 61 3 69t-82 10 v62h299zM768 1044q0 -12 -11.5 -23t-25.5 -11t-31 14l-194 135l-197 -135q-17 -14 -31 -14t-25 11t-11 22t16 28l248 244l246 -244q16 -15 16 -27z" glyph-name="ycircumflex" horiz-adv-x="954" unicode="ŷ"/><glyph d="M772 227q0 -98 38 -127.5t167 -36.5v-63h-610v63q131 6 167.5 36t36.5 128v381l-374 584q-39 61 -85 84.5t-126 26.5v63h585v-63h-51q-98 0 -98 -52q0 -27 18 -59l293 -504l301 498q23 37 23 61q0 33 -45 43q-29 8 -144 13v63h490v-63q-88 -2 -144.5 -33t-97.5 -99 l-344 -563v-381zM502 1710q47 0 79.5 -34t32.5 -80t-32.5 -79.5t-79.5 -33.5t-81 33.5t-34 81t34 80t81 32.5zM896 1710q46 0 80 -34t34 -80t-33 -79.5t-80 -33.5t-81 33.5t-34 81t34 80t80 32.5z" glyph-name="Ydieresis" horiz-adv-x="1343" unicode="Ÿ"/><glyph d="M61 0v33l865 1257h-443q-115 0 -186.5 -63.5t-108.5 -198.5h-67l39 338h1038v-29l-864 -1259h506q131 0 204.5 65.5t118.5 221.5h66l-31 -365h-1137zM856 1769q31 0 31 -20q0 -8 -8 -16l-252 -250q-13 -15 -29 -15t-26 6.5t-1 24.5l136 270h149z" glyph-name="Zacute" horiz-adv-x="1310" unicode="Ź"/><glyph d="M68 0v68l528 723h-297q-51 0 -69.5 -20.5t-52.5 -86.5t-40 -78h-55l29 248h688v-63l-525 -723h285q59 0 96 34q58 58 107 183h55l-18 -285h-731zM633 1284q31 0 31 -20q0 -6 -11 -15l-237 -239q-12 -12 -35 -12t-23 18q0 4 4 12l127 256h144z" glyph-name="zacute" horiz-adv-x="884" unicode="ź"/><glyph d="M61 0v33l865 1257h-443q-115 0 -186.5 -63.5t-108.5 -198.5h-67l39 338h1038v-29l-864 -1259h506q131 0 204.5 65.5t118.5 221.5h66l-31 -365h-1137zM657.5 1710q47.5 0 80 -34t32.5 -80t-32.5 -79.5t-80 -33.5t-81 33.5t-33.5 81t33.5 80t81 32.5z" glyph-name="Zdotaccent" horiz-adv-x="1310" unicode="Ż"/><glyph d="M68 0v68l528 723h-297q-51 0 -69.5 -20.5t-52.5 -86.5t-40 -78h-55l29 248h688v-63l-525 -723h285q59 0 96 34q58 58 107 183h55l-18 -285h-731zM442 1253q45 0 77 -31.5t32 -76.5t-32 -77t-77 -32t-76.5 32t-31.5 77t31.5 76.5t76.5 31.5z" glyph-name="zdotaccent" horiz-adv-x="884" unicode="ż"/><glyph d="M61 0v33l865 1257h-443q-115 0 -186.5 -63.5t-108.5 -198.5h-67l39 338h1038v-29l-864 -1259h506q131 0 204.5 65.5t118.5 221.5h66l-31 -365h-1137zM379 1743q0 12 12 23.5t31 11.5t43 -21l190 -139l191 139q47 37 66.5 17.5t19.5 -32.5t-29 -42l-248 -248l-247 248 q-29 31 -29 43z" glyph-name="Zcaron" horiz-adv-x="1310" unicode="Ž"/><glyph d="M68 0v68l528 723h-297q-51 0 -69.5 -20.5t-52.5 -86.5t-40 -78h-55l29 248h688v-63l-525 -723h285q59 0 96 34q58 58 107 183h55l-18 -285h-731zM178 1271q0 13 12 23.5t30 10.5t40 -19l182 -133l183 133q42 33 61 15.5t19 -30.5t-27 -40l-236 -236l-235 236 q-29 27 -29 40z" glyph-name="zcaron" horiz-adv-x="884" unicode="ž"/><glyph d="M821 1317q-1 47 -79 47q-42 0 -68.5 -37t-44.5 -139l-54 -291h224l-11 -59h-223l-84 -469q-68 -360 -138.5 -519t-172.5 -188l-49 33q55 49 89 152.5t75 349.5l114 641h-170l11 59h172l28 166q31 170 123 270.5t217 100.5q84 0 143.5 -40t59.5 -88t-24.5 -74t-60.5 -26 t-59.5 21.5t-23.5 50.5z" glyph-name="florin" unicode="ƒ"/><glyph d="M1481 0h-563v63h45q119 0 118 64q0 29 -18 72l-111 262h-544l-107 -262q-14 -35 -14 -69t30.5 -50.5t114.5 -16.5h25v-63h-471v63q98 2 145 32t76 104l491 1190h74l518 -1190q49 -127 191 -136v-63zM911 549l-176 434q-28 69 -39 109l-10 26l-8 29q-4 -14 -16 -51 l-222 -547h471zM500 1778q19 0 43 -21l190 -139l191 139q47 37 66.5 17.5t19.5 -32.5t-29 -42l-248 -248l-248 248q-29 29 -29 42t12.5 24.5t31.5 11.5z" glyph-name="uni01CD" horiz-adv-x="1468" unicode="Ǎ"/><glyph d="M766 166q0 -92 55 -92t86 106h62q-49 -203 -205 -203q-150 0 -168 146q-53 -63 -136 -103t-169 -40t-140.5 57t-54.5 153t37 149.5t111 85.5t192 57q117 25 160 44v70q0 117 -23 156q-37 59 -137 59q-61 0 -93 -27.5t-46 -91.5q-16 -84 -90 -84q-41 0 -67.5 18.5 t-26.5 47.5q0 57 61 112q92 86 264 86t262 -73q41 -37 53.5 -73t12.5 -112v-448zM403 98q97 0 193 82v287q-45 -20 -187 -62t-143 -167q0 -59 39 -99.5t98 -40.5zM217 1271q0 13 11.5 23.5t29.5 10.5t39 -19l182 -133l183 133q42 33 60.5 15.5t18.5 -31.5t-26 -39l-236 -236 l-235 236q-27 27 -27 40z" glyph-name="uni01CE" horiz-adv-x="956" unicode="ǎ"/><glyph d="M371 263q0 -128 -32 -209t-85 -81t-85 81t-32 211q0 131 37 351t43 388h74q6 -180 43 -396t37 -345zM253 1399q48 0 81 -33t33 -81t-33 -81t-81 -33t-81 33t-33 81t33 81t81 33z" glyph-name="uni01D1" horiz-adv-x="505" unicode="Ǒ"/><glyph d="M938 1366h494v-63q-133 -10 -170 -41t-37 -138v-657q0 -272 -105.5 -387t-357.5 -115q-429 0 -465.5 174t-36.5 318v682q0 98 -38 128.5t-167 35.5v63h615v-63q-129 -4 -167 -35t-38 -129v-658q0 -215 35 -289t115.5 -114.5t189.5 -40.5q231 0 303 172q35 84 35 272v643 q0 104 -37 136t-168 43v63zM514 1743q0 12 13 23.5t31 11.5t42 -21l191 -139l190 139q47 37 66.5 17.5t19.5 -32.5t-29 -42l-247 -248l-248 248q-29 31 -29 43z" glyph-name="uni01D3" horiz-adv-x="1470" unicode="Ǔ"/><glyph d="M184 645q0 90 -29.5 126t-107.5 40v63h307v-593q0 -199 178 -199q59 0 106.5 21.5t111.5 78.5v463q0 88 -31 125t-107 41v63h308v-647q0 -88 31.5 -124.5t105.5 -39.5v-63q-37 -2 -78 -2l-76 -2q-47 0 -127 -8q-20 57 -26 125q-150 -135 -308 -136q-78 0 -142 32t-91 85 q-16 31 -19.5 50.5t-5.5 109.5v391zM328 1264q16 0 43 -19l180 -133l182 133q43 34 62.5 16t19.5 -31t-29 -40l-235 -236l-236 236q-27 27 -27 40t12 23.5t28 10.5z" glyph-name="uni01D4" horiz-adv-x="1103" unicode="ǔ"/><glyph d="M899 594h594v-64h-31q-78 0 -113.5 -30.5t-35.5 -98.5v-303q-104 -12 -223 -57q-190 -76 -340 -76q-291 0 -479.5 193.5t-188.5 492.5q0 160 60.5 309.5t157.5 243.5t224 145.5t248 51.5t233.5 -37t192.5 -98q29 45 45 100h57l13 -467h-70q-18 121 -84 229 q-131 209 -363 209t-354.5 -172t-122.5 -473t123 -474t336 -173q117 0 223.5 55.5t106.5 114.5v152q0 66 -12.5 115.5t-147.5 47.5h-49v64zM540 1778q20 0 44 -21l190 -139l191 139q45 36 65.5 17t20.5 -32t-29 -42l-248 -248l-248 248q-28 29 -28 42t11 24.5t31 11.5z" glyph-name="Gcaron" horiz-adv-x="1548" unicode="Ǧ"/><glyph d="M242 1305q16 0 43 -19l180 -133l182 133q48 29 65 13.5t17 -28.5t-27 -40l-237 -236l-236 236q-27 27 -27 40t12 23.5t28 10.5zM782 563q0 -166 -137 -248q-43 -25 -81 -34t-128 -14t-153.5 -29.5t-63.5 -59.5t94 -35q313 -5 407 -29t144.5 -89.5t50.5 -165.5 q0 -162 -125 -276q-125 -113 -317 -113t-315 82.5t-123 201.5t117 174q78 37 155 37q6 0 6 -2t-16 -12q-119 -63 -119 -171t80 -167t214 -59t221 61t87 159t-90 140q-31 14 -60.5 19.5t-193.5 19.5t-239.5 59t-75.5 127t86 127q53 27 102 33q-188 59 -188 260q0 139 90 226 t252 87t248 -102q37 45 92 73.5t99 28.5t70.5 -21t26.5 -55t-19 -55.5t-50 -21.5t-60 30q-59 61 -133 -10q45 -72 45 -176zM621 573q0 246 -167 246t-167 -252t164 -252q82 0 126 68t44 190z" glyph-name="gcaron" horiz-adv-x="985" unicode="ǧ"/><glyph d="M899 594h594v-64h-31q-78 0 -113.5 -30.5t-35.5 -98.5v-303q-104 -12 -223 -57q-190 -76 -340 -76q-291 0 -479.5 193.5t-188.5 492.5q0 160 60.5 309.5t157.5 243.5t224 145.5t248 51.5t233.5 -37t192.5 -98q29 45 45 100h57l13 -467h-70q-18 121 -84 229 q-131 209 -363 209t-354.5 -172t-122.5 -473t123 -474t336 -173q117 0 223.5 55.5t106.5 114.5v152q0 66 -12.5 115.5t-147.5 47.5h-49v64zM975 1769q31 0 31 -20q0 -6 -11 -16l-250 -250q-11 -15 -35 -15t-24 19q0 4 4 12l133 270h152z" glyph-name="uni01F4" horiz-adv-x="1548" unicode="Ǵ"/><glyph d="M915 1380v-368h-61q-25 131 -72 194t-116.5 97t-156.5 34t-151.5 -54t-64.5 -140t66.5 -148.5t242.5 -152.5t212 -110.5t77 -59.5q111 -98 111 -282t-114 -305q-114 -120 -306.5 -120t-364.5 152q-39 -84 -45 -117h-63v430h63q23 -162 134.5 -270.5t247.5 -108.5 t216 68.5t80 178.5t-69.5 176.5t-275.5 168.5t-265 158q-104 98 -104 250t108 250t284 98t295 -101q14 25 43 82h49zM438 -219q0 45 32 74.5t86 29.5t92 -44t38 -113q0 -172 -205 -244l-16 37q57 20 92 60t33 83q0 2 -4 23q-72 -27 -110 11t-38 83z" glyph-name="Scommaaccent" horiz-adv-x="1097" unicode="Ș"/><glyph d="M635 850v-281h-49q-16 84 -47 127q-76 106 -174 107q-55 0 -89 -31t-34 -84t37 -85t135 -78t180 -98.5t83 -180.5t-69.5 -198.5t-191.5 -70.5t-226 91l-34 -68h-50v293h50q14 -106 83.5 -172t149.5 -66t119 36t39 90t-37.5 90t-149.5 90t-159 96q-88 76 -88 183 t63.5 170.5t173.5 63.5t199 -100l37 76h49zM390 -315q-26 0 -53.5 26.5t-27.5 67.5t29 67.5t78 26.5t84 -40t35 -101q-1 -155 -185 -221l-14 32q111 45 110 131q0 10 -2 19q-28 -8 -54 -8z" glyph-name="scommaaccent" horiz-adv-x="761" unicode="ș"/><glyph d="M1024 0h-610v63q131 6 167.5 36t36.5 128v1073h-229q-111 0 -169 -57t-105 -209h-60l35 332h1258l34 -332h-59q-47 154 -105.5 210t-168.5 56h-230v-1073q0 -98 37 -127.5t168 -36.5v-63zM760 -336q0 12 -2 23q-72 -29 -111 10t-39 84t32 74.5t86 29.5t92 -44t38 -113 q0 -168 -203 -244l-16 37q123 49 123 143z" glyph-name="uni021A" horiz-adv-x="1437" unicode="Ț"/><glyph d="M553 856v-65h-227v-529q0 -166 104 -166q37 0 66.5 18.5t74.5 69.5l41 -34q-98 -158 -256 -158q-102 0 -159 80q-41 59 -41 190v529h-101v45q190 41 201 323h70v-303h227zM298 -315q-28 0 -54.5 26.5t-26.5 67.5t28.5 67.5t77.5 26.5t84 -40t35 -101q0 -155 -184 -221 l-14 32q111 45 110 131q0 10 -2 19q-26 -8 -54 -8z" glyph-name="uni021B" horiz-adv-x="630" unicode="ț"/><glyph d="M293 1098q0 33 -17 80q-30 -4 -66 -4t-68.5 31.5t-32.5 80.5t33.5 82t95.5 33t112.5 -67.5t50.5 -172.5t-77.5 -204t-192.5 -134v37q162 113 162 238z" glyph-name="afii57929" horiz-adv-x="497" unicode="ʼ"/><glyph d="M774 1003.5q0 -12.5 -11 -23.5t-23.5 -11t-32.5 14l-195 135l-195 -135q-16 -14 -30 -14t-25.5 11t-11.5 22t14 28l248 244l248 -244q14 -14 14 -26.5z" glyph-name="circumflex" unicode="ˆ"/><glyph d="M288 1264q16 0 44 -19l180 -133l182 133q46 31 64 14.5t18 -29.5t-26 -40l-238 -236l-236 236q-26 27 -26 40t11 23.5t27 10.5z" glyph-name="caron" unicode="ˇ"/><glyph d="M264 1143h498v-96h-498v96z" glyph-name="uni02C9" unicode="ˉ"/><glyph d="M511 1114q99 0 146.5 23.5t65.5 83.5h55q-8 -106 -80.5 -169t-189.5 -63t-187.5 61.5t-76.5 170.5h49q18 -57 68.5 -82t149.5 -25z" glyph-name="breve" unicode="˘"/><glyph d="M512 1200q45 0 77 -31.5t32 -76.5t-32 -77t-77 -32t-77 32t-32 77t32 76.5t77 31.5z" glyph-name="dotaccent" unicode="˙"/><glyph d="M512 1307q72 0 123 -51.5t51 -123t-51 -123t-123 -51.5t-123 51.5t-51 124.5t51 123t123 50zM512 1225q-39 0 -66.5 -27t-27.5 -65.5t26.5 -66.5t66.5 -28t66.5 28t26.5 66t-26.5 65.5t-65.5 27.5z" glyph-name="ring" unicode="˚"/><glyph d="M655 -125q0 -33 23.5 -55.5t56.5 -22.5t82 25v-64q-63 -45 -135 -45t-109.5 31t-37.5 82q-1 88 116 174h74q-70 -63 -70 -125z" glyph-name="ogonek" horiz-adv-x="1003" unicode="˛"/><glyph d="M422 1190q33 0 116 -29t128 -29t96 60l35 -23q-94 -150 -193 -149q-18 0 -114 29t-134 29t-90 -70l-41 18q90 164 197 164z" glyph-name="tilde" unicode="˜"/><glyph d="M551 1253q29 0 29 -17q0 -9 -9 -17l-233 -234q-12 -12 -34 -12t-21 16q0 8 2 12l127 252h139zM825 1253q29 0 29 -17q0 -9 -10 -17l-234 -234q-8 -12 -32 -12t-23 16q0 4 4 12l125 252h141z" glyph-name="hungarumlaut" unicode="˝"/><glyph d="M222 557q48 0 81 -32.5t33 -80.5t-33 -81t-81 -33t-80.5 32.5t-32.5 80.5t32.5 81t80.5 33z" glyph-name="anoteleia" horiz-adv-x="446" unicode="·"/><glyph d="M504 494v-101h-436v101h436z" glyph-name="Wacute" horiz-adv-x="573" unicode="Ẃ"/><glyph d="M1468 1366h469v-63q-94 0 -142 -31t-71 -103l-350 -1192h-74l-360 1037l-319 -1037h-84l-363 1192q-35 131 -188 134v63h551v-63h-31q-127 0 -127 -70q0 -14 12 -57l197 -691q16 -63 47 -198l332 1079h63l270 -786q76 -231 89 -293q8 51 47 184l194 659q18 62 18 100 t-35 54q-36 16 -145 19v63zM792.5 1710q47.5 0 80 -34t32.5 -80t-32.5 -79.5t-80 -33.5t-81 33.5t-33.5 81t33.5 80t81 32.5zM1187 1710q46 0 79.5 -34t33.5 -80t-32.5 -79.5t-79.5 -33.5t-81 33.5t-34 81t34 80t80 32.5z" glyph-name="Wdieresis" horiz-adv-x="1925" unicode="Ẅ"/><glyph glyph-name="uni2007" unicode=" "/><glyph d="M436 494v-101h-436v101h436z" glyph-name="uni2011" horiz-adv-x="436" unicode="‑"/><glyph d="M985 496v-103h-909v103h909z" glyph-name="figuredash" horiz-adv-x="1058" unicode="‒"/><glyph d="M985 496v-103h-909v103h909z" glyph-name="endash" horiz-adv-x="1058" unicode="–"/><glyph d="M1298 494v-103h-1298v103h1298z" glyph-name="emdash" horiz-adv-x="1298" unicode="—"/><glyph d="M1298 494v-103h-1298v103h1298z" glyph-name="afii00208" horiz-adv-x="1298" unicode="―"/><glyph d="M205 1126q0 -33 16 -82q29 6 65 6t69.5 -31.5t33.5 -80.5t-33.5 -82t-96.5 -33t-113 67.5t-50 172.5t78 204t193 134v-37q-162 -115 -162 -238z" glyph-name="quoteleft" horiz-adv-x="497" unicode="‘"/><glyph d="M293 1098q0 33 -17 80q-30 -4 -66 -4t-68.5 31.5t-32.5 80.5t33.5 82t95.5 33t112.5 -67.5t50.5 -172.5t-77.5 -204t-192.5 -134v37q162 113 162 238z" glyph-name="quoteright" horiz-adv-x="497" unicode="’"/><glyph d="M293 -82q0 33 -17 82q-30 -6 -66 -6t-68.5 31t-32.5 81t33.5 82.5t95.5 32.5t112.5 -67.5t50.5 -171.5t-77.5 -202.5t-192.5 -133.5v37q162 115 162 235z" glyph-name="quotesinglbase" horiz-adv-x="497" unicode="‚"/><glyph d="M205 1126q0 -33 16 -82q29 6 65 6t69.5 -31.5t33.5 -80.5t-33.5 -82t-96.5 -33t-113 67.5t-50 172.5t78 204t193 134v-37q-162 -115 -162 -238zM764 938q0 -49 -34 -82t-96 -33t-112.5 67.5t-50.5 172.5t77.5 204t192.5 134v-37q-162 -115 -161 -238q0 -33 16 -82 q30 6 66 6t69 -31.5t33 -80.5z" glyph-name="quotedblleft" horiz-adv-x="874" unicode="“"/><glyph d="M293 1098q0 33 -17 80q-30 -4 -66 -4t-68.5 31.5t-32.5 80.5t33.5 82t95.5 33t112.5 -67.5t50.5 -172.5t-77.5 -204t-192.5 -134v37q162 113 162 238zM670 1098q0 33 -17 80q-31 -4 -67 -4t-68.5 31.5t-32.5 80.5t34.5 82t96.5 33t112 -67.5t50 -172.5t-77.5 -204 t-192.5 -134v37q162 113 162 238z" glyph-name="quotedblright" horiz-adv-x="874" unicode="”"/><glyph d="M293 -82q0 33 -17 82q-30 -6 -66 -6t-68.5 31t-32.5 81t33.5 82.5t95.5 32.5t112.5 -67.5t50.5 -171.5t-77.5 -202.5t-192.5 -133.5v37q162 115 162 235zM670 -82q0 33 -17 82q-31 -6 -67 -6t-68.5 31t-32.5 81t34.5 82.5t96.5 32.5t112 -67.5t50 -171.5t-77.5 -202.5 t-192.5 -133.5v37q162 115 162 235z" glyph-name="quotedblbase" horiz-adv-x="874" unicode="„"/><glyph d="M524 887q0 6 -2 14q-92 -14 -241 -76q-35 -12 -85 -12t-88 32t-38 81t36 78.5t96 29.5t147 -35t173 -36q-6 76 -43 171t-37 147t32 86t85 34t85 -34t32 -88t-36 -144t-44 -172q86 3 173 37t147 34t96.5 -29.5t36.5 -78.5t-37.5 -81t-83.5 -32t-66 6t-100 38t-166 44v-16 q4 -57 33.5 -130t70.5 -122q-63 -197 -79.5 -350.5t-24.5 -583.5h-74q-8 436 -24.5 584.5t-77.5 349.5q41 49 72.5 126t31.5 128z" glyph-name="dagger" horiz-adv-x="1132" unicode="†"/><glyph d="M1049 173q0 -50 -36 -80t-97.5 -30t-153.5 38t-152 36q-8 0 -14 -2q8 -80 44 -170t36 -144t-32 -88t-85 -34t-85 34t-32 86t37 147t43 169q-6 2 -12 2q-60 4 -154 -35t-154 -39t-96 30t-36 80t37 82t83 32t66 -6.5t100 -38.5t166 -43l2 10q0 43 -17 88t-35 101t-52 151 q53 153 83 236t19 116q-92 -14 -241 -76q-35 -12 -85 -12t-88 32t-38 81t36 78.5t96 29.5t147 -35t173 -36q-6 76 -43 171t-37 147t32 86t85 34t85 -34t32 -88t-36 -144t-44 -172q86 3 173 37t147 34t96.5 -29.5t36.5 -78.5t-37.5 -81t-83.5 -32t-66 6t-100 38t-166 44v-12 q2 -59 104 -340q-102 -287 -104 -338v-12q50 4 86 15t156 60q34 12 84 12t88.5 -31.5t38.5 -81.5z" glyph-name="daggerdbl" horiz-adv-x="1132" unicode="‡"/><glyph d="M682 928q102 0 174 -73t72 -174t-72 -173t-174 -72t-174 72t-72 174t72 174t174 72z" glyph-name="bullet" horiz-adv-x="1366" unicode="•"/><glyph d="M222 201q48 0 81 -33t33 -81t-33 -81t-81 -33t-80.5 33t-32.5 81t32.5 81t80.5 33zM669 201q48 0 80.5 -33t32.5 -81t-32.5 -81t-80.5 -33t-81 33t-33 81t33 81t81 33zM1115 201q48 0 81 -33t33 -81t-33 -81t-81 -33t-81 33t-33 81t33 81t81 33z" glyph-name="ellipsis" horiz-adv-x="1337" unicode="…"/><glyph d="M262.5 1362q104.5 0 170 -97t65.5 -251t-66 -249t-170 -95t-169.5 97t-65.5 250t65.5 249t170 96zM262.5 1329q-59.5 0 -94.5 -83t-35 -227t34 -228t93 -84t94 81.5t35 227.5t-33.5 229.5t-93 83.5zM969 1366l-756 -1366h-72l756 1366h72zM847.5 680q104.5 0 170 -96.5 t65.5 -250t-65.5 -248.5t-169.5 -95t-170 97t-66 248.5t65.5 248t170 96.5zM847.5 647q-59.5 0 -94 -83t-34.5 -226t33.5 -227t93 -84t94.5 81.5t35 227t-34 228.5t-93.5 83zM1447.5 680q104.5 0 170 -96.5t65.5 -250t-65.5 -248.5t-169.5 -95t-170 97t-66 248.5t65.5 248 t170 96.5zM1448 647q-59 0 -94 -83t-35 -226t33.5 -227t93 -84t94.5 81.5t35 227t-34 228.5t-93 83z" glyph-name="perthousand" horiz-adv-x="1710" unicode="‰"/><glyph d="M469 145q0 -31 -31 -31t-61 31q-4 4 -11.5 9.5t-11.5 9.5l-264 246q-22 20 -22 33t22 36l264 246l49 39q20 10 33 10q33 0 33 -31q0 -25 -23 -53l-194 -246l194 -247q23 -29 23 -52z" glyph-name="guilsinglleft" horiz-adv-x="552" unicode="‹"/><glyph d="M115 774q16 0 26.5 -6t57.5 -43l262 -246q23 -23 23 -38t-23 -31l-262 -246q-47 -37 -57.5 -43t-26.5 -6q-33 -1 -33 27t24 55l193 247l-193 246q-25 31 -24 53q0 31 33 31z" glyph-name="guilsinglright" horiz-adv-x="552" unicode="›"/><glyph d="M137 1116q0 121 32 203t85 82t85 -81t32 -208t-37 -342t-43 -401h-74q-6 172 -43 399t-37 348zM253 201q48 0 81 -33t33 -81t-33 -81t-81 -33t-81 33t-33 81t33 81t81 33zM643 1115q0 122 32 204t84 82t83.5 -81t31.5 -208t-36 -350t-41 -393h-74q-10 184 -45 404 t-35 342zM759 201q48 0 80.5 -33t32.5 -81t-32.5 -81t-80.5 -33t-81 33t-33 81t33 81t81 33z" glyph-name="exclamdbl" horiz-adv-x="1011" unicode="‼"/><glyph d="M0 1567v88h1024v-88h-1024z" glyph-name="uni203E" unicode="‾"/><glyph d="M500 1366l-756 -1366h-72l756 1366h72z" glyph-name="fraction" horiz-adv-x="157" unicode="⁄"/><glyph d="M336 1362q125 0 202.5 -116t77.5 -300t-78.5 -299t-203.5 -115t-203 117t-78 299t79 298t204 116zM336 1323q-72 0 -113 -99.5t-41 -273.5t41 -274.5t112 -100.5t111.5 98.5t40.5 273.5t-39.5 275.5t-111.5 100.5z" glyph-name="uni2070" horiz-adv-x="669" unicode="⁰"/><glyph d="M469 741v-77q0 -74 61 -74h31v-47h-305v47h25q39 0 54 16.5t15 57.5v77h-317l405 605q8 12 20 12t11 -17v-542h43q53 0 72 57l49 4l-37 -119h-127zM350 799v342l-219 -342h219z" glyph-name="uni2074" horiz-adv-x="669" unicode="⁴"/><glyph d="M352 1059q102 0 171 -65.5t69 -176.5t-96.5 -198t-229.5 -87q-90 0 -152.5 43t-62.5 107q0 33 17.5 53.5t50.5 20.5q53 0 53 -94q4 -84 90 -84t141.5 71.5t55.5 167.5t-35 144.5t-94 48.5q-31 0 -59.5 -18.5t-39.5 -43.5q-2 -43 -38 -43q-10 0 -19 9t-4 18l49 418l70 -7 q99 -6 169 -6t84.5 4.5t28.5 22.5h54q-70 -86 -105.5 -109.5t-73.5 -23.5t-122 4l-64 2l-24 -211q63 33 116 33z" glyph-name="uni2075" horiz-adv-x="669" unicode="⁵"/><glyph d="M588 1290q0 -58 -60 -59q-28 0 -57 51q-27 43 -70 43q-69 1 -121 -73t-79 -226q78 49 147 49q115 0 186.5 -73.5t71.5 -192.5t-74.5 -198t-195.5 -79t-197 95t-76 233t72 320t305 182q68 0 108 -21t40 -51zM339 1038q-69 0 -109 -55t-40 -163t40 -175t109 -67t106.5 61 t37.5 170t-37.5 169t-106.5 60z" glyph-name="uni2076" horiz-adv-x="669" unicode="⁶"/><glyph d="M201 530q-63 0 -64 54q0 27 23 63l348 584h-250q-111 0 -133 -109h-51l39 242h43v-8q2 -25 39 -25h401l-313 -725q-18 -45 -36 -60.5t-46 -15.5z" glyph-name="uni2077" horiz-adv-x="669" unicode="⁷"/><glyph d="M627 772q0 -102 -84 -171t-209 -69t-208 68t-83 168q0 63 38 116.5t103 82.5q-55 23 -88 70.5t-33 109.5q0 92 79 153.5t195 61.5t191.5 -61.5t75.5 -151.5q0 -111 -119 -166q66 -29 104 -85t38 -126zM489 1151q0 78 -43.5 124t-111.5 46t-112 -42t-44 -105 q0 -90 94 -121l125 -41q92 37 92 139zM164 772q0 -84 46 -137t120 -53t124 52t50 128q0 102 -111 137l-123 37q-106 -51 -106 -164z" glyph-name="uni2078" horiz-adv-x="669" unicode="⁸"/><glyph d="M324 817q-113 0 -188 72.5t-75 186.5t81 200t200 86t195.5 -101t76.5 -283t-104 -315t-266 -133q-80 0 -134.5 37t-54.5 95q0 27 16.5 43t41.5 16q43 0 53 -46t37.5 -71.5t64.5 -25.5q72 0 126 66t77 220q-82 -47 -147 -47zM336 1325q-68 0 -108 -62.5t-40 -172.5 t38 -173t106 -63t108.5 56t40.5 166t-38.5 179.5t-106.5 69.5z" glyph-name="uni2079" horiz-adv-x="669" unicode="⁹"/><glyph d="M336 817q125 0 202.5 -115.5t77.5 -300t-78.5 -299t-203.5 -114.5t-203 116.5t-78 299t79 298t204 115.5zM336 778q-72 0 -113 -99t-41 -273.5t41 -274.5t112 -100t111.5 98t40.5 273t-39.5 275.5t-111.5 100.5z" glyph-name="uni2080" horiz-adv-x="669" unicode="₀"/><glyph d="M276 686h-106v49q55 2 99 18.5t128 65.5v-678q0 -53 19.5 -73.5t68.5 -20.5h29v-47h-358v47h37q47 0 65 20.5t18 73.5v545z" glyph-name="uni2081" horiz-adv-x="669" unicode="₁"/><glyph d="M465 616q0 70 -44 115t-109.5 45t-109.5 -41t-44 -91t21.5 -82t56.5 -42q-14 -41 -60 -41t-73 37t-27 92q0 90 70.5 149.5t181.5 59.5t185.5 -67.5t74.5 -169.5q0 -141 -139 -281q-61 -63 -246 -197h286q29 0 42 13t44 80h43l-53 -195h-514l15 59q399 313 399 557z" glyph-name="uni2082" horiz-adv-x="669" unicode="₂"/><glyph d="M162 157q0 -44 43 -82t113 -38t112.5 50t42.5 131t-35 131t-90 50q-8 1 -36 -17t-50 -17.5t-38.5 15.5t-16.5 36q0 39 90 39q2 0 59 -4q41 8 70 53.5t29 111.5t-38.5 115t-94.5 49t-86.5 -25.5t-30.5 -67.5t41 -85q-30 -14 -56 -14t-50.5 23.5t-24.5 58.5q0 61 62.5 104 t158.5 43t166.5 -60.5t70.5 -148.5q0 -119 -131 -176q160 -72 160 -207q0 -104 -84 -170.5t-202 -66.5t-183 45t-65 114q0 39 28 67t52 28t34 -2q-20 -39 -20 -83z" glyph-name="uni2083" horiz-adv-x="669" unicode="₃"/><glyph d="M469 197v-78q0 -72 61 -72h31v-47h-305v47h25q39 0 54 16.5t15 55.5v78h-317l405 604q8 12 20 12t11 -16v-543h43q53 0 72 57l49 4l-37 -118h-127zM350 254v340l-219 -340h219z" glyph-name="uni2084" horiz-adv-x="669" unicode="₄"/><glyph d="M352 514q102 0 171 -66t69 -176t-96.5 -197t-229.5 -87q-90 0 -152.5 43t-62.5 106q0 33 17.5 53.5t50.5 20.5q53 0 53 -94q4 -84 90 -84t141.5 71.5t55.5 167.5t-35 144.5t-94 48.5q-31 0 -59.5 -18.5t-39.5 -43.5q-2 -43 -38 -43q-10 0 -19 9t-4 18l49 418l70 -6 q99 -6 169 -6t84.5 4t28.5 22h54q-70 -86 -105.5 -109.5t-73.5 -23.5t-122 4l-64 2l-24 -213q61 35 116 35z" glyph-name="uni2085" horiz-adv-x="669" unicode="₅"/><glyph d="M348 528q113 0 185.5 -73.5t72.5 -191.5t-74.5 -196.5t-195.5 -78.5t-197 94t-76 232t72 320.5t305 182.5q68 0 108 -22.5t40 -52.5t-15.5 -44t-35.5 -14q-37 0 -66 53q-27 43 -70 43q-69 0 -121 -74t-79 -227q78 49 147 49zM339 492q-69 0 -109 -56t-40 -162t40 -173.5 t109 -67.5t106.5 61.5t37.5 168.5t-37.5 168t-106.5 61z" glyph-name="uni2086" horiz-adv-x="669" unicode="₆"/><glyph d="M201 -12q-63 0 -64 53q0 25 23 61l348 584h-250q-111 0 -133 -108h-51l39 241h43v-8q2 -25 39 -25h401l-313 -725q-18 -43 -36 -58t-46 -15z" glyph-name="uni2087" horiz-adv-x="669" unicode="₇"/><glyph d="M627 227q0 -102 -84 -170.5t-209 -68.5t-208 67.5t-83 167.5q0 61 38 115.5t103 83.5q-55 23 -88 71t-33 109q0 92 79 153.5t195 61.5t191.5 -61.5t75.5 -151.5q0 -113 -119 -168q66 -27 104 -82t38 -127zM489 606q0 78 -43.5 124t-111.5 46t-112 -42t-44 -107 q0 -90 94 -119l125 -43q92 37 92 141zM164 227q0 -84 47 -137t120 -53t123 52t50 128q0 102 -111 137l-123 37q-106 -51 -106 -164z" glyph-name="uni2088" horiz-adv-x="669" unicode="₈"/><glyph d="M61 532q0 114 81 199.5t200 85.5t195.5 -99.5t76.5 -281.5t-105.5 -315t-264.5 -133q-80 0 -134.5 36.5t-54.5 92.5q0 27 16.5 43t41.5 16q43 0 53 -45t37.5 -70.5t64.5 -25.5q72 1 126 67t77 220q-80 -49 -147 -50q-113 0 -188 73t-75 187zM336 782q-68 0 -108 -63 t-40 -173t38 -173.5t107 -63.5t108.5 56.5t39.5 166.5t-38.5 180t-106.5 70z" glyph-name="uni2089" horiz-adv-x="669" unicode="₉"/><glyph d="M825 930v-457h-63q-2 100 -27 139q-43 63 -143 64h-139v-453q0 -96 36.5 -125.5t163.5 -36.5v-61h-598v61q127 6 164 36t37 126v891q0 96 -37 126t-164 36v61h983l35 -325h-61q-43 147 -101.5 203.5t-167.5 56.5h-290v-529h147q164 0 162 187h63zM1231 223 q0 -88 29.5 -124t103.5 -38h14v-61h-448v61q74 2 103.5 38t29.5 124v293q0 86 -29.5 123t-103.5 39v59q150 20 274 58q27 -49 27 -154q113 147 242 147q47 0 80.5 -29.5t33.5 -69.5t-21.5 -62.5t-55.5 -22.5t-60 38t-67 38q-40 0 -82.5 -28.5t-69.5 -73.5v-355z" glyph-name="franc" horiz-adv-x="1601" unicode="₣"/><glyph d="M168 504v57h217q0 113 2 135h-219v58h221q37 647 418 647q109 0 175.5 -60.5t66.5 -161.5t-68 -151q-53 -41 -115 -41l-26 2q72 78 72 163t-42.5 137t-105.5 52q-121 0 -156 -135q-16 -72 -21 -243t-7 -209h231v-58h-233q-4 -30 -11 -135h244v-57h-252 q-35 -219 -133 -336q129 -45 254 -45t212 54t91 136h25q6 -25 6 -57q0 -121 -77 -206t-183 -85q-143 0 -371 144q-119 -131 -252 -132q-70 0 -114 33t-44 87t49.5 93t128.5 39t191 -34q23 41 30 98t11 211h-215zM174 176q-100 0 -100 -76q0 -29 20.5 -46t52.5 -17 q82 0 164 104q-72 35 -137 35z" glyph-name="lira" horiz-adv-x="1155" unicode="₤"/><glyph d="M477 649v-422q0 -98 37 -127.5t168 -36.5v-63h-614v63q131 6 167.5 36t36.5 128v912q0 98 -37.5 127.5t-166.5 36.5v63h481q201 0 264.5 -6t122.5 -31q203 -88 203 -310t-172 -319q-94 -51 -291 -51h-199zM477 713h158q135 0 209 78.5t74 239.5t-97 229q-70 49 -215 49 q-14 0 -129 -4v-592zM1305 518v-53h-144v-303q0 -92 60 -92q37 0 88 55l34 -29q-66 -102 -169 -102q-133 0 -134 168v303h-63v41q121 18 127 190h57v-178h144zM1790 514v-178h-43q-31 135 -135 135q-31 0 -50.5 -16.5t-19.5 -44.5t19.5 -44t102.5 -53t118 -73.5t35 -101.5 t-46.5 -108.5t-122.5 -43.5t-143 51l-20 -37h-41v186h43q8 -63 50 -102t90 -39t70.5 19.5t22.5 48.5t-23 49t-103 58t-113 72t-33 96t42 101t110 39t126 -53l23 39h41z" glyph-name="peseta" horiz-adv-x="1880" unicode="₧"/><glyph d="M324 678q0 -29 4 -86h307l-39 -88h-262q27 -211 99.5 -326t170.5 -115t165 59.5t124 188.5v-151q-125 -182 -305 -182t-300 144t-147 382h-131l39 88h84q-2 23 -2 86h-121l39 88h86q20 262 147.5 429t303.5 167q137 0 272 -135q14 41 27 100h53l10 -477h-55 q-70 451 -299 450q-233 1 -268 -534h387l-39 -88h-350z" glyph-name="Euro" unicode="€"/><glyph d="M977 547h-363v45h33q70 0 70 35q0 14 -10 41l-70 153h-338l-66 -153q-8 -16 -8 -37t18.5 -30t69.5 -9h19v-45h-305v45q63 2 93 18.5t46 59.5l311 708h53l326 -708q31 -76 121 -78v-45zM608 881l-125 293q-2 10 -16 45l-143 -338h284zM1563 1366l-756 -1366h-72l758 1366 h70zM1853 827v-227h-45q-37 195 -209 195q-59 0 -99 -32t-40 -81t41 -85t170 -97t166 -92q70 -61 70 -173t-75 -183.5t-195 -71.5t-226 88q-16 -37 -27 -68h-47v264h47q12 -96 82 -160.5t154 -64.5t133 41t49 103t-44 101.5t-173 100.5t-164 92q-67 61 -67 153t69.5 151 t180 59t186.5 -60q10 14 27 47h36z" glyph-name="uni2101" horiz-adv-x="2017" unicode="℁"/><glyph d="M255 766q42 0 69.5 -27.5t27.5 -69.5t-27.5 -70t-69.5 -28t-69.5 29t-27.5 70t27.5 68.5t69.5 27.5z" glyph-name="afii61248" horiz-adv-x="512" unicode="℅"/><glyph d="M260 688q0 -51 18.5 -70.5t67.5 -19.5v-51h-293v51q49 0 67.5 19.5t18.5 70.5v209q0 49 -18.5 68.5t-67.5 21.5v49q90 10 207 37v-385zM200 1298q34 0 57.5 -23t23.5 -53t-23.5 -51.5t-57.5 -21.5t-57.5 21.5t-23.5 53.5t23.5 53t57.5 21z" glyph-name="uni2117" horiz-adv-x="387" unicode="℗"/><glyph d="M584 614h-336v35q72 2 92 19.5t20 70.5v590h-124q-61 0 -93 -31.5t-59 -115.5h-33l19 184h692l18 -184h-32q-27 84 -59 115.5t-91 31.5h-127v-590q0 -53 20.5 -70.5t92.5 -19.5v-35zM1040 817q0 -106 18.5 -134t92.5 -34v-35h-268v35q55 2 83.5 24.5t28.5 117.5v436 q0 66 -18.5 84t-93.5 20v35h233l172 -410q61 -162 72 -196q6 20 8 26l242 580h233v-35q-72 -4 -92 -20.5t-20 -69.5v-502q0 -53 21.5 -71.5t78.5 -18.5h12v-35h-340v35q78 2 96.5 20.5t18.5 90.5v379q0 47 6 157q-12 -43 -33 -94l-245 -588h-35l-221 535q-20 51 -35 94 l-15 39v-465z" glyph-name="trademark" horiz-adv-x="1900" unicode="™"/><glyph d="M909 0v102q166 82 250 187q147 186 147 437t-124 425q-125 174 -365 174t-368 -215q-98 -162 -99 -371q0 -295 187 -491q63 -72 208 -146v-102h-559l-75 256h39q31 -88 84 -117.5t178 -32.5l206 -6v11q-162 66 -251 155q-203 197 -203 475q0 137 61.5 270.5t169.5 229.5 q172 150 432 150q322 0 508 -224q156 -188 156 -424q0 -154 -66.5 -291t-185.5 -231q-70 -53 -203 -110v-11l221 9q117 0 167.5 29.5t80.5 117.5h39l-78 -256h-557z" glyph-name="uni2126" horiz-adv-x="1656" unicode="Ω"/><glyph d="M276 1231h-106v49q92 2 227 84v-678q0 -53 19.5 -73.5t68.5 -20.5h29v-47h-358v47h37q47 0 65 20.5t18 73.5v545zM1167 1366l-755 -1366h-70l756 1366h69zM1143 37q70 0 112.5 50t42.5 131t-34.5 131t-89.5 50q-8 1 -36 -17t-50.5 -17.5t-39 15.5t-16.5 36q0 39 92 39 l58 -4q41 8 69.5 53.5t28.5 111.5t-39 115t-94 49t-86 -25.5t-31 -67.5t41 -85q-29 -14 -55 -14t-51 23.5t-25 58.5q0 61 62.5 104t158.5 43t167 -60.5t71 -148.5q0 -119 -131 -176q160 -70 159 -207q0 -104 -83.5 -170.5t-201.5 -66.5t-183.5 45t-65.5 114q0 39 27.5 67 t53.5 28t34 -2q-20 -35 -20 -81t42.5 -84t112.5 -38z" glyph-name="onethird" horiz-adv-x="1495" unicode="⅓"/><glyph d="M465 1161q0 70 -44.5 115t-108.5 45t-109 -40t-45 -99q0 -90 78 -115q-14 -41 -60 -41t-73 37t-27 92q0 90 70.5 148.5t181.5 58.5t185.5 -67.5t74.5 -170.5q0 -141 -139 -280q-43 -45 -80 -74t-166 -123h286q29 0 44.5 15.5t35.5 64.5l6 12h43l-53 -194h-514l15 59 q399 313 399 557zM1167 1366l-755 -1366h-70l756 1366h69zM1144 37q69 0 112.5 50t43.5 131t-34.5 131t-91.5 50q-10 1 -37 -17t-49.5 -17.5t-39 15.5t-16.5 36q0 39 92 39l58 -4q41 8 69.5 53.5t28.5 111.5t-39 115t-94 49t-86 -25.5t-31 -67.5t41 -85q-29 -14 -55 -14 t-51 23.5t-25 58.5q0 61 62.5 104t158.5 43t167 -60.5t71 -148.5q0 -119 -131 -176q162 -70 162 -207q0 -104 -84 -170.5t-202 -66.5t-184.5 45t-66.5 114q0 39 27.5 67t53.5 28t34 -2q-20 -35 -20 -81t43.5 -84t112.5 -38z" glyph-name="twothirds" horiz-adv-x="1495" unicode="⅔"/><glyph d="M276 1231h-106v49q92 2 227 84v-678q0 -53 19.5 -73.5t68.5 -20.5h29v-47h-358v47h37q47 0 65 20.5t18 73.5v545zM1167 1366l-755 -1366h-70l756 1366h69zM1454 227q0 -102 -85 -170.5t-210 -68.5t-208 67.5t-83 167.5q0 61 38 114.5t104 84.5q-55 23 -88 71t-33 109 q0 92 78.5 153.5t194.5 61.5t192 -61.5t76 -151.5q0 -113 -119 -168q66 -27 104.5 -83t38.5 -126zM1315 606q0 78 -43 124t-112 46t-112.5 -42t-43.5 -107q0 -90 94 -119l127 -43q90 37 90 141zM989 227q0 -84 47 -137t121 -53t124 52t50 128q1 102 -112 137l-121 37 q-109 -51 -109 -164z" glyph-name="oneeighth" horiz-adv-x="1495" unicode="⅛"/><glyph d="M162 704q0 -46 43 -84t113 -38t112.5 50t42.5 131t-35 131t-90 50q-8 0 -36 -18t-50 -17.5t-38.5 16t-16.5 36.5q0 39 90 38q2 0 59 -4q41 8 70 53.5t29 111.5t-38.5 115.5t-94.5 49.5t-86.5 -25.5t-30.5 -67.5t41 -83q-26 -14 -54 -14t-52.5 23.5t-24.5 58.5 q0 59 63.5 102t158.5 43t165.5 -60.5t70.5 -148.5q0 -121 -131 -174q160 -72 160 -207q0 -106 -84 -173t-202 -67t-183 45.5t-65 114.5q0 39 28 66.5t52 27.5t34 -2q-20 -34 -20 -80zM1169 1366l-755 -1366h-72l756 1366h71zM1454 227q0 -102 -85 -170.5t-210 -68.5 t-208 67.5t-83 167.5q0 133 142 199q-55 23 -88 71t-33 109q0 92 79.5 153.5t195.5 61.5t192 -61.5t76 -151.5q0 -115 -121 -168q66 -27 104.5 -83t38.5 -126zM1317 606q0 76 -43 123t-112 47t-113.5 -43t-44.5 -106q0 -88 96 -119l125 -43q92 39 92 141zM989 227 q0 -84 47 -137t121 -53t124 52t50 128q1 102 -112 137l-121 37q-109 -51 -109 -164z" glyph-name="threeeighths" horiz-adv-x="1495" unicode="⅜"/><glyph d="M352 1059q102 0 171 -65.5t69 -176.5t-96.5 -198t-229.5 -87q-90 0 -152.5 43t-62.5 107q0 33 17.5 53.5t50.5 20.5q53 0 53 -94q4 -84 90 -84t141.5 71.5t55.5 167.5t-35 144.5t-94 48.5q-31 0 -59.5 -18.5t-39.5 -43.5q-2 -43 -38 -43q-10 0 -19 9t-4 18l49 418l70 -7 q99 -6 169 -6t84.5 4.5t28.5 22.5h54q-70 -86 -105.5 -109.5t-73.5 -23.5t-122 4l-64 2l-24 -211q63 33 116 33zM1167 1366l-755 -1366h-70l756 1366h69zM1454 227q0 -102 -85 -170.5t-210 -68.5t-208 67.5t-83 167.5q0 61 38 115.5t104 83.5q-55 23 -88 71t-33 109 q0 92 78.5 153.5t194.5 61.5t192 -61.5t76 -151.5q0 -113 -119 -168q66 -27 104.5 -83t38.5 -126zM1315 606q0 78 -43 124t-112 46t-112.5 -42t-43.5 -107q0 -90 94 -119l127 -43q90 37 90 141zM1157 37q74 0 124 52t50 128q1 102 -112 137l-123 37q-106 -51 -107 -164 q0 -84 47 -137t121 -53z" glyph-name="fiveeighths" horiz-adv-x="1495" unicode="⅝"/><glyph d="M201 530q-63 0 -64 54q0 27 23 63l348 584h-250q-111 0 -133 -109h-51l39 242h43v-8q2 -25 39 -25h401l-313 -725q-18 -45 -36 -60.5t-46 -15.5zM1167 1366l-755 -1366h-72l756 1366h71zM1452 227q0 -102 -84 -170.5t-209 -68.5t-208 67.5t-83 167.5q0 61 38 115.5 t104 83.5q-55 23 -88 71t-33 109q0 92 78.5 153.5t194.5 61.5t192 -61.5t76 -151.5q0 -113 -119 -168q66 -27 103.5 -82t37.5 -127zM1315 606q0 78 -43 124t-112 46t-112.5 -42t-43.5 -107q0 -90 94 -119l125 -43q92 37 92 141zM1156 37q73 0 123 52t50 128q1 102 -110 137 l-123 37q-106 -51 -107 -164q0 -84 47 -137t120 -53z" glyph-name="seveneighths" horiz-adv-x="1495" unicode="⅞"/><glyph d="M1069 469q0 -215 -127.5 -355.5t-321.5 -140.5t-322 136.5t-128 338.5t127 338t319 136q92 0 150.5 -30t120.5 -110q-70 211 -182 348.5t-302 243.5l21 37q199 -82 332 -210t223 -349t90 -383zM627 856q-173 0 -228 -153.5t-55 -253.5t35 -199.5t95 -155.5t142 -55 q119 0 199 120t80 298t-74.5 288.5t-193.5 110.5z" glyph-name="partialdiff" horiz-adv-x="1241" unicode="∂"/><glyph d="M1130 711q0 -207 -145 -352.5t-352 -145.5q-88 0 -172 31l-109 -217l-100 51l108 217q-106 72 -164.5 181.5t-58.5 234.5q0 207 145.5 351t352.5 144q88 0 174 -30l109 217l98 -52l-109 -215q223 -154 223 -415zM633 328q160 0 271.5 111.5t111.5 271.5q0 194 -162 311 l-340 -676q68 -18 119 -18zM252 711q0 -193 162 -314l342 676q-57 18 -121 19q-160 0 -271.5 -112t-111.5 -269z" glyph-name="emptyset" horiz-adv-x="1265" unicode="∅"/><glyph d="M721 1397l631 -1397h-1340l627 1397h82zM301 117h815l-471 1077l-412 -918q-31 -72 -30 -102q0 -57 98 -57z" glyph-name="uni2206" horiz-adv-x="1366" unicode="∆"/><glyph d="M90 1366h1309v-49h-35q-106 0 -133 -31t-27 -156v-1368q0 -125 28 -158.5t132 -33.5h35v-47h-549v47h35q98 0 124.5 34t26.5 158v1381q0 113 -19.5 135t-119.5 22h-299q-106 0 -125.5 -22.5t-19.5 -142.5v-1373q0 -125 26.5 -158.5t124.5 -33.5h35v-47h-549v47h35 q104 0 132 34t28 158v1368q0 125 -27 156t-133 31h-35v49z" glyph-name="product" horiz-adv-x="1488" unicode="∏"/><glyph d="M1194 1366v-334h-39q-18 168 -84.5 222.5t-255.5 54.5h-450l411 -791l-489 -878h534q201 0 290 66.5t128 246.5h39l-68 -430h-1083l498 905l-498 938h1067z" glyph-name="summation" horiz-adv-x="1366" unicode="∑"/><glyph d="M47 625v88h928v-88h-928z" glyph-name="minus" unicode="−"/><glyph d="M1288 1686v-60h-241l-379 -1626h-183l-176 733h-317v60h469l160 -684l368 1577h299z" glyph-name="radical" horiz-adv-x="1048" unicode="√"/><glyph d="M392 346q-110 0 -198 95t-88 239t95.5 249t230.5 105q96 0 172 -56t170 -196q147 256 328 256q133 0 226 -100t93 -248t-99.5 -252t-237.5 -104t-242 104q-53 56 -121 154q-74 -131 -146.5 -188.5t-182.5 -57.5zM1366 689q0 99 -72 158.5t-186 59.5t-180 -36t-129 -130 q174 -279 354 -278q92 0 152.5 63.5t60.5 162.5zM360 899q-86 0 -142 -61.5t-56 -155.5t69 -151.5t173 -57.5t153 29t137 133q-88 139 -168 201.5t-166 62.5z" glyph-name="infinity" horiz-adv-x="1525" unicode="∞"/><glyph d="M592 1292v-1097q0 -162 -12.5 -239t-49.5 -140q-88 -158 -251 -158q-96 0 -162 57.5t-66 145.5q0 49 26.5 78.5t68.5 29.5t67 -24.5t25 -55.5t-14 -59t-13 -50q0 -22 20.5 -37t49.5 -15q70 0 110.5 92t40.5 246v1105q0 162 12.5 239t49.5 140q88 158 249 158 q98 0 164 -57.5t66 -145.5q0 -49 -26.5 -78.5t-68.5 -29.5t-67 24.5t-25 55.5t14 63t13 50q0 18 -20.5 33t-49.5 15q-70 0 -110.5 -93t-40.5 -253z" glyph-name="integral" unicode="∫"/><glyph d="M255 436q42 0 69.5 -27.5t27.5 -69.5t-27.5 -69.5t-69.5 -27.5t-69.5 28.5t-27.5 69.5t27.5 68.5t69.5 27.5zM255 1096q42 0 69.5 -28t27.5 -70t-27.5 -69.5t-69.5 -27.5t-69.5 28.5t-27.5 69.5t27.5 69t69.5 28z" glyph-name="uni2236" horiz-adv-x="512" unicode="∶"/><glyph d="M682 768q-70 0 -194 44q-126 44 -184 44t-93 -19.5t-90 -78.5l-21 -21l-37 21q137 203 289 203q60 1 188 -43t181 -44q111 0 203 113l37 -18q-57 -96 -133 -148.5t-146 -52.5zM670 446q-52 0 -180 44t-186 44t-93 -19t-90 -79q-8 -6 -21 -18l-37 18q137 203 289 203 q62 0 190 -43t179 -43q113 0 203 115l37 -21q-123 -201 -291 -201z" glyph-name="approxequal" unicode="≈"/><glyph d="M975 563v-88h-555l-160 -229l-61 43l131 186h-283v88h344l148 213h-492v88h555l160 230l61 -43l-131 -187h283v-88h-344l-148 -213h492z" glyph-name="notequal" unicode="≠"/><glyph d="M98 98h828v-98h-828v98zM926 1253v-114l-656 -414l656 -416v-114l-834 528z" glyph-name="lessequal" unicode="≤"/><glyph d="M98 98h828v-98h-828v98zM98 195v114l656 416l-656 414v114l834 -528z" glyph-name="greaterequal" unicode="≥"/><glyph d="M222 557q48 0 81 -32.5t33 -80.5t-33 -81t-81 -33t-80.5 32.5t-32.5 80.5t32.5 81t80.5 33z" glyph-name="dotmath" horiz-adv-x="446" unicode="⋅"/><glyph d="M684 1419l530 -737l-530 -735l-532 735zM684 1237l-403 -555l403 -553l403 553z" glyph-name="lozenge" horiz-adv-x="1366" unicode="◊"/><glyph d="M377 -195q0 -164 -91 -266t-239 -102q-80 0 -137 34.5t-57 84.5q0 27 20.5 48t54.5 21t72 -53q39 -53 96 -53t84 54t27 181v826q0 88 -31 125.5t-106 39.5v62q170 24 307 57v-1059z" glyph-name="uniF6BE" horiz-adv-x="530" unicode=""/><glyph d="M494 -315q-28 0 -54 26.5t-26 67.5t28.5 67.5t77.5 26.5t84 -40t35 -101q0 -158 -184 -221l-17 32q113 45 113 131l-2 19q-27 -8 -55 -8z" glyph-name="uniF6C3" unicode=""/><glyph d="M713 1769q31 0 30 -20q0 -8 -10 -16l-250 -250q-11 -15 -35 -15t-24 19q0 8 2 12l135 270h152z" glyph-name="uniF6C9" unicode=""/><glyph d="M278 1778q20 0 44 -21l190 -139l190 139q46 37 66 17.5t20 -32.5t-28 -42l-248 -248l-248 248q-28 29 -28 42t11 24.5t31 11.5z" glyph-name="uniF6CA" unicode=""/><glyph d="M314 1710q46 0 80 -34t34 -80t-33 -79.5t-80 -33.5t-80.5 33.5t-33.5 81t33.5 80t79.5 32.5zM708 1710q46 0 79.5 -34t33.5 -80t-32.5 -79.5t-79.5 -33.5t-81 33.5t-34 81t34 80t80 32.5z" glyph-name="uniF6CB" unicode=""/><glyph d="M600 1487q0 -19 -24 -19t-35 15l-250 250q-10 8 -10 16q0 20 30 20h152l133 -270q4 -8 4 -12z" glyph-name="uniF6CE" unicode=""/><glyph d="M553 1767q31 0 31 -20q0 -8 -11 -16l-245 -246q-12 -12 -35 -12t-23 18q0 8 2 12l134 264h147zM840 1767q31 0 30 -20q0 -8 -10 -16l-246 -246q-12 -12 -34 -12t-23 18q0 8 2 12l133 264h148z" glyph-name="uniF6CF" unicode=""/><glyph d="M207 1636h610v-104h-610v104z" glyph-name="uniF6D0" unicode=""/><glyph d="M207 506q0 14 -6 41q-14 -2 -37 -2t-45.5 21.5t-22.5 54t21.5 53t62.5 20.5t74 -42t33 -108t-50 -128t-126 -82v33q96 70 96 139z" glyph-name="uniF6E2" horiz-adv-x="380" unicode=""/><glyph d="M172 684q33 0 55.5 -22.5t22.5 -55.5t-22.5 -56.5t-56.5 -23.5t-56.5 22.5t-22.5 56.5t23.5 56.5t56.5 22.5z" glyph-name="uniF6E8" horiz-adv-x="342" unicode=""/><glyph d="M68 1366q604 0 719.5 -5t203.5 -36q211 -74 331 -247t120 -404q0 -305 -186.5 -489.5t-493.5 -184.5h-694v63q129 6 166.5 36t37.5 128v912q0 98 -37.5 129t-166.5 35v63zM477 297q0 -129 25 -166q35 -59 225 -59q248 0 363 174q110 176 110 431t-108 419 q-135 205 -455 204l-160 -4v-999zM720 1620q104 0 154 24.5t70 86.5h57q-8 -111 -84.5 -176.5t-199.5 -65.5t-197 64.5t-80 177.5h52q18 -59 71 -85t157 -26z" glyph-name="glyph420" horiz-adv-x="1525"/><glyph d="M1481 0h-563v63h45q119 0 118 64q0 29 -18 72l-111 262h-544l-107 -262q-14 -35 -14 -69t30.5 -50.5t114.5 -16.5h25v-63h-471v63q98 2 145 32t76 104l491 1190h74l518 -1190q49 -127 191 -136v-63zM911 549l-176 434q-28 69 -39 109l-10 26l-8 29q-4 -14 -16 -51 l-222 -547h471zM735 1710q47 0 80 -34t33 -80t-33 -79.5t-80 -33.5t-80.5 33.5t-33.5 81t33.5 80t80.5 32.5z" glyph-name="glyph421" horiz-adv-x="1468"/><glyph d="M852 948v-465h-64q-2 102 -28 142q-43 63 -146 63h-141v-461q0 -98 38 -127.5t167 -36.5v-63h-610v63q131 6 167.5 36t36.5 128v912q0 98 -37.5 128.5t-166.5 37.5v61h1001l35 -332h-62q-45 150 -104 208t-168 58h-297v-542h152q164 0 163 190h64zM588 1710 q47 0 79.5 -34t32.5 -80t-32.5 -79.5t-79.5 -33.5t-81 33.5t-34 81t34 80t81 32.5z" glyph-name="glyph422" horiz-adv-x="1173"/><glyph d="M766 166q0 -92 55 -92t86 106h62q-49 -203 -205 -203q-150 0 -168 146q-53 -63 -136 -103t-169 -40t-140.5 57t-54.5 153t37 149.5t111 85.5t192 57q117 25 160 44v70q0 117 -23 156q-37 59 -137 59q-61 0 -93 -27.5t-46 -91.5q-16 -84 -90 -84q-41 0 -67.5 18.5 t-26.5 47.5q0 57 61 112q92 86 264 86t262 -73q41 -37 53.5 -73t12.5 -112v-448zM403 98q97 0 193 82v287q-45 -20 -187 -62t-143 -167q0 -59 39 -99.5t98 -40.5zM518 1294q29 0 29 -17q0 -9 -8 -17l-236 -234q-8 -12 -32 -12t-23 16q0 4 4 12l125 252h141zM791 1294 q28 0 28 -17q0 -9 -8 -17l-233 -234q-12 -12 -34 -12t-22 16q0 8 2 12l125 252h142z" glyph-name="glyph423" horiz-adv-x="956"/><glyph d="M766 166q0 -92 55 -92t86 106h62q-49 -203 -205 -203q-150 0 -168 146q-53 -63 -136 -103t-169 -40t-140.5 57t-54.5 153t37 149.5t111 85.5t192 57q117 25 160 44v70q0 117 -23 156q-37 59 -137 59q-61 0 -93 -27.5t-46 -91.5q-16 -84 -90 -84q-41 0 -67.5 18.5 t-26.5 47.5q0 57 61 112q92 86 264 86t262 -73q41 -37 53.5 -73t12.5 -112v-448zM403 98q97 0 193 82v287q-45 -20 -187 -62t-143 -167q0 -59 39 -99.5t98 -40.5zM479 1253q45 0 77 -31.5t32 -76.5t-32 -77t-77 -32t-76.5 32t-31.5 77t31.5 76.5t76.5 31.5z" glyph-name="glyph424" horiz-adv-x="956"/><glyph d="M195 1274h-72v35q66 0 135 49q4 4 10 4t6 -16v-443q0 -35 12.5 -49t45.5 -14h18v-33h-235v33h24q31 0 43.5 14t12.5 49v371z" glyph-name="one.numr" horiz-adv-x="454"/><glyph d="M311 1227q0 47 -28.5 77.5t-70.5 30.5t-70.5 -26.5t-28.5 -77.5t51 -68q-10 -31 -41 -31t-48.5 25t-17.5 76t45 91t119 40t123 -46t49 -121t-52 -142.5t-198 -177.5h185q18 0 28.5 11t22.5 44l4 8h29l-33 -135h-338l10 43q260 211 260 379z" glyph-name="two.numr" horiz-adv-x="454"/><glyph d="M207 1337q-74 0 -74 -61q0 -29 27 -57q-14 -13 -35 -13t-37 16.5t-16 49.5t41 62.5t103 29.5t108.5 -41t46.5 -102q0 -84 -82 -119q102 -49 102 -131t-54 -128t-132 -46t-121 30.5t-43 67.5t18 56.5t43 19.5h15q-13 -33 -13 -61t29 -53.5t73 -25.5t71.5 34t27.5 89 t-22.5 89t-59.5 34q-6 0 -23 -11t-31.5 -11t-26 10t-11.5 25q0 27 62 26q18 0 38 -2q59 24 59 90t-24 99.5t-59 33.5z" glyph-name="three.numr" horiz-adv-x="454"/><glyph d="M315 940v-53q0 -49 39 -49h21v-33h-201v33h16q27 0 36.5 10t9.5 39v53h-207l264 414q6 8 14 8t8 -12v-369h27q20 0 28.5 8t18.5 33h33l-25 -82h-82zM236 981v227l-142 -227h142z" glyph-name="four.numr" horiz-adv-x="454"/><glyph d="M286 1274q-26 0 -77 2h-41l-16 -141q41 23 75 22q68 0 113 -45t45 -121t-62.5 -135t-136.5 -59t-114.5 29.5t-40.5 76.5t43 47q37 0 38 -60t58 -61q55 0 91 48.5t36 123.5q0 121 -84 121q-20 0 -38.5 -12t-22.5 -29q-4 -31 -29 -30q-6 0 -12.5 6t-4.5 10v2l35 287l45 -4 l121 -2q56 0 64 16h37q-47 -59 -71.5 -75.5t-50.5 -16.5z" glyph-name="five.numr" horiz-adv-x="454"/><glyph d="M406 985q0 -82 -49.5 -135t-129.5 -53t-129 64.5t-49 190.5t68.5 219t177.5 93q43 0 69.5 -15.5t26.5 -39.5q0 -37 -35 -37q-27 0 -42 33t-44 32q-94 1 -129 -200q49 31 110 31t108 -50.5t47 -132.5zM229 1139q-45 0 -70.5 -37t-25.5 -109t25.5 -118t70.5 -46t70 42 t25 114t-25 113t-70 41z" glyph-name="six.numr" horiz-adv-x="454"/><glyph d="M145 797q-41 0 -41 37q0 20 15 43l225 397h-162q-74 0 -86 -74h-35l25 166h31q0 -14 4 -18.5t20 -4.5h262l-204 -493q-12 -33 -22.5 -43t-31.5 -10z" glyph-name="seven.numr" horiz-adv-x="454"/><glyph d="M418 961q0 -72 -55.5 -118t-137.5 -46t-136 46t-54 115q0 92 90 136q-78 33 -78 123q0 63 52.5 105t126.5 42t125 -42t51 -110t-76 -108q92 -39 92 -143zM226 1335q-44 0 -72.5 -28.5t-28.5 -80.5t61 -73l80 -29q58 28 58 88t-27 91.5t-71 31.5zM223 831q47 0 80 35 t33 86q0 72 -74 95l-78 26q-70 -37 -70 -103t31 -102.5t78 -36.5z" glyph-name="eight.numr" horiz-adv-x="454"/><glyph d="M206 991q-60 0 -108.5 49.5t-48.5 127.5t53.5 137t129.5 59t127 -68.5t51 -192.5t-69 -215t-173 -91q-53 0 -88 25.5t-35 53.5q0 52 39 52q29 0 35 -33q14 -66 65 -66q106 0 131 193q-49 -31 -109 -31zM227 1337q-43 0 -68.5 -43t-25.5 -114q0 -162 90 -162q45 0 70.5 39 t25.5 113t-24.5 120.5t-67.5 46.5z" glyph-name="nine.numr" horiz-adv-x="454"/><glyph d="M227 1364q82 0 133.5 -79t51.5 -205t-51.5 -204.5t-133.5 -78.5t-133 78.5t-51 204.5t51 205t133 79zM227 1335q-45 0 -71.5 -67.5t-26.5 -185.5t26.5 -186.5t71.5 -68.5t72 68t27 186.5t-27 186t-72 67.5z" glyph-name="zero.numr" horiz-adv-x="454"/><glyph d="M195 467h-72v35q66 0 135 51q4 2 6 2q10 0 10 -16v-443q0 -35 12.5 -49t45.5 -14h18v-33h-235v33h24q31 0 43.5 14t12.5 49v371z" glyph-name="one.dnom" horiz-adv-x="454"/><glyph d="M311 422q0 47 -28.5 77.5t-70.5 30.5t-70.5 -27.5t-28.5 -78.5t51 -68q-10 -28 -41 -28t-48.5 24.5t-17.5 75.5t45 91t119 40t123 -46t49 -121t-52 -142.5t-198 -177.5h185q18 0 28.5 11t22.5 44l4 8h29l-33 -135h-338l10 43q260 211 260 379z" glyph-name="two.dnom" horiz-adv-x="454"/><glyph d="M207 532q-74 0 -74 -62q0 -30 27 -58q-14 -10 -35 -10t-37 16t-16 49t41 62.5t103 29.5t108.5 -40.5t46.5 -112.5t-82 -111q102 -47 102 -139q0 -72 -54 -118t-132 -46t-121 30.5t-43 67.5t18 56.5t43 19.5h15q-32 -71 6.5 -105t82.5 -34t71.5 33.5t27.5 89.5t-22.5 89 t-59.5 33q-4 0 -22 -12t-32.5 -12t-26 10t-11.5 25q0 29 62 28q18 0 38 -4q59 27 59 93t-24 99t-59 33z" glyph-name="three.dnom" horiz-adv-x="454"/><glyph d="M315 135v-53q0 -49 39 -49h21v-33h-201v33h16q27 0 36.5 10t9.5 39v53h-207l264 412q6 10 14 10t8 -12v-369h27q20 0 28.5 8.5t18.5 32.5h33l-25 -82h-82zM236 176v227l-142 -227h142z" glyph-name="four.dnom" horiz-adv-x="454"/><glyph d="M299 543q64 0 72 16h37q-47 -57 -71.5 -73.5t-50.5 -16.5t-77 2h-41l-16 -141q41 23 75 22q68 0 113 -45t45 -121t-62.5 -135t-136.5 -59t-114.5 29.5t-40.5 76.5t43 47q37 0 38 -60t57 -60t92 48t36 124q0 121 -84 120q-20 0 -38.5 -12t-22.5 -29q-4 -31 -29 -30 q-6 0 -12.5 6t-4.5 10v2l35 285l45 -2q49 -4 113 -4z" glyph-name="five.dnom" horiz-adv-x="454"/><glyph d="M406 180q0 -82 -49.5 -135t-128.5 -53t-129 64t-50 190t68.5 219.5t177.5 93.5q43 0 69.5 -15.5t26.5 -39.5q0 -37 -35 -37q-27 0 -42 33t-44 32q-94 1 -129 -202q47 32 109 32t109 -50t47 -132zM229 336q-45 0 -70.5 -38t-25.5 -110t25.5 -117.5t70.5 -45.5t70 42.5 t25 114.5t-25 113t-70 41z" glyph-name="six.dnom" horiz-adv-x="454"/><glyph d="M142 -8q-38 0 -38 37q0 18 15 41l225 397h-162q-74 0 -86 -74h-35l25 166h31q0 -14 4 -18t20 -4h262l-204 -494q-19 -51 -57 -51z" glyph-name="seven.dnom" horiz-adv-x="454"/><glyph d="M418 156q0 -72 -55.5 -118t-137.5 -46t-136 46t-54 116q0 92 90 133q-78 35 -78 125q0 63 52.5 105t126.5 42t125 -41.5t51 -111.5t-76 -107q92 -43 92 -143zM226 530q-44 0 -72.5 -29t-28.5 -81t61 -72l80 -29q58 27 58 87t-27 92t-71 32zM223 27q47 0 80 34.5t33 85.5 q0 70 -74 95l-78 24q-70 -35 -70 -101t31 -102t78 -36z" glyph-name="eight.dnom" horiz-adv-x="454"/><glyph d="M206 186q-58 0 -107.5 50t-49.5 128t53.5 136.5t129.5 58.5t127 -68.5t51 -192.5t-69 -215t-173 -91q-53 0 -88 25t-35 53q0 52 39 53q29 0 35 -33q14 -66 65 -65q106 -1 131 192q-51 -31 -109 -31zM227 532q-43 0 -68.5 -43t-25.5 -114q0 -162 90 -162q45 0 70.5 38.5 t25.5 112.5t-24.5 121t-67.5 47z" glyph-name="nine.dnom" horiz-adv-x="454"/><glyph d="M227 559q82 0 133.5 -79t51.5 -205t-51.5 -204.5t-133.5 -78.5t-133 79t-51 205t51 204.5t133 78.5zM227 530q-45 0 -71.5 -67.5t-26.5 -185.5t26.5 -186t71.5 -68t72 67.5t27 186t-27 186t-72 67.5z" glyph-name="zero.dnom" horiz-adv-x="454"/><glyph d="M512 1362q133 0 240 -100l55 120l63 -28l-69 -150q149 -205 149 -525t-125 -511t-311 -191q-133 0 -240 101l-55 -123l-63 29l69 151q-149 205 -149 523t125 511t311 193zM510 1319q-118 0 -185 -171t-67 -437t39 -422l401 860q-70 170 -188 170zM514 29q116 0 184 171 t68 432t-37 419l-399 -856q68 -166 184 -166z" glyph-name="glyph445"/><glyph d="M276 1231h-106v49q92 2 227 84v-678q0 -53 19.5 -73.5t68.5 -20.5h29v-47h-358v47h37q47 0 65 20.5t18 73.5v545zM1167 1366l-755 -1366h-70l756 1366h69zM1104 686h-109v49q57 2 101.5 18.5t128.5 65.5v-678q0 -51 19.5 -72.5t66.5 -21.5h28v-47h-356v47h35 q49 0 67.5 20.5t18.5 73.5v545z" glyph-name="one_slash_one.frac" horiz-adv-x="1495"/><glyph d="M276 1231h-106v49q92 2 227 84v-678q0 -53 19.5 -73.5t68.5 -20.5h29v-47h-358v47h37q47 0 65 20.5t18 73.5v545zM1167 1366l-755 -1366h-70l756 1366h69zM941.5 31q-62.5 43 -62.5 111t67 69q53 0 53 -94q5 -84 91 -84t141 71.5t55 167.5t-34.5 144.5t-94.5 48.5 q-33 0 -61.5 -18.5t-36.5 -43.5q-2 -43 -41 -43q-8 0 -16.5 8.5t-6.5 14.5v4l52 418l67 -6q100 -6 170 -6t85 4t30 22h53q-72 -86 -107.5 -109.5t-72.5 -23.5t-121 4l-66 2l-24 -213q61 35 117 35q104 0 172.5 -66t68.5 -176t-96 -197t-229 -87q-90 0 -152.5 43z" glyph-name="one_slash_five.frac" horiz-adv-x="1495"/><glyph d="M465 1161q0 70 -44.5 115t-108.5 45t-109 -40t-45 -99q0 -90 78 -115q-14 -41 -60 -41t-73 37t-27 92q0 90 70.5 148.5t181.5 58.5t185.5 -67.5t74.5 -170.5q0 -141 -139 -280q-43 -45 -80 -74t-166 -123h286q29 0 44.5 15.5t35.5 64.5l6 12h43l-53 -194h-514l15 59 q399 313 399 557zM1167 1366l-755 -1366h-70l756 1366h69zM941.5 31q-62.5 43 -62.5 111t67 69q53 0 53 -94q5 -84 91 -84t141 71.5t55 167.5t-34.5 144.5t-94.5 48.5q-33 0 -60.5 -18.5t-37.5 -43.5q-2 -43 -41 -43q-8 0 -16.5 8.5t-6.5 14.5v4l52 418l67 -6q100 -6 170 -6 t85 4t30 22h53q-72 -86 -107.5 -109.5t-72.5 -23.5t-121 4l-66 2l-24 -213q66 35 119 35q102 0 170.5 -66t68.5 -176t-96 -197t-229 -87q-90 0 -152.5 43z" glyph-name="two_slash_five.frac" horiz-adv-x="1495"/><glyph d="M162 704q0 -46 43 -84t113 -38t112.5 50t42.5 131t-35 131t-90 50q-8 0 -36 -18t-50 -17.5t-38.5 16t-16.5 36.5q0 39 90 38q2 0 59 -4q41 8 70 53.5t29 111.5t-38.5 115.5t-94.5 49.5t-86.5 -25.5t-30.5 -67.5t41 -83q-26 -14 -54 -14t-52.5 23.5t-24.5 58.5 q0 59 63.5 102t158.5 43t165.5 -60.5t70.5 -148.5q0 -121 -131 -174q160 -72 160 -207q0 -106 -84 -173t-202 -67t-183 45.5t-65 114.5q0 39 28 66.5t52 27.5t34 -2q-20 -34 -20 -80zM1169 1366l-755 -1366h-72l756 1366h71zM941.5 31q-62.5 43 -62.5 111t67 69q53 0 53 -94 q5 -84 91 -84t141 71.5t55 167.5t-34.5 144.5t-94.5 48.5q-31 0 -59.5 -18.5t-38.5 -43.5q-2 -43 -39 -43q-13 0 -16 6.5t-7 20.5l50 418l69 -6q100 -6 170 -6t85 4t30 22h51q-70 -86 -105.5 -109.5t-73.5 -23.5t-122 4l-64 2l-24 -213q61 35 117 35q102 0 170.5 -66 t68.5 -176t-96 -197t-229 -87q-90 0 -152.5 43z" glyph-name="three_slash_five.frac" horiz-adv-x="1495"/><glyph d="M469 741v-77q0 -74 61 -74h31v-47h-305v47h25q39 0 54 16.5t15 57.5v77h-317l405 605q8 12 20 12t11 -17v-542h43q53 0 72 57l49 4l-37 -119h-127zM350 799v342l-219 -342h219zM1167 1366l-755 -1366h-72l756 1366h71zM939.5 31q-62.5 43 -62.5 111t67 69q33 0 45 -33 q8 -12 9 -56t26 -66.5t66 -22.5q86 0 141 71.5t55 169.5q0 192 -131 191q-31 0 -59.5 -18.5t-36.5 -43.5q-2 -43 -41 -43q-10 0 -17.5 9.5t-5.5 17.5l52 418l67 -6q100 -6 170 -6t85 4t30 22h53q-72 -86 -107.5 -109.5t-72.5 -23.5t-121 4l-66 2l-24 -213q61 35 117 35 q104 0 172.5 -66t68.5 -176t-96 -197t-229 -87q-92 0 -154.5 43z" glyph-name="four_slash_five.frac" horiz-adv-x="1495"/><glyph d="M276 1231h-106v49q92 2 227 84v-678q0 -53 19.5 -73.5t68.5 -20.5h29v-47h-358v47h37q47 0 65 20.5t18 73.5v545zM1167 1366l-755 -1366h-70l756 1366h69zM1176 528q113 0 185.5 -73.5t72.5 -191.5t-75 -196.5t-197 -78.5t-197.5 95t-75.5 233t44 250t114 171 q92 80 219 80q68 0 107.5 -22.5t39.5 -52.5q0 -58 -51 -58q-37 0 -66 53q-27 43 -69 43q-68 0 -121 -72t-80 -229q78 49 150 49zM1165.5 492q-69.5 0 -109.5 -56t-40 -162t40 -173.5t109.5 -67.5t107.5 61.5t38 170t-38 168t-107.5 59.5z" glyph-name="one_slash_six.frac" horiz-adv-x="1495"/><glyph d="M352 1059q102 0 171 -65.5t69 -176.5t-96.5 -198t-229.5 -87q-90 0 -152.5 43t-62.5 107q0 33 17.5 53.5t50.5 20.5q53 0 53 -94q4 -84 90 -84t141.5 71.5t55.5 167.5t-35 144.5t-94 48.5q-31 0 -59.5 -18.5t-39.5 -43.5q-2 -43 -38 -43q-10 0 -19 9t-4 18l49 418l70 -7 q99 -6 169 -6t84.5 4.5t28.5 22.5h54q-70 -86 -105.5 -109.5t-73.5 -23.5t-122 4l-64 2l-24 -211q63 33 116 33zM1167 1366l-755 -1366h-70l756 1366h69zM1174 528q113 0 185.5 -73.5t72.5 -191.5t-75 -196.5t-196 -78.5t-196.5 94t-75.5 232t44 251t114 172q92 80 219 80 q68 0 107.5 -22.5t39.5 -52.5q0 -58 -51 -58q-35 0 -64 48t-71 48q-68 0 -121 -72t-80 -229q78 49 148 49zM1164 492q-69 0 -108.5 -56t-39.5 -162t40 -173.5t108 -67.5t106.5 61.5t38.5 168.5t-38 168t-107 61z" glyph-name="five_slash_six.frac" horiz-adv-x="1495"/><glyph d="M511 1710q46 0 80 -34t34 -80t-33 -79.5t-80 -33.5t-81 33.5t-34 81t34 80t80 32.5z" glyph-name="dotaccent.aalt"/><glyph d="M514 1823q76 0 129 -54.5t53 -129.5t-53 -128t-129 -53t-130 54t-54 130t54 128.5t130 52.5zM513 1737q-40 0 -69.5 -29t-29.5 -69t28.5 -68.5t69.5 -28.5t69.5 28.5t28.5 68.5t-28.5 69t-68.5 29z" glyph-name="ring.aalt"/><glyph d="M788 1503.5q0 -12.5 -12 -25t-23 -12.5t-36 17l-205 141l-203 -141q-25 -17 -36 -17t-23 12.5t-12 25t16 28.5l260 256l258 -256q16 -16 16 -28.5z" glyph-name="circumflex.aalt"/><glyph d="M511 1620q103 0 153.5 24.5t70.5 86.5h58q-10 -111 -86 -176.5t-198 -65.5t-197 63.5t-81 178.5h54q16 -59 69.5 -85t156.5 -26z" glyph-name="breve.aalt"/><glyph d="M350 1581q-42 0 -96 -74l-43 21q98 172 207 172q35 0 119 -32t133 -32t104 66l37 -23q-96 -160 -201 -159q-22 0 -120 30t-140 31z" glyph-name="tilde.aalt"/><glyph d="M723 -268q0 -72 -61.5 -120t-152.5 -48t-187 45l30 53q76 -24 125 -24t87 28.5t38 69.5t-32.5 63.5t-112.5 36.5l51 164h59l-35 -115q94 -12 132 -39q59 -42 59 -114z" glyph-name="cedilla.aalt"/><glyph d="M977 -129q0 -33 24.5 -56.5t59.5 -23.5t82 27v-62q-63 -57 -139 -57t-115 34t-39 85t27.5 92t95.5 90h76q-72 -66 -72 -129z" glyph-name="ogonek.aalt"/><glyph d="M401 -219q0 45 32 74.5t86 29.5t92 -44t38 -113q0 -172 -203 -244l-16 37q123 49 123 143l-2 23q-29 -11 -59 -11t-60.5 30t-30.5 75z" glyph-name="uniF6C3.aalt"/><glyph d="M802 1186q-30 0 -59.5 29.5t-29.5 73.5t31.5 74t85.5 30t92.5 -44t38.5 -112q0 -172 -203 -244l-17 35q123 49 123 146l-2 22q-30 -10 -60 -10z" glyph-name="glyph461"/><glyph d="M351 1710q46 0 80 -34t34 -80t-33 -79.5t-80 -33.5t-80.5 33.5t-33.5 81t33.5 80t79.5 32.5zM675 1710q46 0 79.5 -34t33.5 -80t-33.5 -79.5t-80.5 -33.5t-80 33.5t-33 81t34 80t80 32.5z" glyph-name="glyph462"/><glyph d="M832 1206q-28 0 -54 27t-26 67t28.5 66.5t77.5 26.5t84 -40t35 -102q0 -156 -184 -219l-17 31q113 45 113 131l-2 20q-27 -8 -55 -8z" glyph-name="glyph463"/><glyph d="M358 1200q45 0 77 -31.5t32 -76.5t-32 -77t-77 -32t-76.5 32t-31.5 77t31.5 76.5t76.5 31.5zM666 1200q45 0 76.5 -31.5t31.5 -76.5t-31.5 -77t-76.5 -32t-77 32t-32 77t32 76.5t77 31.5z" glyph-name="glyph464"/><glyph d="M487 1171q0 -10 2 -18q31 6 57 6t52.5 -26.5t26.5 -66.5t-29 -66.5t-78 -26.5t-84 40t-35 101q1 155 185 221l14 -32q-111 -45 -111 -132z" glyph-name="glyph465"/><glyph d="M0 707h455v-50h-455v50zM226 1364q83 0 134.5 -79t51.5 -206t-52.5 -204.5t-134.5 -77.5t-133 78.5t-51 204.5t51 205t134 79zM226 1335q-46 0 -72.5 -67.5t-26.5 -185.5t26.5 -186.5t72.5 -68.5t73 66.5t27 186.5t-27 187.5t-73 67.5zM226 559q83 0 134.5 -79t51.5 -206 t-52.5 -204.5t-134.5 -77.5t-133 79t-51 205t51 204.5t134 78.5zM226 530q-46 0 -72.5 -67.5t-26.5 -185.5t26.5 -186t72.5 -68t73 66.5t27 186.5t-27 187t-73 67z" glyph-name="glyph466" horiz-adv-x="454"/></font>
</defs>
</svg>
