<?xml version="1.0" standalone="no"?>
<!DOCTYPE svg PUBLIC "-//W3C//DTD SVG 1.1//EN" "http://www.w3.org/Graphics/SVG/1.1/DTD/svg11.dtd">
<svg xmlns="http://www.w3.org/2000/svg"><metadata>This SVG WebFont was generated by YouWorkForThem.
Copyright 2010 URW++ Design &amp; Development</metadata><defs><font horiz-adv-x="1024" id="ywftsvg"><font-face ascent="1430" bbox="-281 -582 2003 1892" cap-height="1366" descent="-618" font-family="" font-stretch="normal" font-weight="500" panose-1="0 0 6 0 0 0 0 0 0 0" underline-position="0" underline-thickness="0" unicode-range="U+0020-FB04" units-per-em="2048" x-height="899"/><missing-glyph horiz-adv-x="512"/><glyph d="M1072 1290q-36 0 -53.5 -40t-17.5 -144v-207h185v-119h-185v-534q0 -104 11.5 -124t70.5 -20h72v-102h-510v102h14q59 0 70.5 19.5t11.5 124.5v534h-292v-534q0 -104 11 -124t70 -20h21v-102h-498v102h53q59 0 70.5 19.5t11.5 124.5v534h-135v119h135v111 q0 182 104.5 286.5t289.5 104.5q145 0 284 -84q100 84 224 84t191 -49.5t67 -115.5t-33 -102t-77 -36t-71.5 25t-27.5 51t2 32l4 35q0 20 -18.5 34.5t-54.5 14.5zM449 899h292v129q0 98 37 176q-76 96 -172 96q-158 0 -157 -227v-174z" glyph-name="uniFB00" horiz-adv-x="1232" unicode="ff"/><glyph d="M188 899v94q0 207 115 307t293 101q178 0 290.5 -70.5t112.5 -177.5q0 -59 -36.5 -99t-92 -40t-91.5 38t-37 104t-19 91q-39 53 -115 53t-117.5 -59t-41.5 -162v-180h155q188 0 400 29v-682q0 -104 11 -124t70 -20h56v-102h-496v102h17q59 0 70 19.5t11 124.5v428 q0 66 -26.5 86t-110.5 20h-157v-534q0 -104 11 -124t70 -20h21v-102h-498v102h53q59 0 70.5 19.5t11.5 124.5v534h-135v119h135z" glyph-name="uniFB01" horiz-adv-x="1163" unicode="fi"/><glyph d="M745 1135q0 165 -137 165q-160 0 -159 -221v-180h184v-119h-184v-534q0 -104 11 -124t70 -20h21v-102h-498v102h53q59 0 70.5 19.5t11.5 124.5v534h-135v119h135v86q0 121 27 193.5t94 132.5q102 90 269 90q55 0 113 -10q58 -11 99 -11q42 0 124 22t94 28v-1184 q0 -104 11 -124t71 -20h51v-102h-498v102h19q61 0 72 19.5t11 124.5v889z" glyph-name="uniFB02" horiz-adv-x="1163" unicode="fl"/><glyph d="M1008 899h157q186 0 398 29v-682q0 -104 11 -124t71 -20h55v-102h-494v102h17q57 0 68.5 19.5t11.5 124.5v428q0 66 -26 86t-110 20h-159v-534q0 -104 11 -124t73 -20h20v-102h-467v102h21q59 0 70.5 19.5t11.5 124.5v534h-299v-534q0 -104 11 -124t70 -20h21v-102h-498 v102h53q59 0 70.5 19.5t11.5 124.5v534h-135v119h135v111q0 182 104.5 286.5t289.5 104.5q145 0 295 -90q113 90 285 90t284.5 -70.5t112.5 -177.5q0 -59 -37 -99t-92.5 -40t-91 38t-36.5 104t-20 91q-37 53 -112.5 53t-118.5 -59t-43 -162v-180zM449 899h299v94 q0 121 36 201q-80 106 -178 106q-158 0 -157 -227v-174z" glyph-name="uniFB03" horiz-adv-x="1724" unicode="ffi"/><glyph d="M1008 899h184v-119h-184v-534q0 -104 11 -124t73 -20h20v-102h-467v102h21q59 0 70.5 19.5t11.5 124.5v534h-299v-534q0 -104 11 -124t70 -20h21v-102h-498v102h53q59 0 70.5 19.5t11.5 124.5v534h-135v119h135v111q0 182 104 286.5t272 104.5t308 -88q106 88 267 88 q53 0 111 -10q58 -11 100 -11q40 0 172 37l45 13v-1184q0 -104 11 -124t73 -20h51v-102h-500v102h19q61 0 72.5 19.5t11.5 124.5v889q0 165 -138 165q-92 0 -135 -79q-25 -53 -24 -142v-180zM449 899h299v86q0 133 36 211q-82 104 -178 104q-158 0 -157 -227v-174z" glyph-name="uniFB04" horiz-adv-x="1724" unicode="ffl"/><glyph glyph-name=".notdef" horiz-adv-x="512"/><glyph glyph-name="glyph1" horiz-adv-x="0"/><glyph glyph-name="glyph2" horiz-adv-x="681"/><glyph glyph-name="space" horiz-adv-x="512" unicode=" "/><glyph d="M176 1313q0 45 36 74.5t92 29.5t92 -29.5t36 -74.5q0 -6 -4 -68l-51 -665q-4 -61 -19.5 -84t-53.5 -23t-53.5 23t-19.5 84l-51 665q0 42 -4 60v8zM300 319q73 0 125 -52t52 -127t-51 -125t-126 -50t-126 51.5t-51 125t52 125.5t125 52z" glyph-name="exclam" horiz-adv-x="602" unicode="!"/><glyph d="M109 1293q0 44 31.5 76t85 32t85 -32t31.5 -87q0 -10 -4 -51l-43 -412h-139l-45 412q-2 18 -2 62zM449 1278q0 57 30.5 90t84.5 33t86 -32t32 -89l-2 -49l-45 -412h-139l-43 412q-4 37 -4 47z" glyph-name="quotedbl" horiz-adv-x="790" unicode="&quot;"/><glyph d="M449 946h262l82 385h86l-82 -385h194l-30 -141h-193l-53 -252h192l-30 -141h-193l-88 -412h-86l88 412h-262l-88 -412h-88l88 412h-207l31 141h207l53 252h-207l29 141h206l82 385h88zM420 805l-53 -252h262l53 252h-262z" glyph-name="numbersign" unicode="#"/><glyph d="M586 817q2 0 86 -41q154 -72 223.5 -161t69.5 -216q0 -197 -160 -321q-96 -76 -240 -94v-193h-100v193q-178 14 -293 108q-57 45 -95 104.5t-38 101.5t32.5 72.5t80.5 30.5t73 -28q24 -28 56 -105q55 -137 184 -155v485q-37 18 -103 50t-101.5 51.5t-74.5 56.5 q-110 98 -110 261t105.5 263t283.5 109v176h100v-176q161 -17 265 -101t104 -180q0 -49 -27 -79t-83 -30t-74 45q-12 24 -18 82t-53.5 98t-113.5 50v-445q19 -12 21 -12zM791 326q0 135 -211 223v-436q92 12 151.5 72.5t59.5 140.5zM281 1092q0 -80 71 -142q33 -31 127 -76 v400q-92 -8 -145 -55t-53 -127z" glyph-name="dollar" unicode="$"/><glyph d="M278.5 1382q96.5 0 163 -103t66.5 -254t-67.5 -256t-164 -105t-164 104t-67.5 253.5t68.5 255t165 105.5zM276 727q90 0 90 297t-90 297t-90 -297t90 -297zM334 0l635 1366h108l-635 -1366h-108zM1118 702q96 0 163 -103t67 -254t-68 -256t-164 -105t-163.5 104.5 t-67.5 254t68.5 254.5t164.5 105zM1116 47q90 0 90 297t-90 297t-90 -297t90 -297z" glyph-name="percent" horiz-adv-x="1390" unicode="%"/><glyph d="M109 358q0 270 311 400q-63 111 -86 172t-23 123q0 119 88.5 192.5t226.5 73.5t222 -65.5t84 -168.5q0 -194 -260 -303l139 -207q70 -102 125 -178q88 135 88 205t-29.5 95.5t-99.5 29.5v94h451v-94q-78 -8 -113 -39t-82 -137q-94 -195 -141 -250q96 -111 150 -151.5 t106 -40.5q80 0 147 79l55 -77q-139 -152 -299 -152q-80 0 -148.5 37t-164.5 133q-160 -164 -345 -164t-293.5 110.5t-108.5 282.5zM338 444q0 -126 82 -218.5t179 -92.5t185 78q-147 187 -315 463q-131 -104 -131 -230zM766 1071q0 67 -36 107.5t-92 40.5t-89 -34.5 t-33 -98.5t105 -224q80 45 112.5 93.5t32.5 115.5z" glyph-name="ampersand" horiz-adv-x="1468" unicode="&amp;"/><glyph d="M109 1293q0 44 31.5 76t85 32t85 -32t31.5 -87q0 -10 -4 -51l-43 -412h-139l-45 412q-2 18 -2 62z" glyph-name="quotesingle" horiz-adv-x="450" unicode="'"/><glyph d="M80 489q0 530 276 945h205q-254 -416 -254 -949q0 -270 59.5 -490.5t194.5 -453.5h-205q-131 180 -203.5 428t-72.5 520z" glyph-name="parenleft" horiz-adv-x="600" unicode="("/><glyph d="M293 485q0 537 -254 949h207q274 -416 274 -947q0 -270 -71.5 -518t-202.5 -428h-207q135 233 194.5 453.5t59.5 490.5z" glyph-name="parenright" horiz-adv-x="600" unicode=")"/><glyph d="M882 1176q52 0 82.5 -36t30.5 -87q0 -76 -80 -99q-45 -14 -145 -14t-158 -10q31 -35 117 -99q141 -94 141 -172q0 -41 -38.5 -75.5t-84.5 -34.5t-79 43t-66 146t-57 143q-25 -41 -57 -143t-64.5 -145.5t-78.5 -43.5t-85 36t-39 76.5t30.5 77.5t112.5 95t113 96 q-43 10 -151 10t-150 14q-80 23 -80 97q0 53 31 89t83 36t150 -74t144 -92q-6 61 -39 154t-33 144.5t30 80t83 28.5t82.5 -28.5t30 -80t-33.5 -153.5t-36 -145q50 20 146 93t148 73z" glyph-name="asterisk" horiz-adv-x="1089" unicode="*"/><glyph d="M33 614v117h420v402h116v-402h422v-117h-422v-399h-116v399h-420z" glyph-name="plus" unicode="+"/><glyph d="M346 -43q0 20 -8 51q-25 -8 -47 -8q-78 0 -130 50t-52 124t52 126t135 52t147.5 -88t64.5 -223t-76 -236.5t-213 -146.5l-31 70q72 41 115 102t43 127z" glyph-name="comma" horiz-adv-x="604" unicode=","/><glyph d="M0 414v143h461v-143h-461z" glyph-name="hyphen" horiz-adv-x="460" unicode="-"/><glyph d="M286 319q73 0 125 -52t52 -127t-51.5 -125t-125.5 -50t-125.5 51.5t-51.5 125t52 125.5t125 52z" glyph-name="period" horiz-adv-x="573" unicode="."/><glyph d="M-76 -459l733 1893h142l-733 -1893h-142z" glyph-name="slash" horiz-adv-x="884" unicode="/"/><glyph d="M516 1346q178 0 311 -213q119 -191 119 -481t-139 -488q-131 -180 -300 -180t-299 203t-130 477t130 478t308 204zM515 1235q-40 0 -73.5 -34t-54.5 -91q-51 -164 -51 -446.5t51 -444.5q20 -57 54 -91t73 -34q176 0 176 563q0 303 -49 453q-16 57 -51 91t-75 34z" glyph-name="zero" unicode="0"/><glyph d="M659 1360v-1088q0 -111 39 -149.5t154 -40.5v-82h-653v82q117 4 149 26t45 56.5t13 107.5v838h-191v88q250 27 408 162h36z" glyph-name="one" unicode="1"/><glyph d="M635 1010q0 113 -47 176t-128 63t-132.5 -59.5t-51.5 -136.5t41 -124.5t111 -64.5q-60 -82 -146 -82t-136 63.5t-50 158.5q0 145 115 247.5t283 102.5t281.5 -105.5t113.5 -272.5t-127 -343q-29 -39 -120 -137.5t-138 -141.5l-189 -168h224q184 2 231 30t90 159h96 l-84 -375h-815l21 109q197 193 263.5 268.5t135.5 183.5q158 242 158 449z" glyph-name="two" unicode="2"/><glyph d="M655 1022q0 112 -45.5 175t-113.5 63t-108 -35t-40 -90t53 -111q21 -21 -19 -36t-90 -15t-91 40t-41 103q0 106 99 178t257 72t271.5 -95t113.5 -235q0 -209 -244 -299q113 -31 168 -92q99 -102 99 -264t-137.5 -279.5t-344.5 -117.5q-162 0 -268 75.5t-106 190.5 q0 84 55 133t149 49q47 0 47 -16l-4 -13q-80 -173 -10 -236t158 -63t149.5 83t61.5 211t-38 204t-97 76q-39 0 -80 -22t-67 -21q-26 0 -49.5 25.5t-23.5 59.5t20.5 52.5t55.5 18.5l117 -21q66 0 104.5 70t38.5 182z" glyph-name="three" unicode="3"/><glyph d="M739 1343v-915l29 2q57 0 85 19.5t44 74.5h88l-67 -209h-179v-45q0 -84 5.5 -111.5t21.5 -45.5q23 -31 117 -33v-80h-527v80q82 -4 121 53q21 35 21 98l2 39v45h-459l592 1028h106zM500 428v526l-291 -526h291z" glyph-name="four" unicode="4"/><glyph d="M537 1096q-68 0 -150 16l-43 -315q92 73 218 73t222.5 -106.5t96.5 -263.5q0 -217 -134.5 -366.5t-328.5 -149.5q-145 0 -259 80.5t-114 183.5q0 51 30.5 85t70.5 34q83 0 100 -60q8 -25 8 -76t5 -70t33 -41t77 -22q102 0 186 132t84 292q0 106 -40.5 166t-106.5 60 t-113 -43q-20 -18 -64 -105q-16 -31 -47 -31q-53 0 -49 31l86 743q335 -63 423.5 -34.5t129.5 71.5l68 -37q-33 -83 -124 -165t-265 -82z" glyph-name="five" unicode="5"/><glyph d="M561 903q162 0 273.5 -126.5t111.5 -320.5t-127 -333t-321 -139t-310 159.5t-116 434.5q0 201 70.5 372.5t195.5 274.5q162 135 346 135q98 0 162.5 -37t64.5 -86t-29.5 -78t-76.5 -29t-92 61t-105 60q-113 0 -186 -139q-31 -53 -44 -101.5t-40 -187.5q94 80 223 80z M516 791q-92 0 -143 -91.5t-51 -257.5t49 -256t139 -90q182 0 182 348t-176 347z" glyph-name="six" unicode="6"/><glyph d="M349 -16q-52 0 -87 30.5t-35 73.5q0 66 135 309l408 742h-352q-151 0 -181 -58.5t-55 -134.5h-88l76 420h76q2 -23 57 -23h655l-260 -669q-20 -53 -63 -167.5t-83 -216.5q-40 -101 -64 -171t-55.5 -102.5t-83.5 -32.5z" glyph-name="seven" unicode="7"/><glyph d="M942 352q0 -156 -125 -262t-309 -106t-306 105.5t-122 262.5q0 117 72.5 204t199.5 120q-121 78 -173 155.5t-52 180.5q0 156 112.5 256t275.5 100t269.5 -95t106.5 -235q0 -198 -211 -311q139 -90 200.5 -178t61.5 -197zM305 314q0 -86 61.5 -155t148.5 -69t143.5 60.5 t56.5 152.5t-80 174q-31 33 -50.5 47.5t-103.5 69.5l-35 24q-88 -109 -114.5 -163.5t-26.5 -140.5zM507 1270q-77 0 -127 -54.5t-50 -132.5q0 -104 119 -209q39 -31 129 -86q108 139 108 248t-51 171.5t-128 62.5z" glyph-name="eight" unicode="8"/><glyph d="M448 461q-146 0 -255 128.5t-109 320.5t117.5 318t313.5 126t310.5 -153.5t114.5 -430.5q0 -340 -151.5 -563t-382.5 -223q-125 0 -215.5 58t-90.5 140q0 41 28 71t67 30q80 0 104 -95q16 -58 40 -78t71 -20q100 0 173.5 121t102.5 334q-92 -84 -238 -84zM513 1249 q-89 0 -137 -86.5t-48 -246.5t47 -252.5t129 -92.5q193 0 192 330q0 168 -47 258t-136 90z" glyph-name="nine" unicode="9"/><glyph d="M286 901q73 0 125 -52t52 -127t-51.5 -125t-125.5 -50t-125.5 51t-51.5 125t52 126t125 52zM286 319q73 0 125 -52t52 -127t-51.5 -125t-125.5 -50t-125.5 51.5t-51.5 125t52 125.5t125 52z" glyph-name="colon" horiz-adv-x="573" unicode=":"/><glyph d="M346 -41q0 18 -8 49q-25 -8 -47 -8q-78 0 -130 50t-52 124t52 126t135 52t147.5 -88t64.5 -223t-76 -236.5t-213 -146.5l-31 70q72 41 115 102t43 129zM308 930q73 0 125 -53t52 -127t-51 -124.5t-126 -50.5t-126 51.5t-51 125t52 126t125 52.5z" glyph-name="semicolon" horiz-adv-x="604" unicode=";"/><glyph d="M934 1233v-168l-598 -375l598 -375v-168l-862 541z" glyph-name="less" unicode="&lt;"/><glyph d="M33 770v117h958v-117h-958zM33 461v117h958v-117h-958z" glyph-name="equal" unicode="="/><glyph d="M88 147v168l598 375l-598 375v168l862 -543z" glyph-name="greater" unicode=">"/><glyph d="M325 319q73 0 125 -52t52 -127t-52 -125t-126 -50t-125.5 51.5t-51.5 125t52.5 125.5t125.5 52zM383 475h-115v375h94q23 -53 78 -53q113 0 113 249t-154 248q-84 0 -108 -80q-27 -82 -92 -81q-41 0 -72 27.5t-31 66.5q0 84 89 136t249 52t258.5 -101.5t98.5 -272.5 t-76 -268t-199 -97q-57 0 -133 33v-234z" glyph-name="question" horiz-adv-x="856" unicode="?"/><glyph d="M1071 371q102 0 185 129t83 291q0 229 -156.5 378.5t-408.5 149.5t-431 -185.5t-179 -463.5t178 -445.5t475 -167.5q201 0 410 97l37 -91q-231 -94 -461 -94q-340 0 -551 194.5t-211 506.5t213 519.5t512 207.5t489.5 -173t190.5 -431q0 -203 -123 -343.5t-292 -140.5 t-187 140q-59 -78 -109.5 -108t-140.5 -30t-147.5 65.5t-57.5 186.5q0 193 113.5 327t275.5 134q113 0 164 -90l16 74h164l-90 -408q-29 -119 -28.5 -153.5t18.5 -55t49 -20.5zM809 973q-90 0 -143 -99q-96 -178 -97 -370q0 -59 23.5 -95t62.5 -36q88 0 166 140t88 316 q2 66 -24.5 105t-75.5 39z" glyph-name="at" horiz-adv-x="1486" unicode="@"/><glyph d="M1425 102h45v-102h-661v102h92q33 0 53.5 15t20.5 37t-14 53l-99 248h-418l-94 -248q-12 -25 -12 -53t17.5 -40t62.5 -12h92v-102h-524v102q92 -2 137 28t80 116l456 1140h132l464 -1140q39 -92 69 -118t101 -26zM819 555l-166 428l-172 -428h338z" glyph-name="A" horiz-adv-x="1458" unicode="A"/><glyph d="M74 1366h749q150 0 249 -95t99 -250t-133 -239q-57 -35 -151 -43q182 -35 269 -123t87 -256t-116 -264t-318 -96h-735v102h41q90 0 119 28t28 122v862q0 94 -26.5 122t-120.5 28h-41v102zM557 1243v-487h64q88 0 170.5 26t82.5 230q0 141 -75 194q-33 25 -68 31t-135 6 h-39zM557 651v-411q0 -96 25.5 -126t107.5 -30q129 0 183 71q55 71 55 227t-92 224q-35 29 -74 37t-133 8h-72z" glyph-name="B" horiz-adv-x="1335" unicode="B"/><glyph d="M842 1288q-217 0 -340 -190q-102 -152 -102 -426t116.5 -430t327.5 -156q158 0 293 86t213 240l102 -76q-92 -188 -257 -287.5t-388 -99.5q-324 0 -527.5 200.5t-203.5 521.5t214 533t541 213q242 0 429 -129l43 96h75q2 -147 31 -516h-106q-53 199 -174 309.5 t-287 110.5z" glyph-name="C" horiz-adv-x="1495" unicode="C"/><glyph d="M1522 674q0 -186 -73 -339t-208 -244t-367 -91h-806v102h45q96 0 122.5 27t26.5 123v862q0 94 -26.5 122t-122.5 28h-45v102h393l313 4q207 0 341 -48t235 -159q172 -195 172 -489zM557 1264v-1031q0 -82 29.5 -107.5t151.5 -25.5q247 0 358 152q106 156 106 422 q0 381 -227 520q-72 45 -147.5 57.5t-270.5 12.5z" glyph-name="D" horiz-adv-x="1597" unicode="D"/><glyph d="M840 1264h-279v-476h125q72 0 104.5 43t34.5 138h109v-498h-109v25q0 98 -40 138t-140 40h-84v-410q2 -82 4.5 -98t18.5 -36t37.5 -24t101.5 -4h162q98 0 177.5 48t117.5 278h96l-25 -428h-1181v102h45q94 0 120.5 28t26.5 122v862q0 94 -28 122t-119 28h-45v102h1091 l19 -354h-101q-8 88 -41 147t-76.5 82t-121.5 23z" glyph-name="E" horiz-adv-x="1343" unicode="E"/><glyph d="M811 1264h-254v-492h84q102 0 140 37t48 145h101v-485h-101q0 113 -45 158t-157 45h-70v-420q0 -94 29 -122t119 -28h45v-102h-684v102h47q92 0 121 28t28 122v862q0 94 -24 119q-35 31 -125 31h-47v102h1075l43 -356h-105q-43 160 -93 207t-175 47z" glyph-name="F" horiz-adv-x="1239" unicode="F"/><glyph d="M1364 1366v-475h-104q-45 164 -91 229q-115 170 -325 170t-328.5 -169t-118.5 -442t113 -436t282 -163t308 106v164q0 94 -26.5 122t-121.5 28h-45v102h656v-102h-27q-90 0 -125 -31q-25 -27 -25 -119v-307q-138 0 -190 -15q-51 -15 -162 -47t-248 -32q-322 0 -516 190.5 t-194 514.5t209 543.5t526 219.5q227 0 422 -135l27 84h104z" glyph-name="G" horiz-adv-x="1601" unicode="G"/><glyph d="M559 778h588v336q0 94 -26.5 122t-121.5 28h-43v102h678v-102h-43q-88 0 -123 -31q-25 -25 -24 -119v-862q0 -94 26.5 -122t120.5 -28h43v-102h-678v102h43q94 0 121 28t27 122v410h-588v-410q0 -94 25 -119q35 -31 123 -31h41v-102h-680v102h47q94 0 120.5 28t26.5 122 v862q0 94 -26.5 122t-120.5 28h-47v102h680v-102h-41q-92 0 -120 -28t-28 -122v-336z" glyph-name="H" horiz-adv-x="1705" unicode="H"/><glyph d="M70 1366h680v-102h-45q-94 0 -121 -28t-27 -122v-862q0 -94 26.5 -122t121.5 -28h45v-102h-680v102h45q94 0 120.5 28t26.5 122v862q0 94 -28 122t-119 28h-45v102z" glyph-name="I" horiz-adv-x="819" unicode="I"/><glyph d="M143 1264v102h658v-102h-41q-92 0 -120 -28t-28 -122v-1157q0 -187 -80 -297t-200.5 -168.5t-257.5 -58.5t-232.5 64.5t-95.5 160.5q0 55 39 91t95 36t90 -29.5t34 -63.5t-16 -61q-8 -20 -8 -26q0 -20 29.5 -34.5t81.5 -14.5t103.5 33t87.5 103t35 249v1173q1 94 -27 122 t-120 28h-27z" glyph-name="J" horiz-adv-x="845" unicode="J"/><glyph d="M1493 1366v-102q-113 -10 -187.5 -58.5t-308.5 -263.5l-100 -90l379 -520q100 -141 155.5 -183.5t147.5 -46.5h14v-102h-696v102h51q84 0 84 43q0 18 -35 68l-323 434l-117 -108v-287q0 -94 26.5 -122t121.5 -28h49v-102h-688v102h47q96 0 122.5 27t26.5 123v862 q0 94 -28 122t-121 28h-47v102h688v-102h-49q-94 0 -121 -28t-27 -122v-391l277 258q123 117 149.5 148.5t26.5 60.5q0 74 -125 74h-29v102h637z" glyph-name="K" horiz-adv-x="1558" unicode="K"/><glyph d="M70 0v102h45q94 0 120.5 28t26.5 122v862q0 94 -24 119q-35 31 -123 31h-45v102h682v-102h-47q-90 0 -119 -28t-29 -122v-856q0 -68 8.5 -102t70.5 -42t212 -8t227.5 74t100.5 248h104l-16 -428h-1194z" glyph-name="L" horiz-adv-x="1327" unicode="L"/><glyph d="M403 252q0 -94 23 -119q33 -31 123 -31h51v-102h-541v102h47q94 0 121 28t27 122v862q0 94 -25 119q-35 31 -123 31h-47v102h529l383 -969l385 969h514v-102h-49q-127 0 -135.5 -38t-8.5 -112v-862q0 -90 31 -120t121 -30h41v-102h-682v102h49q94 0 120.5 28t26.5 122 v788l-413 -1040h-156l-412 1055v-803z" glyph-name="M" horiz-adv-x="1941" unicode="M"/><glyph d="M1397 0h-240l-735 1094v-842q0 -94 28 -122t119 -28h45v-102h-542v102h43q94 0 120.5 28t26.5 122v862q0 94 -24 119q-35 31 -123 31h-43v102h506l659 -977v725q0 94 -28 122t-122 28h-51v102h547v-102h-39q-94 0 -120.5 -28t-26.5 -122v-1114z" glyph-name="N" horiz-adv-x="1644" unicode="N"/><glyph d="M832 1417q328 0 536.5 -204.5t208.5 -522.5t-213 -529.5t-539 -211.5t-537.5 204.5t-211.5 516.5t200 518q228 229 556 229zM397 691q0 -296 110.5 -455.5t320.5 -159.5t313 143q51 72 82.5 203.5t31.5 277.5t-35.5 274t-89.5 192q-108 128 -309 128t-312.5 -153.5 t-111.5 -449.5z" glyph-name="O" horiz-adv-x="1650" unicode="O"/><glyph d="M557 625v-373q0 -94 26.5 -122t121.5 -28h47v-102h-686v102h49q94 0 120.5 28t26.5 122v862q0 94 -28 122t-119 28h-49v102h788q174 0 275.5 -90t101.5 -248q0 -213 -158 -328q-117 -80 -332 -79l-163 4h-21zM637 725q141 0 209 43q98 66 98 225q0 78 -31.5 144.5 t-83.5 95.5q-51 33 -182 33q-51 0 -90 -2v-537q37 -2 80 -2z" glyph-name="P" horiz-adv-x="1296" unicode="P"/><glyph d="M1534 -561q-102 0 -195.5 32.5t-224.5 116.5q-301 195 -452 195q-82 0 -160 -66q-22 -18 -50 -18t-48.5 24.5t-20.5 55.5t29 48t137 37t225 89q-279 27 -434 147q-264 203 -264 574q0 330 211 535.5t544 205.5t539 -207t205 -503q0 -340 -234 -558q-114 -104 -197 -135.5 t-143 -50.5q-156 -59 -227 -94q180 0 302 -25.5t321 -117.5t308 -90q109 0 175 147l80 -39q-51 -137 -123 -197q-125 -106 -303 -106zM827 76q426 0 426 626q0 276 -113.5 434t-314.5 158q-104 0 -266 -88t-162 -512q0 -135 30 -260t79 -198.5t136 -116.5t185 -43z" glyph-name="Q" horiz-adv-x="1652" unicode="Q"/><glyph d="M66 1366h811q166 0 261 -91t95 -251q0 -201 -160 -307q-74 -51 -239 -62q156 -23 225 -82t189 -241t153 -210t94 -28h14v-94h-368q-70 68 -100.5 110t-137.5 218t-166 234.5t-137 58.5q-23 0 -43 -3v-368q0 -92 29 -120t119 -28h43v-102h-682v102h49q94 0 120.5 27 t26.5 121v864q0 94 -26.5 122t-120.5 28h-49v102zM557 727h111q139 0 204.5 66.5t65.5 220.5t-98 217q-51 33 -154 33h-129v-537z" glyph-name="R" horiz-adv-x="1458" unicode="R"/><glyph d="M1012 1386v-397h-86q-27 92 -46.5 131t-54.5 72q-100 96 -258 96q-92 0 -148.5 -44t-56.5 -115.5t68 -131t237 -138.5t240 -132q172 -125 172 -328t-133 -326.5t-342 -123.5q-109 0 -182.5 28.5t-185.5 116.5l-39 -100h-99l19 455h80q35 -135 88 -203q125 -158 307 -158 q109 0 178.5 61t69.5 167t-140 188q-57 34 -228 114t-249 152q-100 100 -100 265t121 273.5t312 108.5t335 -110l35 79h86z" glyph-name="S" horiz-adv-x="1169" unicode="S"/><glyph d="M926 1264h-84v-1012q0 -96 27.5 -123t121.5 -27h45v-102h-690v102h53q94 0 121 28t27 122v1012h-78q-188 0 -258 -129q-45 -88 -53 -195h-103l27 426h1229l22 -426h-104q-8 156 -87 240t-216 84z" glyph-name="T" horiz-adv-x="1386" unicode="T"/><glyph d="M1579 1366v-102h-18q-94 0 -121 -28t-27 -122v-637q0 -147 -37 -239.5t-125 -163.5q-152 -125 -415 -125q-588 0 -588 528v637q0 94 -28 122t-120 28h-18v102h651v-102h-43q-94 0 -120.5 -28t-26.5 -122v-637q0 -109 14 -164t53 -100q94 -111 280 -111t279 109 q47 55 65.5 131t18.5 219v553q1 94 -27 122t-120 28h-47v102h520z" glyph-name="U" horiz-adv-x="1642" unicode="U"/><glyph d="M1522 1366v-102q-70 -4 -103 -17.5t-61 -50.5q-61 -100 -219 -471l-297 -725h-170l-469 1079q-43 102 -82 135t-135 50v102h639v-102q-80 -2 -109 -15.5t-29 -46.5t37 -123l303 -721l297 721q31 72 31 114t-38 56.5t-142 14.5v102h547z" glyph-name="V" horiz-adv-x="1509" unicode="V"/><glyph d="M1950 1366v-102q-100 -6 -134 -47t-87 -218l-287 -999h-178l-297 920l-262 -920h-189l-354 1104q-33 102 -62.5 129t-113.5 31v102h618v-102l-14 -2l-45 -2q-55 -2 -74.5 -16.5t-19.5 -46.5t16 -85l213 -680l256 934h184l299 -934l189 662q24 84 24 114t-30.5 42 t-133.5 14v102h482z" glyph-name="W" horiz-adv-x="1937" unicode="W"/><glyph d="M1425 1366v-102q-115 -6 -174 -38t-147 -136l-250 -324l301 -436q98 -147 144.5 -186.5t125.5 -41.5v-102h-663v102q78 0 100 4q45 9 45 48q0 31 -76 141l-155 229l-211 -272q-59 -82 -59 -108t53 -35q27 -6 119 -7v-102h-564v102q86 8 128 32t106 95l330 435l-318 471 q-55 76 -100 100.5t-129 28.5v102h678v-102q-76 -2 -101.5 -14t-25.5 -40t10 -47.5t57 -85.5l113 -172l145 185q70 90 70 120q0 53 -164 54v102h612z" glyph-name="X" horiz-adv-x="1452" unicode="X"/><glyph d="M1393 1366v-102q-111 -12 -161 -41t-93 -105l-310 -514v-352q0 -94 27 -122t119 -28h45v-102h-682v102h47q90 0 119 28t28 122v338l-342 528q-70 104 -97 124t-107 22v102h639v-102h-58q-72 -4 -71 -56q0 -27 51 -112l201 -334l213 356q39 63 38 88q0 33 -47 47 q-16 6 -104 11h-19v102h564z" glyph-name="Y" horiz-adv-x="1380" unicode="Y"/><glyph d="M1260 1366v-51l-820 -1213h299q207 0 262 45q86 66 152 297h107l-41 -444h-1180v43l829 1221h-305q-98 0 -186.5 -32.5t-165.5 -293.5h-102l43 428h1108z" glyph-name="Z" horiz-adv-x="1353" unicode="Z"/><glyph d="M127 -459v1893h405v-101h-190v-1685h190v-107h-405z" glyph-name="bracketleft" horiz-adv-x="600" unicode="["/><glyph d="M963 -459h-142l-733 1893h141z" glyph-name="backslash" horiz-adv-x="884" unicode="\"/><glyph d="M475 -459h-405v107h190v1685h-190v101h405v-1893z" glyph-name="bracketright" horiz-adv-x="600" unicode="]"/><glyph d="M90 829l395 631h19l428 -631h-234l-237 353l-223 -353h-148z" glyph-name="asciicircum" unicode="^"/><glyph d="M0 -301v117h1024v-117h-1024z" glyph-name="underscore" unicode="_"/><glyph d="M581 1012q-15 0 -30 10l-311 238q-25 18 -25 34q0 31 45 31h199l147 -242q24 -44 7 -57.5t-32 -13.5z" glyph-name="grave" unicode="`"/><glyph d="M801 -35q-158 0 -213 121q-143 -121 -295 -121q-102 0 -163.5 69.5t-61.5 182.5q0 158 127 236q33 20 67.5 31.5t146.5 37.5t179 51v115q0 125 -123 125q-80 0 -107 -55q-8 -20 -20 -86q-12 -78 -107 -78q-51 0 -85.5 28.5t-34.5 72.5t35.5 95.5t91.5 83.5q102 64 262 64 t266 -90q47 -41 63.5 -91t16.5 -163v-379q0 -49 12 -67.5t45 -18.5t48.5 25.5t19.5 91.5h96q-2 -131 -72.5 -206t-193.5 -75zM440 135q56 0 148 70v244l-144 -46q-117 -37 -116 -147q0 -53 28 -87t84 -34z" glyph-name="a" horiz-adv-x="1040" unicode="a"/><glyph d="M147 -14v1138q0 88 -21.5 112t-109.5 28v98q207 4 392 68v-607q119 104 262 105q188 0 302.5 -127t114.5 -340t-121.5 -354.5t-305.5 -141.5t-295 139l-91 -118h-127zM604 129q197 0 197 313q0 160 -55.5 247t-152.5 87t-185 -94v-420q43 -72 88 -102.5t108 -30.5z" glyph-name="b" horiz-adv-x="1148" unicode="b"/><glyph d="M524 -35q-201 0 -332 133t-131 342t135.5 348.5t344.5 139.5q139 0 233 -61.5t94 -149.5q0 -51 -34.5 -85t-88.5 -34t-83 35q-14 14 -17 57q0 123 -115 123q-86 0 -133 -90t-47 -259t58.5 -259t169.5 -90q141 0 235 166l117 -43q-53 -127 -160.5 -200t-245.5 -73z" glyph-name="c" horiz-adv-x="956" unicode="c"/><glyph d="M721 1176q0 51 -22.5 66t-94.5 18h-14v100q184 12 391 70v-1168q0 -102 11.5 -122.5t70.5 -20.5h53v-103l-22 -2q-53 -6 -122 -13t-196 -28q-33 41 -37 125q-104 -133 -280 -133t-287 132t-111 345t118 354.5t296 141.5q144 0 246 -102v340zM346 455q0 -145 59.5 -234.5 t154.5 -89.5t161 84v498q-80 67 -169 67t-147.5 -90t-58.5 -235z" glyph-name="d" horiz-adv-x="1144" unicode="d"/><glyph d="M573 117q152 0 263 155l110 -63q-55 -111 -171 -177.5t-253 -66.5q-209 0 -335 131t-126 346t132.5 350.5t328.5 135.5t317.5 -122t121.5 -314q-1 -21 -3 -37h-618q2 -158 64.5 -248t168.5 -90zM528 811q-163 0 -192 -262h352q-2 262 -160 262z" glyph-name="e" horiz-adv-x="1021" unicode="e"/><glyph d="M519 1290q-36 0 -53 -40t-17 -144v-207h184v-119h-184v-534q0 -104 11 -124t70 -20h72v-102h-549v102h53q59 0 70.5 19.5t11.5 124.5v534h-135v119h135v129q0 166 100.5 269.5t262.5 103.5q111 0 177.5 -49.5t66.5 -115.5t-33 -102t-77 -36t-71.5 25t-27.5 51t2 32l4 35 q0 20 -18.5 34.5t-54.5 14.5z" glyph-name="f" horiz-adv-x="679" unicode="f"/><glyph d="M907 596q0 -164 -125 -260q-55 -43 -111.5 -58.5t-170.5 -19.5t-147.5 -17.5t-33.5 -45.5q0 -41 70 -50q29 -4 239 -12t294 -75.5t84 -229.5t-135.5 -265.5t-361.5 -103.5t-360.5 82t-134.5 215q0 84 55.5 133.5t151.5 49.5q41 0 74 -13q-70 -70 -70 -156t76 -137 t210 -51t213 46t79 124t-68 109q-39 17 -216 35t-267 59q-111 55 -111 168q0 139 193 166q-113 33 -166 96q-74 90 -74 209q0 156 108.5 250t291.5 94t301 -98q76 88 176 88q68 0 115 -39t47 -86t-28 -75t-73 -28t-80 62q-20 43 -48 43t-54 -25q57 -78 57 -184zM504 829 q-154 0 -154 -227t151 -227t150 219q0 121 -35.5 178t-111.5 57z" glyph-name="g" horiz-adv-x="1081" unicode="g"/><glyph d="M735 928q76 0 137.5 -32t89.5 -77t32.5 -78.5t4.5 -128.5v-366q0 -104 11.5 -124t70.5 -20h52v-102h-492v102h14q59 0 70.5 19.5t11.5 124.5v362q0 68 -31.5 107t-84.5 39q-90 0 -191 -82v-426q0 -104 11.5 -124t70.5 -20h23v-102h-498v102h53q59 0 70.5 19.5t11.5 124.5 v905q0 76 -19.5 92.5t-115.5 22.5v102q209 17 393 62v-652q156 150 305 150z" glyph-name="h" horiz-adv-x="1155" unicode="h"/><glyph d="M453 246q0 -104 11 -124t71 -20h55v-102h-535v102h56q59 0 70.5 19.5t11.5 124.5v428q0 63 -27 82.5t-111 19.5v101q183 14 398 51v-682zM312 1327q60 0 103.5 -44t43.5 -104t-43 -103.5t-104.5 -43.5t-104.5 43t-43 105t44 104.5t104 42.5z" glyph-name="i" horiz-adv-x="614" unicode="i"/><glyph d="M59 776v105q307 25 396 47v-1057q0 -182 -97.5 -281.5t-273.5 -99.5q-106 0 -170 44t-64 108t31 94.5t79 30.5t83 -31q16 -16 33 -82q12 -39 47 -39q70 0 70 115v948q0 63 -25 80.5t-109 17.5zM312 1327q60 0 103.5 -44t43.5 -104t-43 -103.5t-104.5 -43.5t-104.5 43 t-43 105t44 104.5t104 42.5z" glyph-name="j" horiz-adv-x="585" unicode="j"/><glyph d="M711 772q0 23 -72 25h-16v102h444v-102q-98 -2 -199 -74l-215 -172l310 -344q45 -53 77.5 -74.5t81.5 -30.5v-102h-487v102q51 0 63.5 3.5t12.5 14.5t-13 27l-227 273l-39 -31v-143q0 -104 11.5 -124t70.5 -20h33v-102h-512v102h55q59 0 70.5 19.5t11.5 124.5v889 q-2 59 -4 72t-22 35t-85 22h-26v102q49 4 53 4q197 15 344 60v-904l209 174q70 57 70 72z" glyph-name="k" horiz-adv-x="1120" unicode="k"/><glyph d="M432 246q0 -104 11.5 -124t72.5 -20h51v-102h-532v102h53q59 0 70.5 19.5t11.5 124.5v889q0 84 -22.5 105.5t-112.5 23.5v102q51 2 193.5 24.5t203.5 36.5v-1181z" glyph-name="l" horiz-adv-x="598" unicode="l"/><glyph d="M453 246q0 -104 11 -124t71 -20h22v-102h-504v102h58q59 0 70.5 19.5t11.5 124.5v399q-2 59 -4.5 72t-20.5 35t-86 22h-29v103q266 25 371 51q23 -45 29 -131q139 131 303 131t241 -131l25 18q90 66 147.5 89.5t133.5 23.5q193 0 251 -133q25 -57 25 -220v-329 q0 -104 11.5 -124t70.5 -20h51v-102h-493v102h16q61 0 72.5 19.5t11.5 124.5v329q0 70 -4 89.5t-23 42.5q-40 45 -114 45t-158 -76v-430q0 -104 11 -124t69 -20h18v-102h-459v102h17q61 0 72.5 19.5t11.5 124.5v329q0 61 -5 84t-22 46q-39 43 -115 43t-165 -89v-413z" glyph-name="m" horiz-adv-x="1734" unicode="m"/><glyph d="M455 246q0 -104 11 -124t71 -20h20v-102h-504v102h58q59 0 70.5 19.5t11.5 124.5v399q-2 59 -4.5 72t-20.5 35t-86 22h-29v103q258 20 371 51q25 -41 31 -133q147 133 286 133q86 0 149.5 -36t85.5 -88t27 -88t5 -151v-319q0 -104 11 -124t71 -20h53v-102h-494v102h17 q59 0 70.5 19.5t11.5 124.5v338q0 92 -30 130t-98 38t-165 -76v-430z" glyph-name="n" horiz-adv-x="1165" unicode="n"/><glyph d="M546 928q218 0 351 -128t133 -337t-119 -340q-66 -74 -166 -116t-200 -42t-292 84t-192 412q0 211 133.5 339t351.5 128zM547 801q-201 0 -201 -344q0 -190 48 -278.5t152 -88.5t153 88t49 277q0 346 -201 346z" glyph-name="o" horiz-adv-x="1091" unicode="o"/><glyph d="M422 -260q0 -104 11 -123.5t71 -19.5h53v-103h-537v103h58q59 0 70.5 19t11.5 124v905q-2 59 -4 72t-20 35t-87 22h-29v103q213 20 371 51q20 -39 31 -129q100 78 158.5 103.5t142.5 25.5q176 0 294 -133t118 -339t-125.5 -348.5t-303.5 -142.5t-284 125v-350zM616 127 q234 1 234 329t-201 328q-74 0 -127 -35.5t-100 -119.5v-387q76 -115 194 -115z" glyph-name="p" horiz-adv-x="1191" unicode="p"/><glyph d="M1036 -260q0 -104 11.5 -123.5t70.5 -19.5h53v-103h-550v103h71q61 0 72.5 19t11.5 124v360q-111 -135 -295 -135t-302 131t-118 343t124.5 350.5t300.5 138.5t290 -92q113 28 260 102v-1198zM573 782q-104 0 -165.5 -91t-61.5 -241t61 -234.5t167 -84.5t202 102v414 q-70 135 -203 135z" glyph-name="q" horiz-adv-x="1169" unicode="q"/><glyph d="M602 102v-102h-547v102h54q59 0 70 19.5t11 124.5v409q0 80 -19 99.5t-97 19.5h-19v103q102 2 318 45q6 0 41 6q39 -59 39 -152q0 -8 -2 -16q125 160 254 160q63 0 102 -42t39 -106t-34 -104.5t-76 -40.5t-60.5 12t-34.5 49q-20 39 -51 39t-49.5 -12.5t-46.5 -38.5 t-43 -39v-391q4 -111 14 -127t70 -17h67z" glyph-name="r" horiz-adv-x="866" unicode="r"/><glyph d="M305 714q0 -38 28.5 -59.5t158.5 -88.5t176 -111q80 -84 80 -206t-89.5 -203t-225.5 -81t-232 88v-53h-113l6 319h107q14 -98 67.5 -154t118.5 -56t97 28.5t32 72.5t-24.5 67.5t-129.5 76.5q-129 70 -167 101q-97 80 -97 204t79 196.5t203 72.5t214 -66l12 37h96l9 -305 h-99q-30 205 -190 207q-51 0 -84 -24.5t-33 -62.5z" glyph-name="s" horiz-adv-x="819" unicode="s"/><glyph d="M401 1194v-295h228v-119h-228v-559q0 -55 9 -74q16 -45 70 -45t112 97l113 -39q-100 -195 -299 -195q-82 0 -149 37t-88 83t-24.5 79t-3.5 194v422h-116v119q123 16 175 80.5t62 214.5h139z" glyph-name="t" horiz-adv-x="692" unicode="t"/><glyph d="M1100 117v-103q-207 -14 -359 -43q-23 41 -34 138q-135 -143 -287 -143t-230 128q-25 41 -30.5 84t-5.5 172v318q-2 59 -4.5 71.5t-14.5 28.5q-27 29 -92 29h-10v102h381v-508q0 -113 8 -147q23 -88 123 -88q74 0 162 73v439q-2 59 -4.5 71.5t-14.5 28.5q-27 29 -90 29 h-29v102h398v-653q2 -59 3.5 -72.5t21.5 -35.5t85 -21h23z" glyph-name="u" horiz-adv-x="1132" unicode="u"/><glyph d="M-6 797v102h522v-102q-72 -2 -90 -7.5t-18 -19.5t14 -51l182 -430l180 418q18 43 18 59t-18 22.5t-90 8.5v102h383v-102q-68 -2 -96.5 -22.5t-56.5 -90.5l-320 -684h-145l-305 668q-39 82 -68 105.5t-92 23.5z" glyph-name="v" horiz-adv-x="1071" unicode="v"/><glyph d="M504 797q-116 0 -114 -34q1 -17 20 -73l112 -336l211 545h152l188 -545l141 351q14 37 15 51q0 39 -107 41v102h357v-102q-67 -8 -87 -24.5t-42 -67.5l-289 -705h-141l-168 512l-211 -512h-154l-244 666q-27 88 -50 108.5t-99 22.5v102h510v-102z" glyph-name="w" horiz-adv-x="1470" unicode="w"/><glyph d="M1114 0h-536v102q74 0 93 3.5t19 17.5q0 6 -22 37l-131 164l-152 -164q-23 -23 -23 -35q0 -23 93 -23v-102h-420v102l18 2q55 0 91 18.5t83 67.5l228 236l-189 219q-78 94 -120 122t-111 30v102h530v-102h-8l-25 -2q-53 0 -53 -27q0 -6 21 -35l114 -137l129 137 q23 25 23 40t-17.5 19.5t-82.5 4.5v102h430v-102q-86 -10 -126 -29.5t-87 -71.5l-187 -200l252 -306q70 -90 166 -88v-102z" glyph-name="x" horiz-adv-x="1142" unicode="x"/><glyph d="M-6 899h491v-102h-16q-53 0 -69.5 -6.5t-16.5 -25.5t12 -46l170 -377l176 389q11 23 11 38t-19.5 21.5t-87.5 6.5v102h352v-102q-57 -2 -81.5 -23.5t-59.5 -103.5l-442 -985q-53 -113 -108.5 -161t-130.5 -48t-121 39t-46 88t23 82q49 -18 96 -19q94 0 162 80 q37 43 100 186l41 91l-324 696q-37 76 -112 78v102z" glyph-name="y" horiz-adv-x="989" unicode="y"/><glyph d="M37 0v76l518 721h-182q-76 0 -102.5 -14.5t-55.5 -69.5l-55 -111h-92l38 297h760v-78l-508 -719h197q88 0 120 30t60 95l45 103h86l-24 -330h-805z" glyph-name="z" horiz-adv-x="940" unicode="z"/><glyph d="M418 1434h141v-101q-90 1 -133 -23t-62.5 -69t-19.5 -133l4 -377q0 -115 -32.5 -169t-114.5 -75q86 -23 116.5 -76t30.5 -175l-4 -367q0 -90 22.5 -135.5t68.5 -65.5t124 -20v-107h-141q-162 0 -227.5 79t-65.5 274q0 82 6 366q0 96 -25 137t-88 45v90q63 6 88 46t25 137 l-6 334q0 201 41 269t96 92t156 24z" glyph-name="braceleft" horiz-adv-x="600" unicode="{"/><glyph d="M438 1366h148v-1708h-148v1708z" glyph-name="bar" unicode="|"/><glyph d="M182 -459h-141v107q155 0 185 67.5t30 151.5l-4 379q0 113 31.5 166t115.5 75q-78 20 -112.5 73.5t-34.5 180.5l4 365q0 94 -22.5 142t-75.5 71q-41 14 -117 14v101h141q109 0 166.5 -29t91.5 -103t35 -251q0 -49 -6 -336q0 -96 25 -137.5t88 -45.5v-90q-63 -6 -88 -46 t-25 -136l6 -358q0 -203 -64.5 -282t-228.5 -79z" glyph-name="braceright" horiz-adv-x="600" unicode="}"/><glyph d="M57 1137q145 223 289 223q70 0 200 -42q128 -42 185 -42q96 0 184 98l52 -26q-131 -221 -305 -222q-59 0 -180 42q-120 42 -180 42t-94 -16.5t-99 -81.5z" glyph-name="asciitilde" unicode="~"/><glyph glyph-name="uni00A0" horiz-adv-x="512" unicode=" "/><glyph d="M304 -524q-56 0 -92 29.5t-36 74.5q0 6 4 68l51 663q4 61 19.5 84t53.5 23t53.5 -23t19.5 -84l51 -663l4 -70q0 -45 -36 -73.5t-92 -28.5zM300 930q73 0 125 -53t52 -127t-51 -124.5t-126 -50.5t-126 51.5t-51 125t52 126t125 52.5z" glyph-name="exclamdown" horiz-adv-x="602" unicode="¡"/><glyph d="M614 0h-98v186q-174 16 -283 119q-143 135 -143 353t114.5 352.5t311.5 156.5v185h98v-185q133 -18 206 -76t73 -141q0 -53 -35 -86t-82 -33t-70.5 23t-23.5 57v31q0 76 -68 105v-709q135 12 224 164l123 -47q-111 -238 -347 -269v-186zM356 686q0 -135 56 -240 q36 -71 104 -96v697q-45 -14 -72.5 -43t-57.5 -106t-30 -212z" glyph-name="cent" unicode="¢"/><glyph d="M893 682v-104h-240q-10 -248 -131 -394q90 -41 205 -41t192.5 49.5t77.5 124.5v25l56 12q8 -35 8 -71q0 -147 -84 -242.5t-217 -95.5t-314 143q-94 -127 -239 -127q-86 0 -144.5 44t-58.5 109.5t60.5 113.5t137.5 48t175 -45q29 104 29 293v54h-222v104h222q8 258 60 404 t151.5 226.5t222.5 80.5t198.5 -66.5t75.5 -160.5t-61.5 -151t-153.5 -57q-14 0 -51 5q82 76 82 196q0 66 -34 106t-96 40t-101.5 -56.5t-39.5 -152.5l9 -262q0 -27 -6 -152h231zM125 118q0 -32 25.5 -53.5t62.5 -21.5q88 1 137 107q-62 40 -114 40t-81.5 -20t-29.5 -52z " glyph-name="sterling" horiz-adv-x="1189" unicode="£"/><glyph d="M516 1069q126 0 234 -82l139 139l78 -77l-142 -142q78 -106 78 -229t-82 -229l142 -142l-78 -78l-142 142q-106 -80 -229 -80t-227 76l-144 -142l-77 78l141 141q-84 111 -84 235t80 232l-142 142l78 77l142 -141q109 80 235 80zM511 952q-114 0 -194.5 -78.5 t-80.5 -191.5t80.5 -193.5t193.5 -80.5t193.5 79.5t80.5 191.5t-79.5 192.5t-193.5 80.5z" glyph-name="currency" unicode="¤"/><glyph d="M1008 768v-96h-260l-41 -80v-70h280v-96h-280v-180q0 -90 18 -115q29 -31 106 -31h39v-100h-585v100h39q82 0 104.5 27t22.5 119v180h-281v96h281v56l-50 94h-251v96h202l-168 328q-53 100 -75.5 119.5t-85.5 21.5v100h493v-100h-43q-53 -4 -53 -55q0 -27 43 -109 l172 -328l184 351q20 35 21 84q0 53 -78 55l-29 2h-14v100h448v-100q-16 -4 -58 -11t-76 -32t-68 -98l-168 -328h211z" glyph-name="yen" horiz-adv-x="1191" unicode="¥"/><glyph d="M438 1366h148v-719h-148v719zM438 313h148v-655h-148v655z" glyph-name="brokenbar" unicode="¦"/><glyph d="M868 36q0 -138 -107.5 -228.5t-276.5 -90.5t-284.5 83t-115.5 202q0 47 32 80t84 33t76 -35q24 -36 29 -102q6 -66 58.5 -101t127.5 -35t124 42t49 104t-101 129q-279 188 -340 245q-119 114 -119 260t152 298q-92 98 -92 214t102.5 199.5t251.5 83.5t252.5 -67.5 t103.5 -163.5q0 -45 -30.5 -76t-74.5 -31t-64.5 23.5t-36.5 87.5q-33 121 -148 121q-66 0 -110.5 -34.5t-44.5 -94.5t73 -121q84 -63 244 -172q211 -143 211 -318q0 -147 -131 -299q106 -98 106 -236zM299 693q0 -71 82 -145t186 -142l97 -62q45 70 45 136t-32 105.5 t-149 125.5l-178 133q-51 -80 -51 -151z" glyph-name="section" unicode="§"/><glyph d="M277 1315q57 0 98 -41t41 -98.5t-40 -98.5t-98 -41t-99.5 41t-41.5 98.5t41.5 98.5t98.5 41zM692 1315q57 0 98 -41t41 -98.5t-40.5 -98.5t-98 -41t-98.5 41t-41 98.5t41 98.5t98 41z" glyph-name="dieresis" horiz-adv-x="972" unicode="¨"/><glyph d="M1092 1069q0 -37 6 -137l10 -139v-9h-57q-29 109 -96 170.5t-169 61.5t-167.5 -90t-65.5 -245t64.5 -241t166.5 -86q199 0 291 178l58 -40q-102 -213 -355 -213q-178 0 -290.5 110.5t-112.5 288.5t116.5 293.5t299.5 115.5q137 0 235 -71l25 53h41zM781 1397 q296 0 503 -210t207 -505t-208 -504t-503 -209t-503.5 209t-208.5 506t208.5 505t504.5 208zM780 1323q-262 0 -447.5 -186.5t-185.5 -452.5t185.5 -453.5t447.5 -187.5t446.5 187.5t184.5 451.5t-184.5 452.5t-446.5 188.5z" glyph-name="copyright" horiz-adv-x="1560" unicode="©"/><glyph d="M586 637q34 0 37 68h73q0 -84 -46 -131.5t-136 -47.5t-129 68q-86 -68 -168 -68t-123 43t-41 111q0 98 84 147q27 13 120 37t124 33v61q0 68 -72 68q-35 0 -49 -15.5t-23 -64.5t-75 -49q-35 0 -58.5 19.5t-23.5 46.5q0 61 72.5 106t178.5 45t173 -55q33 -25 43 -55.5 t10 -100.5v-223q0 -27 6 -35t23 -8zM231 705q0 -27 16.5 -45.5t48.5 -18.5t85 35v133l-82 -25q-68 -18 -68 -79z" glyph-name="ordfeminine" horiz-adv-x="690" unicode="ª"/><glyph d="M446 885q30 0 46 -14.5t16 -33.5t-12 -44l-148 -322l146 -313q12 -24 12 -48t-18 -40.5t-42 -16.5t-51 31l-334 387l322 373q33 41 63 41zM898 885q30 0 46.5 -14.5t16.5 -32.5t-13 -45l-147 -322l145 -313q12 -27 12 -49q0 -23 -17 -39.5t-44 -16.5t-49 31l-334 387 l322 373q32 41 62 41z" glyph-name="guillemotleft" horiz-adv-x="1056" unicode="«"/><glyph d="M791 0v403h-734v142h887v-545h-153z" glyph-name="logicalnot" unicode="¬"/><glyph d="M0 414v143h461v-143h-461z" glyph-name="uni00AD" horiz-adv-x="460" unicode="­"/><glyph d="M688 469q0 -63 19.5 -81.5t89.5 -20.5v-60h-387v60q70 2 90 20.5t20 81.5v428q0 63 -20.5 82.5t-89.5 19.5v60h407q125 0 193.5 -50.5t68.5 -137.5t-55 -137t-147 -52q63 -10 89 -33t82 -125t83.5 -130.5t70.5 -26.5v-60h-217q-43 53 -101 175t-81 144.5t-53 22.5t-62 -2 v-178zM688 709h74q141 0 141 145t-139 145h-76v-290zM781 1397q296 0 503 -210t207 -505t-208 -504t-503 -209t-503.5 209t-208.5 506t208.5 505t504.5 208zM780 1323q-262 0 -447.5 -186.5t-185.5 -452.5t185.5 -453.5t447.5 -187.5t446.5 187.5t184.5 451.5t-184.5 452.5 t-446.5 188.5z" glyph-name="registered" horiz-adv-x="1560" unicode="®"/><glyph d="M213 1235h598v-131h-598v131z" glyph-name="macron" unicode="¯"/><glyph d="M362 1376q116 0 192.5 -77.5t76.5 -192.5t-78 -193.5t-194 -78.5t-193.5 78.5t-77.5 193.5t79 192.5t195 77.5zM360 1249q-61 0 -103 -41t-42 -102.5t41 -103t102 -41.5t103.5 41.5t42.5 101.5t-41.5 102.5t-102.5 42.5z" glyph-name="degree" horiz-adv-x="716" unicode="°"/><glyph d="M33 614v117h420v402h116v-402h422v-117h-422v-383h-116v383h-420zM33 31v116h958v-116h-958z" glyph-name="plusminus" unicode="±"/><glyph d="M408 1180q0 63 -28 100t-74 37t-77.5 -34t-31.5 -83q0 -86 86 -110q8 -2 8 -9q0 -18 -33.5 -37.5t-73.5 -19.5t-74 41t-34 104q0 96 71.5 161t179.5 65t178 -65.5t70 -167.5t-58 -192.5t-210 -232.5l-76 -67h193q53 0 79.5 24.5t47.5 89.5h65l-55 -237h-506l19 78 q334 309 334 555z" glyph-name="uni00B2" horiz-adv-x="655" unicode="²"/><glyph d="M260 1165q0 -32 -74 -32q-34 0 -60 25.5t-26 66.5q0 70 64 115.5t164 45.5t169.5 -59t69.5 -149q0 -128 -139 -185q76 -20 118 -76.5t42 -134.5q0 -113 -87 -185.5t-205 -72.5t-181.5 46t-63.5 110t35 95.5t82 31.5t47 -14q0 -4 -12 -32q-13 -28 -13 -65t29 -63.5 t81 -26.5t87 51t35 129t-23 122t-51 44t-55 -12t-42 -12t-32.5 18.5t-17.5 40.5q0 41 53 41l72 -10q35 0 57.5 41t22.5 104q0 147 -103 148q-35 0 -56.5 -19.5t-21.5 -53.5q-1 -34 17 -51t18 -22z" glyph-name="uni00B3" horiz-adv-x="655" unicode="³"/><glyph d="M764 1325q45 0 45 -31q0 -16 -25 -34l-311 -238q-13 -10 -29 -10t-28.5 10t-12.5 23t15 38l147 242h199z" glyph-name="acute" unicode="´"/><glyph d="M154 899h260v-508q0 -113 8 -147q23 -88 123 -88q76 0 164 73v670h260v-653q2 -59 3.5 -72.5t21.5 -35.5t85 -21h23v-103q-207 -14 -359 -43q-23 41 -34 138q-63 -78 -120 -111t-131 -33t-147 39l25 -299q2 -33 2 -63t-28.5 -53t-74.5 -23t-75 23.5t-29 62.5q0 4 2 53 l21 361v833z" glyph-name="uni00B5" horiz-adv-x="1132" unicode="µ"/><glyph d="M512 555h-35q-164 0 -254 49q-168 94 -168 346q0 117 58 234.5t168 135t241 17.5h482v-96q-84 -2 -110 -29.5t-26 -117.5v-1395h-116v1515h-123v-1515h-117v856z" glyph-name="paragraph" unicode="¶"/><glyph d="M286 647q73 0 125 -52t52 -127t-51.5 -125t-125.5 -50t-125.5 51t-51.5 125t52 126t125 52z" glyph-name="periodcentered" horiz-adv-x="573" unicode="·"/><glyph d="M719 -272q0 -72 -62.5 -122t-155.5 -50t-190 49l31 61q82 -24 126 -24t77 26.5t33 65.5t-32 61.5t-108 34.5l54 170h77l-37 -117q98 -12 142.5 -47.5t44.5 -107.5z" glyph-name="cedilla" unicode="¸"/><glyph d="M426 1399v-649q0 -90 12 -109q25 -35 97 -35h14v-59h-410v59q8 2 17 2h30q49 4 64 47q10 23 10 95v485h-121v63q131 10 256 101h31z" glyph-name="uni00B9" horiz-adv-x="655" unicode="¹"/><glyph d="M360.5 1106q139.5 0 225.5 -77t86 -206t-89 -213t-223 -84t-222.5 85t-88.5 212t86 205t225.5 78zM360.5 1018q-118.5 0 -118.5 -197q0 -109 28.5 -159t91.5 -50q117 0 117 203t-118.5 203z" glyph-name="ordmasculine" horiz-adv-x="720" unicode="º"/><glyph d="M610 55q-29 0 -45 14.5t-16 31.5t10 49l150 321l-146 311q-12 28 -12 50t17.5 38.5t43.5 16.5t50 -29l333 -387l-321 -375q-35 -41 -64 -41zM158 55q-30 0 -46 14.5t-16 33.5t13 47l147 321l-145 311q-25 61 -1.5 83t50.5 22t49 -29l334 -387l-322 -375q-33 -41 -63 -41z " glyph-name="guillemotright" horiz-adv-x="1056" unicode="»"/><glyph d="M426 1399v-649q0 -90 12 -109q25 -35 97 -35h14v-59h-410v59q8 2 17 2h30q49 4 64 47q10 23 10 95v485h-121v63q131 10 256 101h31zM375 0l637 1366h108l-637 -1366h-108zM1307 195v-45q0 -47 8 -64q10 -29 69 -29h13v-57h-334v57q7 2 33 2q62 0 61 91v45h-291l373 647 h68v-572q20 4 22 4q47 0 64 48l4 8h63l-45 -135h-108zM1157 270v314l-172 -314h172z" glyph-name="onequarter" horiz-adv-x="1488" unicode="¼"/><glyph d="M426 1399v-649q0 -90 12 -109q25 -35 97 -35h14v-59h-410v59q8 2 17 2h30q49 4 64 47q10 23 10 95v485h-121v63q131 10 256 101h31zM375 0l637 1366h108l-637 -1366h-108zM1241 633q0 63 -27.5 100t-73.5 37t-78 -34t-32 -83q0 -86 86 -110q8 -2 8 -8q0 -18 -33.5 -38 t-73.5 -20t-74 41t-34 105q0 96 71.5 160.5t179.5 64.5t178.5 -65t70.5 -167t-58.5 -193t-209.5 -233l-76 -67h192q53 0 80 24.5t45 90.5h68l-55 -238h-506l16 78q336 311 336 555z" glyph-name="onehalf" horiz-adv-x="1488" unicode="½"/><glyph d="M260 1165q0 -32 -74 -32q-34 0 -60 25.5t-26 66.5q0 70 64 115.5t164 45.5t169.5 -59t69.5 -149q0 -128 -139 -185q76 -20 118 -76.5t42 -134.5q0 -113 -87 -185.5t-205 -72.5t-181.5 46t-63.5 110t35 95.5t82 31.5t47 -14q0 -4 -12 -32q-13 -28 -13 -65t29 -63.5 t81 -26.5t87 51t35 129t-23 122t-51 44t-55 -12t-42 -12t-32.5 18.5t-17.5 40.5q0 41 53 41l72 -10q35 0 57.5 41t22.5 104q0 147 -103 148q-35 0 -56.5 -19.5t-21.5 -53.5q-1 -34 17 -51t18 -22zM375 0l637 1366h108l-635 -1366h-110zM1307 195v-45q0 -47 8 -64 q10 -29 69 -29h13v-57h-334v57q7 2 33 2q62 0 61 91v45h-291l373 647h68v-572q20 4 22 4q47 0 64 48l4 8h63l-45 -135h-108zM1157 270v314l-172 -314h172z" glyph-name="threequarters" horiz-adv-x="1488" unicode="¾"/><glyph d="M475 416h113v-373h-94q-14 53 -78 53q-111 0 -111 -249t152 -248q82 0 108 79q25 82 90 82q43 0 74 -28.5t31 -67.5q0 -82 -91 -135t-250 -53t-255 102.5t-96 274.5t75.5 268t196.5 96q65 0 135 -35v234zM529 930q73 0 125.5 -53t52.5 -127t-51.5 -124.5t-126.5 -50.5 t-126 51.5t-51 125t52 126t125 52.5z" glyph-name="questiondown" horiz-adv-x="854" unicode="¿"/><glyph d="M1425 102h45v-102h-661v102h92q33 0 53.5 15t20.5 37t-14 53l-99 248h-418l-94 -248q-12 -25 -12 -53t17.5 -40t62.5 -12h92v-102h-524v102q92 -2 137 28t80 116l456 1140h132l464 -1140q39 -92 69 -118t101 -26zM819 555l-166 428l-172 -428h338zM800 1462q-17 0 -32 13 l-326 247q-27 20 -26 37q0 33 47 33h209l155 -254q15 -29 15 -42t-12.5 -23.5t-29.5 -10.5z" glyph-name="Agrave" horiz-adv-x="1458" unicode="À"/><glyph d="M1425 102h45v-102h-661v102h92q33 0 53.5 15t20.5 37t-14 53l-99 248h-418l-94 -248q-12 -25 -12 -53t17.5 -40t62.5 -12h92v-102h-524v102q92 -2 137 28t80 116l456 1140h132l464 -1140q39 -92 69 -118t101 -26zM819 555l-166 428l-172 -428h338zM993 1792q47 0 47 -33 q0 -16 -26 -37l-326 -247q-33 -28 -53.5 -9t-20.5 33t15 39l155 254h209z" glyph-name="Aacute" horiz-adv-x="1458" unicode="Á"/><glyph d="M1425 102h45v-102h-661v102h92q33 0 53.5 15t20.5 37t-14 53l-99 248h-418l-94 -248q-12 -25 -12 -53t17.5 -40t62.5 -12h92v-102h-524v102q92 -2 137 28t80 116l456 1140h132l464 -1140q39 -92 69 -118t101 -26zM819 555l-166 428l-172 -428h338zM1036 1512 q0 -22 -15 -37t-39 -15t-46 17l-207 147l-205 -145q-53 -39 -78.5 -13.5t-25.5 44.5t33 51l274 264l270 -254q39 -37 39 -59z" glyph-name="Acircumflex" horiz-adv-x="1458" unicode="Â"/><glyph d="M1425 102h45v-102h-661v102h92q33 0 53.5 15t20.5 37t-14 53l-99 248h-418l-94 -248q-12 -25 -12 -53t17.5 -40t62.5 -12h92v-102h-524v102q92 -2 137 28t80 116l456 1140h132l464 -1140q39 -92 69 -118t101 -26zM819 555l-166 428l-172 -428h338zM848 1513 q-57 0 -148 36q-90 36 -126 36t-60.5 -16.5t-58.5 -63.5l-78 49q47 88 114 140.5t127 52.5t155 -36t139 -36t98 66l69 -58q-111 -170 -231 -170z" glyph-name="Atilde" horiz-adv-x="1458" unicode="Ã"/><glyph d="M1425 102h45v-102h-661v102h92q33 0 53.5 15t20.5 37t-14 53l-99 248h-418l-94 -248q-12 -25 -12 -53t17.5 -40t62.5 -12h92v-102h-524v102q92 -2 137 28t80 116l456 1140h132l464 -1140q39 -92 69 -118t101 -26zM819 555l-166 428l-172 -428h338zM509 1769q60 0 103 -43 t43 -103t-43 -103t-103 -43t-103.5 43t-43.5 103t43.5 103t103.5 43zM948 1769q61 0 103.5 -43t42.5 -103t-43 -103t-103 -43t-103.5 43t-43.5 103t43 103t104 43z" glyph-name="Adieresis" horiz-adv-x="1458" unicode="Ä"/><glyph d="M1425 102h45v-102h-661v102h92q33 0 53.5 15t20.5 37t-14 53l-99 248h-418l-94 -248q-12 -25 -12 -53t17.5 -40t62.5 -12h92v-102h-524v102q92 -2 137 28t80 116l456 1140h132l464 -1140q39 -92 69 -118t101 -26zM819 555l-166 428l-172 -428h338zM729 1892 q90 0 153.5 -64.5t63.5 -153.5t-63.5 -152.5t-153.5 -63.5t-154.5 63.5t-64.5 153.5t64.5 153.5t154.5 63.5zM728 1782q-44 0 -75.5 -31t-31.5 -76t31.5 -75.5t75.5 -30.5t76 30.5t32 74.5t-32 76t-76 32z" glyph-name="Aring" horiz-adv-x="1458" unicode="Å"/><glyph d="M1294 1264h-153v-521h53q76 0 104.5 7.5t63.5 37.5t43 144h102v-510h-102q-4 133 -44 175t-165 42h-55v-406q0 -86 38 -108.5t177 -22.5h82q102 0 154.5 24t90.5 84t76 212h101l-29 -422h-1192v102h57q94 0 121 27t27 121v389h-320l-157 -326q-47 -102 -47 -137 t31.5 -52.5t109.5 -21.5v-102h-496v102q86 2 126 37t104 162l411 801q39 74 39 98q0 63 -121 64h-63v102h1278l20 -360h-100q-35 158 -94 211q-33 31 -81 39t-190 8zM844 743v521l-262 -521h262z" glyph-name="AE" horiz-adv-x="1929" unicode="Æ"/><glyph d="M993 -270q0 -92 -64.5 -144.5t-163.5 -52.5t-200 53l31 64q82 -27 130 -27t83 29.5t35 69.5t-34 64t-112 36l41 129q-301 25 -482 221t-181 508t214 524t541 213q242 0 429 -129l43 96h75q2 -147 31 -516h-106q-53 199 -174 309.5t-287 110.5q-217 0 -340 -190 q-102 -152 -102 -426t116.5 -430t327.5 -156q158 0 293 86t213 240l102 -76q-86 -182 -252 -283.5t-381 -103.5l-22 -70q66 -10 94 -20q102 -37 102 -129z" glyph-name="Ccedilla" horiz-adv-x="1495" unicode="Ç"/><glyph d="M840 1264h-279v-476h125q72 0 104.5 43t34.5 138h109v-498h-109v25q0 98 -40 138t-140 40h-84v-410q2 -82 4.5 -98t18.5 -36t37.5 -24t101.5 -4h162q98 0 177.5 48t117.5 278h96l-25 -428h-1181v102h45q94 0 120.5 28t26.5 122v862q0 94 -28 122t-119 28h-45v102h1091 l19 -354h-101q-8 88 -41 147t-76.5 82t-121.5 23zM786 1496q0 -13 -13 -23.5t-29 -10.5t-31 13l-328 247q-25 20 -25 37q0 33 48 33h206l158 -254q14 -29 14 -42z" glyph-name="Egrave" horiz-adv-x="1343" unicode="È"/><glyph d="M840 1264h-279v-476h125q72 0 104.5 43t34.5 138h109v-498h-109v25q0 98 -40 138t-140 40h-84v-410q2 -82 4.5 -98t18.5 -36t37.5 -24t101.5 -4h162q98 0 177.5 48t117.5 278h96l-25 -428h-1181v102h45q94 0 120.5 28t26.5 122v862q0 94 -28 122t-119 28h-45v102h1091 l19 -354h-101q-8 88 -41 147t-76.5 82t-121.5 23zM938 1792q47 0 47 -33q0 -16 -27 -37l-325 -247q-33 -28 -53.5 -9t-20.5 33t14 39l156 254h209z" glyph-name="Eacute" horiz-adv-x="1343" unicode="É"/><glyph d="M840 1264h-279v-476h125q72 0 104.5 43t34.5 138h109v-498h-109v25q0 98 -40 138t-140 40h-84v-410q2 -82 4.5 -98t18.5 -36t37.5 -24t101.5 -4h162q98 0 177.5 48t117.5 278h96l-25 -428h-1181v102h45q94 0 120.5 28t26.5 122v862q0 94 -28 122t-119 28h-45v102h1091 l19 -354h-101q-8 88 -41 147t-76.5 82t-121.5 23zM981 1510q0 -22 -15.5 -36t-39.5 -14t-45 17l-207 147l-205 -145q-55 -37 -79.5 -12.5t-24.5 43.5t30 51l277 264l270 -254q39 -39 39 -61z" glyph-name="Ecircumflex" horiz-adv-x="1343" unicode="Ê"/><glyph d="M840 1264h-279v-476h125q72 0 104.5 43t34.5 138h109v-498h-109v25q0 98 -40 138t-140 40h-84v-410q2 -82 4.5 -98t18.5 -36t37.5 -24t101.5 -4h162q98 0 177.5 48t117.5 278h96l-25 -428h-1181v102h45q94 0 120.5 28t26.5 122v862q0 94 -28 122t-119 28h-45v102h1091 l19 -354h-101q-8 88 -41 147t-76.5 82t-121.5 23zM454 1769q60 0 103 -43t43 -103t-43 -103t-103 -43t-103.5 43t-43.5 103t43.5 103t103.5 43zM891 1769q61 0 103 -43t42 -103t-43 -103t-103 -43t-103.5 43t-43.5 103t43.5 103t104.5 43z" glyph-name="Edieresis" horiz-adv-x="1343" unicode="Ë"/><glyph d="M70 1366h680v-102h-45q-94 0 -121 -28t-27 -122v-862q0 -94 26.5 -122t121.5 -28h45v-102h-680v102h45q94 0 120.5 28t26.5 122v862q0 94 -28 122t-119 28h-45v102zM524 1496q0 -13 -13 -23.5t-29 -10.5t-31 13l-328 247q-25 20 -25 37q0 33 47 33h207l158 -254 q14 -29 14 -42z" glyph-name="Igrave" horiz-adv-x="819" unicode="Ì"/><glyph d="M70 1366h680v-102h-45q-94 0 -121 -28t-27 -122v-862q0 -94 26.5 -122t121.5 -28h45v-102h-680v102h45q94 0 120.5 28t26.5 122v862q0 94 -28 122t-119 28h-45v102zM676 1792q47 0 47 -33q0 -16 -27 -37l-325 -247q-35 -26 -54.5 -8t-19.5 32t14 39l156 254h209z" glyph-name="Iacute" horiz-adv-x="819" unicode="Í"/><glyph d="M70 1366h680v-102h-45q-94 0 -121 -28t-27 -122v-862q0 -94 26.5 -122t121.5 -28h45v-102h-680v102h45q94 0 120.5 28t26.5 122v862q0 94 -28 122t-119 28h-45v102zM719 1510q0 -22 -15.5 -36t-39.5 -14t-46 17l-206 147l-205 -145q-56 -35 -80.5 -11.5t-24.5 42.5t31 51 l277 264l270 -254q39 -39 39 -61z" glyph-name="Icircumflex" horiz-adv-x="819" unicode="Î"/><glyph d="M70 1366h680v-102h-45q-94 0 -121 -28t-27 -122v-862q0 -94 26.5 -122t121.5 -28h45v-102h-680v102h45q94 0 120.5 28t26.5 122v862q0 94 -28 122t-119 28h-45v102zM226 1765q60 0 102.5 -43t42.5 -101t-42 -101t-101.5 -43t-102.5 42t-43 102t42 102t102 42zM599 1765 q60 0 102 -43t42 -101t-42 -101t-101 -43t-102 42t-43 102t42 102t102 42z" glyph-name="Idieresis" horiz-adv-x="819" unicode="Ï"/><glyph d="M1522 674q0 -188 -73 -340t-208 -243t-369 -91h-804v102h47q94 0 120.5 28t26.5 122v407h-162v113h162v342q0 94 -26.5 122t-120.5 28h-47v102h393l313 4q207 0 341 -48t235 -161q172 -190 172 -487zM557 772h369v-113h-369v-426q0 -82 29.5 -107.5t151.5 -25.5 q251 0 358 152q106 152 106 422q0 381 -227 520q-76 45 -150.5 57.5t-267.5 12.5v-492z" glyph-name="Eth" horiz-adv-x="1597" unicode="Ð"/><glyph d="M1397 0h-240l-735 1094v-842q0 -94 28 -122t119 -28h45v-102h-542v102h43q94 0 120.5 28t26.5 122v862q0 94 -24 119q-35 31 -123 31h-43v102h506l659 -977v725q0 94 -28 122t-122 28h-51v102h547v-102h-39q-94 0 -120.5 -28t-26.5 -122v-1114zM942 1513q-57 0 -148 36 t-128 36q-57 0 -117 -80l-78 49q47 88 114 140.5t127 52.5t155 -36t139 -36t98 66l70 -58q-111 -170 -232 -170z" glyph-name="Ntilde" horiz-adv-x="1644" unicode="Ñ"/><glyph d="M832 1417q328 0 536.5 -204.5t208.5 -522.5t-213 -529.5t-539 -211.5t-537.5 204.5t-211.5 516.5t200 518q228 229 556 229zM397 691q0 -296 110.5 -455.5t320.5 -159.5t313 143q51 72 82.5 203.5t31.5 277.5t-35.5 274t-89.5 192q-108 128 -309 128t-312.5 -153.5 t-111.5 -449.5zM940 1496q0 -13 -13.5 -23.5t-29.5 -10.5t-31 13l-327 247q-25 20 -25 37q0 33 47 33h207l158 -254q14 -29 14 -42z" glyph-name="Ograve" horiz-adv-x="1650" unicode="Ò"/><glyph d="M832 1417q328 0 536.5 -204.5t208.5 -522.5t-213 -529.5t-539 -211.5t-537.5 204.5t-211.5 516.5t200 518q228 229 556 229zM397 691q0 -296 110.5 -455.5t320.5 -159.5t313 143q51 72 82.5 203.5t31.5 277.5t-35.5 274t-89.5 192q-108 128 -309 128t-312.5 -153.5 t-111.5 -449.5zM1092 1792q47 0 47 -33q0 -16 -27 -37l-326 -247q-35 -26 -54 -8t-19 32t14 39l156 254h209z" glyph-name="Oacute" horiz-adv-x="1650" unicode="Ó"/><glyph d="M832 1417q328 0 536.5 -204.5t208.5 -522.5t-213 -529.5t-539 -211.5t-537.5 204.5t-211.5 516.5t200 518q228 229 556 229zM397 691q0 -296 110.5 -455.5t320.5 -159.5t313 143q51 72 82.5 203.5t31.5 277.5t-35.5 274t-89.5 192q-108 128 -309 128t-312.5 -153.5 t-111.5 -449.5zM1135 1512q0 -22 -15.5 -37t-39.5 -15t-46 17l-207 147l-204 -145q-56 -37 -80.5 -12.5t-24.5 43.5t33 51l274 264l271 -254q39 -37 39 -59z" glyph-name="Ocircumflex" horiz-adv-x="1650" unicode="Ô"/><glyph d="M832 1417q328 0 536.5 -204.5t208.5 -522.5t-213 -529.5t-539 -211.5t-537.5 204.5t-211.5 516.5t200 518q228 229 556 229zM397 691q0 -296 110.5 -455.5t320.5 -159.5t313 143q51 72 82.5 203.5t31.5 277.5t-35.5 274t-89.5 192q-108 128 -309 128t-312.5 -153.5 t-111.5 -449.5zM946 1513q-57 0 -148 36t-128 36q-57 0 -117 -80l-78 49q47 88 114 140.5t127 52.5t155 -36t139 -36t98 66l70 -58q-111 -170 -232 -170z" glyph-name="Otilde" horiz-adv-x="1650" unicode="Õ"/><glyph d="M832 1417q328 0 536.5 -204.5t208.5 -522.5t-213 -529.5t-539 -211.5t-537.5 204.5t-211.5 516.5t200 518q228 229 556 229zM397 691q0 -296 110.5 -455.5t320.5 -159.5t313 143q51 72 82.5 203.5t31.5 277.5t-35.5 274t-89.5 192q-108 128 -309 128t-312.5 -153.5 t-111.5 -449.5zM607 1769q60 0 103.5 -43t43.5 -103t-43 -103t-103 -43t-103.5 43t-43.5 103t43 103t103 43zM1045 1769q61 0 103 -43t42 -103t-43 -103t-103 -43t-103.5 43t-43.5 103t43.5 103t104.5 43z" glyph-name="Odieresis" horiz-adv-x="1650" unicode="Ö"/><glyph d="M195 272l-84 84l317 318l-317 317l84 82l317 -317l317 317l82 -82l-317 -317l317 -318l-82 -84l-317 318z" glyph-name="multiply" unicode="×"/><glyph d="M1577 698q0 -326 -213 -537.5t-539 -211.5q-244 0 -422 114l-124 -159l-84 65l122 160q-45 41 -67 68q-174 186 -174 491t216 517t539 212q223 0 404 -104l137 178l86 -68l-135 -172q2 -1 78 -73t126 -202t50 -278zM840 76q198 0 301 143q51 72 82.5 205t31.5 274 q1 211 -71 377l-654 -870q112 -129 310 -129zM397 720q0 -263 72 -417l653 871q-110 120 -306 120t-307.5 -155.5t-111.5 -418.5z" glyph-name="Oslash" horiz-adv-x="1650" unicode="Ø"/><glyph d="M1579 1366v-102h-18q-94 0 -121 -28t-27 -122v-637q0 -147 -37 -239.5t-125 -163.5q-152 -125 -415 -125q-588 0 -588 528v637q0 94 -28 122t-120 28h-18v102h651v-102h-43q-94 0 -120.5 -28t-26.5 -122v-637q0 -109 14 -164t53 -100q94 -111 280 -111t279 109 q47 55 65.5 131t18.5 219v553q1 94 -27 122t-120 28h-47v102h520zM987 1499q0 -16 -12 -26.5t-29 -10.5q-16 0 -31 13l-327 247q-25 18 -25 37q0 33 47 33h207l156 -254q14 -23 14 -39z" glyph-name="Ugrave" horiz-adv-x="1642" unicode="Ù"/><glyph d="M1579 1366v-102h-18q-94 0 -121 -28t-27 -122v-637q0 -147 -37 -239.5t-125 -163.5q-152 -125 -415 -125q-588 0 -588 528v637q0 94 -28 122t-120 28h-18v102h651v-102h-43q-94 0 -120.5 -28t-26.5 -122v-637q0 -109 14 -164t53 -100q94 -111 280 -111t279 109 q47 55 65.5 131t18.5 219v553q1 94 -27 122t-120 28h-47v102h520zM1141 1792q47 0 47 -33q0 -16 -27 -37l-327 -247q-14 -12 -31 -13q-16 0 -28.5 11.5t-12.5 25.5t14 39l156 254h209z" glyph-name="Uacute" horiz-adv-x="1642" unicode="Ú"/><glyph d="M1579 1366v-102h-18q-94 0 -121 -28t-27 -122v-637q0 -147 -37 -239.5t-125 -163.5q-152 -125 -415 -125q-588 0 -588 528v637q0 94 -28 122t-120 28h-18v102h651v-102h-43q-94 0 -120.5 -28t-26.5 -122v-637q0 -109 14 -164t53 -100q94 -111 280 -111t279 109 q47 55 65.5 131t18.5 219v553q1 94 -27 122t-120 28h-47v102h520zM1182 1512q0 -22 -15.5 -37t-38 -15t-45.5 17l-206 147l-205 -145q-56 -37 -80.5 -12.5t-24.5 43.5t31 51l276 264l271 -254q37 -37 37 -59z" glyph-name="Ucircumflex" horiz-adv-x="1642" unicode="Û"/><glyph d="M1579 1366v-102h-18q-94 0 -121 -28t-27 -122v-637q0 -147 -37 -239.5t-125 -163.5q-152 -125 -415 -125q-588 0 -588 528v637q0 94 -28 122t-120 28h-18v102h651v-102h-43q-94 0 -120.5 -28t-26.5 -122v-637q0 -109 14 -164t53 -100q94 -111 280 -111t279 109 q47 55 65.5 131t18.5 219v553q1 94 -27 122t-120 28h-47v102h520zM656 1769q60 0 103.5 -43t43.5 -103t-43.5 -103t-103.5 -43t-103 43t-43 103t43 103t103 43zM1094 1769q61 0 103 -43t42 -103t-43 -103t-103 -43t-103.5 43t-43.5 103t43.5 103t104.5 43z" glyph-name="Udieresis" horiz-adv-x="1642" unicode="Ü"/><glyph d="M1393 1366v-102q-111 -12 -161 -41t-93 -105l-310 -514v-352q0 -94 27 -122t119 -28h45v-102h-682v102h47q90 0 119 28t28 122v338l-342 528q-70 104 -97 124t-107 22v102h639v-102h-58q-72 -4 -71 -56q0 -27 51 -112l201 -334l213 356q39 63 38 88q0 33 -47 47 q-16 6 -104 11h-19v102h564zM981 1792q47 0 47 -33q0 -16 -24 -37l-328 -247q-35 -26 -54.5 -8t-19.5 30t14 41l158 254h207z" glyph-name="Yacute" horiz-adv-x="1380" unicode="Ý"/><glyph d="M750 1366v-102h-45q-78 0 -113 -21.5t-35 -73.5v-43h297q174 0 275.5 -90t101.5 -248q0 -213 -158 -327q-117 -80 -334 -80l-161 4h-21v-133q0 -94 26.5 -122t121.5 -28h47v-102h-686v102h49q94 0 120.5 28t26.5 122v862q0 94 -28 122t-119 28h-49v102h684zM635 485 q143 0 211 43q98 66 98 226q0 78 -31 145t-87 97t-142 30t-127 -2v-537q39 -2 78 -2z" glyph-name="Thorn" horiz-adv-x="1298" unicode="Þ"/><glyph d="M506 721v137q80 0 117 6q154 25 153 205q0 109 -48 167t-138 58q-55 0 -98.5 -27.5t-55.5 -68.5t-12 -160v-792q2 -49 3 -85t16.5 -45.5t62.5 -13.5v-102h-477v102h51q58 0 70 16t14 128v710q0 213 114 332t306 119t307 -90.5t115 -228.5t-88 -216q-59 -55 -170 -75 q154 -18 233 -95q119 -113 119 -300t-100.5 -307t-254.5 -120q-90 0 -152.5 46.5t-62.5 111.5q0 39 27 64.5t68 25.5q76 0 84 -65q6 -41 13 -52.5t28 -11.5q76 0 75 266q0 102 -26.5 189.5t-64.5 120.5t-80 42t-148 9z" glyph-name="germandbls" horiz-adv-x="1169" unicode="ß"/><glyph d="M801 -35q-158 0 -213 121q-143 -121 -295 -121q-102 0 -163.5 69.5t-61.5 182.5q0 158 127 236q33 20 67.5 31.5t146.5 37.5t179 51v115q0 125 -123 125q-80 0 -107 -55q-8 -20 -20 -86q-12 -78 -107 -78q-51 0 -85.5 28.5t-34.5 72.5t35.5 95.5t91.5 83.5q102 64 262 64 t266 -90q47 -41 63.5 -91t16.5 -163v-379q0 -49 12 -67.5t45 -18.5t48.5 25.5t19.5 91.5h96q-2 -131 -72.5 -206t-193.5 -75zM440 135q56 0 148 70v244l-144 -46q-117 -37 -116 -147q0 -53 28 -87t84 -34zM589 1012q-15 0 -30 10l-311 238q-25 18 -25 34q0 31 45 31h197 l149 -242q14 -29 14 -40t-12 -21t-27 -10z" glyph-name="agrave" horiz-adv-x="1040" unicode="à"/><glyph d="M801 -35q-158 0 -213 121q-143 -121 -295 -121q-102 0 -163.5 69.5t-61.5 182.5q0 158 127 236q33 20 67.5 31.5t146.5 37.5t179 51v115q0 125 -123 125q-80 0 -107 -55q-8 -20 -20 -86q-12 -78 -107 -78q-51 0 -85.5 28.5t-34.5 72.5t35.5 95.5t91.5 83.5q102 64 262 64 t266 -90q47 -41 63.5 -91t16.5 -163v-379q0 -49 12 -67.5t45 -18.5t48.5 25.5t19.5 91.5h96q-2 -131 -72.5 -206t-193.5 -75zM440 135q56 0 148 70v244l-144 -46q-117 -37 -116 -147q0 -53 28 -87t84 -34zM745 1325q45 0 46 -31q0 -16 -25 -34l-311 -238q-16 -10 -30.5 -10 t-27 10t-12.5 21t12 40l150 242h198z" glyph-name="aacute" horiz-adv-x="1040" unicode="á"/><glyph d="M801 -35q-158 0 -213 121q-143 -121 -295 -121q-102 0 -163.5 69.5t-61.5 182.5q0 158 127 236q33 20 67.5 31.5t146.5 37.5t179 51v115q0 125 -123 125q-80 0 -107 -55q-8 -20 -20 -86q-12 -78 -107 -78q-51 0 -85.5 28.5t-34.5 72.5t35.5 95.5t91.5 83.5q102 64 262 64 t266 -90q47 -41 63.5 -91t16.5 -163v-379q0 -49 12 -67.5t45 -18.5t48.5 25.5t19.5 91.5h96q-2 -131 -72.5 -206t-193.5 -75zM440 135q56 0 148 70v244l-144 -46q-117 -37 -116 -147q0 -53 28 -87t84 -34zM799 1064q0 -23 -15.5 -36.5t-36 -13.5t-42.5 16l-197 133 l-195 -131q-27 -18 -48 -18t-36.5 14t-15.5 34t31 48l262 252l256 -244q37 -31 37 -54z" glyph-name="acircumflex" horiz-adv-x="1040" unicode="â"/><glyph d="M801 -35q-158 0 -213 121q-143 -121 -295 -121q-102 0 -163.5 69.5t-61.5 182.5q0 158 127 236q33 20 67.5 31.5t146.5 37.5t179 51v115q0 125 -123 125q-80 0 -107 -55q-8 -20 -20 -86q-12 -78 -107 -78q-51 0 -85.5 28.5t-34.5 72.5t35.5 95.5t91.5 83.5q102 64 262 64 t266 -90q47 -41 63.5 -91t16.5 -163v-379q0 -49 12 -67.5t45 -18.5t48.5 25.5t19.5 91.5h96q-2 -131 -72.5 -206t-193.5 -75zM440 135q56 0 148 70v244l-144 -46q-117 -37 -116 -147q0 -53 28 -87t84 -34zM621 1071q-53 0 -140 35t-133 35t-102 -78l-74 47q45 84 107.5 134 t120.5 50t148 -35q91 -35 133 -35t95 64l66 -53q-102 -164 -221 -164z" glyph-name="atilde" horiz-adv-x="1040" unicode="ã"/><glyph d="M801 -35q-158 0 -213 121q-143 -121 -295 -121q-102 0 -163.5 69.5t-61.5 182.5q0 158 127 236q33 20 67.5 31.5t146.5 37.5t179 51v115q0 125 -123 125q-80 0 -107 -55q-8 -20 -20 -86q-12 -78 -107 -78q-51 0 -85.5 28.5t-34.5 72.5t35.5 95.5t91.5 83.5q102 64 262 64 t266 -90q47 -41 63.5 -91t16.5 -163v-379q0 -49 12 -67.5t45 -18.5t48.5 25.5t19.5 91.5h96q-2 -131 -72.5 -206t-193.5 -75zM440 135q56 0 148 70v244l-144 -46q-117 -37 -116 -147q0 -53 28 -87t84 -34zM297 1315q57 0 98 -41t41 -98.5t-40 -98.5t-98 -41t-99 41t-41 98.5 t41 98.5t98 41zM715 1315q57 0 98 -41t41 -98.5t-40 -98.5t-98 -41t-99.5 41t-41.5 98.5t41.5 98.5t98.5 41z" glyph-name="adieresis" horiz-adv-x="1040" unicode="ä"/><glyph d="M801 -35q-158 0 -213 121q-143 -121 -295 -121q-102 0 -163.5 69.5t-61.5 182.5q0 158 127 236q33 20 67.5 31.5t146.5 37.5t179 51v115q0 125 -123 125q-80 0 -107 -55q-8 -20 -20 -86q-12 -78 -107 -78q-51 0 -85.5 28.5t-34.5 72.5t35.5 95.5t91.5 83.5q102 64 262 64 t266 -90q47 -41 63.5 -91t16.5 -163v-379q0 -49 12 -67.5t45 -18.5t48.5 25.5t19.5 91.5h96q-2 -131 -72.5 -206t-193.5 -75zM440 135q56 0 148 70v244l-144 -46q-117 -37 -116 -147q0 -53 28 -87t84 -34zM506 1434q86 0 146.5 -61.5t60.5 -146.5t-60.5 -145.5t-146.5 -60.5 t-146.5 60.5t-60.5 146.5t60.5 146.5t146.5 60.5zM507 1327q-42 0 -71.5 -29.5t-29.5 -70.5t29.5 -71t70.5 -30t70.5 30t29.5 71t-28.5 70.5t-70.5 29.5z" glyph-name="aring" horiz-adv-x="1040" unicode="å"/><glyph d="M1057 111q129 0 252 149l108 -65q-158 -229 -424 -230q-223 0 -350 166q-178 -166 -336 -166q-106 0 -172.5 70.5t-66.5 179.5q0 158 125 234q45 29 77.5 39t113.5 28t206 59v115q0 51 -34 83t-87 32q-100 0 -119 -92q-12 -72 -39 -100.5t-79 -28.5t-84.5 30.5 t-32.5 81.5q0 90 105.5 161t240.5 71t272 -94q115 94 278 94t281 -109q127 -113 127 -321q0 -32 -2 -52h-596q4 -121 33 -188.5t84 -107t119 -39.5zM999 803q-168 0 -182 -264h336l2 59q0 98 -40 151.5t-116 53.5zM328 256q0 -51 27.5 -83t72.5 -32q82 0 174 82 q-12 80 -12 223l-156 -53q-106 -39 -106 -137z" glyph-name="ae" horiz-adv-x="1480" unicode="æ"/><glyph d="M713 -272q0 -72 -62.5 -122t-154.5 -50t-191 49l31 63q82 -26 126 -26t76.5 26.5t32.5 65.5t-31.5 61.5t-107.5 34.5l43 139q-190 23 -302 149t-112 328t135.5 342t344.5 140q139 0 233 -61.5t94 -149.5q0 -51 -34.5 -85t-88.5 -34t-83 35q-14 14 -17 57q0 123 -115 123 q-86 0 -133 -90t-47 -258t58.5 -258t169.5 -90q143 0 235 164l117 -43q-45 -119 -147.5 -191t-231.5 -80l-25 -82q98 -14 142.5 -49.5t44.5 -107.5z" glyph-name="ccedilla" horiz-adv-x="956" unicode="ç"/><glyph d="M573 117q152 0 263 155l110 -63q-55 -111 -171 -177.5t-253 -66.5q-209 0 -335 131t-126 346t132.5 350.5t328.5 135.5t317.5 -122t121.5 -314q-1 -21 -3 -37h-618q2 -158 64.5 -248t168.5 -90zM528 811q-163 0 -192 -262h352q-2 262 -160 262zM645 1045q0 -13 -12 -23 t-26.5 -10t-28.5 10l-312 238q-25 18 -24 34q0 31 43 31h198l150 -242q12 -25 12 -38z" glyph-name="egrave" horiz-adv-x="1021" unicode="è"/><glyph d="M573 117q152 0 263 155l110 -63q-55 -111 -171 -177.5t-253 -66.5q-209 0 -335 131t-126 346t132.5 350.5t328.5 135.5t317.5 -122t121.5 -314q-1 -21 -3 -37h-618q2 -158 64.5 -248t168.5 -90zM528 811q-163 0 -192 -262h352q-2 262 -160 262zM764 1325q45 0 45 -31 q0 -16 -25 -34l-311 -238q-16 -10 -30.5 -10t-27 10t-12.5 23t13 38l149 242h199z" glyph-name="eacute" horiz-adv-x="1021" unicode="é"/><glyph d="M573 117q152 0 263 155l110 -63q-55 -111 -171 -177.5t-253 -66.5q-209 0 -335 131t-126 346t132.5 350.5t328.5 135.5t317.5 -122t121.5 -314q-1 -21 -3 -37h-618q2 -158 64.5 -248t168.5 -90zM528 811q-163 0 -192 -262h352q-2 262 -160 262zM817 1064 q0 -23 -15.5 -36.5t-36 -13.5t-42.5 16l-197 133l-196 -131q-25 -18 -47 -18t-37 14t-15 34t31 48l262 252l256 -244q37 -31 37 -54z" glyph-name="ecircumflex" horiz-adv-x="1021" unicode="ê"/><glyph d="M573 117q152 0 263 155l110 -63q-55 -111 -171 -177.5t-253 -66.5q-209 0 -335 131t-126 346t132.5 350.5t328.5 135.5t317.5 -122t121.5 -314q-1 -21 -3 -37h-618q2 -158 64.5 -248t168.5 -90zM528 811q-163 0 -192 -262h352q-2 262 -160 262zM315 1315q57 0 98.5 -41 t41.5 -98.5t-41 -98.5t-98.5 -41t-98.5 41t-41 98.5t41 98.5t98 41zM733 1315q57 0 98 -41t41 -98.5t-40.5 -98.5t-98 -41t-98.5 41t-41 98.5t41 98.5t98 41z" glyph-name="edieresis" horiz-adv-x="1021" unicode="ë"/><glyph d="M451 246q0 -104 11 -124t70 -20h56v-102h-533v102h54q59 0 70 19.5t11 124.5v428q0 63 -25.5 82.5t-109.5 19.5v101q195 16 396 51v-682zM376 1012q-15 0 -30 10l-311 238q-25 18 -25 34q0 31 45 31h199l147 -242q24 -44 7 -57.5t-32 -13.5z" glyph-name="igrave" horiz-adv-x="614" unicode="ì"/><glyph d="M453 246q0 -104 11 -124t71 -20h55v-102h-535v102h56q59 0 70.5 19.5t11.5 124.5v428q0 63 -27 82.5t-111 19.5v101q183 14 398 51v-682zM561 1325q45 0 45 -31q0 -16 -26 -34l-312 -238q-14 -10 -28.5 -10t-26.5 10t-12 23t12 38l149 242h199z" glyph-name="iacute" horiz-adv-x="614" unicode="í"/><glyph d="M451 246q0 -104 11 -124t70 -20h56v-102h-533v102h54q59 0 70 19.5t11 124.5v428q0 63 -25.5 82.5t-109.5 19.5v101q195 16 396 51v-682zM586 1064q0 -23 -15.5 -36.5t-36 -13.5t-42.5 16l-197 133l-195 -131q-29 -18 -50 -18t-35.5 14t-14.5 34t31 48l262 252l256 -244 q37 -31 37 -54z" glyph-name="icircumflex" horiz-adv-x="614" unicode="î"/><glyph d="M451 246q0 -104 11 -124t70 -20h56v-102h-533v102h54q59 0 70 19.5t11 124.5v428q0 63 -25.5 82.5t-109.5 19.5v101q195 16 396 51v-682zM131 1311q57 0 97 -41t40 -97t-40 -96.5t-97 -40.5t-97 40t-40 97.5t40 97.5t97 40zM487 1311q57 0 97.5 -41t40.5 -97t-40 -96.5 t-97.5 -40.5t-97.5 40t-40 97.5t40 97.5t97 40z" glyph-name="idieresis" horiz-adv-x="614" unicode="ï"/><glyph d="M1057 465q0 -211 -119 -342q-63 -72 -163.5 -115t-202.5 -43t-202 43t-163 115q-119 131 -119 339t132 337t349 129q53 0 111 -10q-59 119 -148 225l-198 -103l-43 84l176 90q-74 78 -174 148l51 68q129 -63 242 -154l192 96l43 -84l-159 -80q123 -121 233 -288 q162 -244 162 -455zM573.5 801q-200.5 0 -200.5 -344q0 -190 48 -278.5t152 -88.5t152.5 88t48.5 277q0 346 -200.5 346z" glyph-name="eth" horiz-adv-x="1146" unicode="ð"/><glyph d="M455 246q0 -104 11 -124t71 -20h20v-102h-504v102h58q59 0 70.5 19.5t11.5 124.5v399q-2 59 -4.5 72t-20.5 35t-86 22h-29v103q258 20 371 51q25 -41 31 -133q147 133 286 133q86 0 150.5 -36t86.5 -86t26 -88t4 -153v-319q0 -104 11 -124t71 -20h53v-102h-494v102h17 q59 0 70.5 19.5t11.5 124.5v338q0 92 -30 130t-98 38t-165 -76v-430zM698 1071q-53 0 -140 35t-132 35t-104 -78l-74 47q47 84 109.5 134t119.5 50t148 -35t135 -35t92 64l66 -53q-102 -164 -220 -164z" glyph-name="ntilde" horiz-adv-x="1165" unicode="ñ"/><glyph d="M546 928q218 0 351 -128t133 -337t-119 -340q-66 -74 -166 -116t-200 -42t-292 84t-192 412q0 211 133.5 339t351.5 128zM547 801q-201 0 -201 -344q0 -190 48 -278.5t152 -88.5t153 88t49 277q0 346 -201 346zM653 1045q0 -13 -11.5 -23t-27.5 -10t-30 10l-312 238 q-25 18 -24 34q0 31 45 31h199l147 -242q14 -25 14 -38z" glyph-name="ograve" horiz-adv-x="1091" unicode="ò"/><glyph d="M546 928q218 0 351 -128t133 -337t-119 -340q-66 -74 -166 -116t-200 -42t-292 84t-192 412q0 211 133.5 339t351.5 128zM547 801q-201 0 -201 -344q0 -190 48 -278.5t152 -88.5t153 88t49 277q0 346 -201 346zM799 1325q45 0 45 -31q0 -16 -25 -34l-311 -238 q-16 -10 -30.5 -10t-27 10t-12.5 23t13 38l149 242h199z" glyph-name="oacute" horiz-adv-x="1091" unicode="ó"/><glyph d="M546 928q218 0 351 -128t133 -337t-119 -340q-66 -74 -166 -116t-200 -42t-292 84t-192 412q0 211 133.5 339t351.5 128zM547 801q-201 0 -201 -344q0 -190 48 -278.5t152 -88.5t153 88t49 277q0 346 -201 346zM840 1063q0 -22 -15.5 -35.5t-37.5 -13.5t-44 16l-196 133 l-195 -131q-29 -18 -49 -18t-35.5 14t-15.5 32.5t31 49.5l262 252l258 -244q37 -33 37 -55z" glyph-name="ocircumflex" horiz-adv-x="1091" unicode="ô"/><glyph d="M546 928q218 0 351 -128t133 -337t-119 -340q-66 -74 -166 -116t-200 -42t-292 84t-192 412q0 211 133.5 339t351.5 128zM547 801q-201 0 -201 -344q0 -190 48 -278.5t152 -88.5t153 88t49 277q0 346 -201 346zM659 1071q-51 0 -138 35t-122 35t-57.5 -16.5t-56.5 -61.5 l-74 47q45 84 108.5 134t120.5 50q58 0 148 -35t132 -35t95 64l66 -53q-102 -164 -222 -164z" glyph-name="otilde" horiz-adv-x="1091" unicode="õ"/><glyph d="M546 928q218 0 351 -128t133 -337t-119 -340q-66 -74 -166 -116t-200 -42t-292 84t-192 412q0 211 133.5 339t351.5 128zM547 801q-201 0 -201 -344q0 -190 48 -278.5t152 -88.5t153 88t49 277q0 346 -201 346zM338 1315q57 0 98 -41t41 -98.5t-40 -98.5t-98 -41t-99 41 t-41 98.5t41 98.5t98 41zM754 1315q57 0 98 -41t41 -98.5t-41 -98.5t-98.5 -41t-98.5 41t-41 98.5t41.5 98.5t98.5 41z" glyph-name="odieresis" horiz-adv-x="1091" unicode="ö"/><glyph d="M33 614v117h958v-117h-958zM513 444q48 0 82 -33.5t34 -81.5t-34 -82t-82 -34t-82 34t-34 82t34 81.5t82 33.5zM513 1135q48 0 82 -34t34 -82t-34 -82t-82 -34t-82 34t-34 82t34 82t82 34z" glyph-name="divide" unicode="÷"/><glyph d="M1030 459q0 -205 -119 -336q-66 -72 -165.5 -115t-219.5 -43t-254 80l-116 -137l-84 69l116 138q-127 137 -127 347t133.5 338t350.5 128q156 0 272 -68l119 139l82 -69l-115 -137q127 -129 127 -334zM547 90q201 0 201 365q-1 78 -13 141l-338 -424q43 -82 150 -82z M547 801q-201 0 -201 -352q0 -82 12 -152l336 420q-45 84 -147 84z" glyph-name="oslash" horiz-adv-x="1091" unicode="ø"/><glyph d="M1100 117v-103q-207 -14 -359 -43q-23 41 -34 138q-135 -143 -287 -143t-230 128q-25 41 -30.5 84t-5.5 172v318q-2 59 -4.5 71.5t-14.5 28.5q-27 29 -92 29h-10v102h381v-508q0 -113 8 -147q23 -88 123 -88q74 0 162 73v439q-2 59 -4.5 71.5t-14.5 28.5q-27 29 -90 29 h-29v102h398v-653q2 -59 3.5 -72.5t21.5 -35.5t85 -21h23zM634 1012q-15 0 -30 10l-311 238q-25 18 -25 34q0 31 45 31h199l147 -242q24 -44 7 -57.5t-32 -13.5z" glyph-name="ugrave" horiz-adv-x="1132" unicode="ù"/><glyph d="M1100 117v-103q-207 -14 -359 -43q-23 41 -34 138q-135 -143 -287 -143t-230 128q-25 41 -30.5 84t-5.5 172v318q-2 59 -4.5 71.5t-14.5 28.5q-27 29 -92 29h-10v102h381v-508q0 -113 8 -147q23 -88 123 -88q74 0 162 73v439q-2 59 -4.5 71.5t-14.5 28.5q-27 29 -90 29 h-29v102h398v-653q2 -59 3.5 -72.5t21.5 -35.5t85 -21h23zM817 1325q45 0 45 -31q0 -16 -24 -34l-312 -238q-14 -10 -29 -10t-27.5 10t-12.5 24t14 37l147 242h199z" glyph-name="uacute" horiz-adv-x="1132" unicode="ú"/><glyph d="M1100 117v-103q-207 -14 -359 -43q-23 41 -34 138q-135 -143 -287 -143t-230 128q-25 41 -30.5 84t-5.5 172v318q-2 59 -4.5 71.5t-14.5 28.5q-27 29 -92 29h-10v102h381v-508q0 -113 8 -147q23 -88 123 -88q74 0 162 73v439q-2 59 -4.5 71.5t-14.5 28.5q-27 29 -90 29 h-29v102h398v-653q2 -59 3.5 -72.5t21.5 -35.5t85 -21h23zM858 1063q0 -22 -15.5 -35.5t-36 -13.5t-42.5 16l-199 133l-194 -131q-27 -18 -48 -18t-36 14t-15 34t31 48l262 252l256 -244q37 -33 37 -55z" glyph-name="ucircumflex" horiz-adv-x="1132" unicode="û"/><glyph d="M1100 117v-103q-207 -14 -359 -43q-23 41 -34 138q-135 -143 -287 -143t-230 128q-25 41 -30.5 84t-5.5 172v318q-2 59 -4.5 71.5t-14.5 28.5q-27 29 -92 29h-10v102h381v-508q0 -113 8 -147q23 -88 123 -88q74 0 162 73v439q-2 59 -4.5 71.5t-14.5 28.5q-27 29 -90 29 h-29v102h398v-653q2 -59 3.5 -72.5t21.5 -35.5t85 -21h23zM356 1315q57 0 98.5 -41t41.5 -98.5t-41 -98.5t-98.5 -41t-98.5 41t-41 98.5t41 98.5t98 41zM772 1315q57 0 98 -41t41 -98.5t-40 -98.5t-98 -41t-99 41t-41 98.5t41 98.5t98 41z" glyph-name="udieresis" horiz-adv-x="1132" unicode="ü"/><glyph d="M-6 899h491v-102h-16q-53 0 -69.5 -6.5t-16.5 -25.5t12 -46l170 -377l176 389q11 23 11 38t-19.5 21.5t-87.5 6.5v102h352v-102q-57 -2 -81.5 -23.5t-59.5 -103.5l-442 -985q-53 -113 -108.5 -161t-130.5 -48t-121 39t-46 88t23 82q49 -18 96 -19q94 0 162 80 q37 43 100 186l41 91l-324 696q-37 76 -112 78v102zM748 1325q45 0 45 -31q0 -16 -25 -34l-311 -238q-13 -10 -29 -10t-28.5 10t-12.5 21t14 40l150 242h197z" glyph-name="yacute" horiz-adv-x="989" unicode="ý"/><glyph d="M408 1300v-501q98 78 157.5 103.5t143.5 25.5q176 0 293.5 -133t117.5 -339t-125 -348.5t-305 -142.5t-282 127v-352q2 -111 13 -127t68 -16h54v-103h-537v103h57q57 0 69 16t13 127v1405q-2 59 -3.5 72t-19.5 35t-87 22h-29v102q191 21 371 51q31 -57 31 -127zM606 127 q113 0 171.5 87t58.5 253q0 317 -201 317q-74 0 -127 -35.5t-100 -119.5v-387q33 -53 87 -84t111 -31z" glyph-name="thorn" horiz-adv-x="1179" unicode="þ"/><glyph d="M-6 899h491v-102h-16q-53 0 -69.5 -6.5t-16.5 -25.5t12 -46l170 -377l176 389q11 23 11 38t-19.5 21.5t-87.5 6.5v102h352v-102q-57 -2 -81.5 -23.5t-59.5 -103.5l-442 -985q-53 -113 -108.5 -161t-130.5 -48t-121 39t-46 88t23 82q49 -18 96 -19q94 0 162 80 q37 43 100 186l41 91l-324 696q-37 76 -112 78v102zM301 1315q57 0 98 -41t41 -98.5t-40 -98.5t-98 -41t-99 41t-41 98.5t41 98.5t98 41zM717 1315q57 0 98 -41t41 -98.5t-41 -98.5t-98.5 -41t-98 41t-40.5 98.5t41 98.5t98 41z" glyph-name="ydieresis" horiz-adv-x="989" unicode="ÿ"/><glyph d="M1425 102h45v-102h-661v102h92q33 0 53.5 15t20.5 37t-14 53l-99 248h-418l-94 -248q-12 -25 -12 -53t17.5 -40t62.5 -12h92v-102h-524v102q92 -2 137 28t80 116l456 1140h132l464 -1140q39 -92 69 -118t101 -26zM819 555l-166 428l-172 -428h338zM397 1677h662v-137 h-662v137z" glyph-name="Amacron" horiz-adv-x="1458" unicode="Ā"/><glyph d="M801 -35q-158 0 -213 121q-143 -121 -295 -121q-102 0 -163.5 69.5t-61.5 182.5q0 158 127 236q33 20 67.5 31.5t146.5 37.5t179 51v115q0 125 -123 125q-80 0 -107 -55q-8 -20 -20 -86q-12 -78 -107 -78q-51 0 -85.5 28.5t-34.5 72.5t35.5 95.5t91.5 83.5q102 64 262 64 t266 -90q47 -41 63.5 -91t16.5 -163v-379q0 -49 12 -67.5t45 -18.5t48.5 25.5t19.5 91.5h96q-2 -131 -72.5 -206t-193.5 -75zM440 135q56 0 148 70v244l-144 -46q-117 -37 -116 -147q0 -53 28 -87t84 -34zM207 1235h598v-131h-598v131z" glyph-name="amacron" horiz-adv-x="1040" unicode="ā"/><glyph d="M1425 102h45v-102h-661v102h92q33 0 53.5 15t20.5 37t-14 53l-99 248h-418l-94 -248q-12 -25 -12 -53t17.5 -40t62.5 -12h92v-102h-524v102q92 -2 137 28t80 116l456 1140h132l464 -1140q39 -92 69 -118t101 -26zM819 555l-166 428l-172 -428h338zM722 1485 q-148 0 -234.5 73.5t-94.5 204.5h109q39 -111 223 -111t221 111h117q-14 -131 -103.5 -204.5t-237.5 -73.5z" glyph-name="Abreve" horiz-adv-x="1458" unicode="Ă"/><glyph d="M801 -35q-158 0 -213 121q-143 -121 -295 -121q-102 0 -163.5 69.5t-61.5 182.5q0 158 127 236q33 20 67.5 31.5t146.5 37.5t179 51v115q0 125 -123 125q-80 0 -107 -55q-8 -20 -20 -86q-12 -78 -107 -78q-51 0 -85.5 28.5t-34.5 72.5t35.5 95.5t91.5 83.5q102 64 262 64 t266 -90q47 -41 63.5 -91t16.5 -163v-379q0 -49 12 -67.5t45 -18.5t48.5 25.5t19.5 91.5h96q-2 -131 -72.5 -206t-193.5 -75zM440 135q56 0 148 70v244l-144 -46q-117 -37 -116 -147q0 -53 28 -87t84 -34zM501 1042q-140 0 -223.5 71t-89.5 196h103q35 -107 210 -107 t214 107h110q-16 -127 -100 -197t-224 -70z" glyph-name="abreve" horiz-adv-x="1040" unicode="ă"/><glyph d="M1470 102v-102q-78 -68 -77 -139q0 -31 23.5 -51.5t57.5 -20.5t82 25v-82q-76 -49 -152 -49t-122.5 35.5t-46.5 88.5q0 96 131 193h-557v102h92q33 0 53.5 15t20.5 37t-14 53l-99 248h-418l-94 -248q-12 -25 -12 -53t17.5 -40t62.5 -12h92v-102h-524v102q92 -2 137 28 t80 116l456 1140h132l464 -1140q39 -92 69 -118t101 -26h45zM819 555l-166 428l-172 -428h338z" glyph-name="Aogonek" horiz-adv-x="1458" unicode="Ą"/><glyph d="M881 -133q0 -29 23.5 -49.5t55.5 -20.5t80 25v-80q-70 -45 -146 -45t-119.5 33.5t-43.5 85.5q0 76 84 149h-18q-152 0 -209 121q-143 -121 -295 -121q-102 0 -163.5 69.5t-61.5 182.5q0 158 127 236q33 20 67.5 31.5t146.5 37.5t179 51v115q0 125 -123 125 q-80 0 -107 -55q-8 -20 -20 -86q-12 -78 -107 -78q-51 0 -85.5 28.5t-34.5 72.5t35.5 95.5t91.5 83.5q102 64 262 64t266 -90q47 -41 63.5 -91t16.5 -163v-379q0 -47 12 -65.5t45 -18.5t47.5 24.5t20.5 90.5h96q-2 -86 -29.5 -141.5t-99.5 -114.5q-57 -51 -57 -123zM440 135 q56 0 148 70v244l-144 -46q-117 -37 -116 -147q0 -53 28 -87t84 -34z" glyph-name="aogonek" horiz-adv-x="1040" unicode="ą"/><glyph d="M842 1288q-217 0 -340 -190q-102 -152 -102 -426t116.5 -430t327.5 -156q158 0 293 86t213 240l102 -76q-92 -188 -257 -287.5t-388 -99.5q-324 0 -527.5 200.5t-203.5 521.5t214 533t541 213q242 0 429 -129l43 96h75q2 -147 31 -516h-106q-53 199 -174 309.5 t-287 110.5zM1096 1792q47 0 47 -33q0 -16 -27 -37l-325 -247q-33 -28 -53.5 -9t-20.5 33t14 39l156 254h209z" glyph-name="Cacute" horiz-adv-x="1495" unicode="Ć"/><glyph d="M524 -35q-201 0 -332 133t-131 342t135.5 348.5t344.5 139.5q139 0 233 -61.5t94 -149.5q0 -51 -34.5 -85t-88.5 -34t-83 35q-14 14 -17 57q0 123 -115 123q-86 0 -133 -90t-47 -259t58.5 -259t169.5 -90q141 0 235 166l117 -43q-53 -127 -160.5 -200t-245.5 -73z M772 1325q45 0 45 -31q0 -16 -24 -34l-312 -238q-16 -10 -30.5 -10t-26.5 10t-12 21t12 40l149 242h199z" glyph-name="cacute" horiz-adv-x="956" unicode="ć"/><glyph d="M842 1288q-217 0 -340 -190q-102 -152 -102 -426t116.5 -430t327.5 -156q158 0 293 86t213 240l102 -76q-92 -188 -257 -287.5t-388 -99.5q-324 0 -527.5 200.5t-203.5 521.5t214 533t541 213q242 0 429 -129l43 96h75q2 -147 31 -516h-106q-53 199 -174 309.5 t-287 110.5zM1083 1512q0 -22 -15 -37t-39 -15t-46 17l-207 147l-205 -145q-53 -39 -78.5 -13.5t-25.5 44.5t33 51l276 264l268 -254q39 -37 39 -59z" glyph-name="Ccircumflex" horiz-adv-x="1495" unicode="Ĉ"/><glyph d="M842 1288q-217 0 -340 -190q-102 -152 -102 -426t116.5 -430t327.5 -156q158 0 293 86t213 240l102 -76q-92 -188 -257 -287.5t-388 -99.5q-324 0 -527.5 200.5t-203.5 521.5t214 533t541 213q242 0 429 -129l43 96h75q2 -147 31 -516h-106q-53 199 -174 309.5 t-287 110.5zM830 1769q60 0 103.5 -43t43.5 -103t-43.5 -103t-103.5 -43t-103 43t-43 103t43 103t103 43z" glyph-name="Cdotaccent" horiz-adv-x="1495" unicode="Ċ"/><glyph d="M524 -35q-201 0 -332 133t-131 342t135.5 348.5t344.5 139.5q139 0 233 -61.5t94 -149.5q0 -51 -34.5 -85t-88.5 -34t-83 35q-14 14 -17 57q0 123 -115 123q-86 0 -133 -90t-47 -259t58.5 -259t169.5 -90q141 0 235 166l117 -43q-53 -127 -160.5 -200t-245.5 -73z M533 1315q57 0 98 -41t41 -98.5t-41 -98.5t-98.5 -41t-98.5 41t-41 98.5t41.5 98.5t98.5 41z" glyph-name="cdotaccent" horiz-adv-x="956" unicode="ċ"/><glyph d="M842 1288q-217 0 -340 -190q-102 -152 -102 -426t116.5 -430t327.5 -156q158 0 293 86t213 240l102 -76q-92 -188 -257 -287.5t-388 -99.5q-324 0 -527.5 200.5t-203.5 521.5t214 533t541 213q242 0 429 -129l43 96h75q2 -147 31 -516h-106q-53 199 -174 309.5 t-287 110.5zM522 1767.5q0 20.5 16 35t40 14.5t55 -21l198 -135l201 139q56 31 81.5 9.5t25.5 -43.5t-45 -64l-265 -252l-270 262q-37 35 -37 55.5z" glyph-name="Ccaron" horiz-adv-x="1495" unicode="Č"/><glyph d="M524 -35q-201 0 -332 133t-131 342t135.5 348.5t344.5 139.5q139 0 233 -61.5t94 -149.5q0 -51 -34.5 -85t-88.5 -34t-83 35q-14 14 -17 57q0 123 -115 123q-86 0 -133 -90t-47 -259t58.5 -259t169.5 -90q141 0 235 166l117 -43q-53 -127 -160.5 -200t-245.5 -73z M293 1354q23 0 51 -19l191 -131l190 133q23 17 47 17t38.5 -13t14.5 -37t-41 -59l-252 -239l-258 247q-55 55 -29.5 78t48.5 23z" glyph-name="ccaron" horiz-adv-x="956" unicode="č"/><glyph d="M1522 674q0 -186 -73 -339t-208 -244t-367 -91h-806v102h45q96 0 122.5 27t26.5 123v862q0 94 -26.5 122t-122.5 28h-45v102h393l313 4q207 0 341 -48t235 -159q172 -195 172 -489zM557 1264v-1031q0 -82 29.5 -107.5t151.5 -25.5q247 0 358 152q106 156 106 422 q0 381 -227 520q-72 45 -147.5 57.5t-270.5 12.5zM506 1817q27 0 53 -21l199 -135l200 139q57 32 82 10t25 -44t-43 -64l-264 -252l-273 262q-37 37 -37 56t15.5 34t42.5 15z" glyph-name="Dcaron" horiz-adv-x="1597" unicode="Ď"/><glyph d="M721 1176q0 51 -22.5 66t-94.5 18h-14v100q184 12 391 70v-1168q0 -102 11.5 -122.5t70.5 -20.5h53v-103l-22 -2q-53 -6 -122 -13t-196 -28q-33 41 -37 125q-104 -133 -280 -133t-287 132t-111 345t118 354.5t296 141.5q144 0 246 -102v340zM346 455q0 -145 59.5 -234.5 t154.5 -89.5t161 84v498q-80 67 -169 67t-147.5 -90t-58.5 -235zM1251 1153q0 10 -2 18q-25 -10 -63 -10t-70.5 33t-32.5 83t35.5 83t95.5 33t103 -49.5t43 -124.5q0 -182 -227 -256l-19 38q137 51 137 152z" glyph-name="dcaron" horiz-adv-x="1359" unicode="ď"/><glyph d="M1522 674q0 -188 -73 -340t-208 -243t-369 -91h-804v102h47q94 0 120.5 28t26.5 122v407h-162v113h162v342q0 94 -26.5 122t-120.5 28h-47v102h393l313 4q207 0 341 -48t235 -161q172 -190 172 -487zM557 772h369v-113h-369v-426q0 -82 29.5 -107.5t151.5 -25.5 q251 0 358 152q106 152 106 422q0 381 -227 520q-76 45 -150.5 57.5t-267.5 12.5v-492z" glyph-name="Dcroat" horiz-adv-x="1597" unicode="Đ"/><glyph d="M721 1020h-283v102h283v54q0 49 -22.5 64t-94.5 17l-14 3v98q184 12 391 69v-305h133v-102h-133v-758q0 -102 11.5 -122.5t70.5 -20.5h53v-103l-24 -2q-51 -6 -120 -13t-196 -28q-33 41 -37 125q-104 -133 -280 -133t-287 132t-111 345t118 354.5t296 141.5 q143 0 246 -102v184zM346 455q0 -145 59 -234.5t157 -89.5t159 84v498q-80 67 -169 67t-147.5 -90t-58.5 -235z" glyph-name="dcroat" horiz-adv-x="1144" unicode="đ"/><glyph d="M840 1264h-279v-476h125q72 0 104.5 43t34.5 138h109v-498h-109v25q0 98 -40 138t-140 40h-84v-410q2 -82 4.5 -98t18.5 -36t37.5 -24t101.5 -4h162q98 0 177.5 48t117.5 278h96l-25 -428h-1181v102h45q94 0 120.5 28t26.5 122v862q0 94 -28 122t-119 28h-45v102h1091 l19 -354h-101q-8 88 -41 147t-76.5 82t-121.5 23zM340 1677h664v-137h-664v137z" glyph-name="Emacron" horiz-adv-x="1343" unicode="Ē"/><glyph d="M573 117q152 0 263 155l110 -63q-55 -111 -171 -177.5t-253 -66.5q-209 0 -335 131t-126 346t132.5 350.5t328.5 135.5t317.5 -122t121.5 -314q-1 -21 -3 -37h-618q2 -158 64.5 -248t168.5 -90zM528 811q-163 0 -192 -262h352q-2 262 -160 262zM225 1235h598v-131h-598 v131z" glyph-name="emacron" horiz-adv-x="1021" unicode="ē"/><glyph d="M840 1264h-279v-476h125q72 0 104.5 43t34.5 138h109v-498h-109v25q0 98 -40 138t-140 40h-84v-410q2 -82 4.5 -98t18.5 -36t37.5 -24t101.5 -4h162q98 0 177.5 48t117.5 278h96l-25 -428h-1181v102h45q94 0 120.5 28t26.5 122v862q0 94 -28 122t-119 28h-45v102h1091 l19 -354h-101q-8 88 -41 147t-76.5 82t-121.5 23zM668 1485q-148 0 -235 73.5t-95 204.5h108q36 -111 222 -111t223 111h115q-14 -131 -102 -204.5t-236 -73.5z" glyph-name="Ebreve" horiz-adv-x="1343" unicode="Ĕ"/><glyph d="M573 117q152 0 263 155l110 -63q-55 -111 -171 -177.5t-253 -66.5q-209 0 -335 131t-126 346t132.5 350.5t328.5 135.5t317.5 -122t121.5 -314q-1 -21 -3 -37h-618q2 -158 64.5 -248t168.5 -90zM528 811q-163 0 -192 -262h352q-2 262 -160 262zM519 1042q-140 0 -223 71 t-89 196h102q35 -107 210 -107t214 107h109q-14 -125 -98.5 -196t-224.5 -71z" glyph-name="ebreve" horiz-adv-x="1021" unicode="ĕ"/><glyph d="M840 1264h-279v-476h125q72 0 104.5 43t34.5 138h109v-498h-109v25q0 98 -40 138t-140 40h-84v-410q2 -82 4.5 -98t18.5 -36t37.5 -24t101.5 -4h162q98 0 177.5 48t117.5 278h96l-25 -428h-1181v102h45q94 0 120.5 28t26.5 122v862q0 94 -28 122t-119 28h-45v102h1091 l19 -354h-101q-8 88 -41 147t-76.5 82t-121.5 23zM673 1769q60 0 103 -43t43 -103t-43 -103t-103 -43t-103.5 43t-43.5 103t43.5 103t103.5 43z" glyph-name="Edotaccent" horiz-adv-x="1343" unicode="Ė"/><glyph d="M573 117q152 0 263 155l110 -63q-55 -111 -171 -177.5t-253 -66.5q-209 0 -335 131t-126 346t132.5 350.5t328.5 135.5t317.5 -122t121.5 -314q-1 -21 -3 -37h-618q2 -158 64.5 -248t168.5 -90zM528 811q-163 0 -192 -262h352q-2 262 -160 262zM524 1315q57 0 98.5 -41 t41.5 -98.5t-41 -98.5t-98.5 -41t-98.5 41t-41 98.5t41 98.5t98 41z" glyph-name="edotaccent" horiz-adv-x="1021" unicode="ė"/><glyph d="M1184 -317q-76 0 -123 35.5t-47 91.5q0 94 133 190h-1077v102h45q94 0 120.5 28t26.5 122v862q0 94 -28 122t-119 28h-45v102h1091l19 -354h-101q-8 88 -41 147t-76.5 82t-121.5 23h-279v-476h125q72 0 104.5 43t34.5 138h109v-498h-109v25q0 98 -40 138t-140 40h-84 v-410q2 -82 4.5 -98t18.5 -36t37.5 -24t101.5 -4h162q98 0 177.5 48t117.5 278h96l-25 -428q-80 -63 -80 -139q0 -31 24 -51.5t58.5 -20.5t83.5 25v-82q-77 -49 -153 -49z" glyph-name="Eogonek" horiz-adv-x="1343" unicode="Ę"/><glyph d="M694 -133q0 -29 23.5 -49.5t55.5 -20.5t81 25v-80q-70 -45 -146 -45t-119.5 33.5t-43.5 85.5q0 82 98 164q-63 -14 -121 -15q-209 0 -335 131t-126 346t131.5 350.5t333.5 135.5t317 -127t115 -346h-618q0 -156 62.5 -247t170.5 -91q152 -1 263 155l108 -63 q-33 -72 -123 -143q-127 -100 -127 -199zM528 811q-163 0 -192 -262h352q-2 262 -160 262z" glyph-name="eogonek" horiz-adv-x="1021" unicode="ę"/><glyph d="M840 1264h-279v-476h125q72 0 104.5 43t34.5 138h109v-498h-109v25q0 98 -40 138t-140 40h-84v-410q2 -82 4.5 -98t18.5 -36t37.5 -24t101.5 -4h162q98 0 177.5 48t117.5 278h96l-25 -428h-1181v102h45q94 0 120.5 28t26.5 122v862q0 94 -28 122t-119 28h-45v102h1091 l19 -354h-101q-8 88 -41 147t-76.5 82t-121.5 23zM420 1817q25 0 55 -21l199 -135l200 139q57 32 82 10t25 -44t-45 -64l-264 -252l-271 262q-58 55 -32 80t51 25z" glyph-name="Ecaron" horiz-adv-x="1343" unicode="Ě"/><glyph d="M573 117q152 0 263 155l110 -63q-55 -111 -171 -177.5t-253 -66.5q-209 0 -335 131t-126 346t132.5 350.5t328.5 135.5t317.5 -122t121.5 -314q-1 -21 -3 -37h-618q2 -158 64.5 -248t168.5 -90zM528 811q-163 0 -192 -262h352q-2 262 -160 262zM231 1308q0 20 15.5 33 t38.5 13t51 -19l190 -131l191 133q23 17 47 17t38.5 -13t14.5 -37t-41 -59l-252 -239l-258 247q-35 35 -35 55z" glyph-name="ecaron" horiz-adv-x="1021" unicode="ě"/><glyph d="M1364 1366v-475h-104q-45 164 -91 229q-115 170 -325 170t-328.5 -169t-118.5 -442t113 -436t282 -163t308 106v164q0 94 -26.5 122t-121.5 28h-45v102h656v-102h-27q-90 0 -125 -31q-25 -27 -25 -119v-307q-138 0 -190 -15q-51 -15 -162 -47t-248 -32q-322 0 -516 190.5 t-194 514.5t209 543.5t526 219.5q227 0 422 -135l27 84h104zM1110 1512q0 -22 -15 -37t-39 -15t-46 17l-207 147l-205 -145q-53 -39 -78.5 -13.5t-25.5 44.5t32 51l277 264l268 -254q39 -37 39 -59z" glyph-name="Gcircumflex" horiz-adv-x="1601" unicode="Ĝ"/><glyph d="M907 596q0 -164 -125 -260q-55 -43 -111.5 -58.5t-170.5 -19.5t-147.5 -17.5t-33.5 -45.5q0 -41 70 -50q29 -4 239 -12t294 -75.5t84 -229.5t-135.5 -265.5t-361.5 -103.5t-360.5 82t-134.5 215q0 84 55.5 133.5t151.5 49.5q41 0 74 -13q-70 -70 -70 -156t76 -137 t210 -51t213 46t79 124t-68 109q-39 17 -216 35t-267 59q-111 55 -111 168q0 139 193 166q-113 33 -166 96q-74 90 -74 209q0 156 108.5 250t291.5 94t301 -98q76 88 176 88q68 0 115 -39t47 -86t-28 -75t-73 -28t-80 62q-20 43 -48 43t-54 -25q57 -78 57 -184zM504 829 q-154 0 -154 -227t151 -227t150 219q0 121 -35.5 178t-111.5 57zM807 1063q0 -22 -15.5 -35.5t-36 -13.5t-42.5 16l-199 133l-195 -131q-29 -18 -49 -18t-34.5 14t-14.5 34t31 48l262 252l256 -244q37 -33 37 -55z" glyph-name="gcircumflex" horiz-adv-x="1081" unicode="ĝ"/><glyph d="M1364 1366v-475h-104q-45 164 -91 229q-115 170 -325 170t-328.5 -169t-118.5 -442t113 -436t282 -163t308 106v164q0 94 -26.5 122t-121.5 28h-45v102h656v-102h-27q-90 0 -125 -31q-25 -27 -25 -119v-307q-138 0 -190 -15q-51 -15 -162 -47t-248 -32q-322 0 -516 190.5 t-194 514.5t209 543.5t526 219.5q227 0 422 -135l27 84h104zM824 1485q-146 0 -233 73.5t-95 204.5h108q37 -111 220 -111t225 111h114q-14 -131 -103.5 -204.5t-235.5 -73.5z" glyph-name="Gbreve" horiz-adv-x="1601" unicode="Ğ"/><glyph d="M907 596q0 -164 -125 -260q-55 -43 -111.5 -58.5t-170.5 -19.5t-147.5 -17.5t-33.5 -45.5q0 -41 70 -50q29 -4 239 -12t294 -75.5t84 -229.5t-135.5 -265.5t-361.5 -103.5t-360.5 82t-134.5 215q0 84 55.5 133.5t151.5 49.5q41 0 74 -13q-70 -70 -70 -156t76 -137 t210 -51t213 46t79 124t-68 109q-39 17 -216 35t-267 59q-111 55 -111 168q0 139 193 166q-113 33 -166 96q-74 90 -74 209q0 156 108.5 250t291.5 94t301 -98q76 88 176 88q68 0 115 -39t47 -86t-28 -75t-73 -28t-80 62q-20 43 -48 43t-54 -25q57 -78 57 -184zM504 829 q-154 0 -154 -227t151 -227t150 219q0 121 -35.5 178t-111.5 57zM509 1042q-140 0 -223 71t-89 196h102q35 -107 210 -107t214 107h108q-14 -125 -98 -196t-224 -71z" glyph-name="gbreve" horiz-adv-x="1081" unicode="ğ"/><glyph d="M1364 1366v-475h-104q-45 164 -91 229q-115 170 -325 170t-328.5 -169t-118.5 -442t113 -436t282 -163t308 106v164q0 94 -26.5 122t-121.5 28h-45v102h656v-102h-27q-90 0 -125 -31q-25 -27 -25 -119v-307q-138 0 -190 -15q-51 -15 -162 -47t-248 -32q-322 0 -516 190.5 t-194 514.5t209 543.5t526 219.5q227 0 422 -135l27 84h104zM828 1769q60 0 103.5 -43t43.5 -103t-43.5 -103t-103.5 -43t-103 43t-43 103t43 103t103 43z" glyph-name="Gdotaccent" horiz-adv-x="1601" unicode="Ġ"/><glyph d="M907 596q0 -164 -125 -260q-55 -43 -111.5 -58.5t-170.5 -19.5t-147.5 -17.5t-33.5 -45.5q0 -41 70 -50q29 -4 239 -12t294 -75.5t84 -229.5t-135.5 -265.5t-361.5 -103.5t-360.5 82t-134.5 215q0 84 55.5 133.5t151.5 49.5q41 0 74 -13q-70 -70 -70 -156t76 -137 t210 -51t213 46t79 124t-68 109q-39 17 -216 35t-267 59q-111 55 -111 168q0 139 193 166q-113 33 -166 96q-74 90 -74 209q0 156 108.5 250t291.5 94t301 -98q76 88 176 88q68 0 115 -39t47 -86t-28 -75t-73 -28t-80 62q-20 43 -48 43t-54 -25q57 -78 57 -184zM504 829 q-154 0 -154 -227t151 -227t150 219q0 121 -35.5 178t-111.5 57zM514 1315q57 0 98 -41t41 -98.5t-40 -98.5t-98 -41t-99 41t-41 98.5t41 98.5t98 41z" glyph-name="gdotaccent" horiz-adv-x="1081" unicode="ġ"/><glyph d="M1364 1366v-475h-104q-45 164 -91 229q-115 170 -325 170t-328.5 -169t-118.5 -442t113 -436t282 -163t308 106v164q0 94 -26.5 122t-121.5 28h-45v102h656v-102h-27q-90 0 -125 -31q-25 -27 -25 -119v-307q-138 0 -190 -15q-51 -15 -162 -47t-248 -32q-322 0 -516 190.5 t-194 514.5t209 543.5t526 219.5q227 0 422 -135l27 84h104zM659 -246q0 53 38 89t103 36t109.5 -52t44.5 -134q1 -195 -241 -275l-21 43q147 51 148 160q0 12 -2 21q-91 -29 -135 15t-44 97z" glyph-name="Gcommaaccent" horiz-adv-x="1601" unicode="Ģ"/><glyph d="M907 596q0 -164 -125 -260q-55 -43 -111.5 -58.5t-170.5 -19.5t-147.5 -17.5t-33.5 -45.5q0 -41 70 -50q29 -4 239 -12t294 -75.5t84 -229.5t-135.5 -265.5t-361.5 -103.5t-360.5 82t-134.5 215q0 84 55.5 133.5t151.5 49.5q41 0 74 -13q-70 -70 -70 -156t76 -137 t210 -51t213 46t79 124t-68 109q-39 17 -216 35t-267 59q-111 55 -111 168q0 139 193 166q-113 33 -166 96q-74 90 -74 209q0 156 108.5 250t291.5 94t301 -98q76 88 176 88q68 0 115 -39t47 -86t-28 -75t-73 -28t-80 62q-20 43 -48 43t-54 -25q57 -78 57 -184zM504 829 q-154 0 -154 -227t151 -227t150 219q0 121 -35.5 178t-111.5 57zM551 1257q37 0 69.5 -32.5t32.5 -82.5t-35.5 -83t-96.5 -33t-103.5 49t-42.5 125q0 184 227 256l19 -39q-133 -47 -138 -145q0 -14 4 -25q27 10 64 10z" glyph-name="gcommaaccent" horiz-adv-x="1081" unicode="ģ"/><glyph d="M559 778h588v336q0 94 -26.5 122t-121.5 28h-43v102h678v-102h-43q-88 0 -123 -31q-25 -25 -24 -119v-862q0 -94 26.5 -122t120.5 -28h43v-102h-678v102h43q94 0 121 28t27 122v410h-588v-410q0 -94 25 -119q35 -31 123 -31h41v-102h-680v102h47q94 0 120.5 28t26.5 122 v862q0 94 -26.5 122t-120.5 28h-47v102h680v-102h-41q-92 0 -120 -28t-28 -122v-336zM1161 1512q0 -22 -15.5 -37t-39.5 -15t-45 17l-207 147l-205 -145q-53 -39 -78.5 -13.5t-25.5 44.5t33 51l274 264l270 -254q39 -37 39 -59z" glyph-name="Hcircumflex" horiz-adv-x="1705" unicode="Ĥ"/><glyph d="M559 1018h588v96q0 94 -29 122t-119 28h-43v102h678v-102h-43q-90 0 -119 -28t-28 -122v-96h162v-113h-162v-653q0 -94 26.5 -122t120.5 -28h43v-102h-678v102h43q94 0 121 28t27 122v410h-588v-410q0 -94 25 -119q35 -31 123 -31h41v-102h-680v102h47q94 0 120.5 28 t26.5 122v653h-162v113h162v96q0 94 -28 122t-119 28h-47v102h680v-102h-41q-92 0 -123 -33q-25 -23 -25 -117v-96zM1147 905h-588v-127h588v127z" glyph-name="Hbar" horiz-adv-x="1705" unicode="Ħ"/><glyph d="M172 1022h-135v102h135v27q0 76 -19.5 92.5t-115.5 22.5v102q209 16 393 62v-306h234v-102h-234v-244q156 150 305 150q76 0 137.5 -32t89.5 -77t32.5 -78.5t4.5 -128.5v-366q0 -104 11.5 -124t70.5 -20h52v-102h-492v102h14q59 0 70.5 19.5t11.5 124.5v362 q0 68 -31.5 107t-84.5 39q-90 0 -191 -82v-426q0 -104 11.5 -124t70.5 -20h23v-102h-498v102h53q59 0 70.5 19.5t11.5 124.5v776z" glyph-name="hbar" horiz-adv-x="1155" unicode="ħ"/><glyph d="M70 1366h680v-102h-45q-94 0 -121 -28t-27 -122v-862q0 -94 26.5 -122t121.5 -28h45v-102h-680v102h45q94 0 120.5 28t26.5 122v862q0 94 -28 122t-119 28h-45v102zM78 1677h663v-137h-663v137z" glyph-name="Imacron" horiz-adv-x="819" unicode="Ī"/><glyph d="M451 246q0 -104 11 -124t70 -20h56v-102h-533v102h54q59 0 70 19.5t11 124.5v428q0 63 -25.5 82.5t-109.5 19.5v101q195 16 396 51v-682zM29 1235h557v-131h-557v131z" glyph-name="imacron" horiz-adv-x="614" unicode="ī"/><glyph d="M453 246q0 -104 11 -124t71 -20h55v-102h-535v102h56q59 0 70.5 19.5t11.5 124.5v428q0 63 -27 82.5t-111 19.5v101q183 14 398 51v-682zM304 1042q-140 0 -223 71t-91 196h102q35 -107 210 -107t214 107h111q-14 -125 -98.5 -196t-224.5 -71z" glyph-name="ibreve" horiz-adv-x="614" unicode="ĭ"/><glyph d="M681 -317q-77 0 -123 35.5t-46 91.5q0 94 133 190h-575v102h45q94 0 120.5 28t26.5 122v862q0 94 -28 122t-119 28h-45v102h680v-102h-45q-94 0 -121 -28t-27 -122v-862q0 -94 26.5 -122t121.5 -28h45v-102q-80 -63 -80 -139q0 -31 23.5 -51.5t58.5 -20.5t84 25v-82 q-78 -49 -155 -49z" glyph-name="Iogonek" horiz-adv-x="819" unicode="Į"/><glyph d="M470 -303q-76 0 -119.5 33.5t-43.5 85.5q0 92 127 184h-434v102h55q59 0 70.5 19.5t11.5 124.5v428q0 63 -26.5 82.5t-110.5 19.5v101q182 14 397 51v-682q0 -104 11.5 -124t70.5 -20h56v-102q-78 -66 -78 -133q0 -29 23.5 -49.5t56 -20.5t79.5 25v-80q-70 -45 -146 -45z M257 1313q60 0 103 -44.5t43 -104.5t-43 -103t-104 -43t-104 43t-43 104t44 104.5t104 43.5z" glyph-name="iogonek" horiz-adv-x="616" unicode="į"/><glyph d="M70 1366h680v-102h-45q-94 0 -121 -28t-27 -122v-862q0 -94 26.5 -122t121.5 -28h45v-102h-680v102h45q94 0 120.5 28t26.5 122v862q0 94 -28 122t-119 28h-45v102zM411 1769q60 0 103 -43t43 -103t-43 -103t-103 -43t-103.5 43t-43.5 103t43.5 103t103.5 43z" glyph-name="Idotaccent" horiz-adv-x="819" unicode="İ"/><glyph d="M453 246q0 -104 11 -124t71 -20h55v-102h-535v102h56q59 0 70.5 19.5t11.5 124.5v428q0 63 -27 82.5t-111 19.5v101q183 14 398 51v-682z" glyph-name="dotlessi" horiz-adv-x="614" unicode="ı"/><glyph d="M70 1366h680v-102h-45q-94 0 -121 -28t-27 -122v-862q0 -94 26.5 -122t121.5 -28h45v-102h-680v102h45q94 0 120.5 28t26.5 122v862q0 94 -28 122t-119 28h-45v102zM963 1264v102h657v-102h-41q-92 0 -120 -28t-27 -122v-1157q0 -329 -201 -426.5t-338 -97.5t-232.5 64.5 t-95.5 160.5q0 55 39 91t95 36t90 -29.5t34 -63.5t-16 -61q-8 -20 -8 -26q0 -20 29.5 -34.5t81.5 -14.5t103.5 33t87.5 103t36 249v1173q0 94 -28 122t-120 28h-26z" glyph-name="IJ" horiz-adv-x="1665" unicode="Ĳ"/><glyph d="M453 246q0 -104 11 -124t71 -20h55v-102h-535v102h56q59 0 70.5 19.5t11.5 124.5v428q0 63 -27 82.5t-111 19.5v101q183 14 398 51v-682zM312 1327q60 0 103.5 -44t43.5 -104t-43 -103.5t-104.5 -43.5t-104.5 43t-43 105t44 104.5t104 42.5zM674 776v105q307 25 395 47 v-1057q0 -182 -97.5 -281.5t-273.5 -99.5q-106 0 -169.5 44t-63.5 108t30.5 94.5t78.5 30.5t83 -31q16 -16 33 -82q12 -39 47 -39q70 0 70 115v948q0 63 -24.5 80.5t-108.5 17.5zM927 1327q60 0 103 -44t43 -104t-43 -103.5t-104.5 -43.5t-104.5 43t-43 105t44.5 104.5 t104.5 42.5z" glyph-name="ij" horiz-adv-x="1200" unicode="ĳ"/><glyph d="M1493 1366v-102q-113 -10 -187.5 -58.5t-308.5 -263.5l-100 -90l379 -520q100 -141 155.5 -183.5t147.5 -46.5h14v-102h-696v102h51q84 0 84 43q0 18 -35 68l-323 434l-117 -108v-287q0 -94 26.5 -122t121.5 -28h49v-102h-688v102h47q96 0 122.5 27t26.5 123v862 q0 94 -28 122t-121 28h-47v102h688v-102h-49q-94 0 -121 -28t-27 -122v-391l277 258q123 117 149.5 148.5t26.5 60.5q0 74 -125 74h-29v102h637zM817 -379q0 12 -4 21q-85 -29 -130.5 15t-45.5 97t38.5 89t102.5 36t109 -52t45 -134q0 -195 -244 -275l-18 43q147 51 147 160 z" glyph-name="Kcommaaccent" horiz-adv-x="1558" unicode="Ķ"/><glyph d="M711 772q0 23 -72 25h-16v102h444v-102q-98 -2 -199 -74l-215 -172l310 -344q45 -53 77.5 -74.5t81.5 -30.5v-102h-487v102q51 0 63.5 3.5t12.5 14.5t-13 27l-227 273l-39 -31v-143q0 -104 11.5 -124t70.5 -20h33v-102h-512v102h55q59 0 70.5 19.5t11.5 124.5v889 q-2 59 -4 72t-22 35t-85 22h-26v102q49 4 53 4q197 15 344 60v-904l209 174q70 57 70 72zM596 -367q0 10 -2 21q-28 -10 -64 -10t-69 33.5t-33 82.5t36 82t96 33t102.5 -49t42.5 -125q-1 -184 -228 -258l-18 39q137 53 137 151z" glyph-name="kcommaaccent" horiz-adv-x="1120" unicode="ķ"/><glyph d="M711 772q0 23 -72 25h-16v102h444v-102q-98 -2 -199 -74l-215 -172l310 -344q45 -53 77.5 -74.5t81.5 -30.5v-102h-487v102q51 0 63.5 3.5t12.5 14.5t-13 27l-227 273l-39 -31v-143q0 -104 11.5 -124t70.5 -20h33v-102h-512v102h53q61 0 72.5 19.5t11.5 124.5v428 q0 63 -26.5 82.5t-110.5 19.5v101q188 16 397 51v-402l209 174q70 57 70 72z" glyph-name="kgreenlandic" horiz-adv-x="1120" unicode="ĸ"/><glyph d="M70 0v102h45q94 0 120.5 28t26.5 122v862q0 94 -24 119q-35 31 -123 31h-45v102h682v-102h-47q-90 0 -119 -28t-29 -122v-856q0 -68 8.5 -102t70.5 -42t212 -8t227.5 74t100.5 248h104l-16 -428h-1194zM711 1792q47 0 47 -33q0 -16 -27 -37l-325 -247q-33 -28 -53.5 -9 t-20.5 31t14 41l156 254h209z" glyph-name="Lacute" horiz-adv-x="1327" unicode="Ĺ"/><glyph d="M432 246q0 -104 11.5 -124t72.5 -20h51v-102h-532v102h53q59 0 70.5 19.5t11.5 124.5v889q0 84 -22.5 105.5t-112.5 23.5v102q51 2 193.5 24.5t203.5 36.5v-1181zM563 1792q47 0 47 -33q0 -16 -24 -37l-328 -247q-35 -26 -54.5 -8t-19.5 30t15 41l157 254h207z" glyph-name="lacute" horiz-adv-x="598" unicode="ĺ"/><glyph d="M70 0v102h45q94 0 120.5 28t26.5 122v862q0 94 -24 119q-35 31 -123 31h-45v102h682v-102h-47q-90 0 -119 -28t-29 -122v-856q0 -68 8.5 -102t70.5 -42t212 -8t227.5 74t100.5 248h104l-16 -428h-1194zM702 -379q0 12 -4 21q-85 -29 -130.5 15t-45.5 97t38 89t102 36 t109.5 -52t45.5 -134q0 -195 -244 -275l-18 43q147 51 147 160z" glyph-name="Lcommaaccent" horiz-adv-x="1327" unicode="Ļ"/><glyph d="M432 246q0 -104 11.5 -124t72.5 -20h51v-102h-532v102h53q59 0 70.5 19.5t11.5 124.5v889q0 84 -22.5 105.5t-112.5 23.5v102q51 2 193.5 24.5t203.5 36.5v-1181zM334 -367q0 10 -2 21q-28 -10 -64 -10t-69 33.5t-33 82.5t36 82t96 33t102 -49t42 -125q0 -184 -227 -258 l-18 39q137 51 137 151z" glyph-name="lcommaaccent" horiz-adv-x="598" unicode="ļ"/><glyph d="M70 0v102h45q94 0 120.5 28t26.5 122v862q0 94 -24 119q-35 31 -123 31h-45v102h682v-102h-47q-90 0 -119 -28t-29 -122v-856q0 -68 8.5 -102t70.5 -42t212 -8t227.5 74t100.5 248h104l-16 -428h-1194zM998 1139q-38 0 -75.5 36.5t-37.5 90.5t39.5 90.5t105.5 36.5 t113 -54.5t47 -138.5q0 -198 -252 -282l-18 43q152 57 151 165q0 12 -4 23q-31 -10 -69 -10z" glyph-name="Lcaron" horiz-adv-x="1327" unicode="Ľ"/><glyph d="M432 246q0 -104 11.5 -124t72.5 -20h51v-102h-532v102h53q59 0 70.5 19.5t11.5 124.5v889q0 84 -22.5 105.5t-112.5 23.5v102q51 2 193.5 24.5t203.5 36.5v-1181zM638 1161q-36 0 -68.5 34t-32.5 83t35.5 82t95.5 33t102.5 -49.5t42.5 -124.5q0 -182 -227 -256l-19 38 q137 47 138 152q0 10 -3 18q-28 -10 -64 -10z" glyph-name="lcaron" horiz-adv-x="813" unicode="ľ"/><glyph d="M70 0v102h45q94 0 120.5 28t26.5 122v862q0 94 -24 119q-35 31 -123 31h-45v102h682v-102h-47q-90 0 -119 -28t-29 -122v-856q0 -68 8.5 -102t70.5 -42t212 -8t227.5 74t100.5 248h104l-16 -428h-1194zM989.5 879q71.5 0 123.5 -52.5t52 -126.5t-51 -124t-125 -50 t-125 52t-51 124t52.5 124.5t124 52.5z" glyph-name="Ldot" horiz-adv-x="1327" unicode="Ŀ"/><glyph d="M432 246q0 -104 11.5 -124t72.5 -20h51v-102h-532v102h53q59 0 70.5 19.5t11.5 124.5v889q0 84 -22.5 105.5t-112.5 23.5v102q51 2 193.5 24.5t203.5 36.5v-1181zM774.5 834q65.5 0 112.5 -48t47 -114t-46 -112t-114 -46t-114 47t-46 112.5t47.5 113t113 47.5z" glyph-name="ldot" horiz-adv-x="935" unicode="ŀ"/><glyph d="M262 1114q0 94 -24 119q-35 31 -123 31h-45v102h680v-102h-45q-94 0 -121 -28t-27 -122v-350l356 192l60 -96l-416 -239v-363q0 -66 5 -87t24 -38q23 -16 66.5 -21.5t193.5 -5.5t227.5 74t100.5 248h104l-16 -428h-1192v102h45q94 0 120.5 28t26.5 122v248l-174 -86 l-57 96l231 123v481z" glyph-name="Lslash" horiz-adv-x="1327" unicode="Ł"/><glyph d="M432 246q0 -104 11.5 -124t72.5 -20h51v-102h-532v102h53q59 0 70.5 19.5t11.5 124.5v356l-127 -72l-53 88l180 103v414q0 84 -22.5 105.5t-112.5 23.5v102q51 2 193.5 24.5t203.5 36.5v-557l160 91l53 -89l-213 -120v-506z" glyph-name="lslash" horiz-adv-x="598" unicode="ł"/><glyph d="M1397 0h-240l-735 1094v-842q0 -94 28 -122t119 -28h45v-102h-542v102h43q94 0 120.5 28t26.5 122v862q0 94 -24 119q-35 31 -123 31h-43v102h506l659 -977v725q0 94 -28 122t-122 28h-51v102h547v-102h-39q-94 0 -120.5 -28t-26.5 -122v-1114zM1087 1792q47 0 48 -33 q0 -16 -27 -37l-326 -247q-35 -26 -54 -8t-19 32t14 39l156 254h208z" glyph-name="Nacute" horiz-adv-x="1644" unicode="Ń"/><glyph d="M455 246q0 -104 11 -124t71 -20h20v-102h-504v102h58q59 0 70.5 19.5t11.5 124.5v399q-2 59 -4.5 72t-20.5 35t-86 22h-29v103q258 20 371 51q25 -41 31 -133q147 133 286 133q86 0 150.5 -36t86.5 -86t26 -88t4 -153v-319q0 -104 11 -124t71 -20h53v-102h-494v102h17 q59 0 70.5 19.5t11.5 124.5v338q0 92 -30 130t-98 38t-165 -76v-430zM836 1325q45 0 45 -31q0 -16 -25 -34l-311 -238q-13 -10 -29 -10t-28.5 10t-12.5 23t14 38l148 242h199z" glyph-name="nacute" horiz-adv-x="1165" unicode="ń"/><glyph d="M1397 0h-240l-735 1094v-842q0 -94 28 -122t119 -28h45v-102h-542v102h43q94 0 120.5 28t26.5 122v862q0 94 -24 119q-35 31 -123 31h-43v102h506l659 -977v725q0 94 -28 122t-122 28h-51v102h547v-102h-39q-94 0 -120.5 -28t-26.5 -122v-1114zM860 -379q0 12 -4 21 q-87 -30 -131.5 14.5t-44.5 97.5t38 89t102 36t109.5 -52t45.5 -134q0 -195 -242 -275l-20 43q147 51 147 160z" glyph-name="Ncommaaccent" horiz-adv-x="1644" unicode="Ņ"/><glyph d="M455 246q0 -104 11 -124t71 -20h20v-102h-504v102h58q59 0 70.5 19.5t11.5 124.5v399q-2 59 -4.5 72t-20.5 35t-86 22h-29v103q258 20 371 51q25 -41 31 -133q147 133 286 133q86 0 150.5 -36t86.5 -86t26 -88t4 -153v-319q0 -104 11 -124t71 -20h53v-102h-494v102h17 q59 0 70.5 19.5t11.5 124.5v338q0 92 -30 130t-98 38t-165 -76v-430zM618 -367q0 10 -2 21q-28 -10 -64 -10t-68.5 33.5t-32.5 82.5t35.5 82t95.5 33t102.5 -49t42.5 -125q0 -184 -227 -258l-19 39q137 53 137 151z" glyph-name="ncommaaccent" horiz-adv-x="1165" unicode="ņ"/><glyph d="M1397 0h-240l-735 1094v-842q0 -94 28 -122t119 -28h45v-102h-542v102h43q94 0 120.5 28t26.5 122v862q0 94 -24 119q-35 31 -123 31h-43v102h506l659 -977v725q0 94 -28 122t-122 28h-51v102h547v-102h-39q-94 0 -120.5 -28t-26.5 -122v-1114zM514 1767.5q0 20.5 16 35 t40 14.5t55 -21l198 -135l201 139q57 31 81.5 9.5t24.5 -43.5t-45 -64l-264 -252l-270 262q-37 35 -37 55.5z" glyph-name="Ncaron" horiz-adv-x="1644" unicode="Ň"/><glyph d="M455 246q0 -104 11 -124t71 -20h20v-102h-504v102h58q59 0 70.5 19.5t11.5 124.5v399q-2 59 -4.5 72t-20.5 35t-86 22h-29v103q258 20 371 51q25 -41 31 -133q147 133 286 133q86 0 150.5 -36t86.5 -86t26 -88t4 -153v-319q0 -104 11 -124t71 -20h53v-102h-494v102h17 q59 0 70.5 19.5t11.5 124.5v338q0 92 -30 130t-98 38t-165 -76v-430zM291 1306q0 20 15.5 34t35.5 14t53 -19l189 -131l192 133q49 34 75 12.5t26 -43.5t-41 -61l-252 -239l-258 247q-35 33 -35 53z" glyph-name="ncaron" horiz-adv-x="1165" unicode="ň"/><glyph d="M238 1024q0 18 -9 49q-23 -8 -45 -8q-78 0 -131 50t-53 124t52 126t135 52t147.5 -88t64.5 -223t-75.5 -236.5t-212.5 -146.5l-31 70q74 39 116 101t42 130zM854 246q0 -104 11.5 -124t70.5 -20h20v-102h-503v102h57q59 0 70.5 19.5t11.5 124.5v399q-2 59 -4 72t-20 35 t-87 22h-28v103q258 20 370 51q25 -41 31 -133q80 72 145.5 102.5t147.5 30.5t162.5 -45t90 -124t9.5 -194v-319q0 -104 11.5 -124t70.5 -20h53v-102h-495v102h16q61 0 72.5 19.5t11.5 124.5v338q0 92 -27 127q-38 41 -104 41t-164 -76v-430z" glyph-name="napostrophe" horiz-adv-x="1564" unicode="ŉ"/><glyph d="M557 252q0 -94 26.5 -122t121.5 -28h45v-102h-680v102h45q90 0 119 28t28 122v860q-2 66 -4 80t-22 39t-93 24h-73v103q305 20 454 57q27 -49 33 -147q127 80 228.5 113.5t231.5 33.5t263.5 -58t148.5 -171t15 -244v-985q0 -188 -90 -311q-68 -96 -189 -154.5t-259 -58.5 t-233 64.5t-95 160.5q0 55 39 91t95 36t90 -29.5t34 -63.5t-17 -61q-8 -20 -8 -26q0 -20 29.5 -34.5t81.5 -14.5t103.5 33t87.5 103t36 249v995q0 156 -59 213q-74 70 -200 70t-333 -84v-883z" glyph-name="Eng" horiz-adv-x="1677" unicode="Ŋ"/><glyph d="M455 246q0 -104 11 -124t71 -20h20v-102h-504v102h58q59 0 70.5 19.5t11.5 124.5v399q-2 59 -4.5 72t-20.5 35t-86 22h-29v103q258 20 371 51q25 -41 31 -133q147 133 286 133q86 0 150.5 -36t86.5 -88t26 -87t4 -152v-694q0 -201 -109 -293q-100 -88 -262 -88 q-106 0 -168.5 44t-62.5 108t30.5 94.5t78.5 30.5t83 -31q16 -16 33 -82q8 -39 45 -39q72 0 72 117v852q0 92 -29 130t-97 38t-167 -76v-430z" glyph-name="eng" horiz-adv-x="1140" unicode="ŋ"/><glyph d="M832 1417q328 0 536.5 -204.5t208.5 -522.5t-213 -529.5t-539 -211.5t-537.5 204.5t-211.5 516.5t200 518q228 229 556 229zM397 691q0 -296 110.5 -455.5t320.5 -159.5t313 143q51 72 82.5 203.5t31.5 277.5t-35.5 274t-89.5 192q-108 128 -309 128t-312.5 -153.5 t-111.5 -449.5zM494 1677h663v-137h-663v137z" glyph-name="Omacron" horiz-adv-x="1650" unicode="Ō"/><glyph d="M546 928q218 0 351 -128t133 -337t-119 -340q-66 -74 -166 -116t-200 -42t-292 84t-192 412q0 211 133.5 339t351.5 128zM547 801q-201 0 -201 -344q0 -190 48 -278.5t152 -88.5t153 88t49 277q0 346 -201 346zM246 1235h598v-131h-598v131z" glyph-name="omacron" horiz-adv-x="1091" unicode="ō"/><glyph d="M832 1417q328 0 536.5 -204.5t208.5 -522.5t-213 -529.5t-539 -211.5t-537.5 204.5t-211.5 516.5t200 518q228 229 556 229zM397 691q0 -296 110.5 -455.5t320.5 -159.5t313 143q51 72 82.5 203.5t31.5 277.5t-35.5 274t-89.5 192q-108 128 -309 128t-312.5 -153.5 t-111.5 -449.5zM881 1784q47 0 47 -33q0 -16 -27 -37l-323 -246q-18 -12 -32 -12t-28 11.5t-14 23.5t14 41l156 252h207zM1272 1784q45 0 45 -33q0 -16 -25 -37l-325 -246q-15 -12 -31 -12t-28.5 11.5t-12.5 25.5t14 39l154 252h209z" glyph-name="Ohungarumlaut" horiz-adv-x="1650" unicode="Ő"/><glyph d="M546 928q218 0 351 -128t133 -337t-119 -340q-66 -74 -166 -116t-200 -42t-292 84t-192 412q0 211 133.5 339t351.5 128zM547 801q-201 0 -201 -344q0 -190 48 -278.5t152 -88.5t153 88t49 277q0 346 -201 346zM598 1329q45 0 45 -31q0 -14 -25 -34l-309 -236 q-16 -10 -30.5 -10t-26.5 10t-12 24t14 38l147 239h197zM969 1329q45 0 45 -31q0 -14 -25 -34l-309 -236q-14 -10 -30 -10t-28 10t-12 24t15 38l147 239h197z" glyph-name="ohungarumlaut" horiz-adv-x="1091" unicode="ő"/><glyph d="M1423 1264h-145v-521h68q102 0 147 44t51 151h103v-506h-103v17q0 106 -44 148t-154 42h-68v-385q0 -100 27.5 -126t130.5 -26h141q141 0 209.5 71t114.5 259h102l-29 -432h-882q-154 -27 -271 -27q-344 0 -545.5 186.5t-201.5 507.5t212 520t552 199q90 0 211 -20h821 l31 -354h-109q-23 90 -44.5 136t-57.5 76t-74.5 35t-192.5 5zM983 317v928q-78 29 -152 29q-213 0 -324.5 -163t-111.5 -449t111 -431q115 -143 299 -143q102 0 140 48t38 181z" glyph-name="OE" horiz-adv-x="2070" unicode="Œ"/><glyph d="M995 449q0 -158 60.5 -244t173.5 -86q145 0 248 141l114 -63q-143 -231 -417 -232q-178 0 -314 135q-152 -135 -346 -135t-323.5 135.5t-129.5 343.5t134.5 346t324.5 138t340 -117q158 117 326 117t287.5 -119t119.5 -301q0 -32 -2 -59h-596zM533 807q-91 0 -141 -89 t-50 -253q0 -362 190 -363q100 0 145.5 81t45.5 258t-49.5 271.5t-140.5 94.5zM1327 596q0 102 -40 158.5t-116 56.5q-164 0 -178 -262h332q2 18 2 47z" glyph-name="oe" horiz-adv-x="1654" unicode="œ"/><glyph d="M66 1366h811q166 0 261 -91t95 -251q0 -201 -160 -307q-74 -51 -239 -62q156 -23 225 -82t189 -241t153 -210t94 -28h14v-94h-368q-70 68 -100.5 110t-137.5 218t-166 234.5t-137 58.5q-23 0 -43 -3v-368q0 -92 29 -120t119 -28h43v-102h-682v102h49q94 0 120.5 27 t26.5 121v864q0 94 -26.5 122t-120.5 28h-49v102zM557 727h111q139 0 204.5 66.5t65.5 220.5t-98 217q-51 33 -154 33h-129v-537zM940 1792q47 0 47 -33q0 -16 -26 -37l-326 -247q-35 -26 -54.5 -8t-19.5 32t14 39l156 254h209z" glyph-name="Racute" horiz-adv-x="1458" unicode="Ŕ"/><glyph d="M602 102v-102h-547v102h54q59 0 70 19.5t11 124.5v409q0 80 -19 99.5t-97 19.5h-19v103q102 2 318 45q6 0 41 6q39 -59 39 -152q0 -8 -2 -16q125 160 254 160q63 0 102 -42t39 -106t-34 -104.5t-76 -40.5t-60.5 12t-34.5 49q-20 39 -51 39t-49.5 -12.5t-46.5 -38.5 t-43 -39v-391q4 -111 14 -127t70 -17h67zM686 1325q45 0 45 -31q0 -16 -24 -34l-312 -238q-16 -10 -30.5 -10t-26.5 10t-12 23t12 38l149 242h199z" glyph-name="racute" horiz-adv-x="866" unicode="ŕ"/><glyph d="M66 1366h811q166 0 261 -91t95 -251q0 -201 -160 -307q-74 -51 -239 -62q156 -23 225 -82t189 -241t153 -210t94 -28h14v-94h-368q-70 68 -100.5 110t-137.5 218t-166 234.5t-137 58.5q-23 0 -43 -3v-368q0 -92 29 -120t119 -28h43v-102h-682v102h49q94 0 120.5 27 t26.5 121v864q0 94 -26.5 122t-120.5 28h-49v102zM557 727h111q139 0 204.5 66.5t65.5 220.5t-98 217q-51 33 -154 33h-129v-537zM768 -379q0 12 -4 21q-85 -29 -130.5 15t-45.5 97t38 89t102 36t109.5 -52t45.5 -134q0 -195 -244 -275l-18 43q147 51 147 160z" glyph-name="Rcommaaccent" horiz-adv-x="1458" unicode="Ŗ"/><glyph d="M602 102v-102h-547v102h54q59 0 70 19.5t11 124.5v409q0 80 -19 99.5t-97 19.5h-19v103q102 2 318 45q6 0 41 6q39 -59 39 -152q0 -8 -2 -16q125 160 254 160q63 0 102 -42t39 -106t-34 -104.5t-76 -40.5t-60.5 12t-34.5 49q-20 39 -51 39t-49.5 -12.5t-46.5 -38.5 t-43 -39v-391q4 -111 14 -127t70 -17h67zM360 -367q0 10 -4 21q-30 -10 -64 -10t-68 33.5t-34 82.5t36 82t96 33t103.5 -49t43.5 -125q0 -184 -229 -258l-19 39q139 51 139 151z" glyph-name="rcommaaccent" horiz-adv-x="866" unicode="ŗ"/><glyph d="M66 1366h811q166 0 261 -91t95 -251q0 -201 -160 -307q-74 -51 -239 -62q156 -23 225 -82t189 -241t153 -210t94 -28h14v-94h-368q-70 68 -100.5 110t-137.5 218t-166 234.5t-137 58.5q-23 0 -43 -3v-368q0 -92 29 -120t119 -28h43v-102h-682v102h49q94 0 120.5 27 t26.5 121v864q0 94 -26.5 122t-120.5 28h-49v102zM557 727h111q139 0 204.5 66.5t65.5 220.5t-98 217q-51 33 -154 33h-129v-537zM424 1817q27 0 53 -21l199 -135l201 139q57 31 81.5 9.5t24.5 -45.5t-45 -62l-264 -252l-271 262q-58 55 -32 80t53 25z" glyph-name="Rcaron" horiz-adv-x="1458" unicode="Ř"/><glyph d="M602 102v-102h-547v102h54q59 0 70 19.5t11 124.5v409q0 80 -19 99.5t-97 19.5h-19v103q102 2 318 45q6 0 41 6q39 -59 39 -152q0 -8 -2 -16q125 160 254 160q63 0 102 -42t39 -106t-34 -104.5t-76 -40.5t-60.5 12t-34.5 49q-20 39 -51 39t-49.5 -12.5t-46.5 -38.5 t-43 -39v-391q4 -111 14 -127t70 -17h67zM139 1308q0 20 15.5 33t37.5 13t54 -19l188 -131l193 133q21 17 45 17t39.5 -13t15.5 -35t-41 -61l-252 -239l-260 247q-35 35 -35 55z" glyph-name="rcaron" horiz-adv-x="866" unicode="ř"/><glyph d="M1012 1386v-397h-86q-27 92 -46.5 131t-54.5 72q-100 96 -258 96q-92 0 -148.5 -44t-56.5 -115.5t68 -131t237 -138.5t240 -132q172 -125 172 -328t-133 -326.5t-342 -123.5q-109 0 -182.5 28.5t-185.5 116.5l-39 -100h-99l19 455h80q35 -135 88 -203q125 -158 307 -158 q109 0 178.5 61t69.5 167t-140 188q-57 34 -228 114t-249 152q-100 100 -100 265t121 273.5t312 108.5t335 -110l35 79h86zM848 1792q49 0 49 -33q0 -16 -27 -37l-327 -247q-14 -12 -31 -13q-16 0 -28.5 11.5t-12.5 25.5t14 39l156 254h207z" glyph-name="Sacute" horiz-adv-x="1169" unicode="Ś"/><glyph d="M305 714q0 -38 28.5 -59.5t158.5 -88.5t176 -111q80 -84 80 -206t-89.5 -203t-225.5 -81t-232 88v-53h-113l6 319h107q14 -98 67.5 -154t118.5 -56t97 28.5t32 72.5t-24.5 67.5t-129.5 76.5q-129 70 -167 101q-97 80 -97 204t79 196.5t203 72.5t214 -66l12 37h96l9 -305 h-99q-30 205 -190 207q-51 0 -84 -24.5t-33 -62.5zM662 1325q45 0 45 -31q0 -16 -25 -34l-311 -238q-13 -10 -29 -10t-28.5 10t-12.5 21t14 40l150 242h197z" glyph-name="sacute" horiz-adv-x="819" unicode="ś"/><glyph d="M1012 1386v-397h-86q-27 92 -46.5 131t-54.5 72q-100 96 -258 96q-92 0 -148.5 -44t-56.5 -115.5t68 -131t237 -138.5t240 -132q172 -125 172 -328t-133 -326.5t-342 -123.5q-109 0 -182.5 28.5t-185.5 116.5l-39 -100h-99l19 455h80q35 -135 88 -203q125 -158 307 -158 q109 0 178.5 61t69.5 167t-140 188q-57 34 -228 114t-249 152q-100 100 -100 265t121 273.5t312 108.5t335 -110l35 79h86zM891 1512q0 -22 -15.5 -37t-36.5 -15t-48 17l-205 147l-205 -145q-56 -35 -80.5 -11.5t-24.5 42.5t31 51l277 264l268 -254q39 -37 39 -59z" glyph-name="Scircumflex" horiz-adv-x="1169" unicode="Ŝ"/><glyph d="M305 714q0 -38 28.5 -59.5t158.5 -88.5t176 -111q80 -84 80 -206t-89.5 -203t-225.5 -81t-232 88v-53h-113l6 319h107q14 -98 67.5 -154t118.5 -56t97 28.5t32 72.5t-24.5 67.5t-129.5 76.5q-129 70 -167 101q-97 80 -97 204t79 196.5t203 72.5t214 -66l12 37h96l9 -305 h-99q-30 205 -190 207q-51 0 -84 -24.5t-33 -62.5zM651.5 1014q-20.5 0 -43.5 16l-196 133l-195 -131q-27 -18 -49 -18t-36.5 14t-14.5 34t30 48l263 252l256 -244q63 -53 34.5 -78.5t-49 -25.5z" glyph-name="scircumflex" horiz-adv-x="819" unicode="ŝ"/><glyph d="M803 -279q0 -82 -65.5 -135t-165.5 -53t-199 53l33 64q88 -27 133 -27t79.5 29.5t34.5 69.5t-33.5 64t-111.5 36l41 129q-90 10 -154.5 38.5t-158.5 104.5l-39 -100h-99l19 455h80q35 -135 88 -203q125 -158 307 -158q109 0 178.5 61t69.5 167t-140 188q-57 34 -228 114 t-249 152q-100 100 -100 265t121 273.5t312 108.5t335 -110l35 79h86v-397h-86q-27 92 -46.5 131t-54.5 72q-100 96 -258 96q-92 0 -148.5 -44t-56.5 -117t67 -131t231 -134t247 -135q172 -123 172 -336q0 -127 -91.5 -278t-358.5 -164l-23 -70q61 -10 100 -22t68 -50 t29 -86z" glyph-name="Scedilla" horiz-adv-x="1169" unicode="Ş"/><glyph d="M616 -272q0 -72 -62 -122t-154 -50t-191 49l31 61q82 -24 126 -24t76.5 26.5t32.5 65.5t-31.5 61.5t-107.5 34.5l43 139q-109 14 -178 84v-53h-113l6 319h107q14 -98 67.5 -154t118.5 -56t97 28.5t32 72.5t-24.5 67.5t-129.5 76.5q-129 70 -167 101q-97 80 -97 204 t79 196.5t203 72.5t214 -66l12 37h96l9 -305h-99q-30 205 -190 207q-51 0 -84 -24.5t-33 -62.5t28.5 -59.5t158.5 -88.5t176 -111q80 -84 80 -204t-81 -199t-212 -87l-25 -82q98 -12 142 -47.5t44 -107.5z" glyph-name="scedilla" horiz-adv-x="819" unicode="ş"/><glyph d="M1012 1386v-397h-86q-27 92 -46.5 131t-54.5 72q-100 96 -258 96q-92 0 -148.5 -44t-56.5 -115.5t68 -131t237 -138.5t240 -132q172 -125 172 -328t-133 -326.5t-342 -123.5q-109 0 -182.5 28.5t-185.5 116.5l-39 -100h-99l19 455h80q35 -135 88 -203q125 -158 307 -158 q109 0 178.5 61t69.5 167t-140 188q-57 34 -228 114t-249 152q-100 100 -100 265t121 273.5t312 108.5t335 -110l35 79h86zM276 1767.5q0 20.5 15.5 35t41.5 14.5t52 -21l199 -135l202 139q53 34 79 11t26 -47t-43 -62l-264 -252l-271 262q-37 35 -37 55.5z" glyph-name="Scaron" horiz-adv-x="1169" unicode="Š"/><glyph d="M305 714q0 -38 28.5 -59.5t158.5 -88.5t176 -111q80 -84 80 -206t-89.5 -203t-225.5 -81t-232 88v-53h-113l6 319h107q14 -98 67.5 -154t118.5 -56t97 28.5t32 72.5t-24.5 67.5t-129.5 76.5q-129 70 -167 101q-97 80 -97 204t79 196.5t203 72.5t214 -66l12 37h96l9 -305 h-99q-30 205 -190 207q-51 0 -84 -24.5t-33 -62.5zM117 1308q0 20 15 33t38 13t51 -19l191 -131l190 133q23 17 47 17t38.5 -14t14.5 -36t-40 -59l-252 -239l-258 247q-35 35 -35 55z" glyph-name="scaron" horiz-adv-x="819" unicode="š"/><glyph d="M926 1264h-84v-1012q0 -96 27.5 -123t121.5 -27h45v-102h-690v102h53q94 0 121 28t27 122v1012h-78q-188 0 -258 -129q-45 -88 -53 -195h-103l27 426h1229l22 -426h-104q-8 156 -87 240t-216 84zM733 -379q0 12 -4 21q-87 -30 -132.5 14.5t-45.5 97.5t39.5 89t103.5 36 t109 -52t45 -134q0 -195 -244 -275l-18 43q147 51 147 160z" glyph-name="Tcommaaccent" horiz-adv-x="1386" unicode="Ţ"/><glyph d="M401 1194v-295h228v-119h-228v-559q0 -55 9 -74q16 -45 70 -45t112 97l113 -39q-100 -195 -299 -195q-82 0 -149 37t-88 83t-24.5 79t-3.5 194v422h-116v119q123 16 175 80.5t62 214.5h139zM381 -367q0 10 -2 21q-29 -10 -65 -10t-68.5 33.5t-32.5 82.5t35.5 82t95.5 33 t102.5 -49t42.5 -125q0 -184 -227 -258l-18 39q137 53 137 151z" glyph-name="tcommaaccent" horiz-adv-x="692" unicode="ţ"/><glyph d="M926 1264h-84v-1012q0 -96 27.5 -123t121.5 -27h45v-102h-690v102h53q94 0 121 28t27 122v1012h-78q-188 0 -258 -129q-45 -88 -53 -195h-103l27 426h1229l22 -426h-104q-8 156 -87 240t-216 84zM387 1767.5q0 20.5 15.5 35t41.5 14.5t52 -21l198 -135l203 139 q52 33 78 10.5t26 -44.5t-43 -64l-264 -252l-272 262q-35 35 -35 55.5z" glyph-name="Tcaron" horiz-adv-x="1386" unicode="Ť"/><glyph d="M401 1194v-295h228v-119h-228v-559q0 -55 9 -74q16 -45 70 -45t112 97l113 -39q-100 -195 -299 -195q-82 0 -149 37t-88 83t-24.5 79t-3.5 194v422h-116v119q123 16 175 80.5t62 214.5h139zM684 1192q0 10 -2 20q-28 -10 -64 -10t-69 34t-33 83t36 82t96 33t102.5 -49.5 t42.5 -124.5q-1 -185 -228 -259l-18 41q137 47 137 150z" glyph-name="tcaron" horiz-adv-x="792" unicode="ť"/><glyph d="M842 770h176v-111h-176v-407q0 -94 26.5 -122t120.5 -28h47v-102h-690v102h53q94 0 121 28t27 122v407h-191v111h191v494h-76q-190 0 -260 -129q-45 -88 -53 -195h-103l27 426h1229l22 -426h-104q-8 156 -87 240t-218 84h-82v-494z" glyph-name="Tbar" horiz-adv-x="1386" unicode="Ŧ"/><glyph d="M401 535v-314q0 -55 9 -74q16 -45 70 -45t112 97l113 -39q-98 -195 -299 -195q-82 0 -149 37t-88 83t-24.5 79t-3.5 196v175h-116v118h116v127h-116v119q123 16 175 80.5t62 214.5h139v-295h228v-119h-228v-127h228v-118h-228z" glyph-name="tbar" horiz-adv-x="692" unicode="ŧ"/><glyph d="M1100 117v-103q-207 -14 -359 -43q-23 41 -34 138q-135 -143 -287 -143t-230 128q-25 41 -30.5 84t-5.5 172v318q-2 59 -4.5 71.5t-14.5 28.5q-27 29 -92 29h-10v102h381v-508q0 -113 8 -147q23 -88 123 -88q74 0 162 73v439q-2 59 -4.5 71.5t-14.5 28.5q-27 29 -90 29 h-29v102h398v-653q2 -59 3.5 -72.5t21.5 -35.5t85 -21h23zM680 1071q-53 0 -140 35t-132 35t-103 -78l-76 47q47 84 109 134t120 50t149 -35t135 -35t92 64l65 -53q-102 -164 -219 -164z" glyph-name="utilde" horiz-adv-x="1132" unicode="ũ"/><glyph d="M1579 1366v-102h-18q-94 0 -121 -28t-27 -122v-637q0 -147 -37 -239.5t-125 -163.5q-152 -125 -415 -125q-588 0 -588 528v637q0 94 -28 122t-120 28h-18v102h651v-102h-43q-94 0 -120.5 -28t-26.5 -122v-637q0 -109 14 -164t53 -100q94 -111 280 -111t279 109 q47 55 65.5 131t18.5 219v553q1 94 -27 122t-120 28h-47v102h520zM543 1677h663v-137h-663v137z" glyph-name="Umacron" horiz-adv-x="1642" unicode="Ū"/><glyph d="M1100 117v-103q-207 -14 -359 -43q-23 41 -34 138q-135 -143 -287 -143t-230 128q-25 41 -30.5 84t-5.5 172v318q-2 59 -4.5 71.5t-14.5 28.5q-27 29 -92 29h-10v102h381v-508q0 -113 8 -147q23 -88 123 -88q74 0 162 73v439q-2 59 -4.5 71.5t-14.5 28.5q-27 29 -90 29 h-29v102h398v-653q2 -59 3.5 -72.5t21.5 -35.5t85 -21h23zM266 1235h598v-131h-598v131z" glyph-name="umacron" horiz-adv-x="1132" unicode="ū"/><glyph d="M1100 117v-103q-207 -14 -359 -43q-23 41 -34 138q-135 -143 -287 -143t-230 128q-25 41 -30.5 84t-5.5 172v318q-2 59 -4.5 71.5t-14.5 28.5q-27 29 -92 29h-10v102h381v-508q0 -113 8 -147q23 -88 123 -88q74 0 162 73v439q-2 59 -4.5 71.5t-14.5 28.5q-27 29 -90 29 h-29v102h398v-653q2 -59 3.5 -72.5t21.5 -35.5t85 -21h23zM560 1042q-140 0 -223 71t-89 196h102q35 -107 210 -107t214 107h109q-14 -125 -98.5 -196t-224.5 -71z" glyph-name="ubreve" horiz-adv-x="1132" unicode="ŭ"/><glyph d="M1579 1366v-102h-18q-94 0 -121 -28t-27 -122v-637q0 -147 -37 -239.5t-125 -163.5q-152 -125 -415 -125q-588 0 -588 528v637q0 94 -28 122t-120 28h-18v102h651v-102h-43q-94 0 -120.5 -28t-26.5 -122v-637q0 -109 14 -164t53 -100q94 -111 280 -111t279 109 q47 55 65.5 131t18.5 219v553q1 94 -27 122t-120 28h-47v102h520zM876 1892q91 0 153.5 -63.5t62.5 -153.5t-63.5 -153.5t-154 -63.5t-154 63.5t-63.5 153.5t64 153.5t155 63.5zM875 1782q-43 0 -75 -31t-32 -76t30.5 -75.5t76 -30.5t76 30.5t30.5 74.5t-31.5 76t-74.5 32z " glyph-name="Uring" horiz-adv-x="1642" unicode="Ů"/><glyph d="M1100 117v-103q-207 -14 -359 -43q-23 41 -34 138q-135 -143 -287 -143t-230 128q-25 41 -30.5 84t-5.5 172v318q-2 59 -4.5 71.5t-14.5 28.5q-27 29 -92 29h-10v102h381v-508q0 -113 8 -147q23 -88 123 -88q74 0 162 73v439q-2 59 -4.5 71.5t-14.5 28.5q-27 29 -90 29 h-29v102h398v-653q2 -59 3.5 -72.5t21.5 -35.5t85 -21h23zM565 1434q86 0 146.5 -61.5t60.5 -146.5t-60.5 -145.5t-146.5 -60.5t-146.5 60.5t-60.5 146.5t60.5 146.5t146.5 60.5zM566 1327q-42 0 -71.5 -29.5t-29.5 -70.5t29.5 -71t70.5 -30t71 30t30 71t-29 70.5t-71 29.5z " glyph-name="uring" horiz-adv-x="1132" unicode="ů"/><glyph d="M1579 1366v-102h-18q-94 0 -121 -28t-27 -122v-637q0 -147 -37 -239.5t-125 -163.5q-152 -125 -415 -125q-588 0 -588 528v637q0 94 -28 122t-120 28h-18v102h651v-102h-43q-94 0 -120.5 -28t-26.5 -122v-637q0 -109 14 -164t53 -100q94 -111 280 -111t279 109 q47 55 65.5 131t18.5 219v553q1 94 -27 122t-120 28h-47v102h520zM930 1784q47 0 47 -33q0 -16 -27 -37l-323 -246q-17 -12 -33 -12t-28.5 11.5t-12.5 23.5t14 41l156 252h207zM1319 1784q47 0 47 -33q0 -16 -25 -37l-325 -246q-18 -12 -32 -12t-27 11.5t-13 27.5t14 37 l154 252h207z" glyph-name="Uhungarumlaut" horiz-adv-x="1642" unicode="Ű"/><glyph d="M1100 117v-103q-207 -14 -359 -43q-23 41 -34 138q-135 -143 -287 -143t-230 128q-25 41 -30.5 84t-5.5 172v318q-2 59 -4.5 71.5t-14.5 28.5q-27 29 -92 29h-10v102h381v-508q0 -113 8 -147q23 -88 123 -88q74 0 162 73v439q-2 59 -4.5 71.5t-14.5 28.5q-27 29 -90 29 h-29v102h398v-653q2 -59 3.5 -72.5t21.5 -35.5t85 -21h23zM616 1329q45 0 46 -31q0 -16 -25 -34l-309 -236q-14 -10 -30 -10t-28 10t-12 24t14 38l148 239h196zM989 1329q45 0 45 -31q0 -14 -24 -34l-310 -236q-16 -10 -30.5 -10t-26.5 10t-12 22t12 40l150 239h196z" glyph-name="uhungarumlaut" horiz-adv-x="1132" unicode="ű"/><glyph d="M1058 -317q-76 0 -122.5 35.5t-46.5 88.5q0 78 96 154q-72 -12 -154 -12q-289 0 -436 133t-147 395v637q0 94 -28 122t-120 28h-18v102h651v-102h-43q-94 0 -120.5 -28t-26.5 -122v-637q0 -109 14 -164t53 -100q94 -111 280 -111t279 109q47 55 65.5 131t18.5 219v553 q-1 94 -29 122t-118 28h-47v102h520v-102h-18q-94 0 -121 -28t-27 -122v-637q0 -168 -50 -269.5t-171 -174.5q-70 -41 -96 -68q-49 -55 -49 -95t23.5 -60.5t58 -20.5t81.5 27v-82q-76 -51 -152 -51z" glyph-name="Uogonek" horiz-adv-x="1642" unicode="Ų"/><glyph d="M1007 -303q-76 0 -119.5 33.5t-43.5 85.5q0 100 135 188q-100 -8 -238 -33q-23 41 -34 138q-135 -143 -287 -143t-230 128q-25 41 -30.5 84t-5.5 172v318q-2 59 -4.5 71.5t-14.5 28.5q-27 29 -92 29h-10v102h381v-508q0 -113 8 -147q23 -88 123 -88q74 0 162 73v439 q-2 59 -4.5 71.5t-14.5 28.5q-27 29 -90 29h-29v102h398v-653q2 -59 3.5 -72.5t21.5 -35.5t85 -21h23v-103q-104 -72 -105 -147q0 -29 23.5 -49.5t55.5 -20.5t81 25v-80q-72 -45 -148 -45z" glyph-name="uogonek" horiz-adv-x="1132" unicode="ų"/><glyph d="M1950 1366v-102q-100 -6 -134 -47t-87 -218l-287 -999h-178l-297 920l-262 -920h-189l-354 1104q-33 102 -62.5 129t-113.5 31v102h618v-102l-14 -2l-45 -2q-55 -2 -74.5 -16.5t-19.5 -46.5t16 -85l213 -680l256 934h184l299 -934l189 662q24 84 24 114t-30.5 42 t-133.5 14v102h482zM1317 1512q0 -22 -15.5 -37t-39.5 -15t-45 17l-207 147l-205 -145q-53 -38 -79 -13t-26 44t33 51l277 264l268 -254q39 -37 39 -59z" glyph-name="Wcircumflex" horiz-adv-x="1937" unicode="Ŵ"/><glyph d="M1393 1366v-102q-111 -12 -161 -41t-93 -105l-310 -514v-352q0 -94 27 -122t119 -28h45v-102h-682v102h47q90 0 119 28t28 122v338l-342 528q-70 104 -97 124t-107 22v102h639v-102h-58q-72 -4 -71 -56q0 -27 51 -112l201 -334l213 356q39 63 38 88q0 33 -47 47 q-16 6 -104 11h-19v102h564zM1024 1512q0 -22 -15 -37t-39 -15t-46 17l-207 147l-205 -145q-53 -39 -78.5 -13.5t-25.5 44.5t32 51l277 264l268 -254q39 -37 39 -59z" glyph-name="Ycircumflex" horiz-adv-x="1380" unicode="Ŷ"/><glyph d="M-6 899h491v-102h-16q-53 0 -69.5 -6.5t-16.5 -25.5t12 -46l170 -377l176 389q11 23 11 38t-19.5 21.5t-87.5 6.5v102h352v-102q-57 -2 -81.5 -23.5t-59.5 -103.5l-442 -985q-53 -113 -108.5 -161t-130.5 -48t-121 39t-46 88t23 82q49 -18 96 -19q94 0 162 80 q37 43 100 186l41 91l-324 696q-37 76 -112 78v102zM817 1063q0 -22 -15.5 -35.5t-37.5 -13.5t-43 16l-197 133l-194 -131q-27 -18 -48 -18t-37 14t-16 32.5t31 49.5l262 252l258 -244q37 -33 37 -55z" glyph-name="ycircumflex" horiz-adv-x="989" unicode="ŷ"/><glyph d="M1393 1366v-102q-111 -12 -161 -41t-93 -105l-310 -514v-352q0 -94 27 -122t119 -28h45v-102h-682v102h47q90 0 119 28t28 122v338l-342 528q-70 104 -97 124t-107 22v102h639v-102h-58q-72 -4 -71 -56q0 -27 51 -112l201 -334l213 356q39 63 38 88q0 33 -47 47 q-16 6 -104 11h-19v102h564zM497 1769q60 0 103 -43t43 -103t-43 -103t-103 -43t-103.5 43t-43.5 103t43.5 103t103.5 43zM936 1769q61 0 103 -43t42 -103t-43 -103t-103 -43t-103.5 43t-43.5 103t43.5 103t104.5 43z" glyph-name="Ydieresis" horiz-adv-x="1380" unicode="Ÿ"/><glyph d="M1260 1366v-51l-820 -1213h299q207 0 262 45q86 66 152 297h107l-41 -444h-1180v43l829 1221h-305q-98 0 -186.5 -32.5t-165.5 -293.5h-102l43 428h1108zM971 1792q47 0 47 -33q0 -16 -27 -37l-327 -247q-34 -25 -53 -7.5t-19 31.5t14 39l156 254h209z" glyph-name="Zacute" horiz-adv-x="1353" unicode="Ź"/><glyph d="M37 0v76l518 721h-182q-76 0 -102.5 -14.5t-55.5 -69.5l-55 -111h-92l38 297h760v-78l-508 -719h197q88 0 120 30t60 95l45 103h86l-24 -330h-805zM721 1325q45 0 45 -31q0 -16 -25 -34l-311 -238q-14 -10 -30 -10t-28 10t-12 24t15 37l147 242h199z" glyph-name="zacute" horiz-adv-x="940" unicode="ź"/><glyph d="M1260 1366v-51l-820 -1213h299q207 0 262 45q86 66 152 297h107l-41 -444h-1180v43l829 1221h-305q-98 0 -186.5 -32.5t-165.5 -293.5h-102l43 428h1108zM704 1769q60 0 103 -43t43 -103t-43 -103t-103 -43t-103.5 43t-43.5 103t43.5 103t103.5 43z" glyph-name="Zdotaccent" horiz-adv-x="1353" unicode="Ż"/><glyph d="M37 0v76l518 721h-182q-76 0 -102.5 -14.5t-55.5 -69.5l-55 -111h-92l38 297h760v-78l-508 -719h197q88 0 120 30t60 95l45 103h86l-24 -330h-805zM469 1315q57 0 98 -41t41 -98.5t-40 -98.5t-98 -41t-99 41t-41 98.5t41 98.5t98 41z" glyph-name="zdotaccent" horiz-adv-x="940" unicode="ż"/><glyph d="M1260 1366v-51l-820 -1213h299q207 0 262 45q86 66 152 297h107l-41 -444h-1180v43l829 1221h-305q-98 0 -186.5 -32.5t-165.5 -293.5h-102l43 428h1108zM397 1767.5q0 20.5 15.5 35t41.5 14.5t52 -21l201 -135l200 139q50 35 77.5 11.5t27.5 -45.5t-43 -64l-264 -252 l-271 262q-37 35 -37 55.5z" glyph-name="Zcaron" horiz-adv-x="1353" unicode="Ž"/><glyph d="M37 0v76l518 721h-182q-76 0 -102.5 -14.5t-55.5 -69.5l-55 -111h-92l38 297h760v-78l-508 -719h197q88 0 120 30t60 95l45 103h86l-24 -330h-805zM176 1308q0 20 16 33t38 13t51 -19l188 -131l193 133q23 17 47 17t38.5 -13t14.5 -35t-41 -61l-252 -239l-258 247 q-35 35 -35 55z" glyph-name="zcaron" horiz-adv-x="940" unicode="ž"/><glyph d="M740 1331q-67 0 -97 -180l-33 -213h221l-16 -98h-211l-72 -455q-43 -262 -87 -390t-123 -218q-96 -100 -179 -115l-77 55q90 80 137 221.5t80 430.5l67 471h-151l16 98h150l12 76q25 135 67.5 215.5t128.5 144.5q85 64 191 64t176 -54.5t70 -136.5q0 -49 -33 -81.5 t-79 -32.5t-74.5 26.5t-28.5 67.5l12 63q0 16 -17.5 28.5t-49.5 12.5z" glyph-name="florin" unicode="ƒ"/><glyph d="M1425 102h45v-102h-661v102h92q33 0 53.5 15t20.5 37t-14 53l-99 248h-418l-94 -248q-12 -25 -12 -53t17.5 -40t62.5 -12h92v-102h-524v102q92 -2 137 28t80 116l456 1140h132l464 -1140q39 -92 69 -118t101 -26zM819 555l-166 428l-172 -428h338zM420 1767.5 q0 20.5 16 35t42 14.5t52 -21l199 -135l201 139q57 31 81.5 9.5t24.5 -45.5t-45 -62l-264 -252l-270 262q-37 35 -37 55.5z" glyph-name="uni01CD" horiz-adv-x="1458" unicode="Ǎ"/><glyph d="M801 -35q-158 0 -213 121q-143 -121 -295 -121q-102 0 -163.5 69.5t-61.5 182.5q0 158 127 236q33 20 67.5 31.5t146.5 37.5t179 51v115q0 125 -123 125q-80 0 -107 -55q-8 -20 -20 -86q-12 -78 -107 -78q-51 0 -85.5 28.5t-34.5 72.5t35.5 95.5t91.5 83.5q102 64 262 64 t266 -90q47 -41 63.5 -91t16.5 -163v-379q0 -49 12 -67.5t45 -18.5t48.5 25.5t19.5 91.5h96q-2 -131 -72.5 -206t-193.5 -75zM440 135q56 0 148 70v244l-144 -46q-117 -37 -116 -147q0 -53 28 -87t84 -34zM213 1308q0 20 15.5 33t37.5 13t51 -19l191 -131l190 133 q24 17 48 17t38.5 -13t14.5 -37t-41 -59l-252 -239l-258 247q-35 35 -35 55z" glyph-name="uni01CE" horiz-adv-x="1040" unicode="ǎ"/><glyph d="M304 -35q-56 0 -92 30t-36 75q0 6 4 69l51 664q4 61 19.5 83.5t53.5 22.5t53.5 -22.5t19.5 -83.5l51 -664l2 -61l2 -8q0 -45 -36 -75t-92 -30zM300 1419q75 0 126 -51t51 -125t-52 -126t-125 -52t-125 52t-52 127t51 125t126 50z" glyph-name="uni01D1" horiz-adv-x="602" unicode="Ǒ"/><glyph d="M1579 1366v-102h-18q-94 0 -121 -28t-27 -122v-637q0 -147 -37 -239.5t-125 -163.5q-152 -125 -415 -125q-588 0 -588 528v637q0 94 -28 122t-120 28h-18v102h651v-102h-43q-94 0 -120.5 -28t-26.5 -122v-637q0 -109 14 -164t53 -100q94 -111 280 -111t279 109 q47 55 65.5 131t18.5 219v553q1 94 -27 122t-120 28h-47v102h520zM567 1767.5q0 20.5 15.5 35t41.5 14.5t52 -21l201 -135l200 139q50 35 77.5 11.5t27.5 -45.5t-43 -64l-265 -252l-270 262q-37 35 -37 55.5z" glyph-name="uni01D3" horiz-adv-x="1642" unicode="Ǔ"/><glyph d="M1100 117v-103q-207 -14 -359 -43q-23 41 -34 138q-135 -143 -287 -143t-230 128q-25 41 -30.5 84t-5.5 172v318q-2 59 -4.5 71.5t-14.5 28.5q-27 29 -92 29h-10v102h381v-508q0 -113 8 -147q23 -88 123 -88q74 0 162 73v439q-2 59 -4.5 71.5t-14.5 28.5q-27 29 -90 29 h-29v102h398v-653q2 -59 3.5 -72.5t21.5 -35.5t85 -21h23zM272 1308q0 20 15.5 33t38.5 13t51 -19l188 -131l193 133q23 17 47 17t38.5 -13t14.5 -35t-41 -61l-252 -239l-258 247q-35 35 -35 55z" glyph-name="uni01D4" horiz-adv-x="1132" unicode="ǔ"/><glyph d="M1364 1366v-475h-104q-45 164 -91 229q-115 170 -325 170t-328.5 -169t-118.5 -442t113 -436t282 -163t308 106v164q0 94 -26.5 122t-121.5 28h-45v102h656v-102h-27q-90 0 -125 -31q-25 -27 -25 -119v-307q-138 0 -190 -15q-51 -15 -162 -47t-248 -32q-322 0 -516 190.5 t-194 514.5t209 543.5t526 219.5q227 0 422 -135l27 84h104zM520 1768q0 19 16 34t42 15t53 -21l198 -135l203 139q52 33 78.5 10.5t26.5 -44.5t-43 -64l-265 -252l-272 262q-37 37 -37 56z" glyph-name="Gcaron" horiz-adv-x="1601" unicode="Ǧ"/><glyph d="M907 596q0 -164 -125 -260q-55 -43 -111.5 -58.5t-170.5 -19.5t-147.5 -17.5t-33.5 -45.5q0 -41 70 -50q29 -4 239 -12t294 -75.5t84 -229.5t-135.5 -265.5t-361.5 -103.5t-360.5 82t-134.5 215q0 84 55.5 133.5t151.5 49.5q41 0 74 -13q-70 -70 -70 -156t76 -137 t210 -51t213 46t79 124t-68 109q-39 17 -216 35t-267 59q-111 55 -111 168q0 139 193 166q-113 33 -166 96q-74 90 -74 209q0 156 108.5 250t291.5 94t301 -98q76 88 176 88q68 0 115 -39t47 -86t-28 -75t-73 -28t-80 62q-20 43 -48 43t-54 -25q57 -78 57 -184zM504 829 q-154 0 -154 -227t151 -227t150 219q0 121 -35.5 178t-111.5 57zM221 1306q0 20 15.5 34t37.5 14t52 -19l188 -131l193 133q23 17 47 17t38.5 -13t14.5 -35t-41 -61l-252 -239l-258 247q-35 33 -35 53z" glyph-name="gcaron" horiz-adv-x="1081" unicode="ǧ"/><glyph d="M1364 1366v-475h-104q-45 164 -91 229q-115 170 -325 170t-328.5 -169t-118.5 -442t113 -436t282 -163t308 106v164q0 94 -26.5 122t-121.5 28h-45v102h656v-102h-27q-90 0 -125 -31q-25 -27 -25 -119v-307q-138 0 -190 -15q-51 -15 -162 -47t-248 -32q-322 0 -516 190.5 t-194 514.5t209 543.5t526 219.5q227 0 422 -135l27 84h104zM1067 1792q47 0 47 -33q0 -16 -27 -37l-325 -247q-35 -26 -54.5 -8t-19.5 30t14 41l156 254h209z" glyph-name="uni01F4" horiz-adv-x="1601" unicode="Ǵ"/><glyph d="M1012 1386v-397h-86q-27 92 -46.5 131t-54.5 72q-100 96 -258 96q-92 0 -148.5 -44t-56.5 -115.5t68 -131t237 -138.5t240 -132q172 -125 172 -328t-133 -326.5t-342 -123.5q-109 0 -182.5 28.5t-185.5 116.5l-39 -100h-99l19 455h80q35 -135 88 -203q125 -158 307 -158 q109 0 178.5 61t69.5 167t-140 188q-57 34 -228 114t-249 152q-100 100 -100 265t121 273.5t312 108.5t335 -110l35 79h86zM440 -246q0 53 39 89t103 36t109.5 -52t45.5 -134q1 -195 -243 -275l-19 43q147 51 148 160q0 12 -5 21q-87 -30 -132.5 14.5t-45.5 97.5z" glyph-name="Scommaaccent" horiz-adv-x="1169" unicode="Ș"/><glyph d="M305 714q0 -38 28.5 -59.5t158.5 -88.5t176 -111q80 -84 80 -206t-89.5 -203t-225.5 -81t-232 88v-53h-113l6 319h107q14 -98 67.5 -154t118.5 -56t97 28.5t32 72.5t-24.5 67.5t-129.5 76.5q-129 70 -167 101q-97 80 -97 204t79 196.5t203 72.5t214 -66l12 37h96l9 -305 h-99q-30 205 -190 207q-51 0 -84 -24.5t-33 -62.5zM444 -367q0 10 -2 21q-28 -10 -64 -10t-69 33.5t-33 82.5t36 82t96 33t102.5 -49t42.5 -125q0 -184 -227 -258l-19 39q137 53 137 151z" glyph-name="scommaaccent" horiz-adv-x="819" unicode="ș"/><glyph d="M926 1264h-84v-1012q0 -96 27.5 -123t121.5 -27h45v-102h-690v102h53q94 0 121 28t27 122v1012h-78q-188 0 -258 -129q-45 -88 -53 -195h-103l27 426h1229l22 -426h-104q-8 156 -87 240t-216 84zM733 -379q0 12 -4 21q-87 -30 -132.5 14.5t-45.5 97.5t39.5 89t103.5 36 t109 -52t45 -134q0 -195 -244 -275l-18 43q147 51 147 160z" glyph-name="uni021A" horiz-adv-x="1386" unicode="Ț"/><glyph d="M401 1194v-295h228v-119h-228v-559q0 -55 9 -74q16 -45 70 -45t112 97l113 -39q-100 -195 -299 -195q-82 0 -149 37t-88 83t-24.5 79t-3.5 194v422h-116v119q123 16 175 80.5t62 214.5h139zM381 -367q0 10 -2 21q-29 -10 -65 -10t-68.5 33.5t-32.5 82.5t35.5 82t95.5 33 t102.5 -49t42.5 -125q0 -184 -227 -258l-18 39q137 53 137 151z" glyph-name="uni021B" horiz-adv-x="692" unicode="ț"/><glyph d="M346 1024q0 18 -8 49q-23 -8 -45 -8q-78 0 -131 50t-53 124t52 126t135 52t147.5 -88t64.5 -223t-76 -236.5t-213 -146.5l-31 70q74 39 116 101t42 130z" glyph-name="afii57929" horiz-adv-x="604" unicode="ʼ"/><glyph d="M768 1064q0 -23 -15.5 -36.5t-36 -13.5t-42.5 16l-197 133l-194 -131q-29 -18 -51 -18t-36 14t-14 34t31 48l262 252l256 -244q37 -31 37 -54z" glyph-name="circumflex" horiz-adv-x="950" unicode="ˆ"/><glyph d="M182 1308q0 20 16 33t38 13t51 -19l190 -131l191 133q23 17 47 17t38.5 -13t14.5 -37t-41 -59l-252 -239l-258 247q-35 35 -35 55z" glyph-name="caron" horiz-adv-x="950" unicode="ˇ"/><glyph d="M213 1235h598v-131h-598v131z" glyph-name="uni02C9" unicode="ˉ"/><glyph d="M509 1042q-140 0 -223 71t-91 196h102q35 -107 210 -107t214 107h110q-14 -125 -98 -196t-224 -71z" glyph-name="breve" unicode="˘"/><glyph d="M512 1315q57 0 98 -41t41 -98.5t-41 -98.5t-98 -41t-98 41t-41 98.5t41 98.5t98 41z" glyph-name="dotaccent" unicode="˙"/><glyph d="M512 1434q86 0 146.5 -61.5t60.5 -146.5t-60.5 -145.5t-146.5 -60.5t-146.5 60.5t-60.5 146.5t60.5 146.5t146.5 60.5zM513 1327q-42 0 -71.5 -29.5t-29.5 -70.5t29.5 -71t70.5 -30t70.5 30t29.5 71t-28.5 70.5t-70.5 29.5z" glyph-name="ring" unicode="˚"/><glyph d="M744 -203q32 0 81 25v-80q-69 -45 -145 -45t-120 33.5t-44 85.5q0 92 127 184h98q-76 -70 -75 -133q0 -29 23 -49.5t55 -20.5z" glyph-name="ogonek" horiz-adv-x="1015" unicode="˛"/><glyph d="M627 1071q-53 0 -140 35t-123 35t-57.5 -16.5t-56.5 -61.5l-74 47q47 84 109.5 134t120.5 50t148 -35q91 -35 132 -35t94 64l66 -53q-102 -164 -219 -164z" glyph-name="tilde" unicode="˜"/><glyph d="M565 1329q45 0 45 -31q0 -14 -24 -34l-310 -236q-16 -10 -30.5 -10t-26.5 10t-12 24t14 38l148 239h196zM936 1329q45 0 45 -31q0 -16 -25 -34l-309 -236q-13 -10 -29 -10t-28 10t-12 22t14 40l147 239h197z" glyph-name="hungarumlaut" unicode="˝"/><glyph d="M286 647q73 0 125 -52t52 -127t-51.5 -125t-125.5 -50t-125.5 51t-51.5 125t52 126t125 52z" glyph-name="anoteleia" horiz-adv-x="573" unicode="·"/><glyph d="M61 414v143h461v-143h-461z" glyph-name="Wacute" horiz-adv-x="583" unicode="Ẃ"/><glyph d="M1950 1366v-102q-100 -6 -134 -47t-87 -218l-287 -999h-178l-297 920l-262 -920h-189l-354 1104q-33 102 -62.5 129t-113.5 31v102h618v-102l-14 -2l-45 -2q-55 -2 -74.5 -16.5t-19.5 -46.5t16 -85l213 -680l256 934h184l299 -934l189 662q24 84 24 114t-30.5 42 t-133.5 14v102h482zM790 1769q60 0 103 -43t43 -103t-43 -103t-103 -43t-103.5 43t-43.5 103t43.5 103t103.5 43zM1229 1769q61 0 103 -43t42 -103t-43 -103t-103 -43t-103.5 43t-43.5 103t43.5 103t104.5 43z" glyph-name="Wdieresis" horiz-adv-x="1937" unicode="Ẅ"/><glyph glyph-name="uni2007" unicode=" "/><glyph d="M0 414v143h461v-143h-461z" glyph-name="uni2011" horiz-adv-x="460" unicode="‑"/><glyph d="M66 414v143h817v-143h-817z" glyph-name="figuredash" horiz-adv-x="948" unicode="‒"/><glyph d="M66 414v143h817v-143h-817z" glyph-name="endash" horiz-adv-x="948" unicode="–"/><glyph d="M0 414v141h1391v-141h-1391z" glyph-name="emdash" horiz-adv-x="1390" unicode="—"/><glyph d="M0 414v141h1391v-141h-1391z" glyph-name="afii00208" horiz-adv-x="1390" unicode="―"/><glyph d="M258 1141q0 -20 8 -51q25 8 47 8q78 0 130.5 -51t52.5 -123t-52.5 -124t-135.5 -52t-147.5 88t-64.5 223t75 235.5t214 145.5l31 -68q-72 -41 -115 -103.5t-43 -127.5z" glyph-name="quoteleft" horiz-adv-x="604" unicode="‘"/><glyph d="M346 1024q0 18 -8 49q-23 -8 -45 -8q-78 0 -131 50t-53 124t52 126t135 52t147.5 -88t64.5 -223t-76 -236.5t-213 -146.5l-31 70q74 39 116 101t42 130z" glyph-name="quoteright" horiz-adv-x="604" unicode="’"/><glyph d="M346 -43q0 20 -8 51q-25 -8 -47 -8q-78 0 -130 50t-52 124t52 126t135 52t147.5 -88t64.5 -223t-76 -236.5t-213 -146.5l-31 70q72 41 115 102t43 127z" glyph-name="quotesinglbase" horiz-adv-x="604" unicode="‚"/><glyph d="M750 1145q0 -20 2 -60q23 12 55 13q74 0 125 -52t51 -126t-51 -125.5t-135 -51.5t-149.5 88.5t-65.5 234.5t98 257q68 76 197 117l26 -66q-72 -39 -112.5 -100.5t-40.5 -128.5zM262 1133q0 -25 4 -48q20 12 51 13q76 0 129.5 -51.5t53.5 -125t-51 -125t-137 -51.5 t-151 84t-65 220t76 240t215 151l29 -66q-82 -57 -118 -113.5t-36 -127.5z" glyph-name="quotedblleft" horiz-adv-x="1091" unicode="“"/><glyph d="M342 1014v61q-25 -12 -57 -12q-74 0 -125 51t-51 126t51 126t135 51t149.5 -88.5t65.5 -234.5t-98 -256q-68 -76 -195 -117l-29 65q70 39 112 100.5t42 127.5zM776 1063q-78 0 -130 51t-52 126t51 126t137 51t149.5 -85t63.5 -221t-75.5 -239.5t-214.5 -150.5l-27 65 q152 109 151 242q0 25 -2 47q-20 -12 -51 -12z" glyph-name="quotedblright" horiz-adv-x="1091" unicode="”"/><glyph d="M346 -45q0 2 -4 55q-47 -10 -68 -10q-66 0 -115.5 53t-49.5 125t51 123t135 51t149.5 -86t65.5 -234t-98 -259q-68 -76 -195 -119l-27 67q156 102 156 234zM831 -37q0 2 -4 47q-45 -10 -63 -10q-68 0 -119 53t-51 124t51 123t123 52q100 0 164.5 -85t64.5 -214 q1 -293 -290 -399l-29 67q88 66 120.5 118t32.5 124z" glyph-name="quotedblbase" horiz-adv-x="1093" unicode="„"/><glyph d="M506 -285v23l-4 151q-2 248 -7 319t-31 208t-85 243q86 74 127 238q-106 -14 -177 -48t-127 -34t-95 39t-39 94.5t38 89t86 33.5q48 -1 132 -31t182 -43q-18 96 -46 165q-28 70 -28 124t35 92.5t95 38.5t95 -39t35 -94t-41 -156q-16 -45 -33 -131q96 12 180 43t134 31 q49 0 87 -33.5t38 -89t-39 -94.5t-95 -39t-132 35q-63 33 -173 47q43 -166 127 -238q-114 -199 -120 -625q-2 -144 -4 -206l-3 -90v-23h-112z" glyph-name="dagger" horiz-adv-x="1126" unicode="†"/><glyph d="M432 -29q0 39 39 149t41 197q-100 -18 -178 -49q-78 -30 -132 -30t-94 33.5t-40 88.5t38 91t94 36t165 -41q82 -25 147 -30q-29 174 -129 299q98 119 129 301q-94 -14 -205 -60q-51 -18 -103 -18t-92 38t-40 92t42 89t99 35t142 -35t157 -41q-14 80 -46 158t-32 129 t36 91t93.5 40t93 -40t35.5 -89t-32 -131t-46 -158q76 8 161 42t141 34t97.5 -35t41.5 -89t-40 -92t-94 -38t-155 41q-70 25 -152 37q31 -182 129 -301q-100 -125 -129 -299q96 10 173 40t135 31q58 0 97.5 -35.5t39.5 -91.5t-39.5 -89t-95.5 -33t-138 33t-172 46 q2 -106 58 -245q20 -57 20 -103q0 -125 -129 -135q-131 8 -131 137z" glyph-name="daggerdbl" horiz-adv-x="1126" unicode="‡"/><glyph d="M682 930q102 0 174 -73t72 -174t-72 -173t-174 -72t-174 72t-72 174t72 174t174 72z" glyph-name="bullet" horiz-adv-x="1366" unicode="•"/><glyph d="M286 319q73 0 125 -52t52 -127t-51.5 -125t-125.5 -50t-125.5 51.5t-51.5 125t52 125.5t125 52zM859 319q73 0 125 -52t52 -127t-51 -125t-126 -50t-126 51.5t-51 125t52 125.5t125 52zM1435 319q73 0 125 -52t52 -127t-52 -125t-126 -50t-125.5 51.5t-51.5 125 t52.5 125.5t125.5 52z" glyph-name="ellipsis" horiz-adv-x="1722" unicode="…"/><glyph d="M272.5 1382q96.5 0 163 -103t66.5 -254t-67.5 -256t-164 -105t-164 104t-67.5 253.5t68.5 255t165 105.5zM270 727q90 0 90 297t-90 297t-90 -297t90 -297zM328 0l635 1366h108l-635 -1366h-108zM1112 702q96 0 162.5 -103t66.5 -254t-67.5 -256t-163.5 -105 t-163.5 104.5t-67.5 254t68.5 254.5t164.5 105zM1110 47q90 0 90 297t-90 297t-90 -297t90 -297zM1734 702q95 0 161.5 -103t66.5 -254t-67.5 -256t-164 -105t-163 104.5t-66.5 254t69 254.5t164 105zM1729 641q-87 0 -87 -297t90 -297t89 297q0 297 -92 297z" glyph-name="perthousand" horiz-adv-x="2000" unicode="‰"/><glyph d="M446 885q30 0 46 -14.5t16 -33.5t-12 -44l-148 -322l146 -313q12 -27 12 -49q0 -23 -18 -39.5t-44 -16.5t-49 31l-334 387l322 373q33 41 63 41z" glyph-name="guilsinglleft" horiz-adv-x="604" unicode="‹"/><glyph d="M158 55q-30 0 -46 14.5t-16 33.5t13 47l147 321l-145 311q-26 63 -2 84t51 21t49 -29l334 -387l-322 -375q-33 -41 -63 -41z" glyph-name="guilsinglright" horiz-adv-x="604" unicode="›"/><glyph d="M176 1313q0 45 36 74.5t92 29.5t92 -29.5t36 -74.5q0 -6 -4 -68l-51 -665q-4 -61 -19.5 -84t-53.5 -23t-53.5 23t-19.5 84l-51 665q0 42 -4 60v8zM300 319q73 0 125 -52t52 -127t-51 -125t-126 -50t-126 51.5t-51 125t52 125.5t125 52zM780 1322q0 36 36 65.5t91.5 29.5 t91 -29.5t35.5 -74.5q0 -6 -4 -68l-49 -665q-4 -59 -20.5 -83t-53.5 -24t-53 24t-20 83l-52 665q-2 41 -2 77zM902 319q73 0 125 -52t52 -127t-51 -125t-126 -50t-126 51.5t-51 125t52 125.5t125 52z" glyph-name="exclamdbl" horiz-adv-x="1206" unicode="‼"/><glyph d="M0 1548v117h1024v-117h-1024z" glyph-name="uni203E" unicode="‾"/><glyph d="M-281 0l637 1366h109l-637 -1366h-109z" glyph-name="fraction" horiz-adv-x="178" unicode="⁄"/><glyph d="M331 1391q116 0 195.5 -125t79.5 -305.5t-82 -307.5t-196.5 -127t-195.5 126t-81 305t82 306.5t198 127.5zM328 1317q-51 0 -79 -91t-28 -255q-1 -369 107 -369t108 363q0 168 -28.5 260t-79.5 92z" glyph-name="uni2070" horiz-adv-x="655" unicode="⁰"/><glyph d="M473 743v-47q0 -47 8 -63q10 -29 70 -29h12v-57h-334v57q6 2 32 2t44.5 20.5t18.5 69.5v47h-291l373 646h67v-570q20 4 23 4q47 0 63 45l4 9h64l-45 -134h-109zM324 819v311l-172 -311h172z" glyph-name="uni2074" horiz-adv-x="655" unicode="⁴"/><glyph d="M363 1083q77 0 139.5 -67.5t62.5 -181.5t-89.5 -211t-197.5 -97t-177.5 50.5t-69.5 119.5q0 33 22.5 55.5t52.5 22.5t48 -20.5t18 -53.5v-16q-2 -10 -2 -28t18.5 -34t42.5 -16q68 0 119 79t51 183q0 129 -92 129q-37 0 -55 -16t-45 -72q-8 -20 -38 -20t-30 26q0 4 4 35 l60 422q10 -2 20 -2l82 -12q37 -4 99 -4t90 8t57 37l49 -27q-82 -156 -240 -155q-31 0 -104 8l-27 -183q55 41 132 41z" glyph-name="uni2075" horiz-adv-x="655" unicode="⁵"/><glyph d="M354 1106q106 0 177 -79t71 -202t-81 -211t-201 -88t-194.5 101t-74.5 291t111.5 332.5t275.5 142.5q66 0 108 -26.5t42 -58.5t-20.5 -51.5t-51.5 -19.5q-30 0 -60 39t-61 39q-123 0 -168 -250q66 41 127 41zM332 1026q-55 0 -86 -54t-31 -155q0 -209 113 -209 q106 0 106 209t-102 209z" glyph-name="uni2076" horiz-adv-x="655" unicode="⁶"/><glyph d="M239.5 514q-32.5 0 -57 23.5t-22.5 58.5t51 121l283 516h-193q-78 0 -108.5 -22.5t-53.5 -96.5h-63l47 272h57q2 -14 6 -17t23 -3h416l-154 -395q-16 -43 -47 -119q-8 -28 -25.5 -73t-23.5 -61t-18.5 -44.5t-18.5 -45t-16 -44.5t-30 -49t-52.5 -21z" glyph-name="uni2077" horiz-adv-x="655" unicode="⁷"/><glyph d="M600 756q0 -100 -77 -165t-193 -65t-193.5 66.5t-77.5 163.5q0 143 166 202q-131 84 -131 205q0 92 72 155.5t174 63.5t168.5 -59t66.5 -145q0 -117 -129 -193q82 -55 118 -108.5t36 -120.5zM334 1315q-47 0 -76 -31t-29 -78t31 -85t113 -91q67 86 67 150t-29.5 99.5 t-76.5 35.5zM207 741q0 -59 37 -101t89 -42t85 35t33 89t-35 96t-123 89q-86 -80 -86 -166z" glyph-name="uni2078" horiz-adv-x="655" unicode="⁸"/><glyph d="M289 817q-100 0 -171 84t-71 205t76.5 200.5t198.5 79.5t198 -102t76 -292t-99.5 -328t-248.5 -138q-70 0 -120 35t-50 73q0 73 59 73q51 0 70 -58q14 -51 69 -51t98.5 72.5t55.5 197.5q-74 -51 -141 -51zM317 1311q-109 0 -108 -197q0 -102 29.5 -159.5t80.5 -57.5 q109 0 109 188q0 104 -30 165t-81 61z" glyph-name="uni2079" horiz-adv-x="655" unicode="⁹"/><glyph d="M331 844q116 0 195.5 -125t79.5 -305.5t-82 -307t-196.5 -126.5t-195.5 125t-81 305t82 307t198 127zM328 770q-51 0 -79 -91t-28 -255q-1 -369 107 -369t108 363q0 168 -28.5 260t-79.5 92z" glyph-name="uni2080" horiz-adv-x="655" unicode="₀"/><glyph d="M426 854v-651q0 -90 12 -109q25 -35 97 -35h14v-59h-410v59q8 2 17 2h30q49 4 64 48q10 23 10 94v487h-121v62q139 14 256 102h31z" glyph-name="uni2081" horiz-adv-x="655" unicode="₁"/><glyph d="M408 633q0 63 -28 100t-74 37t-77.5 -34t-31.5 -83q0 -86 86 -110q8 -2 8 -8q0 -18 -33.5 -38t-73.5 -20t-74 41t-34 105q0 96 71.5 160.5t179.5 64.5t178 -65t70 -167t-58 -193t-210 -233l-76 -67h193q53 0 79.5 24.5t47.5 90.5h65l-55 -238h-506l19 78q334 313 334 555 z" glyph-name="uni2082" horiz-adv-x="655" unicode="₂"/><glyph d="M406 618q0 147 -103 148q-35 0 -56.5 -19.5t-21.5 -53.5q-1 -34 17 -51t18 -21q0 -14 -20 -23.5t-54 -9.5t-60 25.5t-26 66.5q0 70 64 116t164 46t169.5 -59.5t69.5 -149.5q0 -129 -139 -182q76 -23 118 -79.5t42 -133.5q0 -113 -87 -185.5t-205 -72.5t-181.5 46 t-63.5 109t35 95t82 32t47 -14q0 -4 -12 -32q-13 -28 -13 -64t29 -63.5t81 -27.5t87 50.5t35 128.5t-23 123t-51 45t-57 -14t-43 -15q-14 0 -30.5 18.5t-16.5 42.5q0 43 53 43l72 -10q35 0 57.5 41t22.5 104z" glyph-name="uni2083" horiz-adv-x="655" unicode="₃"/><glyph d="M473 195v-45q0 -47 8 -64q10 -29 70 -29h12v-57h-334v57q6 2 33 2q62 0 62 91v45h-291l373 647h67v-572q20 4 23 4q47 0 63 48l4 8h64l-45 -135h-109zM324 270v314l-172 -314h172z" glyph-name="uni2084" horiz-adv-x="655" unicode="₄"/><glyph d="M363 537q77 0 139.5 -68.5t62.5 -182.5t-89.5 -210t-197.5 -96t-177.5 50t-69.5 120q0 33 22.5 55t52.5 22t48 -20.5t18 -52.5v-17q-2 -10 -2 -27t18.5 -34t42.5 -17q68 0 119 79t51 184q0 129 -92 129q-37 0 -55 -16.5t-45 -72.5q-8 -20 -38 -20t-30 27q0 4 4 34l60 422 q10 -2 20 -2l82 -12q37 -4 99 -4t90 8t57 37l49 -27q-82 -156 -240 -155q-31 0 -104 8l-27 -182q55 41 132 41z" glyph-name="uni2085" horiz-adv-x="655" unicode="₅"/><glyph d="M354 559q106 0 177 -79.5t71 -201.5t-81 -210t-201 -88t-194.5 100t-74.5 290t111.5 333t275.5 143q66 0 108 -25.5t42 -58.5t-20.5 -52.5t-51.5 -19.5q-30 0 -60 39t-61 39q-123 0 -168 -250q66 41 127 41zM332 479q-55 0 -86 -54t-31 -155q0 -209 113 -209 q106 0 106 209t-102 209z" glyph-name="uni2086" horiz-adv-x="655" unicode="₆"/><glyph d="M239.5 -20q-32.5 0 -56 22t-23.5 54t51 126l283 516h-193q-78 0 -108.5 -22.5t-53.5 -95.5h-63l47 272h57q2 -14 6 -17.5t23 -3.5h416l-154 -395q-16 -43 -47 -119q-8 -27 -25 -69.5t-23 -61.5q-7 -18 -19.5 -46.5t-18.5 -45t-16 -44.5t-30 -49t-52.5 -21z" glyph-name="uni2087" horiz-adv-x="655" unicode="₇"/><glyph d="M600 209q0 -100 -77 -164.5t-193 -64.5t-193.5 66.5t-77.5 162.5q0 143 166 203q-131 84 -131 204q0 92 72 156t174 64t168.5 -59.5t66.5 -145.5q0 -117 -129 -193q82 -55 118 -108.5t36 -120.5zM334 768q-47 0 -76 -30t-29 -78t31 -86t113 -91q67 85 67 149t-29.5 100 t-76.5 36zM207 195q0 -59 37 -101.5t89 -42.5t85 35t33 89t-35 96t-123 89q-86 -80 -86 -165z" glyph-name="uni2088" horiz-adv-x="655" unicode="₈"/><glyph d="M47 559q0 121 76.5 201t198.5 80t198 -102t76 -292t-99.5 -328t-248.5 -138q-70 0 -120 34.5t-50 72.5q0 73 59 73q51 0 70 -58q14 -51 69 -51t98.5 73t55.5 198q-74 -51 -141 -52q-100 0 -171 84t-71 205zM317 764q-109 0 -108 -197q0 -102 29.5 -159.5t80.5 -57.5 q109 0 109 189q0 104 -30 164.5t-81 60.5z" glyph-name="uni2089" horiz-adv-x="655" unicode="₉"/><glyph d="M709 1237h-220v-479h72q115 0 139 69q12 33 23 109h86v-477h-86q0 111 -39 155.5t-135 44.5h-60v-413q0 -92 24 -119t103 -27h39v-100h-587v100h41q80 0 103.5 27t23.5 119v846q0 92 -23 118.5t-104 26.5h-41v100h923l35 -346h-88q-36 131 -60 173t-60 57.5t-109 15.5z M1452 791q53 0 87 -39.5t34 -103.5t-28.5 -104t-66.5 -40t-52.5 12t-30.5 49t-42 37t-49.5 -17.5t-68.5 -70.5v-272q0 -100 10 -121t62 -21h57v-100h-469v100h45q49 0 64 21q6 12 8 121v305q0 66 -17.5 84t-83.5 18h-16v101q88 2 272 43l35 6q37 -55 33 -164q98 156 217 156 z" glyph-name="franc" horiz-adv-x="1593" unicode="₣"/><glyph d="M184 453v96h222v149h-222v97h226q31 374 169 486t261 112t198.5 -66.5t75.5 -158.5t-61.5 -151t-153.5 -59q-14 0 -51 5q82 76 82 194q0 66 -34 107t-96 41t-101.5 -56.5t-38.5 -140.5t8 -223v-90h225v-97h-231l-11 -149h242v-96h-254q-33 -166 -117 -269q90 -41 205 -41 t192.5 48.5t77.5 123.5v27l56 12q8 -39 8 -71q0 -147 -84 -242.5t-215 -95.5t-316 141q-94 -125 -239 -125q-86 0 -144.5 45t-58.5 110.5t61.5 112.5t135.5 47t176 -45q25 82 26 222h-219zM125 118q0 -32 25.5 -53.5t62.5 -21.5q88 1 137 107q-62 40 -114 40t-81.5 -20 t-29.5 -52z" glyph-name="lira" horiz-adv-x="1189" unicode="₤"/><glyph d="M557 625v-373q0 -94 26.5 -122t121.5 -28h47v-102h-686v102h49q94 0 120.5 28t26.5 122v862q0 94 -28 122t-119 28h-49v102h788q174 0 275.5 -90t101.5 -248q0 -213 -158 -328q-117 -80 -332 -79l-163 4h-21zM637 725q141 0 209 43q98 66 98 225q0 78 -31.5 144.5 t-83.5 95.5q-51 33 -182 33q-51 0 -90 -2v-537q37 -2 80 -2zM1300 719v-176h144v-84h-144v-322q0 -37 8 -50t36 -13t67 57l84 -27q-68 -124 -193 -124t-165 81q-10 20 -12.5 40t-2.5 118v240h-71v84q78 10 109.5 47t39.5 129h100zM1778 471q-66 0 -66 -45q0 -18 16.5 -29.5 t103.5 -53.5t122 -82.5t35 -110.5t-57.5 -120t-144.5 -50t-142 43v-23h-86l6 203h77q23 -125 119 -125q31 0 49.5 15.5t18.5 38t-15.5 35.5t-89.5 50t-94 53q-63 47 -63 123t51 121t131 45t133 -35l6 19h72l6 -193h-74q-18 121 -114 121z" glyph-name="peseta" horiz-adv-x="2043" unicode="₧"/><glyph d="M385 648q0 -26 2 -40h297l-49 -116h-242q18 -184 77.5 -283.5t154.5 -99.5q156 0 270 249v-213q-76 -90 -145.5 -126.5t-159.5 -36.5q-172 0 -293 138t-156 372h-147l47 116h92q-2 12 -2 34t2 42h-139l47 117h100q29 233 159 387.5t302 154.5q141 0 248 -118l22 88h74 q0 -166 17 -477h-91q-29 182 -94 284.5t-155.5 102.5t-154 -113.5t-77.5 -308.5h369l-47 -117h-326q-2 -10 -2 -36z" glyph-name="Euro" unicode="€"/><glyph d="M881 608h34v-73h-403v73h61q37 0 37 27q0 6 -8 27l-57 141h-236l-53 -141q-8 -27 -8 -31q0 -23 41 -23h61v-73h-323v73h14q47 0 70.5 17.5t44.5 64.5l270 676h86l276 -676q20 -53 37 -67.5t56 -14.5zM516 874l-88 228l-90 -228h178zM741 0l635 1366h109l-635 -1366h-109z M1841 831v-247h-61q-31 94 -60 121q-57 55 -147 55q-51 0 -83 -23.5t-32 -64.5t39 -74t157 -88q118 -56 172 -114t54 -166t-80 -184.5t-207 -76.5q-63 0 -105 16.5t-110 65.5l-20 -55h-70l12 283h58q29 -92 53 -123q72 -90 174 -90q61 0 100 33.5t39 84.5t-33.5 82 t-145.5 83t-154 85q-88 66 -88 174t73.5 175t186.5 67t198 -62l19 43h61z" glyph-name="uni2101" horiz-adv-x="1988" unicode="℁"/><glyph d="M257 788q48 0 82 -33.5t34 -81.5t-34 -82t-82 -34t-82 34t-34 82t34 81.5t82 33.5z" glyph-name="afii61248" horiz-adv-x="512" unicode="℅"/><glyph d="M309 698q0 -59 5 -68t40 -9h41v-74h-350v74h41q33 0 39 9t6 68v252q0 35 -15.5 44.5t-70.5 9.5v73q108 8 264 31v-410zM210 1341q40 0 68.5 -28.5t28.5 -68.5t-28.5 -68.5t-69.5 -28.5t-68.5 28.5t-27.5 69.5t28.5 68.5t68.5 27.5z" glyph-name="uni2117" horiz-adv-x="421" unicode="℗"/><glyph d="M514 1311h-45v-557q0 -53 15.5 -67.5t66.5 -14.5h24v-58h-378v58h28q53 0 67.5 14t14.5 68v557h-43q-158 0 -172 -178h-55l14 233h676l12 -233h-57q-6 86 -49 132t-119 46zM1032 754q0 -51 14.5 -66.5t65.5 -15.5h29v-58h-297v58h26q51 0 65.5 15t14.5 67v473 q0 51 -14 66.5t-66 15.5h-26v57h291l211 -532l210 532h283v-57h-27q-51 0 -64 -14.5t-13 -67.5v-473q0 -49 16 -65.5t66 -16.5h22v-58h-375v58h27q53 0 67.5 14t14.5 68v432l-227 -572h-86l-228 580v-440z" glyph-name="trademark" horiz-adv-x="1912" unicode="™"/><glyph d="M893 0v154q135 78 201 174q114 170 114 425t-107.5 405.5t-287.5 150.5q-143 0 -233 -84q-166 -154 -166 -452t143 -484q57 -70 172 -135v-154h-577l-76 307h43q29 -88 83 -118.5t185 -30.5l201 -15v17q-94 37 -146.5 67.5t-105.5 79.5q-195 184 -195 453q0 141 63.5 273 t176.5 220q166 135 430 136q338 0 520 -220q150 -174 150 -407q0 -152 -65.5 -283t-184.5 -219q-63 -47 -197 -100v-15l226 13q113 2 161.5 31.5t81.5 117.5h43l-78 -307h-575z" glyph-name="uni2126" horiz-adv-x="1619" unicode="Ω"/><glyph d="M426 1399v-649q0 -90 12 -109q25 -35 97 -35h14v-59h-410v59q8 2 17 2h30q49 4 64 47q10 23 10 95v485h-121v63q131 10 256 101h31zM375 0l637 1366h108l-637 -1366h-108zM1237 618q0 147 -100 148q-35 0 -56.5 -19.5t-21.5 -53.5t17 -51t18 -21q0 -14 -19.5 -23.5 t-53.5 -9.5t-60.5 25.5t-26.5 66.5q0 72 62.5 117t162.5 45t170 -59.5t70 -149.5q0 -129 -137 -182q76 -23 117.5 -79.5t41.5 -133.5q0 -113 -86.5 -185.5t-204.5 -72.5t-181.5 46t-63.5 109t34.5 95t80.5 32t47 -14q1 -4 -11 -28t-12 -65q0 -40 28.5 -67t80.5 -27t87 50.5 t35 128.5t-22.5 123t-50.5 45t-58 -14t-44 -15q-16 0 -32 18.5t-16 42.5q0 43 53 43l72 -10q35 0 57.5 41t22.5 104z" glyph-name="onethird" horiz-adv-x="1488" unicode="⅓"/><glyph d="M408 1180q0 63 -28 100t-74 37t-77.5 -34t-31.5 -83q0 -86 86 -110q8 -2 8 -9q0 -18 -33.5 -37.5t-73.5 -19.5t-74 41t-34 104q0 96 71.5 161t179.5 65t178 -65.5t70 -167.5t-58 -192.5t-210 -232.5l-76 -67h193q53 0 79.5 24.5t47.5 89.5h65l-55 -237h-506l19 78 q334 309 334 555zM375 0l637 1366h108l-635 -1366h-110zM1239 618q0 147 -102 148q-35 0 -56.5 -19.5t-21.5 -53.5t17 -51t18 -21q0 -14 -19.5 -23.5t-53.5 -9.5t-60.5 25.5t-26.5 66.5q0 70 63.5 116t163.5 46t170 -59.5t70 -149.5q0 -129 -139 -182q76 -23 117.5 -79.5 t41.5 -133.5q0 -113 -86.5 -185.5t-204.5 -72.5t-181.5 46t-63.5 109t34.5 95t82.5 32t47 -14q-1 -4 -13 -32t-12 -64t28.5 -63.5t80.5 -27.5t87 50.5t35 128.5t-22.5 123t-50.5 45t-58 -14t-44 -15q-13 0 -29.5 18.5t-16.5 42.5q0 43 53 43l72 -10q35 0 57.5 41t22.5 104z " glyph-name="twothirds" horiz-adv-x="1488" unicode="⅔"/><glyph d="M426 1399v-649q0 -90 12 -109q25 -35 97 -35h14v-59h-410v59q8 2 17 2h30q49 4 64 47q10 23 10 95v485h-121v63q131 10 256 101h31zM375 0l637 1366h108l-637 -1366h-108zM1434 209q0 -100 -77 -164.5t-193 -64.5t-193.5 66.5t-77.5 162.5q0 143 166 203 q-131 84 -131 204q0 92 72 156t174 64t168.5 -59.5t66.5 -145.5q0 -117 -129 -193q82 -55 118 -108.5t36 -120.5zM1274 634q0 62 -30 98t-77 36t-75.5 -30t-28.5 -78t30.5 -86t112.5 -91q68 89 68 151zM1040 195q0 -59 37 -101.5t89 -42.5t85 35t33 89t-35 96t-123 89 q-86 -80 -86 -165z" glyph-name="oneeighth" horiz-adv-x="1488" unicode="⅛"/><glyph d="M260 1165q0 -32 -74 -32q-34 0 -60 25.5t-26 66.5q0 70 64 115.5t164 45.5t169.5 -59t69.5 -149q0 -128 -139 -185q76 -20 118 -76.5t42 -134.5q0 -113 -87 -185.5t-205 -72.5t-181.5 46t-63.5 110t35 95.5t82 31.5t47 -14q0 -4 -12 -32q-13 -28 -13 -65t29 -63.5 t81 -26.5t87 51t35 129t-23 122t-51 44t-55 -12t-42 -12t-32.5 18.5t-17.5 40.5q0 41 53 41l72 -10q35 0 57.5 41t22.5 104q0 147 -103 148q-35 0 -56.5 -19.5t-21.5 -53.5q-1 -34 17 -51t18 -22zM375 0l637 1366h108l-635 -1366h-110zM1434 209q0 -100 -77 -164.5 t-193 -64.5t-193.5 66.5t-77.5 162.5q0 143 166 203q-131 84 -131 204q0 92 72 156t174 64t168.5 -59.5t66.5 -145.5q0 -117 -129 -193q82 -55 118 -108.5t36 -120.5zM1274 632q0 64 -30 100t-77 36t-75.5 -30t-28.5 -78t30.5 -86t114.5 -91q66 85 66 149zM1040 195 q0 -59 37 -101.5t89 -42.5t85 35t33 89t-35 96t-123 89q-86 -80 -86 -165z" glyph-name="threeeighths" horiz-adv-x="1488" unicode="⅜"/><glyph d="M363 1083q77 0 139.5 -67.5t62.5 -181.5t-89.5 -211t-197.5 -97t-177.5 50.5t-69.5 119.5q0 33 22.5 55.5t52.5 22.5t48 -20.5t18 -53.5v-16q-2 -10 -2 -28t18.5 -34t42.5 -16q68 0 119 79t51 183q0 129 -92 129q-37 0 -55 -16t-45 -72q-8 -20 -38 -20t-30 26q0 4 4 35 l60 422q10 -2 20 -2l82 -12q37 -4 99 -4t90 8t57 37l49 -27q-82 -156 -240 -155q-31 0 -104 8l-27 -183q55 41 132 41zM377 0l635 1366h108l-635 -1366h-108zM1436 209q0 -100 -77 -164.5t-193 -64.5t-193.5 66.5t-77.5 162.5q0 143 164 203q-131 84 -131 204q0 92 72 156 t174 64t168.5 -59.5t66.5 -145.5q0 -117 -129 -193q84 -55 120 -108.5t36 -120.5zM1274 632q0 64 -30 100t-77 36t-75.5 -30t-28.5 -78t30.5 -86t114.5 -91q66 85 66 149zM1042 195q0 -59 37 -101.5t89 -42.5t85 35t33 89t-35 96t-123 89q-86 -80 -86 -165z" glyph-name="fiveeighths" horiz-adv-x="1488" unicode="⅝"/><glyph d="M239.5 514q-32.5 0 -57 23.5t-22.5 58.5t51 121l283 516h-193q-78 0 -108.5 -22.5t-53.5 -96.5h-63l47 272h57q2 -14 6 -17t23 -3h416l-154 -395q-16 -43 -47 -119q-8 -28 -25.5 -73t-23.5 -61t-18.5 -44.5t-18.5 -45t-16 -44.5t-30 -49t-52.5 -21zM375 0l635 1366h110 l-637 -1366h-108zM1434 209q0 -100 -77 -164.5t-193 -64.5t-193.5 66.5t-77.5 162.5q0 143 166 203q-133 84 -133 204q0 92 72 156t174 64t168.5 -59.5t66.5 -145.5q0 -117 -127 -193q82 -55 118 -108.5t36 -120.5zM1272 632q0 64 -30 100t-77 36t-75.5 -30t-28.5 -78 t30.5 -86t114.5 -91q66 85 66 149zM1040 195q0 -59 37 -101.5t89 -42.5t85 35t33 89t-35 96t-123 89q-86 -80 -86 -165z" glyph-name="seveneighths" horiz-adv-x="1488" unicode="⅞"/><glyph d="M1036 458q0 -208 -136 -346t-332 -139q-196 0 -325.5 137.5t-129.5 348.5t128 348t326 137q66 0 100.5 -13t90.5 -57l16 -14q-63 182 -165.5 307.5t-266.5 225.5l20 37q203 -74 343 -207q143 -131 237 -344t94 -421zM575 866q-83 0 -133 -67q-31 -45 -54 -143.5 t-23 -193.5t23.5 -197.5t55.5 -145.5q53 -68 127 -68q96 0 154.5 115t58.5 305q0 102 -23 197.5t-63 146.5t-123 51z" glyph-name="partialdiff" horiz-adv-x="1148" unicode="∂"/><glyph d="M1130 711q0 -207 -145 -352.5t-352 -145.5q-88 0 -172 31l-109 -217l-100 51l108 217q-106 72 -164.5 181.5t-58.5 234.5q0 207 145.5 351t352.5 144q88 0 174 -30l109 217l98 -52l-109 -215q223 -154 223 -415zM633 328q160 0 271.5 111.5t111.5 271.5q0 194 -162 311 l-340 -676q68 -18 119 -18zM252 711q0 -193 162 -314l342 676q-57 18 -121 19q-160 0 -271.5 -112t-111.5 -269z" glyph-name="emptyset" horiz-adv-x="1265" unicode="∅"/><glyph d="M750 1391l626 -1391h-1388l624 1391h138zM231 212q0 -28 22.5 -39t82.5 -11h702l-413 960l-367 -821q-27 -61 -27 -89z" glyph-name="uni2206" horiz-adv-x="1366" unicode="∆"/><glyph d="M76 1366h1431v-59h-26q-113 0 -144.5 -38t-31.5 -169v-1307q1 -141 35 -177t141 -36h26v-57h-645v57h27q96 0 129 39t33 174v1329q0 117 -18.5 137.5t-123.5 20.5h-227q-113 0 -132.5 -22.5t-19.5 -151.5v-1313q0 -141 36 -177t126 -36h27v-57h-643v57h26q106 0 146 43 q29 35 28 170v1307q0 131 -31.5 169t-142.5 38h-26v59z" glyph-name="product" horiz-adv-x="1583" unicode="∏"/><glyph d="M1219 1366v-358h-43q-16 160 -88 224t-234 64h-416l389 -739l-505 -858h524q188 0 281.5 72.5t134.5 251.5h41l-68 -500h-1141l510 893l-510 950h1125z" glyph-name="summation" horiz-adv-x="1366" unicode="∑"/><glyph d="M33 614v117h958v-117h-958z" glyph-name="minus" unicode="−"/><glyph d="M1292 1686v-74h-227l-379 -1612h-260l-174 719h-256v74h471l158 -678l368 1571h299z" glyph-name="radical" horiz-adv-x="1067" unicode="√"/><glyph d="M395 326q-125 0 -213 100t-88 257t101.5 270.5t248.5 113.5q98 0 174 -55.5t164 -188.5q147 248 334 248q141 0 237.5 -108.5t96.5 -271.5t-108.5 -275.5t-266.5 -112.5q-106 0 -188 55.5t-182 192.5q-137 -225 -310 -225zM1184 481q86 0 142 59.5t56 152.5t-73 144.5 t-191 51.5t-184 -27.5t-117 -93.5q180 -287 367 -287zM162 684q0 -84 67 -132t161 -48t137 12t110 70q11 8 31 24q-170 268 -334 269q-76 0 -124 -55.5t-48 -139.5z" glyph-name="infinity" horiz-adv-x="1546" unicode="∞"/><glyph d="M631 1374v-1233q0 -150 -11.5 -212t-46.5 -117q-96 -154 -294 -154q-125 0 -205 62.5t-80 160.5q0 59 35 97t89 38t87 -31.5t33 -70.5t-18 -75t-19 -53q0 -17 21.5 -32.5t51.5 -15.5q119 0 119 250v1237q0 150 11.5 212t46.5 117q96 154 294 154q125 0 205 -62.5 t80 -160.5q0 -59 -35 -97t-89 -38t-87 31.5t-33 70.5t18 73t19 53q0 19 -21.5 34.5t-51.5 15.5q-119 0 -119 -254z" glyph-name="integral" unicode="∫"/><glyph d="M257 461q48 0 82 -34t34 -82t-34 -82t-82 -34t-82 34t-34 82t34 82t82 34zM257 1118q48 0 82 -33.5t34 -81.5t-34 -82t-82 -34t-82 33.5t-34 81.5t34 82t82 34z" glyph-name="uni2236" horiz-adv-x="512" unicode="∶"/><glyph d="M47 631q151 227 297 227q70 0 200 -40q132 -40 195 -40q97 0 185 92l53 -28q-51 -86 -132 -156t-183 -70q-54 0 -184 42t-188 40q-58 0 -90 -15t-79 -60l-21 -21z" glyph-name="similar" unicode="∼"/><glyph d="M57 795q147 223 289 223q70 0 198 -42q130 -42 185 -42q100 0 186 98l52 -26q-131 -221 -305 -222q-56 0 -182 42t-182 42t-88 -15.5t-101 -84.5zM57 455q145 223 289 223q70 0 200 -42q128 -42 185 -42q98 0 184 98l52 -26q-131 -221 -305 -222q-59 0 -180 42 q-120 42 -180 42t-91 -15t-82 -64l-20 -21z" glyph-name="approxequal" unicode="≈"/><glyph d="M33 770v117h567l170 241l82 -57l-129 -184h268v-117h-350l-135 -192h485v-117h-567l-170 -242l-82 57l129 185h-268v117h350l135 192h-485z" glyph-name="notequal" unicode="≠"/><glyph d="M80 141h854v-141h-854v141zM934 1292v-168l-598 -374l598 -373v-170l-862 543z" glyph-name="lessequal" unicode="≤"/><glyph d="M88 141h854v-141h-854v141zM88 207v170l598 373l-598 374v168l862 -540z" glyph-name="greaterequal" unicode="≥"/><glyph d="M286 647q73 0 125 -52t52 -127t-51.5 -125t-125.5 -50t-125.5 51t-51.5 125t52 126t125 52z" glyph-name="dotmath" horiz-adv-x="573" unicode="⋅"/><glyph d="M684 1419l530 -737l-530 -735l-532 735zM684 1237l-403 -555l403 -553l403 553z" glyph-name="lozenge" horiz-adv-x="1366" unicode="◊"/><glyph d="M59 776v105q307 25 396 47v-1057q0 -182 -97.5 -281.5t-273.5 -99.5q-106 0 -170 44t-64 108t31 94.5t79 30.5t83 -31q16 -16 33 -82q12 -39 47 -39q70 0 70 115v948q0 63 -25 80.5t-109 17.5z" glyph-name="uniF6BE" horiz-adv-x="585" unicode=""/><glyph d="M547 -367q0 10 -2 21q-29 -10 -65 -10t-68.5 33.5t-32.5 82.5t35.5 82t95.5 33t102.5 -49t42.5 -125q0 -184 -227 -258l-18 39q137 53 137 151z" glyph-name="uniF6C3" unicode=""/><glyph d="M778 1792q47 0 47 -33q0 -16 -26 -37l-326 -247q-35 -26 -54.5 -8t-19.5 32t15 39l155 254h209z" glyph-name="uniF6C9" unicode=""/><glyph d="M205 1767.5q0 20.5 15.5 35t41.5 14.5t53 -21l199 -135l201 139q57 31 81.5 9.5t24.5 -45.5t-45 -62l-264 -252l-270 262q-37 35 -37 55.5z" glyph-name="uniF6CA" unicode=""/><glyph d="M294 1769q60 0 103 -43t43 -103t-43 -103t-103 -43t-103.5 43t-43.5 103t43.5 103t103.5 43zM731 1769q61 0 103.5 -43t42.5 -103t-43.5 -103t-103.5 -43t-103 43t-43 103t43 103t104 43z" glyph-name="uniF6CB" unicode=""/><glyph d="M585.5 1462q-16.5 0 -32.5 13l-326 247q-27 20 -26 37q0 33 47 33h209l155 -254q14 -29 14 -42t-12 -23.5t-28.5 -10.5z" glyph-name="uniF6CE" unicode=""/><glyph d="M567 1784q47 0 47 -33q0 -16 -26 -37l-326 -246q-14 -12 -30.5 -12t-29 11.5t-12.5 25.5t15 39l155 252h207zM956 1784q47 0 48 -33q0 -16 -27 -37l-324 -246q-18 -12 -33 -12t-27.5 11.5t-12.5 23.5t14 41l156 252h206z" glyph-name="uniF6CF" unicode=""/><glyph d="M180 1677h664v-137h-664v137z" glyph-name="uniF6D0" unicode=""/><glyph d="M179 545q-32 0 -64.5 32.5t-32.5 77.5t32 79t86 34t95 -54.5t41 -135.5q0 -183 -184 -240l-23 51q96 53 96 133l-4 25q-10 -2 -42 -2z" glyph-name="uniF6E2" horiz-adv-x="417" unicode=""/><glyph d="M191 739q46 0 78 -31.5t32 -78.5t-31.5 -78t-77.5 -31t-78 32t-32 77t31.5 77.5t77.5 32.5z" glyph-name="uniF6E8" horiz-adv-x="385" unicode=""/><glyph d="M1522 674q0 -186 -73 -339t-208 -244t-367 -91h-806v102h45q96 0 122.5 27t26.5 123v862q0 94 -26.5 122t-122.5 28h-45v102h393l313 4q207 0 341 -48t235 -159q172 -195 172 -489zM557 1264v-1031q0 -82 29.5 -107.5t151.5 -25.5q247 0 358 152q106 156 106 422 q0 381 -227 520q-72 45 -147.5 57.5t-270.5 12.5zM766 1485q-148 0 -235 73.5t-95 204.5h109q39 -111 223 -111t221 111h117q-14 -131 -103 -204.5t-237 -73.5z" glyph-name="glyph421" horiz-adv-x="1597"/><glyph d="M1425 102h45v-102h-661v102h92q33 0 53.5 15t20.5 37t-14 53l-99 248h-418l-94 -248q-12 -25 -12 -53t17.5 -40t62.5 -12h92v-102h-524v102q92 -2 137 28t80 116l456 1140h132l464 -1140q39 -92 69 -118t101 -26zM819 555l-166 428l-172 -428h338zM728 1769q60 0 103 -43 t43 -103t-43 -103t-103 -43t-103 43t-43 103t43 103t103 43z" glyph-name="glyph422" horiz-adv-x="1458"/><glyph d="M811 1264h-254v-492h84q102 0 140 37t48 145h101v-485h-101q0 113 -45 158t-157 45h-70v-420q0 -94 29 -122t119 -28h45v-102h-684v102h47q92 0 121 28t28 122v862q0 94 -24 119q-35 31 -125 31h-47v102h1075l43 -356h-105q-43 160 -93 207t-175 47zM620 1769 q60 0 103 -43t43 -103t-43 -103t-103 -43t-103.5 43t-43.5 103t43.5 103t103.5 43z" glyph-name="glyph423" horiz-adv-x="1239"/><glyph d="M801 -35q-158 0 -213 121q-143 -121 -295 -121q-102 0 -163.5 69.5t-61.5 182.5q0 158 127 236q33 20 67.5 31.5t146.5 37.5t179 51v115q0 125 -123 125q-80 0 -107 -55q-8 -20 -20 -86q-12 -78 -107 -78q-51 0 -85.5 28.5t-34.5 72.5t35.5 95.5t91.5 83.5q102 64 262 64 t266 -90q47 -41 63.5 -91t16.5 -163v-379q0 -49 12 -67.5t45 -18.5t48.5 25.5t19.5 91.5h96q-2 -131 -72.5 -206t-193.5 -75zM440 135q56 0 148 70v244l-144 -46q-117 -37 -116 -147q0 -53 28 -87t84 -34zM571 1329q45 0 45 -31q0 -16 -24 -34l-309 -236q-13 -10 -29 -10 t-28.5 10t-12.5 22t14 40l148 239h196zM944 1329q43 0 43 -31q0 -16 -24 -34l-310 -236q-14 -10 -28.5 -10t-26.5 10t-12 22t12 40l147 239h199z" glyph-name="glyph424" horiz-adv-x="1040"/><glyph d="M801 -35q-158 0 -213 121q-143 -121 -295 -121q-102 0 -163.5 69.5t-61.5 182.5q0 158 127 236q33 20 67.5 31.5t146.5 37.5t179 51v115q0 125 -123 125q-80 0 -107 -55q-8 -20 -20 -86q-12 -78 -107 -78q-51 0 -85.5 28.5t-34.5 72.5t35.5 95.5t91.5 83.5q102 64 262 64 t266 -90q47 -41 63.5 -91t16.5 -163v-379q0 -49 12 -67.5t45 -18.5t48.5 25.5t19.5 91.5h96q-2 -131 -72.5 -206t-193.5 -75zM440 135q56 0 148 70v244l-144 -46q-117 -37 -116 -147q0 -53 28 -87t84 -34zM506 1315q57 0 98 -41t41 -98.5t-40 -98.5t-98 -41t-99 41t-41 98.5 t41 98.5t98 41z" glyph-name="glyph425" horiz-adv-x="1040"/><glyph d="M291 1364v-444q0 -43 15.5 -56.5t64.5 -15.5v-43h-279v43l10 2q47 2 60.5 14.5t13.5 55.5v331h-78v45q104 12 170 68h23z" glyph-name="one.numr" horiz-adv-x="454"/><glyph d="M272 1222q0 88 -67 87q-31 0 -50.5 -22.5t-19.5 -57.5q0 -53 68 -66q-27 -43 -67 -43t-62.5 28t-22.5 78t48 93t120 43t120 -44t48 -112q0 -117 -160 -258l-65 -57h78q74 0 91 11t36 65h49l-37 -162h-344l10 51q127 123 164 182q63 96 63 184z" glyph-name="two.numr" horiz-adv-x="454"/><glyph d="M220 1313q-54 1 -54 -45q0 -20 11 -32q11 -11 11 -17q0 -21 -37 -21q-73 -1 -73 64q0 45 42 74.5t108 29.5t114.5 -40t48.5 -97q0 -80 -88 -121q98 -37 98 -137q0 -74 -57 -123t-136 -49t-124 31.5t-45 74.5q0 86 90 86q25 0 25 -12q0 -5 -9 -23t-9 -43t18 -40t52 -15 t58.5 32t24.5 82t-14.5 78.5t-32.5 28.5t-34 -9t-30 -9t-25.5 12t-11.5 29q0 33 37 33q10 0 21 -5l26 -4q53 0 54 99q0 39 -16.5 63.5t-42.5 24.5z" glyph-name="three.numr" horiz-adv-x="454"/><glyph d="M326 1356v-367h6q39 0 49 39h47l-31 -96h-71v-12q0 -51 8 -60.5t51 -11.5v-43h-227v43q37 0 48 14.5t11 57.5v12h-192l249 424h52zM217 989v185l-104 -185h104z" glyph-name="four.numr" horiz-adv-x="454"/><glyph d="M385 1000q0 -78 -57.5 -139.5t-129.5 -61.5t-119.5 33.5t-47.5 78.5q0 23 14 38.5t35 15.5q47 -1 47 -55t40 -54t73.5 52.5t33.5 113.5q0 86 -57 86q-37 0 -55 -41q-12 -23 -17.5 -28t-19.5 -5q-23 0 -23 19v4l37 301q127 -17 131 -17q70 0 99 33l34 -20 q-39 -106 -165 -107q-12 0 -58 4l-14 -106q41 23 89 23t89 -45t41 -123z" glyph-name="five.numr" horiz-adv-x="454"/><glyph d="M246 1180q70 0 117 -52.5t47 -133.5t-54.5 -138t-135.5 -57t-130 65.5t-49 189.5t74.5 217t183.5 93q43 0 70.5 -16.5t27.5 -38.5t-13 -35.5t-36 -13.5t-41 24.5t-49 24.5q-64 0 -94 -154q45 25 82 25zM227 1124q-74 0 -73.5 -135t70.5 -135t71 135q0 135 -68 135z" glyph-name="six.numr" horiz-adv-x="454"/><glyph d="M159.5 799q-22.5 0 -39 13t-16.5 37t56 124l164 289h-136q-45 0 -60 -13.5t-32 -62.5h-47l33 180h41q0 -10 18 -10h277l-109 -277q-44 -110 -61 -154t-20 -50.5t-10 -26.5t-21.5 -34.5t-37 -14.5z" glyph-name="seven.numr" horiz-adv-x="454"/><glyph d="M225 799q-78 0 -129 44t-51 109q0 90 105 133q-86 53 -86 125t48 114t118 42t114.5 -39t44.5 -109t-82 -114q103 -68 103 -143t-53.5 -118.5t-131.5 -43.5zM229.5 852q32.5 0 54 22.5t21.5 55.5t-19.5 57.5t-49.5 42.5t-33 23q-92 -110 -49 -155.5t75.5 -45.5zM295 1227 q0 41 -19.5 64.5t-49.5 23.5t-49 -20.5t-19 -49.5q0 -53 94 -110q43 51 43 92z" glyph-name="eight.numr" horiz-adv-x="454"/><glyph d="M207 991q-68 0 -114 53.5t-46 133.5t50 132t133 52t131.5 -63.5t48.5 -189.5t-63.5 -218t-162.5 -92q-53 0 -92 25.5t-39 51.5t13.5 40t31.5 14q35 0 46 -39t42 -39q72 0 107 166q-51 -27 -86 -27zM225 1047q74 0 74 131t-71 131q-70 0 -70 -131t67 -131z" glyph-name="nine.numr" horiz-adv-x="454"/><glyph d="M228 1358q75 0 128.5 -82t53.5 -199t-53.5 -197.5t-129 -80.5t-130 82.5t-54.5 196.5t55 197t130 83zM226 1303q-66 -1 -66 -225t66 -224t67 224q0 224 -67 225z" glyph-name="zero.numr" horiz-adv-x="454"/><glyph d="M291 557v-442q0 -43 15.5 -56.5t64.5 -15.5v-43h-279v43l10 2q47 2 60.5 14.5t13.5 55.5v331h-78v46q104 12 170 65h23z" glyph-name="one.dnom" horiz-adv-x="454"/><glyph d="M272 418q0 84 -67 84q-31 0 -50.5 -21.5t-19.5 -56.5q0 -51 68 -68q-29 -41 -68 -41t-61.5 28t-22.5 77t48 92t120 43t120 -44t48 -112q0 -119 -160 -256l-65 -57h78q74 0 91 11.5t36 64.5h49l-37 -162h-344l10 51q123 119 175 201t52 166z" glyph-name="two.dnom" horiz-adv-x="454"/><glyph d="M220 506q-54 0 -54 -46q0 -20 11 -31t11 -17q0 -20 -37 -20q-73 -1 -73 63q0 45 42 74.5t108 29.5t114.5 -40t48.5 -97q0 -78 -88 -119q98 -39 98 -139q0 -72 -57 -121t-136 -49t-124 31.5t-45 73.5t24.5 63.5t57.5 21.5t33 -12q0 -4 -9 -22t-9 -42t18 -39.5t53 -15.5 t58.5 32t23.5 81t-14.5 77.5t-36.5 28.5l-58 -16q-16 0 -27.5 12.5t-11.5 28.5q0 33 37 33q14 0 47 -11q53 0 54 99q0 39 -16.5 63.5t-42.5 24.5z" glyph-name="three.dnom" horiz-adv-x="454"/><glyph d="M326 551v-367h6q39 0 49 37h47l-31 -94h-71v-12q0 -51 8 -60.5t51 -11.5v-43h-227v43q37 0 48 14.5t11 57.5v12h-192l249 424h52zM217 184v185l-104 -185h104z" glyph-name="four.dnom" horiz-adv-x="454"/><glyph d="M385 194q0 -78 -57.5 -139t-129.5 -61t-119.5 33.5t-47.5 66.5q0 64 48 64t48 -54t40 -53q40 0 73.5 52.5t33.5 113.5q0 84 -57 84q-23 0 -35 -11t-30 -46q-8 -14 -29 -14t-21 16v6l37 299q93 -17 147 -17t83 33l34 -20q-39 -106 -165 -107q-25 0 -58 6l-14 -108 q41 22 89 22t89 -44t41 -122z" glyph-name="five.dnom" horiz-adv-x="454"/><glyph d="M246 373q70 0 117 -52.5t47 -132.5t-54.5 -137t-135.5 -57t-130 65.5t-49 188.5t74.5 216t183.5 93q43 0 70.5 -16.5t27.5 -37.5t-13 -34.5t-36 -13.5q-23 -1 -42 23t-40 24q-71 0 -102 -152q45 23 82 23zM227 317q-73 0 -73 -134t70 -134t71 134q0 134 -68 134z" glyph-name="six.dnom" horiz-adv-x="454"/><glyph d="M159.5 -6q-22.5 0 -39 13t-16.5 37t56 124l164 289h-136q-45 0 -60 -13.5t-32 -62.5h-47l33 180h41q0 -10 18 -10h277l-109 -277q-8 -18 -26.5 -66t-36.5 -92t-27 -70q-8 -24 -22.5 -38t-37 -14z" glyph-name="seven.dnom" horiz-adv-x="454"/><glyph d="M225 -6q-78 0 -129 44t-51 109q0 88 105 132q-86 57 -86 127t48 112.5t118 42.5t114.5 -39.5t44.5 -109.5t-82 -115q103 -68 103 -142t-53.5 -117.5t-131.5 -43.5zM147 132q0 -34 23.5 -59.5t57.5 -25.5t55.5 22.5t21.5 74t-102 102.5q-35 -41 -45.5 -60.5t-10.5 -53.5z M295 422q0 41 -19.5 64.5t-49.5 23.5t-49 -20.5t-19 -49.5q0 -57 94 -110q43 51 43 92z" glyph-name="eight.dnom" horiz-adv-x="454"/><glyph d="M207 186q-68 0 -114 52.5t-46 132.5t50 132t133 52t131.5 -62.5t48.5 -189.5t-63.5 -218t-162.5 -91q-53 0 -92 26t-39 52t13.5 39.5t31.5 13.5q35 0 46 -39t42 -39q72 0 107 164q-51 -25 -86 -25zM225 242q74 0 74 130t-71 130q-70 0 -70 -130t67 -130z" glyph-name="nine.dnom" horiz-adv-x="454"/><glyph d="M227.5 551q75.5 0 129 -82t53.5 -198t-53.5 -196.5t-129 -80.5t-130 83t-54.5 195.5t54.5 195.5t130 83zM226 49q66 -1 67 223q0 224 -67 224t-66.5 -223.5t66.5 -223.5z" glyph-name="zero.dnom" horiz-adv-x="454"/><glyph d="M78 664q0 274 130 478t306 204q109 0 217 -95l55 119l80 -37l-71 -153q151 -207 151 -513t-139 -503q-131 -180 -293 -180q-113 0 -227 104l-49 -104l-80 36l65 142q-68 94 -106.5 228t-38.5 274zM514 1235q-39 0 -72.5 -34t-54.5 -91q-51 -162 -51 -446q0 -101 12 -236 l303 649q-47 158 -137 158zM514 94q176 0 176 570q0 162 -12 264l-305 -656q43 -178 141 -178z" glyph-name="glyph446"/><glyph d="M426 1399v-649q0 -90 12 -109q25 -35 97 -35h14v-59h-410v59q8 2 17 2h30q49 4 64 47q10 23 10 95v485h-121v63q131 10 256 101h31zM375 0l637 1366h108l-637 -1366h-108zM1260 854v-651q0 -90 12 -109q25 -35 96 -35h14v-59h-409v59q8 2 16 2h31q49 4 63 48q10 23 11 94 v487h-121v62q139 14 256 102h31z" glyph-name="one_slash_one.frac" horiz-adv-x="1488"/><glyph d="M426 1399v-649q0 -90 12 -109q25 -35 97 -35h14v-59h-410v59q8 2 17 2h30q49 4 64 47q10 23 10 95v485h-121v63q131 10 256 101h31zM375 0l637 1366h108l-637 -1366h-108zM1196 537q76 0 138.5 -68.5t62.5 -182.5t-89.5 -210t-197.5 -96t-178 50t-70 120q0 33 22.5 55 t52.5 22t48.5 -20.5t18.5 -52.5v-17q-8 -39 13 -58.5t46 -19.5q68 0 119 79t51 184q0 129 -92 129q-37 0 -55.5 -16.5t-43.5 -72.5q-12 -20 -40 -20t-27 27q0 4 4 34l57 422q12 -2 23 -2l80 -12q41 -4 101 -4t88.5 8t57.5 37l48 -27q-80 -156 -238 -155q-31 0 -106 8 l-25 -182q55 41 131 41z" glyph-name="one_slash_five.frac" horiz-adv-x="1488"/><glyph d="M408 1180q0 63 -28 100t-74 37t-77.5 -34t-31.5 -83q0 -86 86 -110q8 -2 8 -9q0 -18 -33.5 -37.5t-73.5 -19.5t-74 41t-34 104q0 96 71.5 161t179.5 65t178 -65.5t70 -167.5t-58 -192.5t-210 -232.5l-76 -67h193q53 0 79.5 24.5t47.5 89.5h65l-55 -237h-506l19 78 q334 309 334 555zM375 0l637 1366h108l-635 -1366h-110zM1036 825q108 -18 186 -18t106.5 8t57.5 37l48 -27q-80 -156 -238 -155q-31 0 -104 8l-27 -182q55 41 132 41t139.5 -68.5t62.5 -182.5t-89.5 -210t-197.5 -96t-178 50t-70 120q0 33 22.5 55t52.5 22t48.5 -20.5 t18.5 -52.5v-17q-2 -10 -2 -27t18 -34t43 -17q68 0 119 79t51 184q0 129 -92 129q-37 0 -55.5 -16.5t-45.5 -72.5q-8 -20 -38 -20t-29 27q0 4 4 34z" glyph-name="two_slash_five.frac" horiz-adv-x="1488"/><glyph d="M260 1165q0 -32 -74 -32q-34 0 -60 25.5t-26 66.5q0 70 64 115.5t164 45.5t169.5 -59t69.5 -149q0 -128 -139 -185q76 -20 118 -76.5t42 -134.5q0 -113 -87 -185.5t-205 -72.5t-181.5 46t-63.5 110t35 95.5t82 31.5t47 -14q0 -4 -12 -32q-13 -28 -13 -65t29 -63.5 t81 -26.5t87 51t35 129t-23 122t-51 44t-55 -12t-42 -12t-32.5 18.5t-17.5 40.5q0 41 53 41l72 -10q35 0 57.5 41t22.5 104q0 147 -103 148q-35 0 -56.5 -19.5t-21.5 -53.5q-1 -34 17 -51t18 -22zM375 0l637 1366h108l-635 -1366h-110zM1036 825q108 -18 186 -18t106.5 8 t57.5 37l48 -27q-80 -156 -238 -155q-31 0 -104 8l-27 -182q55 41 132 41t139.5 -68.5t62.5 -182.5t-89.5 -210t-197.5 -96t-178 50t-70 120q0 33 22.5 55t52.5 22t48.5 -20.5t18.5 -52.5v-17q-2 -10 -2 -27t18 -34t43 -17q68 0 119 79t51 184q0 129 -92 129 q-37 0 -55.5 -16.5t-45.5 -72.5q-8 -20 -38 -20t-29 27q0 4 4 34z" glyph-name="three_slash_five.frac" horiz-adv-x="1488"/><glyph d="M473 743v-47q0 -47 8 -63q10 -29 70 -29h12v-57h-334v57q6 2 32 2t44.5 20.5t18.5 69.5v47h-291l373 646h67v-570q20 4 23 4q47 0 63 45l4 9h64l-45 -134h-109zM324 819v311l-172 -311h172zM375 0l637 1366h108l-637 -1366h-108zM1036 825q108 -18 186 -18t106.5 8 t55.5 37l50 -27q-82 -156 -238 -155q-31 0 -106 8l-25 -182q55 41 131 41t138.5 -68.5t62.5 -182.5t-89.5 -210t-197.5 -96t-178 50t-70 120q0 33 22.5 55t52.5 22t48.5 -20.5t18.5 -52.5v-17q-8 -39 13 -58.5t46 -19.5q68 0 119 79t51 184q0 129 -92 129q-37 0 -55.5 -16.5 t-43.5 -72.5q-12 -20 -40 -20t-27 27q0 4 4 34z" glyph-name="four_slash_five.frac" horiz-adv-x="1488"/><glyph d="M426 1399v-649q0 -90 12 -109q25 -35 97 -35h14v-59h-410v59q8 2 17 2h30q49 4 64 47q10 23 10 95v485h-121v63q131 10 256 101h31zM375 0l637 1366h108l-637 -1366h-108zM1188 559q104 0 175 -79.5t71 -201.5t-81 -210t-202 -88t-194.5 100t-73.5 290t111.5 333 t275.5 143q66 0 107.5 -25.5t41.5 -58.5t-20.5 -52.5t-50.5 -19.5t-61 39q-30 39 -60 39q-123 0 -166 -250q66 41 127 41zM1163 479q-55 0 -85.5 -54t-30.5 -155q0 -209 112 -209q106 0 106 209t-102 209z" glyph-name="one_slash_six.frac" horiz-adv-x="1488"/><glyph d="M363 1083q77 0 139.5 -67.5t62.5 -181.5t-89.5 -211t-197.5 -97t-177.5 50.5t-69.5 119.5q0 33 22.5 55.5t52.5 22.5t48 -20.5t18 -53.5v-16q-2 -10 -2 -28t18.5 -34t42.5 -16q68 0 119 79t51 183q0 129 -92 129q-37 0 -55 -16t-45 -72q-8 -20 -38 -20t-30 26q0 4 4 35 l60 422q10 -2 20 -2l82 -12q37 -4 99 -4t90 8t57 37l49 -27q-82 -156 -240 -155q-31 0 -104 8l-27 -183q55 41 132 41zM377 0l635 1366h108l-635 -1366h-108zM1188 559q106 0 177 -79.5t71 -201.5t-81 -210t-202 -88t-194.5 100t-73.5 290t111.5 333t275.5 143 q66 0 107.5 -25.5t41.5 -58.5t-20.5 -52.5t-50.5 -19.5t-61 39q-30 39 -60 39q-123 0 -168 -250q66 41 127 41zM1165 479q-55 0 -85.5 -54t-30.5 -155q0 -209 112 -209q106 0 106 209t-102 209z" glyph-name="five_slash_six.frac" horiz-adv-x="1488"/><glyph d="M511 1769q60 0 103 -43t43 -103t-43 -103t-103 -43t-103 43t-43 103t43 103t103 43z" glyph-name="dotaccent.aalt"/><glyph d="M513 1892q91 0 153.5 -63.5t62.5 -153.5t-63.5 -153.5t-153.5 -63.5t-153.5 63.5t-63.5 153.5t63.5 153.5t154.5 63.5zM512 1782q-43 0 -74.5 -31t-31.5 -76t30.5 -75.5t75.5 -30.5t75.5 30.5t30.5 74.5t-31.5 76t-74.5 32z" glyph-name="ring.aalt"/><glyph d="M821 1512q0 -22 -15 -37t-39 -15t-46 17l-207 147l-205 -145q-55 -37 -79.5 -12.5t-24.5 43.5t33 51l274 264l270 -254q39 -37 39 -59z" glyph-name="circumflex.aalt"/><glyph d="M507 1485q-146 0 -233.5 73.5t-95.5 204.5h109q37 -111 220 -111t224 111h115q-14 -131 -103.5 -204.5t-235.5 -73.5z" glyph-name="breve.aalt"/><glyph d="M633 1513q-59 0 -149 36t-126 36t-61 -16.5t-59 -63.5l-78 49q47 88 114.5 140.5t127.5 52.5t156 -36t138 -36t99 66l67 -58q-109 -170 -229 -170z" glyph-name="tilde.aalt"/><glyph d="M729 -270q0 -92 -64.5 -144.5t-162.5 -52.5t-201 51l33 66q82 -27 130 -27t82 27.5t34 69.5t-33 64.5t-113 37.5l58 178h79l-39 -121q66 -10 95 -20q102 -37 102 -129z" glyph-name="cedilla.aalt"/><glyph d="M1012 -139q0 -31 23.5 -51.5t57.5 -20.5t83 25v-82q-78 -49 -154 -49t-122 35.5t-46 91.5q0 94 131 190h105q-78 -72 -78 -139z" glyph-name="ogonek.aalt"/><glyph d="M369 -246q0 53 37.5 89t102.5 36t110 -52t45 -134q0 -195 -242 -275l-21 43q147 51 148 160q0 12 -2 21q-90 -29 -134 15t-44 97z" glyph-name="uniF6C3.aalt"/><glyph d="M920 1126q0 12 -5 23q-29 -10 -69 -10t-76.5 36.5t-36.5 90.5t39.5 90.5t105.5 36.5t113 -54.5t47 -138.5q0 -198 -250 -282l-20 43q152 57 152 165z" glyph-name="glyph462"/><glyph d="M329 1765q60 0 102 -43t42 -101t-42 -101t-101.5 -43t-102.5 42t-43 102t42.5 102t102.5 42zM703 1765q59 0 102 -43t43 -101t-42 -101t-101.5 -43t-102.5 42t-43 102t42.5 102t101.5 42z" glyph-name="glyph463"/><glyph d="M944 1153q0 10 -2 18q-24 -10 -62 -10t-71 34t-33 83t36 82t96 33t102.5 -49.5t42.5 -124.5q-1 -182 -228 -256l-18 38q137 51 137 152z" glyph-name="glyph464" horiz-adv-x="1077"/><glyph d="M336 1311q57 0 97 -41t40 -97t-40 -96.5t-97 -40.5t-97 40t-40 97.5t40 97.5t97 40zM692 1311q57 0 97 -41t40 -97t-39.5 -96.5t-97 -40.5t-97.5 40t-40 97.5t40 97.5t97 40z" glyph-name="glyph465"/><glyph d="M481 1272q0 -12 2 -25q29 10 65 10t68.5 -32.5t32.5 -82.5t-35.5 -83t-95.5 -33t-102.5 49t-42.5 125q0 184 227 256l18 -39q-137 -49 -137 -145z" glyph-name="glyph466"/><glyph d="M0 709h455v-54h-455v54zM228 1358q75 0 128.5 -82t53.5 -199t-53.5 -197.5t-129 -80.5t-130 82.5t-54.5 196.5t55 197t130 83zM226 1303q-66 -1 -66 -225t66 -224t67 224q0 224 -67 225zM227.5 551q75.5 0 129 -82t53.5 -198t-53.5 -196.5t-129 -80.5t-130 83 t-54.5 195.5t54.5 195.5t130 83zM226 49q66 -1 67 223q0 224 -67 224t-66.5 -223.5t66.5 -223.5z" glyph-name="glyph467" horiz-adv-x="454"/></font>
</defs>
</svg>
