<svg id="svg-source" height="0" version="1.1" 
  xmlns="http://www.w3.org/2000/svg" style="position:absolute; margin-left: -100%" 
  xmlns:xlink="http://www.w3.org/1999/xlink">
  <g id="on" data-iconmelon="80 icons pack:a1f84a83cfb56f9251cd3424a9a1df40">
    <g>
      <g>
        <path d="M15.999,14.488c0.786,0,1.423-0.637,1.423-1.422V1.422C17.422,0.637,16.785,0,15.999,0c-0.784,0-1.422,0.637-1.422,1.422
			v11.645C14.577,13.852,15.215,14.488,15.999,14.488z"></path>
      </g>
      <g>
        <path d="M24.241,5.956C23.6,5.503,22.711,5.657,22.259,6.3c-0.452,0.642-0.299,1.529,0.344,1.981
			c3.059,2.155,4.885,5.664,4.885,9.388c0,6.334-5.153,11.486-11.488,11.486c-6.333,0-11.486-5.152-11.486-11.486
			c0-3.723,1.825-7.232,4.884-9.388c0.643-0.452,0.796-1.34,0.343-1.981C9.288,5.657,8.4,5.504,7.759,5.956
			c-3.813,2.688-6.09,7.065-6.09,11.713C1.669,25.571,8.097,32,15.999,32c7.903,0,14.332-6.429,14.332-14.331
			C30.331,13.021,28.055,8.644,24.241,5.956z"></path>
      </g>
    </g>
  </g>
</svg>